<?xml version="1.0" encoding="UTF-8"?>
<!DOCTYPE svg PUBLIC "-//W3C//DTD SVG 1.1//EN" "http://www.w3.org/Graphics/SVG/1.1/DTD/svg11.dtd">
<!-- Creator: CorelDRAW -->
<svg xmlns="http://www.w3.org/2000/svg" xml:space="preserve" width="160px" height="160px" version="1.1" style="shape-rendering:geometricPrecision; text-rendering:geometricPrecision; image-rendering:optimizeQuality; fill-rule:evenodd; clip-rule:evenodd"
viewBox="0 0 160 160"
 xmlns:xlink="http://www.w3.org/1999/xlink"
 xmlns:xodm="http://www.corel.com/coreldraw/odm/2003">
 <defs>
  <style type="text/css">
   <![CDATA[
    .fil2 {fill:#FEFEFE}
    .fil0 {fill:#DA3735}
    .fil1 {fill:#FEFEFE;fill-rule:nonzero}
   ]]>
  </style>
 </defs>
 <g id="Слой_x0020_1">
  <metadata id="CorelCorpID_0Corel-Layer"/>
  <rect class="fil0" x="-1.73" y="-0.03" width="160" height="160"/>
  <g id="_2856736474032">
   <g>
    <path class="fil1" d="M9.64 124.68c0.57,-1.42 1.2,-3.68 1.37,-7.03 0.01,-0.22 0.19,-0.4 0.41,-0.4l3.55 0 0 7.43 -5.33 0zm8 -10.09l-6.56 0c-1.46,0 -2.67,1.14 -2.72,2.59 -0.18,4.54 -1.28,6.81 -1.69,7.5l-0.39 0c-0.88,0 -1.59,0.71 -1.59,1.58l0 3.15 2.67 0 0 -2.07 8.94 0 0 2.07 2.66 0 0 -4.73 -1.32 0 0 -10.09z"/>
    <path class="fil1" d="M104.92 124.96c-2.21,0 -4.01,-1.79 -4.01,-4 0,-2.21 1.8,-4 4.01,-4 2.2,0 4,1.79 4,4 0,2.21 -1.8,4 -4,4zm0 -10.67c-3.68,0 -6.67,2.99 -6.67,6.67 0,3.68 2.99,6.67 6.67,6.67 3.67,0 6.66,-2.99 6.66,-6.67 0,-3.68 -2.99,-6.67 -6.66,-6.67z"/>
    <path class="fil1" d="M121.03 120.85c-0.7,0.23 -1.7,0.35 -2.33,0.36 -0.92,0 -1.6,-0.22 -2.02,-0.66 -0.64,-0.66 -0.62,-1.69 -0.62,-1.69l0 -4.27 -2.67 0 0 4.18c-0.01,0.36 0,2.19 1.34,3.6 0.95,1 2.29,1.51 3.99,1.51l0 0c0.17,0 1.2,-0.03 2.31,-0.28l0 3.73 2.67 0 0 -4.14 0 -3.07 0 -5.53 -2.67 0 0 6.26z"/>
    <path class="fil1" d="M28.31 124.67l-4.44 0 0 -2.11c0,-0.23 0.18,-0.42 0.42,-0.42l4.08 0c0.74,0 1.33,0.64 1.25,1.39 -0.06,0.66 -0.65,1.14 -1.31,1.14zm-4.44 -7c0,-0.23 0.18,-0.42 0.42,-0.42l3.72 0c0.53,0 1.01,0.36 1.12,0.88 0.14,0.71 -0.4,1.34 -1.09,1.34l-4.17 0 0 -1.8zm7.94 0.37c-0.17,-1.97 -1.9,-3.45 -3.88,-3.45l-5.05 0c-0.93,0 -1.68,0.75 -1.68,1.68l0 11.06 7.06 0c2.09,0 3.91,-1.59 4.03,-3.69 0.07,-1.2 -0.4,-2.29 -1.2,-3.06 0.52,-0.7 0.8,-1.59 0.72,-2.54z"/>
    <path class="fil1" d="M54.96 116.27l0 11.06 2.67 0 0 -9.66c0,-0.23 0.19,-0.42 0.42,-0.42l5.08 0 0 10.08 2.66 0 0 -12.74 -9.15 0c-0.92,0 -1.68,0.75 -1.68,1.68z"/>
    <path class="fil1" d="M74.86 124.96c-2.21,0 -4,-1.79 -4,-4 0,-2.21 1.79,-4 4,-4 2.21,0 4,1.79 4,4 0,2.21 -1.79,4 -4,4zm4 -8.93c-1.13,-1.08 -2.64,-1.74 -4.29,-1.74 -3.52,0 -6.38,2.99 -6.38,6.67 0,3.68 2.86,6.67 6.38,6.67 1.65,0 3.16,-0.66 4.29,-1.74l0 1.44 2.67 0 0 -12.74 -2.67 0 0 1.44z"/>
    <polygon class="fil1" points="138.47,114.59 134.92,114.59 131.51,119.37 129.62,119.37 129.62,114.59 126.96,114.59 126.96,127.33 129.62,127.33 129.62,122.04 131.52,122.04 135.34,127.33 138.95,127.33 133.98,120.69 "/>
    <polygon class="fil1" points="149.89,114.59 143.55,122.28 143.55,114.59 140.89,114.59 140.89,127.33 142.85,127.33 149.19,119.64 149.19,127.33 151.85,127.33 151.85,114.59 "/>
    <path class="fil1" d="M87.03 116.24c0,0.07 -0.01,0.12 -0.01,0.16 -0.05,1.26 -0.24,4.69 -1.01,6.87 -0.29,0.83 -1.08,1.39 -1.97,1.39l-0.24 0.06 0.24 2.61c2.02,0 3.82,-1.28 4.49,-3.17 0.76,-2.16 1.03,-5.18 1.12,-6.9l3.48 0 0 10.08 2.67 0 0 -12.75 -7.09 0c-0.92,0 -1.66,0.74 -1.68,1.65z"/>
    <path class="fil1" d="M36.72 119.63c0.17,-0.49 0.44,-0.94 0.79,-1.34 0.76,-0.84 1.85,-1.33 2.99,-1.33 1.74,0 3.22,1.11 3.77,2.67l-7.55 0zm3.78 -5.34c-1.9,0 -3.71,0.81 -4.97,2.23 -1.27,1.41 -1.87,3.31 -1.66,5.21 0.35,3.12 2.88,5.59 6.01,5.87 0.21,0.02 0.41,0.03 0.62,0.03 1.82,0 3.55,-0.74 4.82,-2.06l0.39 -0.41 -1.69 -0.97 -0.7 -0.4c-0.84,0.84 -2,1.26 -3.2,1.15 -1.34,-0.12 -2.49,-0.9 -3.12,-2.02 -0.15,-0.28 0.05,-0.63 0.37,-0.63l8.46 0c0.73,0 1.33,-0.58 1.34,-1.31 0.01,-3.69 -2.99,-6.69 -6.67,-6.69z"/>
   </g>
   <path class="fil2" d="M26.16 30.53c-0.55,4.02 -0.17,7.59 1.45,11.8 1.63,4.2 4.43,7.23 8.4,9.06l16.79 7.77c1.79,0.82 2.74,1.62 4.27,2.92 2.38,2 2.44,4.8 3.27,6.32 0.71,-2.26 1.08,-4.17 1.11,-5.71 0.14,-3.17 -0.34,-6.91 -1.91,-10.06 -1.58,-3.21 -5.91,-7.07 -9.78,-8.86l-16.55 -7.65c-1,-0.47 -2.18,-1.21 -3.53,-2.22 -1.33,-1.05 -3.02,-2.75 -3.52,-3.37zm80.05 52.97c-5.68,-11.51 -16.69,-20.62 -29.43,-23.01 5.54,-7.97 14.12,-13.43 24.49,-13.67l-0.12 -9.5c0,0 -1.2,0 -3.18,0.25 -14.78,1.89 -26.17,10.09 -32.64,23.37 -2.65,5.44 -4.52,12.33 -4.63,16.94l9.57 -0.08c0,0 0.19,-2.65 1.32,-6.47l0.58 -1.79c16.07,2.05 27.95,15.2 29.35,30.9l9.56 -0.08c0,0 0.19,-2.66 1.33,-6.47 2.88,-9.66 9.38,-17.9 18.22,-21.91l0 -10.06c-10.81,3.45 -19.2,10.86 -24.42,21.58z"/>
  </g>
 </g>
</svg>
