<?xml version="1.0" encoding="utf-8"?>
<!-- Generator: Adobe Illustrator 25.2.3, SVG Export Plug-In . SVG Version: 6.00 Build 0)  -->
<svg version="1.1" xmlns="http://www.w3.org/2000/svg" xmlns:xlink="http://www.w3.org/1999/xlink" x="0px" y="0px"
	 viewBox="0 0 120 120" style="enable-background:new 0 0 120 120;" xml:space="preserve">
<style type="text/css">
	.st0{fill:#7B66A8;}
</style>
<g id="Layer_1">
</g>
<g id="Isolation_Mode">
	<g>
		<path class="st0" d="M2.8,75.1c0-13.5,10.3-19.7,24.9-19.7c6.2,0,10.7,1,15.1,2.5v-1c0-7.3-4.5-11.3-13.3-11.3
			c-6.7,0-11.4,1.3-17.1,3.3L8.1,35.5c6.8-3,13.5-5,24-5c9.6,0,16.5,2.5,20.9,6.9c4.6,4.6,6.7,11.4,6.7,19.7v35.9h-17v-6.7
			c-4.3,4.7-10.2,7.8-18.7,7.8C12.3,94.3,2.8,87.6,2.8,75.1 M43,71.3v-3.1c-3-1.4-6.9-2.3-11.2-2.3c-7.5,0-12.1,3-12.1,8.8
			c0,4.7,3.9,7.5,9.6,7.5C37.5,82.2,43,77.7,43,71.3"/>
		<path class="st0" d="M77.5,97.7C93.1,86.9,99.8,76.3,99.8,60c0-16.3-6.7-26.9-22.3-37.7l7.7-11.7c21.2,11.5,32,27.2,32,49.4
			c0,22.2-10.7,37.8-32,49.4L77.5,97.7z"/>
	</g>
</g>
</svg>
