<?xml version="1.0" encoding="UTF-8"?>
<!DOCTYPE svg PUBLIC "-//W3C//DTD SVG 1.1//EN" "http://www.w3.org/Graphics/SVG/1.1/DTD/svg11.dtd">
<!-- Creator: CorelDRAW -->
<svg xmlns="http://www.w3.org/2000/svg" xml:space="preserve" width="160px" height="160px" version="1.1" style="shape-rendering:geometricPrecision; text-rendering:geometricPrecision; image-rendering:optimizeQuality; fill-rule:evenodd; clip-rule:evenodd"
viewBox="0 0 160 160"
 xmlns:xlink="http://www.w3.org/1999/xlink"
 xmlns:xodm="http://www.corel.com/coreldraw/odm/2003">
 <defs>
  <style type="text/css">
   <![CDATA[
    .fil0 {fill:none}
    .fil88 {fill:#898989}
    .fil122 {fill:#C7D540}
    .fil123 {fill:#C7D53E}
    .fil119 {fill:#C5D446}
    .fil120 {fill:#C5D444}
    .fil121 {fill:#C5D441}
    .fil117 {fill:#C2D34A}
    .fil118 {fill:#C2D347}
    .fil115 {fill:#C0D34C}
    .fil116 {fill:#C0D34A}
    .fil102 {fill:#BDD250}
    .fil100 {fill:#BBD155}
    .fil101 {fill:#BBD152}
    .fil98 {fill:#B8D059}
    .fil99 {fill:#B8D056}
    .fil97 {fill:#B6D05B}
    .fil95 {fill:#B3CF60}
    .fil96 {fill:#B3CF5E}
    .fil94 {fill:#B1CE60}
    .fil92 {fill:#AECD65}
    .fil93 {fill:#AECD63}
    .fil90 {fill:#ABCC68}
    .fil91 {fill:#ABCC65}
    .fil86 {fill:#A8CC6D}
    .fil87 {fill:#A9CC6A}
    .fil89 {fill:#A9CC68}
    .fil85 {fill:#A5CB6D}
    .fil83 {fill:#A3CB72}
    .fil84 {fill:#A3CA6F}
    .fil81 {fill:#A0CA74}
    .fil82 {fill:#A0CA72}
    .fil80 {fill:#9EC976}
    .fil78 {fill:#9AC87B}
    .fil79 {fill:#9AC879}
    .fil76 {fill:#98C87D}
    .fil77 {fill:#98C87B}
    .fil74 {fill:#94C77F}
    .fil75 {fill:#94C77E}
    .fil73 {fill:#91C682}
    .fil71 {fill:#8EC686}
    .fil72 {fill:#8EC584}
    .fil69 {fill:#8AC589}
    .fil70 {fill:#8AC586}
    .fil67 {fill:#88C48A}
    .fil68 {fill:#88C489}
    .fil66 {fill:#84C38D}
    .fil65 {fill:#81C38E}
    .fil63 {fill:#7DC292}
    .fil64 {fill:#7DC291}
    .fil105 {fill:#7AC194}
    .fil62 {fill:#7AC192}
    .fil103 {fill:#76C096}
    .fil104 {fill:#76C094}
    .fil60 {fill:#73C09A}
    .fil61 {fill:#73C098}
    .fil58 {fill:#6EBF9C}
    .fil59 {fill:#6FBF9A}
    .fil56 {fill:#69BE9E}
    .fil57 {fill:#6ABE9C}
    .fil54 {fill:#65BDA2}
    .fil55 {fill:#66BD9F}
    .fil52 {fill:#60BCA3}
    .fil53 {fill:#61BCA1}
    .fil50 {fill:#5DBCA5}
    .fil51 {fill:#5DBCA3}
    .fil48 {fill:#57BBA6}
    .fil49 {fill:#58BBA5}
    .fil47 {fill:#54BAA8}
    .fil44 {fill:#4DB9AC}
    .fil45 {fill:#4EB9AA}
    .fil46 {fill:#4EB9A8}
    .fil42 {fill:#48B9AE}
    .fil43 {fill:#48B8AC}
    .fil40 {fill:#40B8AF}
    .fil41 {fill:#40B7AE}
    .fil39 {fill:#38B7B1}
    .fil37 {fill:#31B6B4}
    .fil38 {fill:#32B6B2}
    .fil35 {fill:#28B5B5}
    .fil36 {fill:#29B5B4}
    .fil33 {fill:#22B4B7}
    .fil34 {fill:#23B4B5}
    .fil110 {fill:#1AB3B8}
    .fil32 {fill:#1BB3B7}
    .fil108 {fill:#14B3BB}
    .fil109 {fill:#15B3BA}
    .fil106 {fill:#0DB2BD}
    .fil107 {fill:#0EB2BB}
    .fil30 {fill:#0AB1BF}
    .fil31 {fill:#0AB1BD}
    .fil28 {fill:#06B0C0}
    .fil29 {fill:#06B0BF}
    .fil26 {fill:#01B0C3}
    .fil27 {fill:#02B0C2}
    .fil24 {fill:#00AFC5}
    .fil25 {fill:#00AFC3}
    .fil22 {fill:#00AEC6}
    .fil23 {fill:#00AEC4}
    .fil20 {fill:#00AEC8}
    .fil21 {fill:#00ADC6}
    .fil18 {fill:#00ADC9}
    .fil19 {fill:#00ACC7}
    .fil16 {fill:#00ACCC}
    .fil17 {fill:#00ACCA}
    .fil14 {fill:#00ABCD}
    .fil15 {fill:#00ABCC}
    .fil12 {fill:#00ABD0}
    .fil13 {fill:#00AACF}
    .fil10 {fill:#00AAD1}
    .fil11 {fill:#00A9CF}
    .fil9 {fill:#00A9D1}
    .fil7 {fill:#00A8D4}
    .fil8 {fill:#00A8D2}
    .fil5 {fill:#00A7D6}
    .fil6 {fill:#00A7D4}
    .fil3 {fill:#00A7D7}
    .fil4 {fill:#00A6D6}
    .fil1 {fill:#00A6D9}
    .fil2 {fill:#00A6D7}
    .fil113 {fill:#00A5DA}
    .fil114 {fill:#00A5D8}
    .fil112 {fill:#00A4DB}
    .fil124 {fill:#00A4DE}
    .fil111 {fill:#00A4DC}
   ]]>
  </style>
 </defs>
 <g id="Слой_x0020_1">
  <metadata id="CorelCorpID_0Corel-Layer"/>
  <rect class="fil0" x="-1.73" y="-0.03" width="160" height="160"/>
  <g id="_2892745505984">
   <path class="fil1" d="M66.56 65.35l0 5.79c-0.15,-0.89 -0.23,-1.87 -0.23,-2.92 0,-1.03 0.08,-1.99 0.23,-2.87z"/>
   <path class="fil2" d="M66.9 63.9l0 8.7c-0.14,-0.46 -0.25,-0.95 -0.34,-1.46l0 -5.79c0.09,-0.51 0.2,-0.99 0.34,-1.45z"/>
   <path class="fil3" d="M67.24 62.93l0 10.63c-0.13,-0.31 -0.24,-0.63 -0.34,-0.96l0 -8.7c0.1,-0.34 0.21,-0.66 0.34,-0.97z"/>
   <path class="fil4" d="M67.57 62.19l0 12.09c-0.12,-0.23 -0.23,-0.47 -0.33,-0.72l0 -10.63c0.1,-0.26 0.21,-0.5 0.33,-0.74z"/>
   <path class="fil4" d="M67.91 61.59l0 13.27c-0.12,-0.18 -0.23,-0.38 -0.34,-0.58l0 -12.09c0.11,-0.21 0.22,-0.41 0.34,-0.6z"/>
   <path class="fil5" d="M68.25 61.09l0 14.26c-0.12,-0.16 -0.23,-0.32 -0.34,-0.49l0 -13.27c0.11,-0.17 0.22,-0.34 0.34,-0.5z"/>
   <path class="fil6" d="M68.58 60.67l0 4.39c-0.09,0.5 -0.14,1.08 -0.2,1.95l0.2 0 0 1.65 -0.2 0c0,0.87 0.07,1.66 0.2,2.39l0 4.71c-0.11,-0.13 -0.23,-0.27 -0.33,-0.41l0 -14.26c0.1,-0.14 0.22,-0.28 0.33,-0.42z"/>
   <path class="fil6" d="M68.92 60.3l0 3.48c-0.15,0.46 -0.26,0.83 -0.34,1.28l0 -4.39c0.11,-0.13 0.22,-0.25 0.34,-0.37zm0 6.71l0 1.65 -0.34 0 0 -1.65 0.34 0zm0 5.35l0 3.75c-0.12,-0.11 -0.23,-0.23 -0.34,-0.35l0 -4.71c0.09,0.47 0.2,0.9 0.34,1.31z"/>
   <path class="fil7" d="M69.26 59.99l0 2.96c-0.07,0.13 -0.14,0.27 -0.19,0.41 -0.06,0.15 -0.11,0.29 -0.15,0.42l0 -3.48c0.11,-0.11 0.22,-0.21 0.34,-0.31zm0 7.02l0 1.65 -0.34 0 0 -1.65 0.34 0zm0 6.17l0 3.24c-0.12,-0.1 -0.23,-0.2 -0.34,-0.31l0 -3.75c0.1,0.29 0.21,0.56 0.34,0.82z"/>
   <path class="fil7" d="M69.59 59.71l0 2.67c-0.12,0.18 -0.23,0.37 -0.33,0.57l0 -2.96c0.1,-0.1 0.22,-0.19 0.33,-0.28zm0 7.3l0 1.65 -0.33 0 0 -1.65 0.33 0zm0 6.78l0 2.9c-0.11,-0.09 -0.23,-0.18 -0.33,-0.27l0 -3.24c0.1,0.21 0.21,0.41 0.33,0.61z"/>
   <path class="fil7" d="M69.93 59.47l0 2.47c-0.12,0.14 -0.23,0.29 -0.34,0.44l0 -2.67c0.11,-0.08 0.22,-0.16 0.34,-0.24zm0 7.54l0 1.65 -0.34 0 0 -1.65 0.34 0zm0 7.25l0 2.66c-0.12,-0.07 -0.23,-0.15 -0.34,-0.23l0 -2.9c0.11,0.16 0.22,0.32 0.34,0.47z"/>
   <path class="fil8" d="M70.26 59.26l0 2.32c-0.11,0.12 -0.23,0.23 -0.33,0.36l0 -2.47c0.11,-0.08 0.22,-0.15 0.33,-0.21zm0 7.75l0 1.65 -0.33 0 0 -1.65 0.33 0zm0 7.63l0 2.49c-0.11,-0.07 -0.22,-0.14 -0.33,-0.21l0 -2.66c0.1,0.13 0.22,0.26 0.33,0.38z"/>
   <path class="fil9" d="M70.6 59.07l0 2.22c-0.12,0.09 -0.23,0.19 -0.34,0.29l0 -2.32c0.11,-0.07 0.23,-0.13 0.34,-0.19zm0 7.94l0 1.65 -0.34 0 0 -1.65 0.34 0zm0 7.95l0 2.34c-0.11,-0.05 -0.23,-0.11 -0.34,-0.17l0 -2.49c0.11,0.11 0.22,0.22 0.34,0.32z"/>
   <path class="fil9" d="M70.94 58.91l0 2.13c-0.12,0.07 -0.23,0.16 -0.34,0.25l0 -2.22c0.11,-0.05 0.22,-0.11 0.34,-0.16zm0 8.1l0 1.65 -0.34 0 0 -1.65 0.34 0zm0 8.21l0 2.24c-0.12,-0.05 -0.23,-0.1 -0.34,-0.16l0 -2.34c0.11,0.09 0.22,0.18 0.34,0.26z"/>
   <path class="fil10" d="M71.27 58.78l0 2.05c-0.11,0.06 -0.22,0.13 -0.33,0.21l0 -2.13c0.11,-0.04 0.22,-0.09 0.33,-0.13zm0 8.23l0 1.65 -0.33 0 0 -1.65 0.33 0zm0 8.44l0 2.15c-0.11,-0.05 -0.22,-0.09 -0.33,-0.14l0 -2.24c0.11,0.08 0.22,0.16 0.33,0.23z"/>
   <path class="fil11" d="M71.61 58.66l0 1.99c-0.11,0.05 -0.23,0.11 -0.34,0.18l0 -2.05c0.11,-0.04 0.23,-0.08 0.34,-0.12zm0 8.35l0 1.65 -0.34 0 0 -1.65 0.34 0zm0 8.62l0 2.08c-0.11,-0.03 -0.23,-0.07 -0.34,-0.11l0 -2.15c0.11,0.06 0.22,0.13 0.34,0.18z"/>
   <path class="fil11" d="M71.95 58.56l0 1.94c-0.12,0.05 -0.23,0.1 -0.34,0.15l0 -1.99c0.11,-0.03 0.22,-0.07 0.34,-0.1zm0 8.45l0 1.65 -0.34 0 0 -1.65 0.34 0zm0 8.78l0 2.02c-0.12,-0.03 -0.23,-0.06 -0.34,-0.1l0 -2.08c0.11,0.06 0.22,0.11 0.34,0.16z"/>
   <path class="fil12" d="M72.28 58.48l0 1.9c-0.11,0.04 -0.22,0.08 -0.33,0.12l0 -1.94c0.11,-0.03 0.22,-0.05 0.33,-0.08zm0 8.53l0 1.65 -0.33 0 0 -1.65 0.33 0zm0 8.91l0 1.98c-0.11,-0.03 -0.22,-0.06 -0.33,-0.09l0 -2.02c0.11,0.05 0.22,0.09 0.33,0.13z"/>
   <path class="fil13" d="M72.62 58.42l0 1.86c-0.11,0.03 -0.23,0.06 -0.34,0.1l0 -1.9c0.11,-0.02 0.23,-0.04 0.34,-0.06zm0 8.59l0 1.65 -0.34 0 0 -1.65 0.34 0zm0 9.02l0 1.94c-0.11,-0.02 -0.23,-0.05 -0.34,-0.07l0 -1.98c0.11,0.04 0.22,0.07 0.34,0.11z"/>
   <path class="fil14" d="M72.96 58.37l0 1.84c-0.12,0.02 -0.23,0.05 -0.34,0.07l0 -1.86c0.11,-0.02 0.22,-0.04 0.34,-0.05zm0 8.64l0 1.65 -0.34 0 0 -1.65 0.34 0zm0 9.1l0 1.92c-0.12,-0.02 -0.23,-0.04 -0.34,-0.06l0 -1.94c0.11,0.03 0.22,0.06 0.34,0.08z"/>
   <path class="fil14" d="M73.29 58.33l0 1.82c-0.11,0.02 -0.22,0.04 -0.33,0.06l0 -1.84c0.11,-0.02 0.22,-0.03 0.33,-0.04zm0 8.68l0 1.65 -0.33 0 0 -1.65 0.33 0zm0 9.17l0 1.89c-0.11,-0.01 -0.22,-0.03 -0.33,-0.04l0 -1.92c0.11,0.03 0.22,0.05 0.33,0.07z"/>
   <path class="fil14" d="M73.63 58.31l0 1.81c-0.11,0.01 -0.23,0.02 -0.34,0.03l0 -1.82c0.11,-0.01 0.23,-0.02 0.34,-0.02zm0 8.7l0 1.65 -0.34 0 0 -1.65 0.34 0zm0 9.22l0 1.87c-0.11,-0.01 -0.23,-0.02 -0.34,-0.03l0 -1.89c0.11,0.02 0.22,0.03 0.34,0.05z"/>
   <path class="fil15" d="M73.91 58.3l0.06 0 0 1.8c-0.12,0.01 -0.23,0.01 -0.34,0.02l0 -1.81c0.09,-0.01 0.18,-0.01 0.28,-0.01zm0.06 8.71l0 1.65 -0.34 0 0 -1.65 0.34 0zm0 9.25l0 1.87c-0.12,-0.01 -0.23,-0.02 -0.34,-0.03l0 -1.87c0.11,0.01 0.22,0.02 0.34,0.03z"/>
   <path class="fil16" d="M73.97 58.3l0.3 0 0.03 0 0 1.81c-0.07,-0.01 -0.14,-0.01 -0.21,-0.01l-0.12 0 0 -1.8zm0.33 8.71l0 1.65 -0.33 0 0 -1.65 0.33 0zm0 9.28l0 1.85c-0.11,0 -0.22,-0.01 -0.33,-0.01l0 -1.87c0.11,0.01 0.22,0.02 0.33,0.03z"/>
   <path class="fil17" d="M74.64 58.31l0 1.82c-0.11,-0.01 -0.22,-0.02 -0.34,-0.02l0 -1.81c0.12,0 0.23,0 0.34,0.01zm0 8.7l0 1.65 -0.34 0 0 -1.65 0.34 0zm0 9.28l0 1.85 -0.07 0c-0.09,0 -0.18,0 -0.27,0l0 -1.85c0.11,0 0.22,0 0.34,0z"/>
   <path class="fil17" d="M74.97 58.34l0 1.83c-0.11,-0.02 -0.22,-0.03 -0.33,-0.04l0 -1.82c0.11,0.01 0.22,0.02 0.33,0.03zm0 8.67l0 1.65 -0.33 0 0 -1.65 0.33 0zm0 9.28l0 1.85c-0.11,0 -0.22,0 -0.33,0l0 -1.85 0.05 0c0.1,0 0.19,0 0.28,0z"/>
   <path class="fil17" d="M75.31 58.37l0 1.86c-0.11,-0.03 -0.22,-0.05 -0.34,-0.06l0 -1.83c0.12,0.01 0.23,0.02 0.34,0.03zm0 8.64l0 1.65 -0.34 0 0 -1.65 0.34 0zm0 9.26l0 1.85c-0.11,0.01 -0.22,0.01 -0.34,0.02l0 -1.85c0.12,0 0.23,-0.01 0.34,-0.02z"/>
   <path class="fil18" d="M75.65 58.43l0 1.88c-0.11,-0.03 -0.23,-0.06 -0.34,-0.08l0 -1.86c0.11,0.02 0.23,0.04 0.34,0.06zm0 8.58l0 1.65 -0.34 0 0 -1.65 0.34 0zm0 9.24l0 1.85c-0.11,0.01 -0.22,0.02 -0.34,0.02l0 -1.85c0.12,0 0.23,-0.01 0.34,-0.02z"/>
   <path class="fil18" d="M75.98 58.49l0 1.92c-0.11,-0.04 -0.22,-0.07 -0.33,-0.1l0 -1.88c0.11,0.02 0.22,0.04 0.33,0.06zm0 8.52l0 1.65 -0.33 0 0 -1.65 0.33 0zm0 9.2l0 1.86c-0.11,0.01 -0.22,0.02 -0.33,0.03l0 -1.85c0.11,-0.01 0.22,-0.03 0.33,-0.04z"/>
   <path class="fil19" d="M76.32 58.57l0 1.97c-0.11,-0.05 -0.22,-0.09 -0.34,-0.13l0 -1.92c0.12,0.03 0.23,0.06 0.34,0.08zm0 8.44l0 1.65 -0.34 0 0 -1.65 0.34 0zm0 9.14l0 1.87c-0.11,0.02 -0.22,0.03 -0.34,0.05l0 -1.86c0.12,-0.02 0.23,-0.04 0.34,-0.06z"/>
   <path class="fil20" d="M76.66 58.67l0 2.02c-0.11,-0.05 -0.22,-0.1 -0.34,-0.15l0 -1.97c0.11,0.03 0.23,0.07 0.34,0.1zm0 8.34l0 1.65 -0.34 0 0 -1.65 0.34 0zm0 9.06l0 1.9c-0.11,0.02 -0.22,0.04 -0.34,0.05l0 -1.87c0.12,-0.02 0.23,-0.05 0.34,-0.08z"/>
   <path class="fil20" d="M76.99 58.79l0 2.09c-0.11,-0.07 -0.22,-0.13 -0.33,-0.19l0 -2.02c0.11,0.04 0.22,0.08 0.33,0.12zm0 8.22l0 1.65 -0.33 0 0 -1.65 0.33 0zm0 8.97l0 1.92c-0.11,0.03 -0.22,0.05 -0.33,0.07l0 -1.9c0.11,-0.03 0.22,-0.06 0.33,-0.09z"/>
   <path class="fil21" d="M77.33 58.93l0 2.17c-0.11,-0.08 -0.22,-0.15 -0.34,-0.22l0 -2.09c0.12,0.04 0.23,0.09 0.34,0.14zm0 8.08l0 1.65 -0.34 0 0 -1.65 0.34 0zm0 8.85l0 1.96c-0.11,0.03 -0.22,0.06 -0.34,0.08l0 -1.92c0.12,-0.04 0.23,-0.08 0.34,-0.12z"/>
   <path class="fil22" d="M77.67 59.08l0 2.28c-0.11,-0.09 -0.22,-0.18 -0.34,-0.26l0 -2.17c0.11,0.05 0.23,0.1 0.34,0.15zm0 7.93l0 1.65 -0.34 0 0 -1.65 0.34 0zm0 8.71l0 2c-0.11,0.04 -0.23,0.07 -0.34,0.1l0 -1.96c0.11,-0.04 0.23,-0.09 0.34,-0.14z"/>
   <path class="fil23" d="M78 59.27l0 2.4c-0.1,-0.11 -0.22,-0.21 -0.33,-0.31l0 -2.28c0.11,0.06 0.22,0.12 0.33,0.19zm0 7.74l0 1.65 -0.33 0 0 -1.65 0.33 0zm0 8.54l0 2.06c-0.11,0.04 -0.22,0.08 -0.33,0.11l0 -2c0.11,-0.05 0.22,-0.11 0.33,-0.17z"/>
   <path class="fil24" d="M78.34 59.47l0 2.58c-0.11,-0.13 -0.22,-0.26 -0.34,-0.38l0 -2.4c0.12,0.06 0.23,0.13 0.34,0.2zm0 7.54l0 1.65 -0.34 0 0 -1.65 0.34 0zm0 8.34l0 2.13c-0.11,0.04 -0.22,0.09 -0.34,0.13l0 -2.06c0.12,-0.06 0.23,-0.13 0.34,-0.2z"/>
   <path class="fil24" d="M78.68 59.71l0 2.81c-0.11,-0.16 -0.22,-0.32 -0.34,-0.47l0 -2.58c0.11,0.08 0.23,0.16 0.34,0.24zm0 7.3l0 1.65 -0.34 0 0 -1.65 0.34 0zm0 8.12l0 2.2c-0.12,0.05 -0.23,0.1 -0.34,0.15l0 -2.13c0.11,-0.07 0.22,-0.14 0.34,-0.22z"/>
   <path class="fil25" d="M79.01 59.99l0 3.15c-0.1,-0.22 -0.21,-0.42 -0.33,-0.62l0 -2.81c0.11,0.09 0.22,0.18 0.33,0.28zm0 7.02l0 1.65 -0.33 0 0 -1.65 0.33 0zm0 7.87l0 2.28c-0.11,0.05 -0.22,0.11 -0.33,0.17l0 -2.2c0.11,-0.08 0.22,-0.16 0.33,-0.25z"/>
   <path class="fil25" d="M79.35 60.3l0 3.65c-0.07,-0.19 -0.15,-0.38 -0.24,-0.59 -0.03,-0.08 -0.06,-0.15 -0.1,-0.22l0 -3.15c0.12,0.1 0.23,0.2 0.34,0.31zm0 6.71l0 1.65 -0.34 0 0 -1.65 0.34 0zm0 7.59l0 2.36c-0.11,0.07 -0.22,0.13 -0.34,0.2l0 -2.28c0.11,-0.09 0.23,-0.18 0.34,-0.28z"/>
   <path class="fil26" d="M79.69 60.67l0 4.9c-0.07,-0.64 -0.16,-1.1 -0.34,-1.62l0 -3.65c0.11,0.12 0.23,0.24 0.34,0.37zm0 6.34l0 1.65 -0.34 0 0 -1.65 0.34 0zm0 7.29l0 2.45c-0.12,0.07 -0.23,0.14 -0.34,0.21l0 -2.36c0.11,-0.09 0.22,-0.19 0.34,-0.3z"/>
   <path class="fil27" d="M80.02 61.09l0 7.57 -0.33 0 0 -1.65 0.1 0c-0.03,-0.58 -0.07,-1.04 -0.1,-1.44l0 -4.9c0.11,0.13 0.22,0.27 0.33,0.42zm0 12.89l0 2.53c-0.11,0.09 -0.22,0.16 -0.33,0.24l0 -2.45c0.11,-0.1 0.22,-0.21 0.33,-0.32z"/>
   <path class="fil28" d="M80.36 61.58l0 7.08 -0.34 0 0 -7.57c0.12,0.16 0.23,0.32 0.34,0.49zm0 12.64l0 2.04c-0.11,0.09 -0.23,0.17 -0.34,0.25l0 -2.53 0.01 -0.02 0.33 0.26z"/>
   <path class="fil28" d="M80.69 62.19l0 6.47 -0.33 0 0 -7.08c0.12,0.2 0.23,0.4 0.33,0.61zm0 12.3l0 1.49c-0.11,0.09 -0.22,0.19 -0.33,0.28l0 -2.04 0.33 0.27z"/>
   <path class="fil28" d="M81.03 62.94l0 5.72 -0.34 0 0 -6.47c0.13,0.24 0.24,0.49 0.34,0.75zm0 11.81l0 0.93c-0.11,0.1 -0.22,0.2 -0.34,0.3l0 -1.49 0.34 0.26z"/>
   <path class="fil29" d="M81.37 63.94l0 4.72 -0.34 0 0 -5.72c0.13,0.32 0.24,0.65 0.34,1zm0 11.08l0 0.34c-0.11,0.11 -0.23,0.21 -0.34,0.32l0 -0.93 0.34 0.27z"/>
   <path class="fil30" d="M81.7 65.6l0 3.06 -0.33 0 0 -4.72c0.14,0.52 0.26,1.07 0.33,1.66zm-0.33 9.76l0 -0.34 0.19 0.15 -0.19 0.19z"/>
   <path class="fil31" d="M81.7 68.66l0 -3.06c0.1,0.67 0.14,1.38 0.14,2.14l0 0.92 -0.14 0z"/>
   <path class="fil32" d="M85.4 66.73l0 2.98c-0.04,-0.48 -0.06,-0.98 -0.06,-1.49 0,-0.51 0.02,-1.01 0.06,-1.49z"/>
   <path class="fil33" d="M85.74 64.72l0 7c-0.16,-0.63 -0.27,-1.31 -0.34,-2.01l0 -2.98c0.07,-0.71 0.18,-1.38 0.34,-2.01z"/>
   <path class="fil33" d="M86.08 63.62l0 9.2c-0.13,-0.36 -0.24,-0.72 -0.34,-1.1l0 -7c0.1,-0.38 0.21,-0.75 0.34,-1.1z"/>
   <path class="fil34" d="M86.41 62.81l0 10.81c-0.12,-0.26 -0.23,-0.52 -0.33,-0.8l0 -9.2c0.1,-0.28 0.21,-0.55 0.33,-0.81z"/>
   <path class="fil35" d="M86.75 62.17l0 12.1c-0.12,-0.21 -0.23,-0.42 -0.34,-0.65l0 -10.81c0.11,-0.22 0.22,-0.43 0.34,-0.64z"/>
   <path class="fil36" d="M87.09 61.63l0 13.17c-0.12,-0.17 -0.23,-0.35 -0.34,-0.53l0 -12.1c0.11,-0.19 0.22,-0.36 0.34,-0.54z"/>
   <path class="fil36" d="M87.42 61.18l0 5.71c-0.02,0.41 -0.03,0.85 -0.03,1.33 0,0.47 0.01,0.91 0.03,1.32l0 5.72c-0.11,-0.15 -0.22,-0.3 -0.33,-0.46l0 -13.17c0.11,-0.15 0.22,-0.31 0.33,-0.45z"/>
   <path class="fil37" d="M87.76 60.78l0 3.93c-0.18,0.64 -0.28,1.35 -0.34,2.18l0 -5.71c0.11,-0.14 0.22,-0.27 0.34,-0.4zm0 10.94l0 3.94c-0.12,-0.13 -0.23,-0.26 -0.34,-0.4l0 -5.72c0.06,0.84 0.16,1.55 0.34,2.18z"/>
   <path class="fil38" d="M88.1 60.43l0 3.34c-0.14,0.3 -0.25,0.61 -0.34,0.94l0 -3.93c0.11,-0.12 0.22,-0.24 0.34,-0.35zm0 12.24l0 3.33c-0.12,-0.11 -0.23,-0.22 -0.34,-0.34l0 -3.94c0.09,0.34 0.2,0.65 0.34,0.95z"/>
   <path class="fil38" d="M88.43 60.13l0 2.98c-0.12,0.22 -0.23,0.43 -0.33,0.66l0 -3.34c0.11,-0.1 0.22,-0.2 0.33,-0.3zm0 13.19l0 2.99c-0.11,-0.1 -0.22,-0.2 -0.33,-0.31l0 -3.33c0.1,0.22 0.21,0.44 0.33,0.65z"/>
   <path class="fil38" d="M88.77 59.86l0 2.73 -0.06 0.08c-0.1,0.15 -0.19,0.29 -0.28,0.44l0 -2.98c0.11,-0.09 0.23,-0.18 0.34,-0.27zm0 13.99l0 2.73c-0.11,-0.09 -0.23,-0.18 -0.34,-0.27l0 -2.99c0.09,0.15 0.18,0.3 0.28,0.44l0.06 0.09z"/>
   <path class="fil39" d="M89.11 59.62l0 2.53c-0.12,0.14 -0.23,0.29 -0.34,0.44l0 -2.73c0.11,-0.08 0.22,-0.16 0.34,-0.24zm0 14.67l0 2.53c-0.12,-0.08 -0.23,-0.16 -0.34,-0.24l0 -2.73c0.11,0.15 0.22,0.3 0.34,0.44z"/>
   <path class="fil39" d="M89.44 59.41l0 2.37c-0.11,0.12 -0.23,0.24 -0.33,0.37l0 -2.53c0.11,-0.07 0.22,-0.14 0.33,-0.21zm0 15.24l0 2.38c-0.11,-0.07 -0.22,-0.14 -0.33,-0.21l0 -2.53c0.1,0.12 0.22,0.25 0.33,0.36z"/>
   <path class="fil40" d="M89.78 59.22l0 2.25c-0.12,0.1 -0.23,0.2 -0.34,0.31l0 -2.37c0.11,-0.07 0.23,-0.13 0.34,-0.19zm0 15.74l0 2.25c-0.11,-0.06 -0.23,-0.12 -0.34,-0.18l0 -2.38c0.11,0.11 0.22,0.22 0.34,0.31z"/>
   <path class="fil40" d="M90.12 59.06l0 2.15c-0.12,0.08 -0.23,0.17 -0.34,0.26l0 -2.25c0.11,-0.05 0.22,-0.11 0.34,-0.16zm0 16.17l0 2.15c-0.12,-0.05 -0.23,-0.11 -0.34,-0.17l0 -2.25c0.11,0.1 0.22,0.19 0.34,0.27z"/>
   <path class="fil41" d="M90.45 58.91l0 2.07c-0.11,0.08 -0.23,0.15 -0.33,0.23l0 -2.15c0.11,-0.05 0.22,-0.1 0.33,-0.15zm0 16.54l0 2.07c-0.11,-0.04 -0.22,-0.09 -0.33,-0.14l0 -2.15c0.1,0.08 0.22,0.15 0.33,0.22z"/>
   <path class="fil42" d="M90.79 58.79l0 2c-0.12,0.06 -0.23,0.13 -0.34,0.19l0 -2.07c0.11,-0.04 0.22,-0.08 0.34,-0.12zm0 16.85l0 2.01c-0.12,-0.04 -0.23,-0.08 -0.34,-0.13l0 -2.07c0.11,0.07 0.22,0.13 0.34,0.19z"/>
   <path class="fil43" d="M91.12 58.68l0 1.95c-0.11,0.05 -0.22,0.11 -0.33,0.16l0 -2c0.11,-0.04 0.22,-0.08 0.33,-0.11zm0 17.12l0 1.96c-0.11,-0.03 -0.22,-0.07 -0.33,-0.11l0 -2.01c0.11,0.06 0.22,0.11 0.33,0.16z"/>
   <path class="fil43" d="M91.46 58.58l0 1.92c-0.11,0.04 -0.23,0.08 -0.34,0.13l0 -1.95c0.12,-0.04 0.23,-0.07 0.34,-0.1zm0 17.36l0 1.91c-0.11,-0.03 -0.22,-0.06 -0.34,-0.09l0 -1.96c0.11,0.05 0.23,0.1 0.34,0.14z"/>
   <path class="fil44" d="M91.8 58.5l0 1.89c-0.12,0.03 -0.23,0.07 -0.34,0.11l0 -1.92c0.11,-0.03 0.22,-0.05 0.34,-0.08zm0 17.55l0 1.88c-0.12,-0.02 -0.23,-0.05 -0.34,-0.08l0 -1.91c0.11,0.04 0.22,0.08 0.34,0.11z"/>
   <path class="fil45" d="M92.13 58.44l0 1.86c-0.11,0.02 -0.22,0.05 -0.33,0.09l0 -1.89c0.11,-0.02 0.22,-0.04 0.33,-0.06zm0 17.7l0 1.86c-0.11,-0.02 -0.22,-0.04 -0.33,-0.07l0 -1.88c0.11,0.03 0.22,0.06 0.33,0.09z"/>
   <path class="fil45" d="M92.47 58.39l0 1.83c-0.11,0.02 -0.23,0.05 -0.34,0.08l0 -1.86c0.12,-0.02 0.23,-0.04 0.34,-0.05zm0 17.82l0 1.84c-0.11,-0.02 -0.22,-0.03 -0.34,-0.05l0 -1.86c0.11,0.03 0.23,0.05 0.34,0.07z"/>
   <path class="fil46" d="M92.81 58.35l0 1.82c-0.12,0.02 -0.23,0.03 -0.34,0.05l0 -1.83c0.11,-0.02 0.22,-0.03 0.34,-0.04zm0 17.92l0 1.82c-0.12,-0.01 -0.23,-0.02 -0.34,-0.04l0 -1.84c0.11,0.02 0.22,0.04 0.34,0.06z"/>
   <path class="fil47" d="M93.14 58.32l0 1.81c-0.11,0.01 -0.22,0.03 -0.33,0.04l0 -1.82c0.11,-0.01 0.22,-0.02 0.33,-0.03zm0 17.98l0 1.82c-0.11,-0.01 -0.22,-0.02 -0.33,-0.03l0 -1.82c0.11,0.01 0.22,0.02 0.33,0.03z"/>
   <path class="fil47" d="M93.48 58.3l0 1.81c-0.11,0.01 -0.23,0.01 -0.34,0.02l0 -1.81c0.11,-0.01 0.23,-0.01 0.34,-0.02zm0 18.03l0 1.81c-0.11,-0.01 -0.23,-0.01 -0.34,-0.02l0 -1.82c0.11,0.01 0.23,0.02 0.34,0.03z"/>
   <path class="fil48" d="M93.66 58.3l0.16 0 0 1.8c-0.12,0 -0.23,0.01 -0.34,0.01l0 -1.81 0.18 0zm0.16 18.03l0 1.81c-0.12,0 -0.23,0 -0.34,0l0 -1.81c0.11,0 0.22,0 0.34,0z"/>
   <path class="fil48" d="M93.82 58.3l0.28 0 0.05 0 0 1.81c-0.09,-0.01 -0.19,-0.01 -0.29,-0.01l-0.04 0 0 -1.8zm0.33 18.03l0 1.81c-0.09,0 -0.19,0 -0.29,0l-0.04 0 0 -1.81 0.04 0c0.1,0 0.2,0 0.29,0z"/>
   <path class="fil49" d="M94.49 58.31l0 1.81c-0.11,0 -0.22,-0.01 -0.34,-0.01l0 -1.81c0.12,0 0.23,0 0.34,0.01zm0 18l0 1.82c-0.11,0 -0.22,0.01 -0.34,0.01l0 -1.81c0.12,-0.01 0.23,-0.01 0.34,-0.02z"/>
   <path class="fil50" d="M94.83 58.33l0 1.83c-0.11,-0.02 -0.23,-0.03 -0.34,-0.04l0 -1.81c0.11,0 0.23,0.01 0.34,0.02zm0 17.95l0 1.83c-0.11,0 -0.23,0.01 -0.34,0.02l0 -1.82c0.11,-0.01 0.23,-0.02 0.34,-0.03z"/>
   <path class="fil50" d="M95.16 58.36l0 1.85c-0.11,-0.02 -0.22,-0.04 -0.33,-0.05l0 -1.83c0.11,0.01 0.22,0.02 0.33,0.03zm0 17.87l0 1.84c-0.11,0.02 -0.22,0.03 -0.33,0.04l0 -1.83c0.11,-0.02 0.22,-0.03 0.33,-0.05z"/>
   <path class="fil51" d="M95.5 58.41l0 1.87c-0.11,-0.03 -0.22,-0.05 -0.34,-0.07l0 -1.85c0.12,0.02 0.23,0.03 0.34,0.05zm0 17.74l0 1.88c-0.11,0.02 -0.22,0.03 -0.34,0.04l0 -1.84c0.12,-0.03 0.23,-0.05 0.34,-0.08z"/>
   <path class="fil51" d="M95.84 58.47l0 1.9c-0.11,-0.03 -0.23,-0.06 -0.34,-0.09l0 -1.87c0.11,0.01 0.23,0.03 0.34,0.06zm0 17.59l0 1.91c-0.11,0.02 -0.23,0.04 -0.34,0.06l0 -1.88c0.11,-0.03 0.23,-0.06 0.34,-0.09z"/>
   <path class="fil52" d="M96.17 58.54l0 1.95c-0.11,-0.04 -0.22,-0.08 -0.33,-0.12l0 -1.9c0.11,0.02 0.22,0.04 0.33,0.07zm0 17.39l0 1.97c-0.11,0.02 -0.22,0.05 -0.33,0.07l0 -1.91c0.11,-0.04 0.22,-0.08 0.33,-0.13z"/>
   <path class="fil53" d="M96.51 58.63l0 2.01c-0.11,-0.05 -0.22,-0.1 -0.34,-0.15l0 -1.95c0.12,0.03 0.23,0.06 0.34,0.09zm0 17.15l0 2.02c-0.11,0.04 -0.22,0.07 -0.34,0.1l0 -1.97c0.12,-0.04 0.23,-0.09 0.34,-0.15z"/>
   <path class="fil54" d="M96.84 58.75l0 2.07c-0.11,-0.06 -0.22,-0.12 -0.33,-0.18l0 -2.01c0.11,0.04 0.22,0.08 0.33,0.12zm0 16.85l0 2.09c-0.11,0.04 -0.22,0.08 -0.33,0.11l0 -2.02c0.11,-0.06 0.22,-0.12 0.33,-0.18z"/>
   <path class="fil55" d="M97.18 58.88l0 2.16c-0.11,-0.08 -0.22,-0.15 -0.34,-0.22l0 -2.07c0.12,0.04 0.23,0.08 0.34,0.13zm0 16.5l0 2.18c-0.11,0.04 -0.22,0.09 -0.34,0.13l0 -2.09c0.12,-0.07 0.23,-0.14 0.34,-0.22z"/>
   <path class="fil55" d="M97.52 59.04l0 2.24c-0.12,-0.08 -0.23,-0.17 -0.34,-0.24l0 -2.16c0.11,0.05 0.23,0.1 0.34,0.16zm0 16.1l0 2.26c-0.11,0.05 -0.23,0.11 -0.34,0.16l0 -2.18c0.11,-0.07 0.22,-0.16 0.34,-0.24z"/>
   <path class="fil55" d="M97.85 59.22l0 2.34c-0.11,-0.1 -0.22,-0.19 -0.33,-0.28l0 -2.24c0.11,0.06 0.22,0.12 0.33,0.18zm0 15.64l0 2.36c-0.11,0.06 -0.22,0.12 -0.33,0.18l0 -2.26c0.11,-0.09 0.22,-0.18 0.33,-0.28z"/>
   <path class="fil56" d="M98.19 59.43l0 2.45c-0.11,-0.11 -0.22,-0.22 -0.34,-0.32l0 -2.34c0.12,0.07 0.23,0.14 0.34,0.21zm0 15.12l0 2.46c-0.11,0.07 -0.22,0.14 -0.34,0.21l0 -2.36c0.12,-0.1 0.23,-0.2 0.34,-0.31z"/>
   <path class="fil56" d="M98.53 59.66l0 2.56c-0.12,-0.12 -0.23,-0.24 -0.34,-0.34l0 -2.45c0.11,0.07 0.22,0.15 0.34,0.23zm0 14.55l0 2.56c-0.12,0.08 -0.23,0.16 -0.34,0.24l0 -2.46c0.11,-0.11 0.22,-0.22 0.34,-0.34z"/>
   <path class="fil57" d="M98.86 59.93l0 2.6 -0.02 0.02c-0.11,-0.11 -0.21,-0.23 -0.31,-0.33l0 -2.56c0.11,0.09 0.22,0.17 0.33,0.27zm0 13.98l0 2.6c-0.11,0.09 -0.22,0.18 -0.33,0.26l0 -2.56c0.1,-0.1 0.2,-0.21 0.31,-0.33l0.02 0.03z"/>
   <path class="fil58" d="M99.2 60.21l0 2.01 -0.34 0.31 0 -2.6c0.12,0.09 0.23,0.18 0.34,0.28zm0 14l0 2.01c-0.11,0.1 -0.22,0.2 -0.34,0.29l0 -2.6 0.34 0.3z"/>
   <path class="fil59" d="M99.54 60.53l0 1.38 -0.34 0.31 0 -2.01c0.11,0.1 0.22,0.21 0.34,0.32zm0 13.99l0 1.39c-0.12,0.11 -0.23,0.21 -0.34,0.31l0 -2.01 0.34 0.31z"/>
   <path class="fil60" d="M99.87 60.87l0 0.74 -0.33 0.3 0 -1.38c0.11,0.11 0.22,0.22 0.33,0.34zm0 13.96l0 0.74c-0.11,0.12 -0.22,0.23 -0.33,0.34l0 -1.39 0.33 0.31z"/>
   <path class="fil61" d="M100.21 61.23l0 0.07 -0.34 0.31 0 -0.74c0.11,0.11 0.23,0.23 0.34,0.36zm0 13.91l0 0.07c-0.11,0.12 -0.23,0.24 -0.34,0.36l0 -0.74 0.34 0.31z"/>
   <path class="fil61" d="M100.21 75.21l0 -0.07 0.03 0.03 -0.03 0.04zm0 -13.91l0 -0.07 0.03 0.04 -0.03 0.03z"/>
   <path class="fil62" d="M102.56 65.56l0 5.31c-0.11,-0.88 -0.15,-1.78 -0.15,-2.65 0,-0.88 0.04,-1.78 0.15,-2.66z"/>
   <path class="fil63" d="M102.9 63.86l0 8.71c-0.15,-0.55 -0.26,-1.12 -0.34,-1.7l0 -5.31c0.08,-0.57 0.19,-1.14 0.34,-1.7z"/>
   <path class="fil64" d="M103.24 62.86l0 10.71c-0.13,-0.32 -0.25,-0.66 -0.34,-1l0 -8.71c0.09,-0.34 0.21,-0.67 0.34,-1z"/>
   <path class="fil64" d="M103.57 62.14l0 12.16c-0.12,-0.24 -0.23,-0.48 -0.33,-0.73l0 -10.71c0.1,-0.24 0.21,-0.49 0.33,-0.72z"/>
   <path class="fil64" d="M103.91 61.56l0 13.32c-0.12,-0.19 -0.23,-0.38 -0.34,-0.58l0 -12.16c0.11,-0.2 0.22,-0.39 0.34,-0.58z"/>
   <path class="fil65" d="M104.25 61.08l0 14.27c-0.12,-0.15 -0.24,-0.31 -0.34,-0.47l0 -13.32c0.1,-0.16 0.22,-0.32 0.34,-0.48z"/>
   <path class="fil65" d="M104.58 60.68l0 4.95c-0.1,0.87 -0.12,1.75 -0.12,2.59 0,0.83 0.02,1.72 0.12,2.59l0 4.95c-0.12,-0.13 -0.23,-0.27 -0.33,-0.41l0 -14.27c0.1,-0.14 0.21,-0.27 0.33,-0.4z"/>
   <path class="fil65" d="M104.92 60.33l0 3.64c-0.16,0.53 -0.27,1.09 -0.34,1.66l0 -4.95c0.08,-0.09 0.16,-0.17 0.24,-0.26l0.1 -0.09zm0 12.14l0 3.64 -0.1 -0.1c-0.08,-0.08 -0.16,-0.17 -0.24,-0.25l0 -4.95c0.07,0.56 0.18,1.13 0.34,1.66z"/>
   <path class="fil66" d="M105.26 60.03l0 3.06c-0.14,0.28 -0.25,0.58 -0.34,0.88l0 -3.64c0.11,-0.11 0.22,-0.21 0.34,-0.3zm0 13.31l0 3.07c-0.12,-0.1 -0.23,-0.2 -0.34,-0.3l0 -3.64c0.09,0.3 0.2,0.59 0.34,0.87z"/>
   <path class="fil66" d="M105.59 59.75l0 2.74c-0.12,0.19 -0.23,0.4 -0.33,0.6l0 -3.06c0.11,-0.1 0.22,-0.19 0.33,-0.28zm0 14.2l0 2.73c-0.11,-0.08 -0.22,-0.17 -0.33,-0.27l0 -3.07c0.1,0.21 0.21,0.41 0.33,0.61z"/>
   <path class="fil67" d="M105.93 59.51l0 2.53c-0.12,0.14 -0.23,0.29 -0.34,0.45l0 -2.74c0.11,-0.08 0.22,-0.16 0.34,-0.24zm0 14.89l0 2.52c-0.12,-0.07 -0.23,-0.16 -0.34,-0.24l0 -2.73c0.11,0.15 0.22,0.31 0.34,0.45z"/>
   <path class="fil67" d="M106.27 59.3l0 2.38 -0.08 0.07c-0.09,0.09 -0.18,0.19 -0.26,0.29l0 -2.53c0.11,-0.07 0.22,-0.14 0.34,-0.21zm0 15.46l0 2.37c-0.12,-0.07 -0.23,-0.13 -0.34,-0.21l0 -2.52c0.08,0.1 0.17,0.19 0.26,0.29l0.08 0.07z"/>
   <path class="fil67" d="M106.6 59.12l0 2.26c-0.11,0.09 -0.22,0.19 -0.33,0.3l0 -2.38c0.11,-0.06 0.22,-0.12 0.33,-0.18zm0 15.94l0 2.26c-0.11,-0.06 -0.22,-0.12 -0.33,-0.19l0 -2.37c0.11,0.11 0.22,0.21 0.33,0.3z"/>
   <path class="fil68" d="M106.94 58.96l0 2.16c-0.12,0.08 -0.23,0.16 -0.34,0.26l0 -2.26c0.11,-0.06 0.22,-0.11 0.34,-0.16zm0 16.36l0 2.16c-0.12,-0.05 -0.23,-0.1 -0.34,-0.16l0 -2.26c0.11,0.09 0.22,0.18 0.34,0.26z"/>
   <path class="fil69" d="M107.27 58.81l0 2.08c-0.11,0.07 -0.22,0.15 -0.33,0.23l0 -2.16c0.11,-0.05 0.22,-0.1 0.33,-0.15zm0 16.73l0 2.08c-0.11,-0.04 -0.22,-0.09 -0.33,-0.14l0 -2.16c0.11,0.08 0.22,0.15 0.33,0.22z"/>
   <path class="fil70" d="M107.61 58.69l0 2.02c-0.11,0.06 -0.22,0.12 -0.34,0.18l0 -2.08c0.12,-0.04 0.23,-0.08 0.34,-0.12zm0 17.04l0 2.01c-0.11,-0.03 -0.22,-0.08 -0.34,-0.12l0 -2.08c0.12,0.07 0.23,0.13 0.34,0.19z"/>
   <path class="fil70" d="M107.95 58.59l0 1.96c-0.12,0.05 -0.23,0.1 -0.34,0.16l0 -2.02c0.11,-0.03 0.22,-0.07 0.34,-0.1zm0 17.3l0 1.96c-0.12,-0.04 -0.23,-0.07 -0.34,-0.11l0 -2.01c0.11,0.06 0.22,0.11 0.34,0.16z"/>
   <path class="fil71" d="M108.28 58.51l0 1.91c-0.11,0.04 -0.22,0.08 -0.33,0.13l0 -1.96c0.11,-0.03 0.22,-0.06 0.33,-0.08zm0 17.51l0 1.91c-0.11,-0.02 -0.22,-0.05 -0.33,-0.08l0 -1.96c0.11,0.04 0.22,0.09 0.33,0.13z"/>
   <path class="fil72" d="M108.62 58.44l0 1.87c-0.11,0.04 -0.22,0.07 -0.34,0.11l0 -1.91c0.12,-0.03 0.23,-0.05 0.34,-0.07zm0 17.68l0 1.88c-0.11,-0.02 -0.22,-0.04 -0.34,-0.07l0 -1.91c0.12,0.04 0.23,0.07 0.34,0.1z"/>
   <path class="fil72" d="M108.96 58.38l0 1.85c-0.12,0.02 -0.23,0.05 -0.34,0.08l0 -1.87c0.11,-0.02 0.22,-0.04 0.34,-0.06zm0 17.83l0 1.85c-0.12,-0.02 -0.23,-0.04 -0.34,-0.06l0 -1.88c0.11,0.03 0.22,0.06 0.34,0.09z"/>
   <path class="fil73" d="M109.29 58.34l0 1.83c-0.11,0.02 -0.22,0.04 -0.33,0.06l0 -1.85c0.11,-0.02 0.22,-0.03 0.33,-0.04zm0 17.93l0 1.83c-0.11,-0.01 -0.22,-0.03 -0.33,-0.04l0 -1.85c0.11,0.02 0.22,0.04 0.33,0.06z"/>
   <path class="fil73" d="M109.63 58.31l0 1.82c-0.11,0.01 -0.23,0.02 -0.34,0.04l0 -1.83c0.11,-0.01 0.23,-0.02 0.34,-0.03zm0 18l0 1.81c-0.11,0 -0.23,-0.01 -0.34,-0.02l0 -1.83c0.11,0.01 0.23,0.03 0.34,0.04z"/>
   <path class="fil74" d="M109.97 58.3l0 1.81c-0.12,0 -0.23,0.01 -0.34,0.02l0 -1.82c0.11,0 0.22,-0.01 0.34,-0.01zm0 18.03l0 1.81c-0.12,0 -0.23,-0.01 -0.34,-0.02l0 -1.81c0.11,0.01 0.22,0.01 0.34,0.02z"/>
   <path class="fil74" d="M110.01 58.3l0.29 0 0 1.8 -0.09 0c-0.08,0 -0.16,0 -0.24,0.01l0 -1.81 0.04 0zm0.29 18.03l0 1.81 -0.09 0c-0.08,0 -0.16,0 -0.24,0l0 -1.81c0.08,0 0.16,0 0.24,0l0.09 0z"/>
   <path class="fil75" d="M110.3 58.3l0.11 0c0.08,0 0.15,0 0.23,0l0 1.82c-0.11,-0.01 -0.22,-0.01 -0.34,-0.02l0 -1.8zm0.34 18.02l0 1.81c-0.11,0.01 -0.22,0.01 -0.34,0.01l0 -1.81c0.12,0 0.23,0 0.34,-0.01z"/>
   <path class="fil75" d="M110.98 58.33l0 1.82c-0.12,-0.01 -0.23,-0.02 -0.34,-0.03l0 -1.82c0.11,0.01 0.22,0.02 0.34,0.03zm0 17.96l0 1.82c-0.12,0.01 -0.23,0.02 -0.34,0.02l0 -1.81c0.11,-0.01 0.22,-0.02 0.34,-0.03z"/>
   <path class="fil76" d="M111.31 58.36l0 1.84c-0.11,-0.02 -0.22,-0.04 -0.33,-0.05l0 -1.82c0.11,0 0.22,0.02 0.33,0.03zm0 17.87l0 1.85c-0.11,0.01 -0.22,0.02 -0.33,0.03l0 -1.82c0.11,-0.02 0.22,-0.03 0.33,-0.06z"/>
   <path class="fil77" d="M111.65 58.41l0 1.86c-0.11,-0.02 -0.22,-0.05 -0.34,-0.07l0 -1.84c0.12,0.01 0.23,0.03 0.34,0.05zm0 17.75l0 1.87c-0.11,0.02 -0.22,0.03 -0.34,0.05l0 -1.85c0.12,-0.02 0.23,-0.04 0.34,-0.07z"/>
   <path class="fil78" d="M111.99 58.47l0 1.9c-0.12,-0.04 -0.23,-0.07 -0.34,-0.1l0 -1.86c0.11,0.02 0.22,0.04 0.34,0.06zm0 17.6l0 1.9c-0.12,0.02 -0.23,0.04 -0.34,0.06l0 -1.87c0.11,-0.03 0.22,-0.06 0.34,-0.09z"/>
   <path class="fil78" d="M112.32 58.55l0 1.94c-0.11,-0.04 -0.22,-0.08 -0.33,-0.12l0 -1.9c0.11,0.02 0.22,0.05 0.33,0.08zm0 17.4l0 1.94c-0.11,0.03 -0.22,0.05 -0.33,0.08l0 -1.9c0.11,-0.04 0.22,-0.08 0.33,-0.12z"/>
   <path class="fil79" d="M112.66 58.64l0 1.99c-0.11,-0.05 -0.22,-0.1 -0.34,-0.14l0 -1.94c0.12,0.03 0.23,0.06 0.34,0.09zm0 17.16l0 1.99c-0.11,0.04 -0.22,0.07 -0.34,0.1l0 -1.94c0.12,-0.05 0.23,-0.1 0.34,-0.15z"/>
   <path class="fil79" d="M112.99 58.75l0 2.06c-0.11,-0.06 -0.22,-0.12 -0.33,-0.18l0 -1.99c0.11,0.04 0.22,0.07 0.33,0.11zm0 16.88l0 2.05c-0.11,0.04 -0.22,0.08 -0.33,0.11l0 -1.99c0.11,-0.05 0.22,-0.11 0.33,-0.17z"/>
   <path class="fil80" d="M113.33 58.89l0 2.13c-0.11,-0.08 -0.22,-0.15 -0.34,-0.21l0 -2.06c0.12,0.05 0.23,0.09 0.34,0.14zm0 16.53l0 2.13c-0.11,0.05 -0.22,0.09 -0.34,0.13l0 -2.05c0.12,-0.07 0.23,-0.14 0.34,-0.21z"/>
   <path class="fil80" d="M113.67 59.04l0 2.22c-0.11,-0.09 -0.22,-0.17 -0.34,-0.24l0 -2.13c0.11,0.04 0.23,0.09 0.34,0.15zm0 16.14l0 2.22c-0.11,0.05 -0.23,0.1 -0.34,0.15l0 -2.13c0.12,-0.07 0.23,-0.16 0.34,-0.24z"/>
   <path class="fil80" d="M114 59.21l0 2.33c-0.11,-0.1 -0.22,-0.19 -0.33,-0.28l0 -2.22c0.11,0.05 0.22,0.11 0.33,0.17zm0 15.69l0 2.32c-0.11,0.06 -0.22,0.12 -0.33,0.18l0 -2.22c0.11,-0.09 0.22,-0.18 0.33,-0.28z"/>
   <path class="fil81" d="M114.34 59.42l0 2.45c-0.04,-0.04 -0.08,-0.08 -0.12,-0.12 -0.07,-0.07 -0.14,-0.14 -0.22,-0.21l0 -2.33c0.12,0.07 0.23,0.13 0.34,0.21zm0 15.15l0 2.45c-0.11,0.07 -0.22,0.14 -0.34,0.2l0 -2.32c0.08,-0.07 0.15,-0.14 0.22,-0.21 0.04,-0.04 0.08,-0.08 0.12,-0.12z"/>
   <path class="fil81" d="M114.68 59.64l0 2.64c-0.11,-0.14 -0.22,-0.28 -0.34,-0.41l0 -2.45c0.11,0.07 0.23,0.14 0.34,0.22zm0 14.52l0 2.63c-0.11,0.08 -0.23,0.16 -0.34,0.23l0 -2.45c0.12,-0.13 0.23,-0.27 0.34,-0.41z"/>
   <path class="fil82" d="M115.01 59.9l0 2.91c-0.1,-0.19 -0.21,-0.36 -0.33,-0.53l0 -2.64c0.11,0.09 0.22,0.17 0.33,0.26zm0 13.73l0 2.9c-0.11,0.09 -0.22,0.18 -0.33,0.26l0 -2.63c0.12,-0.17 0.23,-0.35 0.33,-0.53z"/>
   <path class="fil82" d="M115.35 60.19l0 3.35c-0.1,-0.25 -0.21,-0.5 -0.34,-0.73l0 -2.91c0.12,0.09 0.23,0.19 0.34,0.29zm0 12.71l0 3.34c-0.11,0.1 -0.22,0.2 -0.34,0.29l0 -2.9c0.13,-0.24 0.24,-0.48 0.34,-0.73z"/>
   <path class="fil83" d="M115.69 60.52l0 4.2c-0.09,-0.41 -0.2,-0.8 -0.34,-1.18l0 -3.35c0.08,0.08 0.16,0.16 0.24,0.23l0.1 0.1zm0 11.2l0 4.2 -0.1 0.09c-0.08,0.08 -0.16,0.16 -0.24,0.23l0 -3.34c0.14,-0.38 0.25,-0.77 0.34,-1.18z"/>
   <path class="fil84" d="M116.02 60.9l0 14.64c-0.1,0.13 -0.22,0.25 -0.33,0.38l0 -4.2c0.23,-1.14 0.26,-2.37 0.26,-3.5 0,-1.14 -0.03,-2.36 -0.26,-3.5l0 -4.2c0.11,0.12 0.23,0.25 0.33,0.38z"/>
   <path class="fil84" d="M116.36 61.34l0 13.76c-0.11,0.15 -0.22,0.29 -0.34,0.44l0 -14.64c0.12,0.14 0.23,0.29 0.34,0.44z"/>
   <path class="fil85" d="M116.7 61.87l0 12.7c-0.11,0.18 -0.22,0.35 -0.34,0.53l0 -13.76c0.12,0.17 0.23,0.35 0.34,0.53z"/>
   <path class="fil85" d="M117.03 62.52l0 11.39c-0.1,0.23 -0.21,0.44 -0.33,0.66l0 -12.7c0.12,0.21 0.23,0.43 0.33,0.65z"/>
   <path class="fil86" d="M117.37 63.38l0 9.67c-0.1,0.3 -0.21,0.58 -0.34,0.86l0 -11.39c0.13,0.28 0.24,0.57 0.34,0.86z"/>
   <path class="fil87" d="M117.7 64.67l0 7.1c-0.08,0.44 -0.19,0.87 -0.33,1.28l0 -9.67c0.14,0.42 0.25,0.85 0.33,1.29z"/>
   <path class="fil87" d="M117.7 71.77l0 -7.1c0.24,1.16 0.3,2.37 0.3,3.55 0,1.17 -0.06,2.39 -0.3,3.55z"/>
   <path class="fil88" d="M73.95 102.91c-1.81,0 -3.53,-0.7 -4.8,-1.96 -1.75,-1.76 -1.78,-3.45 -1.78,-7.79 0,-4.34 0.03,-6.04 1.78,-7.79 1.27,-1.27 2.99,-1.97 4.8,-1.97 3.42,0 5.9,2.13 6.52,5.6l-1.48 0c-0.57,-2.64 -2.45,-4.31 -5.04,-4.31 -1.38,0 -2.67,0.51 -3.64,1.48 -1.37,1.38 -1.48,2.86 -1.48,6.99 0,4.12 0.11,5.6 1.48,6.98 0.97,0.97 2.26,1.48 3.64,1.48 2.59,0 4.53,-1.67 5.09,-4.31l1.43 0c-0.62,3.47 -3.15,5.6 -6.52,5.6z"/>
   <polygon class="fil88" points="90.23,84.85 90.23,102.75 88.77,102.75 88.77,84.85 83.06,84.85 83.06,83.56 95.97,83.56 95.97,84.85 "/>
   <path class="fil88" d="M103.25 85.5l-4.02 11.29 8.03 0 -4.01 -11.29zm6.14 17.25l-1.67 -4.66 -8.95 0 -1.67 4.66 -1.56 0 7.06 -19.19 1.29 0 7.07 19.19 -1.57 0z"/>
   <polygon class="fil88" points="117.7,84.85 117.7,102.75 116.24,102.75 116.24,84.85 110.53,84.85 110.53,83.56 123.44,83.56 123.44,84.85 "/>
   <path class="fil88" d="M131.33 99.84c-0.75,1.78 -1.8,2.91 -3.61,2.91l-1.45 0 0 -1.29 1.13 0c1.43,0 2.07,-0.65 2.72,-2.16l0.84 -1.99 -6.39 -13.75 1.56 0 5.58 12.1 5.04 -12.1 1.57 0 -6.99 16.28z"/>
   <path class="fil88" d="M147.16 102.91c-1.81,0 -3.53,-0.7 -4.8,-1.96 -1.75,-1.76 -1.78,-3.45 -1.78,-7.79 0,-4.34 0.03,-6.04 1.78,-7.79 1.27,-1.27 2.99,-1.97 4.8,-1.97 3.42,0 5.9,2.13 6.52,5.6l-1.48 0c-0.57,-2.64 -2.46,-4.31 -5.04,-4.31 -1.38,0 -2.67,0.51 -3.64,1.48 -1.38,1.38 -1.48,2.86 -1.48,6.99 0,4.12 0.1,5.6 1.48,6.98 0.97,0.97 2.26,1.48 3.64,1.48 2.58,0 4.52,-1.67 5.09,-4.31l1.43 0c-0.62,3.47 -3.15,5.6 -6.52,5.6z"/>
   <polygon class="fil88" points="51.73,102.46 50.78,102.46 50.78,57.02 51.73,57.02 "/>
   <polygon class="fil65" points="9.83,78.18 10.14,78.08 10,78.21 "/>
   <path class="fil65" d="M9.41 78.09l1.11 -0.35c-0.13,0.11 -0.25,0.22 -0.38,0.34l-0.31 0.1 -0.42 -0.09z"/>
   <path class="fil65" d="M8.98 78l1.93 -0.61c-0.13,0.11 -0.26,0.23 -0.39,0.35l-1.11 0.35 -0.43 -0.09z"/>
   <path class="fil66" d="M8.56 77.91l2.77 -0.87c-0.14,0.11 -0.28,0.23 -0.42,0.35l-1.93 0.61 -0.42 -0.09z"/>
   <path class="fil66" d="M8.13 77.82l3.64 -1.14c-0.15,0.12 -0.3,0.24 -0.44,0.36l-2.77 0.87c-0.15,-0.03 -0.29,-0.06 -0.43,-0.09z"/>
   <path class="fil67" d="M7.68 77.74l4.56 -1.43c-0.16,0.12 -0.32,0.24 -0.47,0.37l-3.64 1.14c-0.15,-0.03 -0.3,-0.05 -0.45,-0.08z"/>
   <path class="fil67" d="M7.23 77.66l5.5 -1.73c-0.16,0.13 -0.33,0.25 -0.49,0.38l-4.56 1.43c-0.15,-0.03 -0.3,-0.05 -0.45,-0.08z"/>
   <path class="fil67" d="M6.75 77.59l6.52 -2.05c-0.18,0.13 -0.36,0.26 -0.54,0.39l-5.5 1.73c-0.16,-0.03 -0.32,-0.05 -0.48,-0.07z"/>
   <path class="fil68" d="M6.25 77.52l7.59 -2.38c-0.19,0.13 -0.38,0.26 -0.57,0.4l-6.52 2.05c-0.16,-0.03 -0.33,-0.05 -0.5,-0.07z"/>
   <path class="fil69" d="M5.73 77.47l8.74 -2.76c-0.21,0.14 -0.42,0.28 -0.63,0.43l-7.59 2.38c-0.17,-0.02 -0.34,-0.04 -0.52,-0.05z"/>
   <path class="fil70" d="M5.17 77.42l10 -3.15c-0.23,0.15 -0.47,0.3 -0.7,0.44l-8.74 2.76c-0.18,-0.02 -0.37,-0.04 -0.56,-0.05z"/>
   <path class="fil70" d="M5.02 77.24l10.94 -3.44c-0.27,0.16 -0.53,0.31 -0.79,0.47l-10 3.15 -0.17 -0.01 0.02 -0.17z"/>
   <path class="fil71" d="M5.05 77.01l11.82 -3.72c-0.31,0.17 -0.61,0.34 -0.91,0.51l-10.94 3.44 0.03 -0.23z"/>
   <path class="fil72" d="M5.08 76.78l12.58 -3.96 0.07 0.03c-0.29,0.14 -0.58,0.29 -0.86,0.44l-11.82 3.72 0.03 -0.23z"/>
   <polygon class="fil72" points="5.11,76.55 17.33,72.7 17.66,72.82 5.08,76.78 "/>
   <path class="fil73" d="M5.14 76.32l11.86 -3.73c0.11,0.04 0.22,0.08 0.33,0.11l-12.22 3.85 0.03 -0.23z"/>
   <path class="fil73" d="M5.16 76.09l11.49 -3.61c0.12,0.03 0.23,0.07 0.35,0.11l-11.86 3.73 0.02 -0.23z"/>
   <path class="fil74" d="M5.19 75.85l11.11 -3.49c0.11,0.04 0.23,0.08 0.35,0.12l-11.49 3.61 0.03 -0.24z"/>
   <path class="fil74" d="M5.22 75.62l10.71 -3.36c0.12,0.03 0.25,0.07 0.37,0.1l-11.11 3.49 0.03 -0.23z"/>
   <polygon class="fil75" points="5.25,75.39 15.56,72.15 15.93,72.26 5.22,75.62 "/>
   <polygon class="fil75" points="5.28,75.16 15.19,72.05 15.56,72.15 5.25,75.39 "/>
   <path class="fil76" d="M5.31 74.93l9.49 -2.98c0.13,0.03 0.26,0.06 0.39,0.1l-9.91 3.11 0.03 -0.23z"/>
   <polygon class="fil77" points="5.34,74.7 14.41,71.85 14.8,71.95 5.31,74.93 "/>
   <path class="fil78" d="M5.37 74.47l8.63 -2.72c0.14,0.03 0.27,0.06 0.41,0.1l-9.07 2.85 0.03 -0.23z"/>
   <path class="fil78" d="M5.4 74.23l8.19 -2.57c0.14,0.03 0.28,0.06 0.41,0.09l-8.63 2.72 0.03 -0.24z"/>
   <path class="fil79" d="M5.44 74l7.73 -2.43c0.14,0.03 0.28,0.06 0.42,0.09l-8.19 2.57 0.04 -0.23z"/>
   <path class="fil79" d="M5.47 73.77l7.27 -2.29c0.14,0.03 0.29,0.06 0.43,0.09l-7.73 2.43 0.03 -0.23z"/>
   <path class="fil80" d="M5.5 73.54l6.8 -2.14c0.15,0.03 0.29,0.05 0.44,0.08l-7.27 2.29 0.03 -0.23z"/>
   <path class="fil80" d="M5.53 73.3l6.32 -1.98c0.15,0.02 0.3,0.05 0.45,0.08l-6.8 2.14 0.03 -0.24z"/>
   <path class="fil80" d="M5.56 73.07l5.83 -1.83c0.15,0.03 0.3,0.05 0.46,0.08l-6.32 1.98 0.03 -0.23z"/>
   <path class="fil81" d="M5.59 72.84l5.32 -1.67c0.16,0.02 0.32,0.05 0.48,0.07l-5.83 1.83 0.03 -0.23z"/>
   <path class="fil81" d="M5.63 72.61l4.8 -1.51c0.16,0.02 0.32,0.04 0.48,0.07l-5.32 1.67 0.04 -0.23z"/>
   <path class="fil82" d="M5.66 72.37l4.27 -1.34c0.17,0.02 0.33,0.05 0.5,0.07l-4.8 1.51 0.03 -0.24z"/>
   <path class="fil82" d="M5.69 72.14l3.73 -1.17c0.17,0.02 0.34,0.04 0.51,0.06l-4.27 1.34 0.03 -0.23z"/>
   <path class="fil83" d="M5.73 71.91l3.17 -1c0.17,0.02 0.35,0.04 0.52,0.06l-3.73 1.17 0.04 -0.23z"/>
   <path class="fil84" d="M5.76 71.68l2.6 -0.82c0.18,0.02 0.36,0.03 0.54,0.05l-3.17 1 0.03 -0.23z"/>
   <path class="fil84" d="M5.8 71.44l2 -0.63c0.19,0.02 0.37,0.03 0.56,0.05l-2.6 0.82 0.04 -0.24z"/>
   <path class="fil85" d="M5.83 71.21l1.4 -0.44c0.19,0.01 0.38,0.03 0.57,0.04l-2 0.63 0.03 -0.23z"/>
   <path class="fil85" d="M5.86 70.98l0.78 -0.25c0.2,0.01 0.39,0.03 0.59,0.04l-1.4 0.44 0.03 -0.23z"/>
   <path class="fil86" d="M5.9 70.74l0.12 -0.04c0.21,0.01 0.41,0.02 0.62,0.03l-0.78 0.25 0.04 -0.24z"/>
   <polygon class="fil87" points="6.02,70.7 5.9,70.74 5.91,70.7 "/>
   <polygon class="fil87" points="9.32,69.22 9.47,69.18 9.31,69.3 "/>
   <path class="fil89" d="M9.36 68.99l0.61 -0.19c-0.17,0.13 -0.33,0.25 -0.5,0.38l-0.15 0.04 0.04 -0.23z"/>
   <path class="fil90" d="M9.39 68.76l1.1 -0.35c-0.18,0.13 -0.35,0.26 -0.52,0.39l-0.61 0.19 0.03 -0.23z"/>
   <path class="fil91" d="M9.43 68.53l1.63 -0.52c-0.19,0.14 -0.38,0.27 -0.57,0.4l-1.1 0.35 0.04 -0.23z"/>
   <path class="fil92" d="M9.46 68.29l2.22 -0.69c-0.21,0.13 -0.42,0.27 -0.62,0.41l-1.63 0.52 0.03 -0.24z"/>
   <path class="fil93" d="M9.5 68.06l2.86 -0.9c-0.23,0.14 -0.46,0.29 -0.68,0.44l-2.22 0.69 0.04 -0.23z"/>
   <path class="fil93" d="M9.53 67.83l3.59 -1.13c-0.26,0.15 -0.51,0.3 -0.76,0.46l-2.86 0.9 0.03 -0.23z"/>
   <path class="fil93" d="M9.57 67.59l4.44 -1.39c-0.3,0.16 -0.6,0.33 -0.89,0.5l-3.59 1.13 0.04 -0.24z"/>
   <path class="fil94" d="M9.6 67.36l5.48 -1.72c-0.37,0.18 -0.72,0.37 -1.07,0.56l-4.44 1.39 0.03 -0.23z"/>
   <path class="fil94" d="M9.64 67.13l6.86 -2.16c-0.49,0.21 -0.96,0.44 -1.42,0.67l-5.48 1.72 0.04 -0.23z"/>
   <path class="fil95" d="M9.67 66.89l7.32 -2.3 0.24 0.07c-0.25,0.1 -0.49,0.2 -0.73,0.31l-6.86 2.16 0.03 -0.24z"/>
   <path class="fil96" d="M9.71 66.66l6.88 -2.16c0.13,0.03 0.26,0.06 0.4,0.09l-7.32 2.3 0.04 -0.23z"/>
   <path class="fil96" d="M9.75 66.42l6.43 -2.02c0.14,0.03 0.27,0.06 0.41,0.1l-6.88 2.16 0.04 -0.24z"/>
   <path class="fil97" d="M9.79 66.19l5.98 -1.88c0.13,0.03 0.27,0.06 0.41,0.09l-6.43 2.02 0.04 -0.23z"/>
   <path class="fil97" d="M9.82 65.96l5.52 -1.74c0.14,0.03 0.28,0.06 0.43,0.09l-5.98 1.88 0.03 -0.23z"/>
   <path class="fil97" d="M9.86 65.72l5.04 -1.58c0.15,0.02 0.29,0.05 0.44,0.08l-5.52 1.74 0.04 -0.24z"/>
   <path class="fil98" d="M9.91 65.49l4.55 -1.43c0.14,0.02 0.29,0.05 0.44,0.08l-5.04 1.58 0.05 -0.23z"/>
   <path class="fil98" d="M9.95 65.25l4.05 -1.27c0.15,0.02 0.3,0.05 0.46,0.08l-4.55 1.43 0.04 -0.24z"/>
   <path class="fil99" d="M9.99 65.01l3.53 -1.11c0.16,0.03 0.32,0.05 0.48,0.08l-4.05 1.27 0.04 -0.24z"/>
   <path class="fil99" d="M10.04 64.78l3 -0.95c0.16,0.03 0.32,0.05 0.48,0.07l-3.53 1.11 0.05 -0.23z"/>
   <path class="fil100" d="M10.08 64.54l2.46 -0.77c0.17,0.02 0.33,0.04 0.5,0.06l-3 0.95 0.04 -0.24z"/>
   <path class="fil101" d="M10.13 64.31l1.89 -0.6c0.18,0.02 0.35,0.04 0.52,0.06l-2.46 0.77 0.05 -0.23z"/>
   <path class="fil101" d="M10.17 64.07l1.32 -0.42c0.18,0.02 0.36,0.04 0.53,0.06l-1.89 0.6 0.04 -0.24z"/>
   <path class="fil102" d="M10.22 63.83l0.72 -0.22c0.19,0.01 0.37,0.03 0.55,0.04l-1.32 0.42 0.05 -0.24z"/>
   <path class="fil102" d="M10.26 63.6l0.11 -0.04c0.19,0.01 0.38,0.03 0.57,0.05l-0.72 0.22 0.04 -0.23z"/>
   <polygon class="fil102" points="10.37,63.56 10.26,63.6 10.27,63.55 "/>
   <path class="fil51" d="M3.7 85.88l0.19 -0.06 -0.09 0.14c-0.03,0 -0.06,0 -0.09,0l-0.01 -0.08z"/>
   <polygon class="fil51" points="3.66,85.67 4.05,85.55 3.89,85.82 3.7,85.88 "/>
   <polygon class="fil52" points="3.63,85.46 4.22,85.27 4.05,85.55 3.66,85.67 "/>
   <polygon class="fil53" points="3.6,85.24 4.39,85 4.22,85.27 3.63,85.46 "/>
   <polygon class="fil54" points="3.58,85.03 4.56,84.72 4.39,85 3.6,85.24 "/>
   <polygon class="fil55" points="3.55,84.82 4.75,84.44 4.56,84.72 3.58,85.03 "/>
   <polygon class="fil55" points="3.52,84.6 4.93,84.16 4.75,84.44 3.55,84.82 "/>
   <polygon class="fil55" points="3.49,84.39 5.12,83.88 4.93,84.16 3.52,84.6 "/>
   <polygon class="fil56" points="3.46,84.18 5.32,83.59 5.12,83.88 3.49,84.39 "/>
   <polygon class="fil56" points="3.43,83.96 5.53,83.31 5.32,83.59 3.46,84.18 "/>
   <polygon class="fil57" points="3.41,83.75 5.73,83.02 5.53,83.31 3.43,83.96 "/>
   <polygon class="fil58" points="3.38,83.54 5.95,82.73 5.73,83.02 3.41,83.75 "/>
   <polygon class="fil59" points="3.35,83.32 6.17,82.44 5.95,82.73 3.38,83.54 "/>
   <polygon class="fil60" points="3.33,83.11 6.4,82.14 6.17,82.44 3.35,83.32 "/>
   <polygon class="fil61" points="3.3,82.89 6.63,81.85 6.4,82.14 3.33,83.11 "/>
   <path class="fil61" d="M3.28 82.68l3.59 -1.13c-0.08,0.1 -0.16,0.2 -0.24,0.3l-3.33 1.04 -0.02 -0.21z"/>
   <polygon class="fil103" points="3.25,82.47 7.12,81.25 6.87,81.55 3.28,82.68 "/>
   <path class="fil103" d="M3.23 82.25l4.15 -1.3c-0.09,0.1 -0.18,0.2 -0.26,0.3l-3.87 1.22 -0.02 -0.22z"/>
   <path class="fil104" d="M3.2 82.04l4.44 -1.4c-0.09,0.1 -0.18,0.2 -0.26,0.31l-4.15 1.3 -0.03 -0.21z"/>
   <path class="fil104" d="M3.18 81.82l4.74 -1.49c-0.1,0.1 -0.19,0.21 -0.28,0.31l-4.44 1.4 -0.02 -0.22z"/>
   <path class="fil105" d="M3.15 81.61l5.05 -1.59c-0.1,0.11 -0.19,0.21 -0.28,0.31l-4.74 1.49 -0.03 -0.21z"/>
   <path class="fil62" d="M3.13 81.39l5.36 -1.68c-0.09,0.1 -0.19,0.21 -0.29,0.31l-5.05 1.59 -0.02 -0.22z"/>
   <polygon class="fil63" points="3.11,81.18 8.38,79.52 8.63,79.56 8.49,79.71 3.13,81.39 "/>
   <path class="fil64" d="M3.08 80.96l4.83 -1.51c0.16,0.02 0.32,0.05 0.47,0.07l-5.27 1.66 -0.03 -0.22z"/>
   <path class="fil64" d="M3.06 80.75l4.35 -1.37c0.17,0.02 0.34,0.04 0.5,0.07l-4.83 1.51 -0.02 -0.21z"/>
   <path class="fil64" d="M3.03 80.53l3.87 -1.21c0.17,0.02 0.34,0.04 0.51,0.06l-4.35 1.37 -0.03 -0.22z"/>
   <path class="fil65" d="M3.01 80.32l3.37 -1.06c0.18,0.02 0.35,0.04 0.52,0.06l-3.87 1.21 -0.02 -0.21z"/>
   <polygon class="fil65" points="2.99,80.11 5.85,79.21 6.38,79.26 3.01,80.32 "/>
   <polygon class="fil65" points="2.96,79.89 5.31,79.15 5.85,79.21 2.99,80.11 "/>
   <polygon class="fil66" points="2.94,79.68 4.76,79.1 5.31,79.15 2.96,79.89 "/>
   <polygon class="fil66" points="2.92,79.46 4.21,79.06 4.76,79.1 2.94,79.68 "/>
   <polygon class="fil67" points="2.9,79.24 3.64,79.01 4.21,79.06 2.92,79.46 "/>
   <path class="fil67" d="M2.87 79.03l0.2 -0.06c0.18,0.01 0.37,0.02 0.57,0.04l-0.74 0.23 -0.03 -0.21z"/>
   <polygon class="fil67" points="3.07,78.97 2.87,79.03 2.87,78.96 "/>
   <polygon class="fil28" points="6.65,94.73 6.9,94.65 6.77,94.9 "/>
   <polygon class="fil28" points="6.52,94.55 7.06,94.38 6.9,94.65 6.65,94.73 "/>
   <polygon class="fil29" points="6.4,94.36 7.22,94.11 7.06,94.38 6.52,94.55 "/>
   <polygon class="fil30" points="6.28,94.18 7.38,93.83 7.22,94.11 6.4,94.36 "/>
   <polygon class="fil31" points="6.17,93.99 7.54,93.56 7.38,93.83 6.28,94.18 "/>
   <polygon class="fil106" points="6.06,93.8 7.71,93.28 7.54,93.56 6.17,93.99 "/>
   <polygon class="fil106" points="5.95,93.62 7.89,93.01 7.71,93.28 6.06,93.8 "/>
   <polygon class="fil107" points="5.84,93.43 8.07,92.73 7.89,93.01 5.95,93.62 "/>
   <polygon class="fil108" points="5.73,93.24 8.26,92.45 8.07,92.73 5.84,93.43 "/>
   <polygon class="fil109" points="5.63,93.05 8.45,92.16 8.26,92.45 5.73,93.24 "/>
   <polygon class="fil109" points="5.54,92.86 8.65,91.88 8.45,92.16 5.63,93.05 "/>
   <polygon class="fil109" points="5.44,92.67 8.85,91.59 8.65,91.88 5.54,92.86 "/>
   <polygon class="fil110" points="5.35,92.47 9.06,91.31 8.85,91.59 5.44,92.67 "/>
   <polygon class="fil110" points="5.26,92.28 9.27,91.02 9.06,91.31 5.35,92.47 "/>
   <polygon class="fil32" points="5.17,92.08 9.49,90.72 9.27,91.02 5.26,92.28 "/>
   <polygon class="fil33" points="5.09,91.89 9.72,90.43 9.49,90.72 5.17,92.08 "/>
   <path class="fil33" d="M5.01 91.69l4.94 -1.55c-0.08,0.09 -0.16,0.19 -0.23,0.29l-4.63 1.46 -0.08 -0.2z"/>
   <polygon class="fil34" points="4.93,91.49 10.19,89.84 9.95,90.14 5.01,91.69 "/>
   <polygon class="fil35" points="4.85,91.29 10.44,89.54 10.19,89.84 4.93,91.49 "/>
   <path class="fil36" d="M4.78 91.1l5.91 -1.86c-0.08,0.1 -0.17,0.2 -0.25,0.3l-5.59 1.75 -0.07 -0.19z"/>
   <polygon class="fil36" points="4.7,90.9 10.54,89.06 10.77,89.14 10.69,89.24 4.78,91.1 "/>
   <polygon class="fil37" points="4.64,90.7 10.2,88.95 10.54,89.06 4.7,90.9 "/>
   <polygon class="fil38" points="4.57,90.49 9.85,88.83 10.2,88.95 4.64,90.7 "/>
   <path class="fil38" d="M4.51 90.29l4.98 -1.57c0.12,0.04 0.24,0.08 0.36,0.11l-5.28 1.66 -0.06 -0.2z"/>
   <path class="fil38" d="M4.44 90.09l4.69 -1.47c0.12,0.03 0.24,0.07 0.36,0.1l-4.98 1.57 -0.07 -0.2z"/>
   <path class="fil39" d="M4.39 89.89l4.37 -1.38c0.12,0.04 0.24,0.07 0.37,0.11l-4.69 1.47 -0.05 -0.2z"/>
   <path class="fil39" d="M4.33 89.68l4.04 -1.27c0.13,0.03 0.26,0.07 0.39,0.1l-4.37 1.38 -0.06 -0.21z"/>
   <path class="fil40" d="M4.27 89.48l3.71 -1.17c0.13,0.03 0.26,0.07 0.39,0.1l-4.04 1.27 -0.06 -0.2z"/>
   <path class="fil40" d="M4.22 89.27l3.36 -1.06c0.13,0.04 0.27,0.07 0.4,0.1l-3.71 1.17 -0.05 -0.21z"/>
   <path class="fil41" d="M4.17 89.06l3 -0.94c0.14,0.03 0.27,0.06 0.41,0.09l-3.36 1.06 -0.05 -0.21z"/>
   <path class="fil42" d="M4.13 88.86l2.62 -0.83c0.14,0.03 0.28,0.06 0.42,0.09l-3 0.94 -0.04 -0.2z"/>
   <path class="fil43" d="M4.08 88.65l2.23 -0.7c0.15,0.02 0.29,0.05 0.44,0.08l-2.62 0.83 -0.05 -0.21z"/>
   <path class="fil43" d="M4.04 88.44l1.82 -0.57c0.15,0.02 0.3,0.05 0.45,0.08l-2.23 0.7 -0.04 -0.21z"/>
   <path class="fil44" d="M4 88.23l1.4 -0.44c0.15,0.02 0.31,0.05 0.46,0.08l-1.82 0.57 -0.04 -0.21z"/>
   <path class="fil45" d="M3.96 88.02l0.96 -0.3c0.16,0.02 0.32,0.04 0.48,0.07l-1.4 0.44 -0.04 -0.21z"/>
   <path class="fil45" d="M3.92 87.81l0.51 -0.16c0.17,0.02 0.33,0.04 0.49,0.07l-0.96 0.3 -0.04 -0.21z"/>
   <path class="fil46" d="M3.89 87.6l0.03 -0.01c0.17,0.02 0.34,0.04 0.51,0.06l-0.51 0.16 -0.03 -0.21z"/>
   <polygon class="fil47" points="3.92,87.59 3.89,87.6 3.89,87.58 "/>
   <path class="fil7" d="M12.81 99.9l0.41 -0.13 -0.15 0.25c-0.08,-0.04 -0.17,-0.08 -0.26,-0.12z"/>
   <path class="fil8" d="M12.54 99.77l0.85 -0.27 -0.17 0.27 -0.41 0.13c-0.09,-0.04 -0.18,-0.09 -0.27,-0.13z"/>
   <path class="fil9" d="M12.26 99.63l1.31 -0.41 -0.18 0.28 -0.85 0.27c-0.1,-0.05 -0.19,-0.09 -0.28,-0.14z"/>
   <path class="fil9" d="M12 99.49l1.75 -0.55 -0.18 0.28 -1.31 0.41c-0.09,-0.05 -0.17,-0.09 -0.26,-0.14z"/>
   <path class="fil10" d="M11.74 99.35l2.2 -0.69 -0.19 0.28 -1.75 0.55c-0.08,-0.05 -0.17,-0.09 -0.26,-0.14z"/>
   <path class="fil11" d="M11.49 99.2l2.64 -0.82c-0.06,0.09 -0.13,0.18 -0.19,0.28l-2.2 0.69c-0.08,-0.05 -0.16,-0.1 -0.25,-0.15z"/>
   <path class="fil11" d="M11.25 99.06l3.08 -0.97 -0.2 0.29 -2.64 0.82c-0.08,-0.04 -0.16,-0.09 -0.24,-0.14z"/>
   <path class="fil12" d="M11.01 98.91l3.53 -1.11 -0.21 0.29 -3.08 0.97c-0.08,-0.05 -0.16,-0.1 -0.24,-0.15z"/>
   <path class="fil13" d="M10.78 98.76l3.97 -1.25 -0.21 0.29 -3.53 1.11c-0.07,-0.05 -0.15,-0.1 -0.23,-0.15z"/>
   <path class="fil14" d="M10.56 98.61l4.42 -1.39c-0.08,0.1 -0.15,0.2 -0.23,0.29l-3.97 1.25c-0.07,-0.05 -0.15,-0.1 -0.22,-0.15z"/>
   <path class="fil14" d="M10.34 98.46l4.86 -1.53 -0.22 0.29 -4.42 1.39c-0.08,-0.05 -0.15,-0.1 -0.22,-0.15z"/>
   <path class="fil14" d="M10.13 98.3l5.31 -1.67c-0.08,0.1 -0.16,0.2 -0.24,0.3l-4.86 1.53c-0.07,-0.05 -0.14,-0.11 -0.21,-0.16z"/>
   <path class="fil15" d="M9.92 98.15l5.77 -1.82 -0.25 0.3 -5.31 1.67c-0.07,-0.05 -0.14,-0.1 -0.21,-0.15z"/>
   <polygon class="fil16" points="9.71,97.99 15.94,96.03 15.69,96.33 9.92,98.15 "/>
   <path class="fil17" d="M9.51 97.83l6.69 -2.11c-0.08,0.11 -0.17,0.21 -0.26,0.31l-6.23 1.96 -0.2 -0.16z"/>
   <path class="fil17" d="M9.32 97.67l7.16 -2.25c-0.09,0.1 -0.19,0.2 -0.28,0.3l-6.69 2.11c-0.06,-0.06 -0.12,-0.11 -0.19,-0.16z"/>
   <path class="fil17" d="M9.13 97.5l7.64 -2.4c-0.1,0.11 -0.2,0.21 -0.29,0.32l-7.16 2.25 -0.19 -0.17z"/>
   <polygon class="fil18" points="8.95,97.34 17.06,94.79 16.86,95 16.77,95.1 9.13,97.5 "/>
   <path class="fil18" d="M8.77 97.17l8.61 -2.7c-0.11,0.1 -0.21,0.21 -0.32,0.32l-8.11 2.55 -0.18 -0.17z"/>
   <path class="fil19" d="M8.59 97.01l9.11 -2.87c-0.11,0.11 -0.22,0.22 -0.32,0.33l-8.61 2.7 -0.18 -0.16z"/>
   <path class="fil20" d="M8.42 96.84l9.63 -3.03c-0.12,0.11 -0.23,0.22 -0.35,0.33l-9.11 2.87 -0.17 -0.17z"/>
   <path class="fil20" d="M8.25 96.67l10.16 -3.19c-0.12,0.11 -0.24,0.22 -0.36,0.33l-9.63 3.03 -0.17 -0.17z"/>
   <path class="fil21" d="M8.09 96.5l10.23 -3.22 0.16 0.13 -0.07 0.07 -10.16 3.19c-0.06,-0.06 -0.11,-0.11 -0.16,-0.17z"/>
   <polygon class="fil22" points="7.93,96.33 18.11,93.12 18.32,93.28 8.09,96.5 "/>
   <polygon class="fil23" points="7.94,96.1 17.91,92.97 18.11,93.12 7.93,96.33 7.86,96.26 "/>
   <polygon class="fil24" points="8.09,95.83 17.7,92.81 17.91,92.97 7.94,96.1 "/>
   <polygon class="fil24" points="8.23,95.56 17.48,92.66 17.7,92.81 8.09,95.83 "/>
   <polygon class="fil25" points="8.39,95.29 17.27,92.5 17.48,92.66 8.23,95.56 "/>
   <polygon class="fil25" points="8.54,95.02 17.05,92.35 17.27,92.5 8.39,95.29 "/>
   <polygon class="fil26" points="8.7,94.75 16.82,92.2 17.05,92.35 8.54,95.02 "/>
   <polygon class="fil27" points="8.87,94.48 16.6,92.05 16.82,92.2 8.7,94.75 "/>
   <polygon class="fil28" points="9.04,94.2 16.37,91.89 16.6,92.05 8.87,94.48 "/>
   <polygon class="fil28" points="9.21,93.92 16.14,91.75 16.37,91.89 9.04,94.2 "/>
   <polygon class="fil28" points="9.39,93.65 15.9,91.6 16.14,91.75 9.21,93.92 "/>
   <polygon class="fil29" points="9.58,93.36 15.66,91.45 15.9,91.6 9.39,93.65 "/>
   <polygon class="fil30" points="9.77,93.08 15.42,91.31 15.66,91.45 9.58,93.36 "/>
   <polygon class="fil31" points="9.96,92.8 15.17,91.16 15.42,91.31 9.77,93.08 "/>
   <polygon class="fil106" points="10.17,92.51 14.92,91.02 15.17,91.16 9.96,92.8 "/>
   <polygon class="fil106" points="10.37,92.23 14.66,90.88 14.92,91.02 10.17,92.51 "/>
   <path class="fil107" d="M10.59 91.94l3.81 -1.2 0.26 0.14 -4.29 1.35c0.07,-0.1 0.15,-0.2 0.22,-0.29z"/>
   <path class="fil108" d="M10.81 91.64l3.32 -1.04 0.27 0.14 -3.81 1.2c0.07,-0.1 0.14,-0.2 0.22,-0.3z"/>
   <polygon class="fil109" points="11.04,91.35 13.86,90.46 14.13,90.6 10.81,91.64 "/>
   <path class="fil109" d="M11.27 91.06l2.32 -0.73 0.27 0.13 -2.82 0.89c0.07,-0.1 0.15,-0.2 0.23,-0.29z"/>
   <path class="fil109" d="M11.51 90.76l1.8 -0.57 0.28 0.14 -2.32 0.73c0.08,-0.1 0.16,-0.2 0.24,-0.3z"/>
   <path class="fil110" d="M11.76 90.46l1.26 -0.4 0.29 0.13 -1.8 0.57c0.08,-0.1 0.17,-0.2 0.25,-0.3z"/>
   <path class="fil110" d="M12.02 90.15l0.71 -0.22 0.29 0.13 -1.26 0.4c0.09,-0.11 0.17,-0.21 0.26,-0.31z"/>
   <path class="fil32" d="M12.29 89.85l0.15 -0.05 0.29 0.13 -0.71 0.22c0.09,-0.1 0.18,-0.2 0.27,-0.3z"/>
   <polygon class="fil33" points="12.44,89.8 12.29,89.85 12.36,89.77 "/>
   <path class="fil48" d="M19.59 81.77l0.52 -0.16c-0.13,0.07 -0.25,0.14 -0.38,0.21l0 0.01c-0.01,0 -0.01,0 -0.02,0.01 0,0 0,-0.01 -0.01,-0.01 0,0 0,0.01 -0.01,0.01 0,-0.01 -0.01,-0.01 -0.02,-0.01l0 -0.01 -0.08 -0.05z"/>
   <path class="fil49" d="M19.33 81.63l1.88 -0.59c-0.37,0.18 -0.74,0.37 -1.1,0.57l-0.52 0.16 -0.26 -0.14z"/>
   <path class="fil50" d="M19.07 81.49l3.63 -1.14c-0.51,0.22 -1.01,0.45 -1.49,0.69l-1.88 0.59 -0.26 -0.14z"/>
   <path class="fil50" d="M18.81 81.35l8.66 -2.72 0.05 0.04c-1.73,0.47 -3.34,1.04 -4.82,1.68l-3.63 1.14 -0.26 -0.14z"/>
   <polygon class="fil51" points="18.54,81.21 27.28,78.46 27.47,78.63 18.81,81.35 "/>
   <polygon class="fil51" points="18.27,81.08 27.09,78.3 27.28,78.46 18.54,81.21 "/>
   <polygon class="fil52" points="17.99,80.94 26.9,78.14 27.09,78.3 18.27,81.08 "/>
   <polygon class="fil53" points="17.71,80.81 26.7,77.98 26.9,78.14 17.99,80.94 "/>
   <polygon class="fil54" points="17.43,80.67 26.51,77.82 26.7,77.98 17.71,80.81 "/>
   <polygon class="fil55" points="17.14,80.54 26.31,77.66 26.51,77.82 17.43,80.67 "/>
   <polygon class="fil55" points="16.85,80.41 26.1,77.5 26.31,77.66 17.14,80.54 "/>
   <polygon class="fil55" points="16.55,80.28 25.9,77.34 26.1,77.5 16.85,80.41 "/>
   <polygon class="fil56" points="16.25,80.16 25.69,77.19 25.9,77.34 16.55,80.28 "/>
   <polygon class="fil56" points="15.94,80.03 25.48,77.03 25.69,77.19 16.25,80.16 "/>
   <polygon class="fil57" points="15.63,79.91 25.27,76.87 25.48,77.03 15.94,80.03 "/>
   <polygon class="fil58" points="15.32,79.78 25.06,76.72 25.27,76.87 15.63,79.91 "/>
   <polygon class="fil59" points="15,79.66 24.84,76.57 25.06,76.72 15.32,79.78 "/>
   <polygon class="fil60" points="14.67,79.54 24.62,76.41 24.84,76.57 15,79.66 "/>
   <polygon class="fil61" points="14.34,79.42 24.4,76.26 24.62,76.41 14.67,79.54 "/>
   <polygon class="fil61" points="14,79.31 24.17,76.11 24.4,76.26 14.34,79.42 "/>
   <polygon class="fil103" points="13.65,79.19 23.94,75.96 24.17,76.11 14,79.31 "/>
   <path class="fil103" d="M13.3 79.08l10.41 -3.27 0.23 0.15 -10.29 3.23c-0.11,-0.03 -0.23,-0.07 -0.35,-0.11z"/>
   <polygon class="fil104" points="12.95,78.97 23.47,75.66 23.71,75.81 13.3,79.08 "/>
   <path class="fil104" d="M12.58 78.86l10.66 -3.35 0.23 0.15 -10.52 3.31c-0.12,-0.03 -0.24,-0.07 -0.37,-0.11z"/>
   <polygon class="fil105" points="12.21,78.76 22.99,75.37 23.24,75.51 12.58,78.86 "/>
   <polygon class="fil62" points="11.94,78.62 22.75,75.22 22.99,75.37 12.21,78.76 11.89,78.67 "/>
   <path class="fil63" d="M12.35 78.27l10.15 -3.19 0.25 0.14 -10.81 3.4c0.14,-0.12 0.27,-0.23 0.41,-0.35z"/>
   <path class="fil64" d="M12.78 77.91l9.47 -2.97 0.25 0.14 -10.15 3.19c0.14,-0.12 0.29,-0.24 0.43,-0.36z"/>
   <path class="fil64" d="M13.24 77.55l8.75 -2.76 0.26 0.15 -9.47 2.97c0.16,-0.12 0.31,-0.24 0.46,-0.36z"/>
   <path class="fil64" d="M13.74 77.17l7.99 -2.52 0.26 0.14 -8.75 2.76c0.17,-0.13 0.33,-0.26 0.5,-0.38z"/>
   <path class="fil65" d="M14.26 76.78l7.21 -2.27 0.26 0.14 -7.99 2.52c0.17,-0.13 0.35,-0.26 0.52,-0.39z"/>
   <path class="fil65" d="M14.84 76.38l6.37 -2 0.26 0.13 -7.21 2.27c0.19,-0.14 0.38,-0.27 0.58,-0.4z"/>
   <path class="fil65" d="M15.47 75.96l5.47 -1.72 0.27 0.14 -6.37 2c0.21,-0.15 0.42,-0.28 0.63,-0.42z"/>
   <path class="fil66" d="M16.17 75.51l4.49 -1.41 0.28 0.14 -5.47 1.72c0.23,-0.15 0.46,-0.3 0.7,-0.45z"/>
   <path class="fil66" d="M16.97 75.04l3.41 -1.07 0.28 0.13 -4.49 1.41c0.27,-0.16 0.53,-0.32 0.8,-0.47z"/>
   <path class="fil67" d="M17.92 74.52l2.18 -0.69 0.28 0.14 -3.41 1.07c0.32,-0.18 0.63,-0.35 0.95,-0.52z"/>
   <path class="fil67" d="M19.14 73.91l0.67 -0.21 0.29 0.13 -2.18 0.69c0.4,-0.21 0.81,-0.41 1.22,-0.61z"/>
   <path class="fil67" d="M19.81 73.7l-0.67 0.21c0.18,-0.08 0.36,-0.16 0.53,-0.24l0 -0.01c0.01,0 0.02,-0.01 0.02,-0.01 0.01,0 0.01,0 0.01,0.01 0.01,-0.01 0.01,-0.01 0.01,-0.01 0.01,0 0.01,0.01 0.02,0.01l0 0.01 0.08 0.03z"/>
   <polygon class="fil38" points="11.7,87.81 12.11,87.68 11.91,87.89 "/>
   <polygon class="fil39" points="11.38,87.69 12.43,87.36 12.17,87.62 12.11,87.68 11.7,87.81 "/>
   <path class="fil39" d="M11.05 87.57l1.71 -0.54c-0.12,0.11 -0.23,0.22 -0.33,0.33l-1.05 0.33 -0.33 -0.12z"/>
   <path class="fil40" d="M10.71 87.45l2.39 -0.75c-0.12,0.11 -0.23,0.22 -0.34,0.33l-1.71 0.54 -0.34 -0.12z"/>
   <path class="fil40" d="M10.36 87.34l3.1 -0.97c-0.13,0.11 -0.24,0.22 -0.36,0.33l-2.39 0.75 -0.35 -0.11z"/>
   <path class="fil41" d="M10.01 87.23l3.82 -1.2c-0.13,0.11 -0.25,0.22 -0.37,0.34l-3.1 0.97c-0.12,-0.04 -0.23,-0.08 -0.35,-0.11z"/>
   <path class="fil42" d="M9.65 87.12l4.58 -1.44c-0.14,0.12 -0.27,0.23 -0.4,0.35l-3.82 1.2c-0.12,-0.04 -0.24,-0.07 -0.36,-0.11z"/>
   <path class="fil43" d="M9.28 87.01l5.36 -1.68c-0.14,0.11 -0.28,0.23 -0.41,0.35l-4.58 1.44c-0.13,-0.04 -0.25,-0.07 -0.37,-0.11z"/>
   <path class="fil43" d="M8.9 86.91l6.18 -1.94c-0.15,0.12 -0.3,0.24 -0.44,0.36l-5.36 1.68 -0.38 -0.1z"/>
   <path class="fil44" d="M8.51 86.81l7.03 -2.21c-0.15,0.12 -0.31,0.24 -0.46,0.37l-6.18 1.94c-0.13,-0.03 -0.26,-0.07 -0.39,-0.1z"/>
   <path class="fil45" d="M8.12 86.71l7.92 -2.49c-0.17,0.13 -0.33,0.25 -0.5,0.38l-7.03 2.21c-0.13,-0.03 -0.26,-0.07 -0.39,-0.1z"/>
   <path class="fil45" d="M7.71 86.62l8.86 -2.79c-0.18,0.13 -0.36,0.26 -0.53,0.39l-7.92 2.49c-0.14,-0.03 -0.27,-0.06 -0.41,-0.09z"/>
   <path class="fil46" d="M7.3 86.53l9.85 -3.1c-0.2,0.13 -0.39,0.27 -0.58,0.4l-8.86 2.79c-0.13,-0.03 -0.27,-0.06 -0.41,-0.09z"/>
   <path class="fil47" d="M6.87 86.44l10.9 -3.43c-0.21,0.14 -0.42,0.28 -0.62,0.42l-9.85 3.1c-0.14,-0.04 -0.29,-0.06 -0.43,-0.09z"/>
   <path class="fil47" d="M6.43 86.35l11.59 -3.64 0.12 0.06c-0.12,0.08 -0.25,0.16 -0.37,0.24l-10.9 3.43c-0.14,-0.03 -0.29,-0.06 -0.44,-0.09z"/>
   <path class="fil48" d="M5.98 86.27l11.77 -3.7 0.27 0.14 -11.59 3.64c-0.15,-0.03 -0.29,-0.05 -0.45,-0.08z"/>
   <path class="fil48" d="M5.61 86.17l11.87 -3.74 0.27 0.14 -11.77 3.7c-0.13,-0.02 -0.26,-0.04 -0.39,-0.06l0.02 -0.04z"/>
   <polygon class="fil49" points="5.79,85.89 17.2,82.3 17.48,82.43 5.61,86.17 "/>
   <polygon class="fil50" points="5.96,85.61 16.92,82.17 17.2,82.3 5.79,85.89 "/>
   <polygon class="fil50" points="6.14,85.33 16.64,82.03 16.92,82.17 5.96,85.61 "/>
   <polygon class="fil51" points="6.33,85.05 16.35,81.9 16.64,82.03 6.14,85.33 "/>
   <polygon class="fil51" points="6.51,84.77 16.05,81.77 16.35,81.9 6.33,85.05 "/>
   <polygon class="fil52" points="6.71,84.49 15.75,81.65 16.05,81.77 6.51,84.77 "/>
   <polygon class="fil53" points="6.91,84.2 15.45,81.52 15.75,81.65 6.71,84.49 "/>
   <polygon class="fil54" points="7.11,83.92 15.14,81.39 15.45,81.52 6.91,84.2 "/>
   <polygon class="fil55" points="7.32,83.63 14.82,81.27 15.14,81.39 7.11,83.92 "/>
   <polygon class="fil55" points="7.53,83.34 14.5,81.15 14.82,81.27 7.32,83.63 "/>
   <polygon class="fil55" points="7.76,83.05 14.17,81.03 14.5,81.15 7.53,83.34 "/>
   <polygon class="fil56" points="7.98,82.75 13.84,80.91 14.17,81.03 7.76,83.05 "/>
   <polygon class="fil56" points="8.22,82.46 13.5,80.8 13.84,80.91 7.98,82.75 "/>
   <path class="fil57" d="M8.46 82.16l4.7 -1.48 0.34 0.12 -5.28 1.66c0.08,-0.1 0.16,-0.2 0.24,-0.3z"/>
   <path class="fil58" d="M8.72 81.86l4.08 -1.29 0.36 0.11 -4.7 1.48c0.09,-0.1 0.17,-0.2 0.26,-0.3z"/>
   <path class="fil59" d="M8.98 81.55l3.47 -1.09 0.35 0.11 -4.08 1.29c0.08,-0.1 0.17,-0.21 0.26,-0.31z"/>
   <path class="fil60" d="M9.25 81.24l2.83 -0.88 0.37 0.1 -3.47 1.09c0.09,-0.1 0.18,-0.2 0.27,-0.31z"/>
   <path class="fil61" d="M9.54 80.93l2.17 -0.68c0.12,0.04 0.25,0.07 0.37,0.11l-2.83 0.88c0.09,-0.1 0.19,-0.2 0.29,-0.31z"/>
   <path class="fil61" d="M9.83 80.62l1.49 -0.47 0.39 0.1 -2.17 0.68c0.09,-0.1 0.19,-0.21 0.29,-0.31z"/>
   <path class="fil103" d="M10.15 80.3l0.78 -0.25c0.13,0.03 0.26,0.07 0.39,0.1l-1.49 0.47 0.2 -0.21 0.12 -0.11z"/>
   <path class="fil103" d="M10.49 79.97l0.04 -0.02c0.14,0.03 0.27,0.07 0.4,0.1l-0.78 0.25c0.11,-0.11 0.22,-0.22 0.34,-0.33z"/>
   <polygon class="fil104" points="10.53,79.95 10.49,79.97 10.51,79.95 "/>
   <path class="fil72" d="M26.22 69.91l1.43 -0.45 0.2 0.15c-0.55,0.09 -1.1,0.19 -1.63,0.3z"/>
   <path class="fil73" d="M19.44 71.82l7.99 -2.51 0.22 0.15 -1.43 0.45c-2.38,0.5 -4.54,1.19 -6.49,2.01l0 0.01c-0.01,0 -0.01,0.01 -0.02,0.01 0,0 0,-0.01 -0.01,-0.01 0,0 0,0.01 -0.01,0.01 0,0 -0.01,-0.01 -0.02,-0.01l0 -0.01 -0.23 -0.1z"/>
   <polygon class="fil73" points="19.13,71.7 27.21,69.16 27.43,69.31 19.44,71.82 "/>
   <polygon class="fil74" points="18.81,71.57 26.99,69 27.21,69.16 19.13,71.7 "/>
   <polygon class="fil74" points="18.49,71.45 26.76,68.85 26.99,69 18.81,71.57 "/>
   <polygon class="fil75" points="18.17,71.33 26.53,68.7 26.76,68.85 18.49,71.45 "/>
   <polygon class="fil75" points="17.84,71.21 26.3,68.55 26.53,68.7 18.17,71.33 "/>
   <polygon class="fil76" points="17.51,71.1 26.06,68.41 26.3,68.55 17.84,71.21 "/>
   <polygon class="fil77" points="17.17,70.98 25.82,68.26 26.06,68.41 17.51,71.1 "/>
   <polygon class="fil78" points="16.82,70.87 25.58,68.11 25.82,68.26 17.17,70.98 "/>
   <polygon class="fil78" points="16.46,70.76 25.33,67.97 25.58,68.11 16.82,70.87 "/>
   <polygon class="fil79" points="16.1,70.65 25.08,67.82 25.33,67.97 16.46,70.76 "/>
   <polygon class="fil79" points="15.74,70.54 24.83,67.68 25.08,67.82 16.1,70.65 "/>
   <polygon class="fil80" points="15.36,70.44 24.58,67.54 24.83,67.68 15.74,70.54 "/>
   <path class="fil80" d="M14.98 70.33l9.34 -2.93 0.26 0.14 -9.22 2.9c-0.12,-0.04 -0.25,-0.07 -0.38,-0.11z"/>
   <path class="fil80" d="M14.59 70.23l9.46 -2.97 0.27 0.14 -9.34 2.93c-0.13,-0.03 -0.26,-0.06 -0.39,-0.1z"/>
   <polygon class="fil81" points="14.19,70.14 23.78,67.12 24.05,67.26 14.59,70.23 "/>
   <path class="fil81" d="M13.79 70.04l9.72 -3.06 0.27 0.14 -9.59 3.02c-0.13,-0.04 -0.26,-0.07 -0.4,-0.1z"/>
   <polygon class="fil82" points="13.37,69.95 23.24,66.85 23.51,66.98 13.79,70.04 "/>
   <path class="fil82" d="M12.95 69.86l10.01 -3.15 0.28 0.14 -9.87 3.1c-0.14,-0.03 -0.28,-0.06 -0.42,-0.09z"/>
   <path class="fil83" d="M12.51 69.78l10.16 -3.2 0.29 0.13 -10.01 3.15c-0.15,-0.03 -0.29,-0.06 -0.44,-0.08z"/>
   <path class="fil84" d="M12.07 69.69l10.31 -3.24 0.29 0.13 -10.16 3.2c-0.14,-0.03 -0.29,-0.06 -0.44,-0.09z"/>
   <path class="fil84" d="M11.61 69.62l10.48 -3.3 0.29 0.13 -10.31 3.24c-0.15,-0.02 -0.31,-0.05 -0.46,-0.07z"/>
   <path class="fil85" d="M12.05 69.26l9.74 -3.07 0.3 0.13 -10.48 3.3 -0.06 -0.01c0.17,-0.12 0.33,-0.24 0.5,-0.35z"/>
   <path class="fil85" d="M12.67 68.84l8.82 -2.77 0.3 0.12 -9.74 3.07c0.2,-0.15 0.41,-0.28 0.62,-0.42z"/>
   <path class="fil86" d="M13.35 68.4l7.83 -2.46 0.31 0.13 -8.82 2.77c0.22,-0.15 0.45,-0.29 0.68,-0.44z"/>
   <path class="fil87" d="M14.13 67.94l6.73 -2.12 0.32 0.12 -7.83 2.46c0.26,-0.16 0.51,-0.31 0.78,-0.46z"/>
   <path class="fil87" d="M15.04 67.43l5.5 -1.73 0.32 0.12 -6.73 2.12c0.3,-0.18 0.6,-0.35 0.91,-0.51z"/>
   <path class="fil89" d="M16.17 66.85l4.05 -1.27c0.11,0.04 0.22,0.08 0.32,0.12l-5.5 1.73c0.37,-0.2 0.75,-0.4 1.13,-0.58z"/>
   <path class="fil90" d="M17.81 66.11l2.08 -0.65 0.33 0.12 -4.05 1.27c0.54,-0.26 1.09,-0.51 1.64,-0.74z"/>
   <path class="fil91" d="M19.89 65.46l-2.08 0.65c0.61,-0.25 1.23,-0.49 1.86,-0.71l0 0c0.01,-0.01 0.02,-0.01 0.02,-0.01 0.01,0 0.01,0 0.01,0 0.01,0 0.01,0 0.01,0 0.01,0 0.01,0 0.02,0.01l0 0 0.16 0.06z"/>
   <polygon class="fil48" points="34.12,77.43 34.39,77.34 34.4,77.41 "/>
   <path class="fil48" d="M33.08 77.53l1.29 -0.4 0.02 0.21 -0.27 0.09c-0.37,0.03 -0.71,0.06 -1.04,0.1z"/>
   <path class="fil49" d="M31.7 77.74l2.64 -0.83 0.03 0.22 -1.29 0.4c-0.49,0.06 -0.94,0.13 -1.38,0.21z"/>
   <path class="fil50" d="M29.68 78.16l4.64 -1.46 0.02 0.21 -2.64 0.83c-0.66,0.12 -1.31,0.26 -2.02,0.42z"/>
   <polygon class="fil50" points="29.25,78.07 34.29,76.48 34.32,76.7 29.68,78.16 29.41,78.21 "/>
   <polygon class="fil51" points="29.07,77.9 34.26,76.27 34.29,76.48 29.25,78.07 "/>
   <polygon class="fil51" points="28.89,77.74 34.24,76.06 34.26,76.27 29.07,77.9 "/>
   <polygon class="fil52" points="28.7,77.57 34.21,75.84 34.24,76.06 28.89,77.74 "/>
   <polygon class="fil53" points="28.52,77.41 34.18,75.63 34.21,75.84 28.7,77.57 "/>
   <polygon class="fil54" points="28.33,77.25 34.16,75.41 34.18,75.63 28.52,77.41 "/>
   <polygon class="fil55" points="28.13,77.09 34.13,75.2 34.16,75.41 28.33,77.25 "/>
   <polygon class="fil55" points="27.94,76.92 34.1,74.99 34.13,75.2 28.13,77.09 "/>
   <polygon class="fil55" points="27.74,76.76 34.07,74.77 34.1,74.99 27.94,76.92 "/>
   <polygon class="fil56" points="27.55,76.6 34.05,74.56 34.07,74.77 27.74,76.76 "/>
   <polygon class="fil56" points="27.35,76.44 34.02,74.35 34.05,74.56 27.55,76.6 "/>
   <polygon class="fil57" points="27.14,76.29 33.99,74.13 34.02,74.35 27.35,76.44 "/>
   <polygon class="fil58" points="26.94,76.13 33.96,73.92 33.99,74.13 27.14,76.29 "/>
   <polygon class="fil59" points="26.73,75.97 33.93,73.71 33.96,73.92 26.94,76.13 "/>
   <polygon class="fil60" points="26.52,75.82 33.9,73.49 33.93,73.71 26.73,75.97 "/>
   <polygon class="fil61" points="26.31,75.66 33.87,73.28 33.9,73.49 26.52,75.82 "/>
   <polygon class="fil61" points="26.09,75.51 33.84,73.07 33.87,73.28 26.31,75.66 "/>
   <polygon class="fil103" points="25.87,75.35 33.81,72.86 33.84,73.07 26.09,75.51 "/>
   <polygon class="fil103" points="25.65,75.2 33.78,72.64 33.81,72.86 25.87,75.35 "/>
   <polygon class="fil104" points="25.43,75.05 33.75,72.43 33.78,72.64 25.65,75.2 "/>
   <polygon class="fil104" points="25.21,74.9 33.72,72.22 33.75,72.43 25.43,75.05 "/>
   <polygon class="fil105" points="24.98,74.75 33.69,72.01 33.72,72.22 25.21,74.9 "/>
   <polygon class="fil62" points="24.75,74.6 33.66,71.79 33.69,72.01 24.98,74.75 "/>
   <polygon class="fil63" points="24.51,74.45 33.63,71.58 33.66,71.79 24.75,74.6 "/>
   <polygon class="fil64" points="24.28,74.3 33.6,71.37 33.63,71.58 24.51,74.45 "/>
   <polygon class="fil64" points="24.04,74.15 33.57,71.15 33.6,71.37 24.28,74.3 "/>
   <polygon class="fil64" points="23.79,74.01 33.54,70.94 33.57,71.15 24.04,74.15 "/>
   <polygon class="fil65" points="23.55,73.86 33.51,70.73 33.54,70.94 23.79,74.01 "/>
   <path class="fil65" d="M23.3 73.72l9.49 -2.99c0.24,-0.01 0.48,-0.02 0.71,-0.03l0.01 0.03 -9.96 3.13 -0.25 -0.14z"/>
   <path class="fil65" d="M23.05 73.57l8.86 -2.78c0.29,-0.02 0.59,-0.04 0.88,-0.06l-9.49 2.99 -0.25 -0.15z"/>
   <path class="fil66" d="M22.79 73.43l8.15 -2.56c0.33,-0.03 0.65,-0.06 0.97,-0.08l-8.86 2.78 -0.26 -0.14z"/>
   <path class="fil66" d="M22.53 73.29l7.35 -2.31c0.35,-0.04 0.71,-0.08 1.06,-0.11l-8.15 2.56 -0.26 -0.14z"/>
   <path class="fil67" d="M22.27 73.15l6.39 -2.01c0.4,-0.06 0.81,-0.11 1.22,-0.16l-7.35 2.31 -0.26 -0.14z"/>
   <path class="fil67" d="M22 73.01l5.18 -1.63c0.49,-0.08 0.98,-0.16 1.48,-0.24l-6.39 2.01 -0.27 -0.14z"/>
   <path class="fil67" d="M21.73 72.88l3.3 -1.04c0.7,-0.17 1.42,-0.32 2.15,-0.46l-5.18 1.63 -0.27 -0.13z"/>
   <path class="fil68" d="M25.03 71.84l-3.3 1.04 -0.06 -0.03c1.06,-0.39 2.18,-0.73 3.36,-1.01z"/>
   <polygon class="fil71" points="29.94,69.18 30.07,69.14 30.09,69.3 "/>
   <polygon class="fil72" points="29.74,69.03 30.04,68.93 30.07,69.14 29.94,69.18 "/>
   <polygon class="fil72" points="29.53,68.87 30.01,68.72 30.04,68.93 29.74,69.03 "/>
   <polygon class="fil73" points="29.32,68.71 29.98,68.51 30.01,68.72 29.53,68.87 "/>
   <polygon class="fil73" points="29.11,68.56 29.94,68.3 29.98,68.51 29.32,68.71 "/>
   <polygon class="fil74" points="28.9,68.4 29.91,68.08 29.94,68.3 29.11,68.56 "/>
   <polygon class="fil74" points="28.68,68.25 29.88,67.87 29.91,68.08 28.9,68.4 "/>
   <polygon class="fil75" points="28.47,68.09 29.85,67.66 29.88,67.87 28.68,68.25 "/>
   <polygon class="fil75" points="28.25,67.94 29.82,67.45 29.85,67.66 28.47,68.09 "/>
   <polygon class="fil76" points="28.02,67.79 29.79,67.23 29.82,67.45 28.25,67.94 "/>
   <polygon class="fil77" points="27.79,67.64 29.75,67.02 29.79,67.23 28.02,67.79 "/>
   <polygon class="fil78" points="27.56,67.49 29.72,66.81 29.75,67.02 27.79,67.64 "/>
   <polygon class="fil78" points="27.33,67.34 29.69,66.6 29.72,66.81 27.56,67.49 "/>
   <polygon class="fil79" points="27.1,67.19 29.65,66.39 29.69,66.6 27.33,67.34 "/>
   <polygon class="fil79" points="26.86,67.04 29.62,66.18 29.65,66.39 27.1,67.19 "/>
   <polygon class="fil80" points="26.62,66.9 29.58,65.96 29.62,66.18 26.86,67.04 "/>
   <polygon class="fil80" points="26.38,66.75 29.55,65.75 29.58,65.96 26.62,66.9 "/>
   <polygon class="fil80" points="26.13,66.61 29.51,65.54 29.55,65.75 26.38,66.75 "/>
   <polygon class="fil81" points="25.88,66.46 29.47,65.33 29.51,65.54 26.13,66.61 "/>
   <polygon class="fil81" points="25.62,66.32 29.43,65.12 29.47,65.33 25.88,66.46 "/>
   <polygon class="fil82" points="25.37,66.18 29.39,64.91 29.43,65.12 25.62,66.32 "/>
   <polygon class="fil82" points="25.11,66.04 29.35,64.7 29.39,64.91 25.37,66.18 "/>
   <polygon class="fil83" points="24.84,65.9 29.32,64.49 29.35,64.7 25.11,66.04 "/>
   <polygon class="fil84" points="24.58,65.76 29.27,64.28 29.32,64.49 24.84,65.9 "/>
   <polygon class="fil84" points="24.3,65.62 29.23,64.07 29.27,64.28 24.58,65.76 "/>
   <polygon class="fil85" points="24.03,65.49 29.19,63.86 29.23,64.07 24.3,65.62 "/>
   <polygon class="fil85" points="23.75,65.36 29.15,63.66 29.19,63.86 24.03,65.49 "/>
   <path class="fil86" d="M23.47 65.22l5.19 -1.63c0.16,-0.01 0.31,-0.03 0.47,-0.04l0.02 0.11 -5.4 1.7 -0.28 -0.14z"/>
   <path class="fil87" d="M23.18 65.09l4.49 -1.41c0.32,-0.04 0.66,-0.07 0.99,-0.09l-5.19 1.63 -0.29 -0.13z"/>
   <path class="fil87" d="M22.89 64.96l3.65 -1.15c0.37,-0.05 0.75,-0.09 1.13,-0.13l-4.49 1.41 -0.29 -0.13z"/>
   <path class="fil89" d="M22.59 64.83l2.59 -0.81c0.45,-0.08 0.9,-0.15 1.36,-0.21l-3.65 1.15 -0.3 -0.13z"/>
   <path class="fil90" d="M22.29 64.7l1.01 -0.32c0.62,-0.13 1.25,-0.26 1.88,-0.36l-2.59 0.81 -0.3 -0.13z"/>
   <path class="fil91" d="M23.3 64.38l-1.01 0.32 -0.11 -0.04c0.37,-0.1 0.74,-0.19 1.12,-0.28z"/>
   <path class="fil28" d="M35.55 85.87l0.17 -0.06 -0.02 0.15c-0.03,0 -0.07,0 -0.1,0l-0.05 -0.09z"/>
   <polygon class="fil28" points="35.43,85.68 35.75,85.58 35.72,85.81 35.55,85.87 "/>
   <polygon class="fil28" points="35.32,85.49 35.79,85.34 35.75,85.58 35.43,85.68 "/>
   <polygon class="fil29" points="35.21,85.3 35.82,85.11 35.79,85.34 35.32,85.49 "/>
   <polygon class="fil30" points="35.09,85.12 35.85,84.88 35.82,85.11 35.21,85.3 "/>
   <polygon class="fil31" points="34.98,84.93 35.88,84.65 35.85,84.88 35.09,85.12 "/>
   <polygon class="fil106" points="34.86,84.75 35.91,84.42 35.88,84.65 34.98,84.93 "/>
   <polygon class="fil106" points="34.74,84.56 35.94,84.18 35.91,84.42 34.86,84.75 "/>
   <polygon class="fil107" points="34.62,84.38 35.97,83.95 35.94,84.18 34.74,84.56 "/>
   <polygon class="fil108" points="34.5,84.2 36,83.72 35.97,83.95 34.62,84.38 "/>
   <polygon class="fil109" points="34.37,84.01 36.03,83.49 36,83.72 34.5,84.2 "/>
   <polygon class="fil109" points="34.25,83.83 36.06,83.26 36.03,83.49 34.37,84.01 "/>
   <polygon class="fil109" points="34.12,83.65 36.09,83.03 36.06,83.26 34.25,83.83 "/>
   <polygon class="fil110" points="33.99,83.46 36.11,82.8 36.09,83.03 34.12,83.65 "/>
   <polygon class="fil110" points="33.86,83.28 36.14,82.57 36.11,82.8 33.99,83.46 "/>
   <polygon class="fil32" points="33.73,83.1 36.17,82.34 36.14,82.57 33.86,83.28 "/>
   <polygon class="fil33" points="33.6,82.92 36.2,82.11 36.17,82.34 33.73,83.1 "/>
   <polygon class="fil33" points="33.47,82.74 36.22,81.88 36.2,82.11 33.6,82.92 "/>
   <polygon class="fil34" points="33.33,82.56 36.25,81.64 36.22,81.88 33.47,82.74 "/>
   <polygon class="fil35" points="33.19,82.38 36.27,81.41 36.25,81.64 33.33,82.56 "/>
   <polygon class="fil36" points="33.06,82.2 36.3,81.18 36.27,81.41 33.19,82.38 "/>
   <polygon class="fil36" points="32.92,82.03 36.32,80.95 36.3,81.18 33.06,82.2 "/>
   <polygon class="fil37" points="32.77,81.85 36.35,80.72 36.32,80.95 32.92,82.03 "/>
   <polygon class="fil38" points="32.63,81.67 36.38,80.49 36.35,80.72 32.77,81.85 "/>
   <polygon class="fil38" points="32.49,81.49 36.4,80.26 36.38,80.49 32.63,81.67 "/>
   <polygon class="fil38" points="32.34,81.32 36.43,80.03 36.4,80.26 32.49,81.49 "/>
   <polygon class="fil39" points="32.19,81.14 36.45,79.8 36.43,80.03 32.34,81.32 "/>
   <polygon class="fil39" points="32.04,80.97 36.47,79.57 36.45,79.8 32.19,81.14 "/>
   <polygon class="fil40" points="31.89,80.79 36.5,79.34 36.47,79.57 32.04,80.97 "/>
   <polygon class="fil40" points="31.74,80.62 36.52,79.11 36.5,79.34 31.89,80.79 "/>
   <polygon class="fil41" points="31.59,80.44 36.26,78.97 36.54,78.96 36.54,78.97 36.52,79.11 31.74,80.62 "/>
   <path class="fil42" d="M31.43 80.27l3.9 -1.23c0.34,-0.02 0.65,-0.05 0.93,-0.07l-4.67 1.47 -0.16 -0.17z"/>
   <path class="fil43" d="M31.28 80.1l3.08 -0.97c0.34,-0.03 0.66,-0.06 0.97,-0.09l-3.9 1.23 -0.15 -0.17z"/>
   <path class="fil43" d="M31.12 79.92l2.22 -0.69c0.34,-0.04 0.68,-0.07 1.02,-0.1l-3.08 0.97 -0.16 -0.18z"/>
   <path class="fil44" d="M30.96 79.75l1.28 -0.4c0.35,-0.04 0.72,-0.08 1.1,-0.12l-2.22 0.69 -0.16 -0.17z"/>
   <path class="fil45" d="M30.79 79.58l0.17 -0.05c0.37,-0.06 0.8,-0.12 1.28,-0.18l-1.28 0.4 -0.17 -0.17z"/>
   <polygon class="fil45" points="30.96,79.53 30.79,79.58 30.77,79.56 "/>
   <polygon class="fil5" points="32.58,94.8 32.75,94.74 32.64,94.9 "/>
   <path class="fil6" d="M32.48 94.61l0.46 -0.15c-0.07,0.1 -0.13,0.19 -0.19,0.28l-0.17 0.06 -0.1 -0.19z"/>
   <path class="fil6" d="M32.37 94.42l0.75 -0.24c-0.06,0.1 -0.12,0.19 -0.18,0.28l-0.46 0.15 -0.11 -0.19z"/>
   <path class="fil7" d="M32.26 94.23l1.03 -0.32c-0.06,0.09 -0.11,0.18 -0.17,0.27l-0.75 0.24 -0.11 -0.19z"/>
   <path class="fil7" d="M32.15 94.04l1.3 -0.41c-0.05,0.1 -0.11,0.19 -0.16,0.28l-1.03 0.32 -0.11 -0.19z"/>
   <path class="fil7" d="M32.04 93.86l1.56 -0.5c-0.05,0.1 -0.1,0.19 -0.15,0.27l-1.3 0.41 -0.11 -0.18z"/>
   <path class="fil8" d="M31.93 93.67l1.82 -0.57c-0.05,0.09 -0.1,0.18 -0.15,0.26l-1.56 0.5 -0.11 -0.19z"/>
   <path class="fil9" d="M31.81 93.48l2.07 -0.65c-0.04,0.09 -0.09,0.18 -0.13,0.27l-1.82 0.57 -0.12 -0.19z"/>
   <path class="fil9" d="M31.7 93.3l2.31 -0.73c-0.04,0.09 -0.08,0.18 -0.13,0.26l-2.07 0.65 -0.11 -0.18z"/>
   <path class="fil10" d="M31.58 93.11l2.55 -0.8c-0.04,0.09 -0.08,0.17 -0.12,0.26l-2.31 0.73 -0.12 -0.19z"/>
   <path class="fil11" d="M31.46 92.93l2.79 -0.88c-0.04,0.09 -0.08,0.17 -0.12,0.26l-2.55 0.8 -0.12 -0.18z"/>
   <path class="fil11" d="M31.34 92.74l3.02 -0.95c-0.04,0.09 -0.07,0.18 -0.11,0.26l-2.79 0.88 -0.12 -0.19z"/>
   <path class="fil12" d="M31.22 92.56l3.24 -1.02c-0.03,0.08 -0.07,0.17 -0.1,0.25l-3.02 0.95 -0.12 -0.18z"/>
   <path class="fil13" d="M31.1 92.37l3.46 -1.08c-0.03,0.08 -0.07,0.17 -0.1,0.25l-3.24 1.02 -0.12 -0.19z"/>
   <path class="fil14" d="M30.97 92.19l3.68 -1.15c-0.03,0.08 -0.06,0.16 -0.09,0.25l-3.46 1.08 -0.13 -0.18z"/>
   <path class="fil14" d="M30.85 92.01l3.89 -1.23c-0.03,0.09 -0.06,0.17 -0.09,0.26l-3.68 1.15 -0.12 -0.18z"/>
   <polygon class="fil14" points="30.72,91.83 34.82,90.54 34.74,90.78 30.85,92.01 "/>
   <polygon class="fil15" points="30.59,91.64 34.9,90.29 34.82,90.54 30.72,91.83 "/>
   <polygon class="fil16" points="30.46,91.46 34.97,90.04 34.9,90.29 30.59,91.64 "/>
   <polygon class="fil17" points="30.33,91.28 35.04,89.8 34.97,90.04 30.46,91.46 "/>
   <polygon class="fil17" points="30.2,91.1 35.11,89.56 35.04,89.8 30.33,91.28 "/>
   <polygon class="fil17" points="30.06,90.92 35.17,89.32 35.11,89.56 30.2,91.1 "/>
   <polygon class="fil18" points="29.93,90.74 35.23,89.07 35.17,89.32 30.06,90.92 "/>
   <polygon class="fil18" points="29.79,90.56 35.28,88.84 35.23,89.07 29.93,90.74 "/>
   <polygon class="fil19" points="29.65,90.38 35.34,88.6 35.28,88.84 29.79,90.56 "/>
   <polygon class="fil20" points="29.51,90.21 35.38,88.36 35.34,88.6 29.65,90.38 "/>
   <polygon class="fil20" points="29.37,90.03 35.43,88.12 35.38,88.36 29.51,90.21 "/>
   <polygon class="fil21" points="29.23,89.85 35.47,87.89 35.43,88.12 29.37,90.03 "/>
   <polygon class="fil22" points="29.08,89.67 35.51,87.65 35.47,87.89 29.23,89.85 "/>
   <path class="fil23" d="M28.93 89.5l5.77 -1.81c0.27,-0.04 0.54,-0.08 0.81,-0.11l0.01 0.01 -0.01 0.06 -6.43 2.02 -0.15 -0.17z"/>
   <path class="fil24" d="M28.79 89.32l4.47 -1.4c0.47,-0.09 0.95,-0.17 1.44,-0.23l-5.77 1.81 -0.14 -0.18z"/>
   <path class="fil24" d="M28.64 89.15l2.09 -0.66c0.82,-0.22 1.67,-0.41 2.53,-0.57l-4.47 1.4 -0.15 -0.17z"/>
   <path class="fil25" d="M30.73 88.49l-2.09 0.66 -0.01 -0.01c0.69,-0.24 1.39,-0.46 2.1,-0.65z"/>
   <path class="fil111" d="M26.26 99.9l0.94 -0.3c-0.29,0.15 -0.58,0.29 -0.87,0.42l-0.07 -0.12z"/>
   <path class="fil111" d="M26.15 99.71l1.94 -0.61c-0.29,0.18 -0.59,0.34 -0.89,0.5l-0.94 0.3 -0.11 -0.19z"/>
   <path class="fil112" d="M26.03 99.52l2.74 -0.86c-0.22,0.15 -0.45,0.3 -0.68,0.44l-1.94 0.61 -0.12 -0.19z"/>
   <path class="fil112" d="M25.91 99.34l3.43 -1.08c-0.19,0.14 -0.38,0.27 -0.57,0.4l-2.74 0.86 -0.12 -0.18z"/>
   <path class="fil112" d="M25.79 99.15l4.03 -1.26c-0.16,0.13 -0.32,0.25 -0.48,0.37l-3.43 1.08 -0.12 -0.19z"/>
   <path class="fil113" d="M25.67 98.97l4.57 -1.44c-0.14,0.12 -0.28,0.24 -0.42,0.36l-4.03 1.26 -0.12 -0.18z"/>
   <path class="fil113" d="M25.55 98.79l5.07 -1.6c-0.12,0.12 -0.25,0.23 -0.38,0.34l-4.57 1.44 -0.12 -0.18z"/>
   <path class="fil114" d="M25.43 98.6l5.54 -1.74c-0.12,0.11 -0.23,0.22 -0.35,0.33l-5.07 1.6 -0.12 -0.19z"/>
   <path class="fil114" d="M25.3 98.42l5.98 -1.88c-0.1,0.11 -0.21,0.22 -0.31,0.32l-5.54 1.74 -0.13 -0.18z"/>
   <path class="fil1" d="M25.18 98.24l6.35 -2 0.01 0.02c-0.08,0.09 -0.17,0.19 -0.26,0.28l-5.98 1.88 -0.12 -0.18z"/>
   <polygon class="fil2" points="25.05,98.06 31.43,96.05 31.53,96.24 25.18,98.24 "/>
   <polygon class="fil3" points="24.92,97.87 31.33,95.86 31.43,96.05 25.05,98.06 "/>
   <polygon class="fil4" points="24.78,97.69 31.23,95.67 31.33,95.86 24.92,97.87 "/>
   <polygon class="fil4" points="24.65,97.51 31.12,95.48 31.23,95.67 24.78,97.69 "/>
   <polygon class="fil5" points="24.52,97.33 31.02,95.29 31.12,95.48 24.65,97.51 "/>
   <polygon class="fil6" points="24.38,97.15 30.91,95.1 31.02,95.29 24.52,97.33 "/>
   <polygon class="fil6" points="24.24,96.98 30.8,94.91 30.91,95.1 24.38,97.15 "/>
   <polygon class="fil7" points="24.1,96.8 30.69,94.73 30.8,94.91 24.24,96.98 "/>
   <polygon class="fil7" points="23.96,96.62 30.58,94.54 30.69,94.73 24.1,96.8 "/>
   <polygon class="fil7" points="23.81,96.44 30.46,94.35 30.58,94.54 23.96,96.62 "/>
   <polygon class="fil8" points="23.67,96.27 30.35,94.17 30.46,94.35 23.81,96.44 "/>
   <polygon class="fil9" points="23.52,96.09 30.23,93.98 30.35,94.17 23.67,96.27 "/>
   <polygon class="fil9" points="23.37,95.92 30.11,93.8 30.23,93.98 23.52,96.09 "/>
   <polygon class="fil10" points="23.22,95.74 29.99,93.61 30.11,93.8 23.37,95.92 "/>
   <polygon class="fil11" points="23.06,95.57 29.87,93.43 29.99,93.61 23.22,95.74 "/>
   <polygon class="fil11" points="22.91,95.39 29.75,93.24 29.87,93.43 23.06,95.57 "/>
   <polygon class="fil12" points="22.75,95.22 29.62,93.06 29.75,93.24 22.91,95.39 "/>
   <polygon class="fil13" points="22.59,95.05 29.5,92.88 29.62,93.06 22.75,95.22 "/>
   <polygon class="fil14" points="22.43,94.88 29.37,92.7 29.5,92.88 22.59,95.05 22.54,95 "/>
   <polygon class="fil14" points="22.27,94.71 29.24,92.52 29.37,92.7 22.43,94.88 "/>
   <polygon class="fil14" points="22.1,94.54 29.11,92.33 29.24,92.52 22.27,94.71 "/>
   <polygon class="fil15" points="21.93,94.37 28.98,92.15 29.11,92.33 22.1,94.54 "/>
   <polygon class="fil16" points="21.76,94.2 28.85,91.97 28.98,92.15 21.93,94.37 "/>
   <polygon class="fil17" points="21.59,94.03 28.71,91.79 28.85,91.97 21.76,94.2 "/>
   <polygon class="fil17" points="21.41,93.87 28.57,91.61 28.71,91.79 21.59,94.03 "/>
   <polygon class="fil17" points="21.24,93.7 28.44,91.44 28.57,91.61 21.41,93.87 "/>
   <polygon class="fil18" points="21.06,93.53 28.3,91.26 28.44,91.44 21.24,93.7 "/>
   <polygon class="fil18" points="21.05,93.31 28.15,91.08 28.3,91.26 21.06,93.53 20.93,93.41 "/>
   <path class="fil19" d="M21.54 92.94l6.47 -2.04 0.14 0.18 -7.1 2.23c0.17,-0.13 0.33,-0.25 0.49,-0.37z"/>
   <path class="fil20" d="M22.08 92.55l5.79 -1.83 0.14 0.18 -6.47 2.04c0.18,-0.14 0.36,-0.27 0.54,-0.39z"/>
   <path class="fil20" d="M22.67 92.14l5.05 -1.59 0.15 0.17 -5.79 1.83c0.19,-0.14 0.39,-0.28 0.59,-0.41z"/>
   <path class="fil21" d="M23.33 91.71l4.24 -1.34 0.15 0.18 -5.05 1.59c0.22,-0.15 0.44,-0.29 0.66,-0.43z"/>
   <path class="fil22" d="M24.1 91.24l3.32 -1.04 0.15 0.17 -4.24 1.34c0.25,-0.16 0.51,-0.32 0.77,-0.47z"/>
   <path class="fil23" d="M25.02 90.73l2.25 -0.71 0.15 0.18 -3.32 1.04c0.3,-0.17 0.61,-0.34 0.92,-0.51z"/>
   <path class="fil24" d="M26.24 90.12l0.88 -0.27 0.15 0.17 -2.25 0.71c0.4,-0.21 0.81,-0.41 1.22,-0.61z"/>
   <path class="fil24" d="M27.12 89.85l-0.88 0.27c0.27,-0.12 0.54,-0.24 0.81,-0.35l0.07 0.08z"/>
   <path class="fil94" d="M24.69 62.39l1.21 -0.38 0.1 0.14c-0.49,0.08 -0.92,0.17 -1.31,0.24z"/>
   <path class="fil95" d="M19.71 63.73l0.02 0 0 0c-0.01,0 -0.01,0 -0.02,0l0 0zm2.23 -0.7l3.84 -1.2 0.12 0.18 -1.21 0.38c-1.13,0.22 -1.91,0.41 -2.75,0.64z"/>
   <path class="fil96" d="M19.36 63.62l6.29 -1.97 0.13 0.18 -3.84 1.2c-0.65,0.19 -1.33,0.4 -2.21,0.69l0 0.01 -0.02 0 -0.01 0c0,0 0,0 -0.01,0 0,0 -0.01,0 -0.02,0l0 -0.01 -0.31 -0.1z"/>
   <polygon class="fil96" points="19.02,63.51 25.52,61.46 25.65,61.65 19.36,63.62 "/>
   <polygon class="fil97" points="18.67,63.4 25.38,61.29 25.52,61.46 19.02,63.51 "/>
   <polygon class="fil97" points="18.31,63.29 25.25,61.11 25.38,61.29 18.67,63.4 "/>
   <polygon class="fil97" points="17.95,63.18 25.1,60.93 25.25,61.11 18.31,63.29 "/>
   <path class="fil98" d="M17.59 63.07l7.37 -2.32 0.14 0.18 -7.15 2.25c-0.12,-0.04 -0.24,-0.08 -0.36,-0.11z"/>
   <path class="fil98" d="M17.21 62.96l7.6 -2.38c0.05,0.05 0.1,0.11 0.15,0.17l-7.37 2.32c-0.13,-0.04 -0.25,-0.07 -0.38,-0.11z"/>
   <path class="fil99" d="M16.83 62.86l7.83 -2.46c0.05,0.06 0.1,0.12 0.15,0.18l-7.6 2.38c-0.12,-0.03 -0.25,-0.06 -0.38,-0.1z"/>
   <path class="fil99" d="M16.44 62.76l8.06 -2.53c0.06,0.05 0.11,0.11 0.16,0.17l-7.83 2.46c-0.13,-0.03 -0.26,-0.06 -0.39,-0.1z"/>
   <path class="fil100" d="M16.03 62.67l8.31 -2.61c0.05,0.05 0.11,0.11 0.16,0.17l-8.06 2.53c-0.13,-0.03 -0.27,-0.06 -0.41,-0.09z"/>
   <path class="fil101" d="M15.62 62.58l8.55 -2.69c0.05,0.05 0.11,0.11 0.17,0.17l-8.31 2.61c-0.13,-0.03 -0.27,-0.06 -0.41,-0.09z"/>
   <path class="fil101" d="M15.2 62.49l8.79 -2.77c0.06,0.06 0.12,0.11 0.18,0.17l-8.55 2.69c-0.14,-0.03 -0.28,-0.06 -0.42,-0.09z"/>
   <path class="fil102" d="M14.77 62.4l9.03 -2.84c0.06,0.05 0.13,0.11 0.19,0.16l-8.79 2.77 -0.43 -0.09z"/>
   <path class="fil102" d="M14.33 62.32l9.27 -2.92c0.07,0.05 0.13,0.11 0.2,0.16l-9.03 2.84 -0.44 -0.08z"/>
   <path class="fil102" d="M13.89 62.23l9.5 -2.99c0.07,0.06 0.14,0.11 0.21,0.16l-9.27 2.92 -0.44 -0.09z"/>
   <path class="fil115" d="M13.44 62.15l9.73 -3.06c0.07,0.05 0.15,0.1 0.22,0.15l-9.5 2.99 -0.45 -0.08z"/>
   <path class="fil116" d="M13.59 61.88l9.34 -2.93c0.08,0.04 0.16,0.09 0.24,0.14l-9.73 3.06 -0.03 0 0.18 -0.27z"/>
   <path class="fil116" d="M13.8 61.59l8.87 -2.78c0.09,0.04 0.17,0.09 0.26,0.14l-9.34 2.93 0.21 -0.29z"/>
   <path class="fil117" d="M14.01 61.31l8.38 -2.64c0.09,0.04 0.19,0.09 0.28,0.14l-8.87 2.78c0.07,-0.09 0.14,-0.19 0.21,-0.28z"/>
   <path class="fil118" d="M14.23 61.01l7.85 -2.46c0.11,0.03 0.21,0.08 0.31,0.12l-8.38 2.64c0.07,-0.1 0.15,-0.2 0.22,-0.3z"/>
   <path class="fil119" d="M14.47 60.72l7.28 -2.29c0.11,0.03 0.22,0.07 0.33,0.12l-7.85 2.46c0.08,-0.1 0.16,-0.2 0.24,-0.29z"/>
   <path class="fil120" d="M14.74 60.41l6.63 -2.08c0.13,0.03 0.25,0.06 0.38,0.1l-7.28 2.29c0.09,-0.11 0.18,-0.21 0.27,-0.31z"/>
   <path class="fil120" d="M15.03 60.1l5.91 -1.86c0.15,0.02 0.29,0.05 0.43,0.09l-6.63 2.08c0.09,-0.11 0.19,-0.21 0.29,-0.31z"/>
   <path class="fil121" d="M15.37 59.77l5.07 -1.6c0.17,0.02 0.34,0.04 0.5,0.07l-5.91 1.86c0.11,-0.12 0.23,-0.23 0.34,-0.33z"/>
   <path class="fil122" d="M15.79 59.41l4.09 -1.28 0.01 0 0 0.01c0.19,0 0.37,0.01 0.55,0.03l-5.07 1.6c0.14,-0.13 0.28,-0.25 0.42,-0.36z"/>
   <path class="fil122" d="M16.38 59l2.68 -0.84c0.15,-0.01 0.3,-0.02 0.46,-0.02l0 -0.01c0.02,0 0.04,0 0.06,0 0.03,0 0.07,0 0.09,0l0 0c0.01,0 0.02,0 0.03,0 0.01,0 0.02,0 0.03,0l0 0c0.03,0 0.06,0 0.09,0 0.02,0 0.04,0 0.06,0l-4.09 1.28c0.19,-0.14 0.38,-0.28 0.59,-0.41z"/>
   <path class="fil123" d="M19.06 58.16l-2.68 0.84c0.75,-0.45 1.61,-0.75 2.68,-0.84z"/>
   <path class="fil124" d="M23.34 101.04l1.45 -0.46 0.02 0.03c-0.48,0.17 -0.98,0.31 -1.47,0.43z"/>
   <path class="fil111" d="M21.64 101.35l3.04 -0.96 0.11 0.19 -1.45 0.46c-0.57,0.13 -1.13,0.23 -1.7,0.31z"/>
   <path class="fil111" d="M20.62 101.45l3.94 -1.24 0.12 0.18 -3.04 0.96c-0.34,0.04 -0.68,0.08 -1.02,0.1z"/>
   <path class="fil112" d="M19.79 101.49l4.65 -1.47 0.12 0.19 -3.94 1.24c-0.25,0.01 -0.49,0.02 -0.73,0.03l0 0c-0.02,0 -0.05,0.01 -0.07,0.01l-0.03 0z"/>
   <path class="fil112" d="M19.14 101.47l5.18 -1.63 0.12 0.18 -4.65 1.47 -0.06 -0.01c-0.01,0 -0.02,0 -0.03,0 -0.01,0 -0.01,0 -0.03,0 -0.02,0 -0.06,0.01 -0.09,0.01 -0.02,0 -0.04,-0.01 -0.06,-0.01l0 0c-0.13,0 -0.25,-0.01 -0.38,-0.01z"/>
   <path class="fil112" d="M18.55 101.43l5.65 -1.78 0.12 0.19 -5.18 1.63c-0.19,-0.01 -0.39,-0.02 -0.59,-0.04z"/>
   <path class="fil113" d="M18.01 101.38l6.07 -1.91 0.12 0.18 -5.65 1.78c-0.18,-0.01 -0.36,-0.03 -0.54,-0.05z"/>
   <path class="fil113" d="M17.51 101.31l6.44 -2.02 0.13 0.18 -6.07 1.91c-0.16,-0.02 -0.33,-0.04 -0.5,-0.07z"/>
   <path class="fil114" d="M17.04 101.24l6.78 -2.13 0.13 0.18 -6.44 2.02c-0.15,-0.02 -0.31,-0.05 -0.47,-0.07z"/>
   <path class="fil114" d="M16.6 101.15l7.1 -2.23 0.12 0.19 -6.78 2.13c-0.14,-0.03 -0.29,-0.06 -0.44,-0.09z"/>
   <path class="fil1" d="M16.18 101.06l7.38 -2.32 0.14 0.18 -7.1 2.23c-0.14,-0.02 -0.28,-0.05 -0.42,-0.09z"/>
   <path class="fil2" d="M15.79 100.97l7.64 -2.41 0.13 0.18 -7.38 2.32c-0.13,-0.03 -0.26,-0.06 -0.39,-0.09z"/>
   <path class="fil3" d="M15.41 100.86l7.89 -2.48 0.13 0.18 -7.64 2.41c-0.13,-0.04 -0.26,-0.07 -0.38,-0.11z"/>
   <path class="fil4" d="M15.04 100.76l8.12 -2.56 0.14 0.18 -7.89 2.48c-0.13,-0.03 -0.25,-0.07 -0.37,-0.1z"/>
   <path class="fil4" d="M14.69 100.65l8.33 -2.63 0.14 0.18 -8.12 2.56c-0.12,-0.04 -0.24,-0.08 -0.35,-0.11z"/>
   <polygon class="fil5" points="14.71,100.41 22.88,97.85 23.02,98.02 14.69,100.65 14.59,100.61 "/>
   <polygon class="fil6" points="14.89,100.14 22.74,97.67 22.88,97.85 14.71,100.41 "/>
   <polygon class="fil6" points="15.07,99.86 22.6,97.49 22.74,97.67 14.89,100.14 "/>
   <polygon class="fil7" points="15.26,99.58 22.45,97.32 22.6,97.49 15.07,99.86 "/>
   <path class="fil7" d="M15.45 99.29l6.86 -2.15 0.14 0.18 -7.19 2.26c0.06,-0.1 0.12,-0.19 0.19,-0.29z"/>
   <polygon class="fil7" points="15.65,99.01 22.16,96.96 22.31,97.14 15.45,99.29 "/>
   <polygon class="fil8" points="15.86,98.72 22.01,96.79 22.16,96.96 15.65,99.01 "/>
   <path class="fil9" d="M16.07 98.43l5.78 -1.81 0.16 0.17 -6.15 1.93c0.07,-0.09 0.14,-0.19 0.21,-0.29z"/>
   <polygon class="fil9" points="16.29,98.14 21.7,96.44 21.85,96.62 16.07,98.43 "/>
   <path class="fil10" d="M16.52 97.85l5.02 -1.58 0.16 0.17 -5.41 1.7c0.08,-0.1 0.15,-0.19 0.23,-0.29z"/>
   <path class="fil11" d="M16.76 97.55l4.62 -1.45 0.16 0.17 -5.02 1.58c0.08,-0.1 0.16,-0.2 0.24,-0.3z"/>
   <path class="fil11" d="M17.01 97.25l4.21 -1.32 0.11 0.11 0.05 0.06 -4.62 1.45c0.08,-0.1 0.16,-0.2 0.25,-0.3z"/>
   <path class="fil12" d="M17.26 96.95l3.79 -1.19 0.17 0.17 -4.21 1.32c0.08,-0.1 0.17,-0.2 0.25,-0.3z"/>
   <path class="fil13" d="M17.53 96.64l3.35 -1.05 0.17 0.17 -3.79 1.19c0.09,-0.11 0.18,-0.21 0.27,-0.31z"/>
   <path class="fil14" d="M17.81 96.33l2.9 -0.91 0.17 0.17 -3.35 1.05c0.09,-0.1 0.19,-0.21 0.28,-0.31z"/>
   <path class="fil14" d="M18.1 96.02l2.44 -0.77 0.17 0.17 -2.9 0.91c0.09,-0.1 0.18,-0.19 0.27,-0.29l0.02 -0.02z"/>
   <path class="fil14" d="M18.41 95.7l1.96 -0.62 0.17 0.17 -2.44 0.77c0.11,-0.11 0.21,-0.22 0.31,-0.32z"/>
   <path class="fil15" d="M18.74 95.37l1.45 -0.45 0.18 0.16 -1.96 0.62c0.11,-0.11 0.22,-0.22 0.33,-0.33z"/>
   <path class="fil16" d="M19.08 95.04l0.93 -0.29 0.18 0.17 -1.45 0.45c0.11,-0.11 0.23,-0.22 0.34,-0.33z"/>
   <path class="fil17" d="M19.44 94.71l0.39 -0.13 0.18 0.17 -0.93 0.29c0.12,-0.11 0.24,-0.22 0.36,-0.33z"/>
   <path class="fil17" d="M19.83 94.58l-0.39 0.13 0.23 -0.22 0 -0.02c0.01,0 0.02,-0.01 0.02,-0.01 0.01,0 0.01,0.01 0.01,0.01 0.01,0 0.01,-0.01 0.01,-0.01 0.01,0 0.01,0.01 0.02,0.01l0 0.02 0.1 0.09z"/>
   <path class="fil24" d="M19.55 92.23l0.51 -0.16c-0.11,0.09 -0.22,0.17 -0.33,0.26l0 0.01c-0.01,0.01 -0.01,0.01 -0.02,0.02 0,-0.01 0,-0.01 -0.01,-0.01 0,0 0,0 -0.01,0.01 0,-0.01 -0.01,-0.01 -0.02,-0.02l0 -0.01 -0.12 -0.1z"/>
   <path class="fil24" d="M19.35 92.07l1.2 -0.38c-0.16,0.13 -0.33,0.25 -0.49,0.38l-0.51 0.16 -0.2 -0.16z"/>
   <path class="fil25" d="M19.14 91.91l1.95 -0.61c-0.18,0.13 -0.36,0.26 -0.54,0.39l-1.2 0.38 -0.21 -0.16z"/>
   <path class="fil25" d="M18.94 91.75l2.74 -0.86c-0.2,0.14 -0.4,0.27 -0.59,0.41l-1.95 0.61 -0.2 -0.16z"/>
   <path class="fil26" d="M18.73 91.6l3.61 -1.14c-0.22,0.14 -0.44,0.29 -0.66,0.43l-2.74 0.86 -0.21 -0.15z"/>
   <path class="fil27" d="M18.51 91.44l4.58 -1.43c-0.26,0.15 -0.51,0.3 -0.75,0.45l-3.61 1.14 -0.22 -0.16z"/>
   <path class="fil28" d="M18.3 91.29l5.67 -1.78c-0.3,0.16 -0.59,0.33 -0.88,0.5l-4.58 1.43 -0.21 -0.15z"/>
   <path class="fil28" d="M18.08 91.14l7 -2.2c-0.38,0.18 -0.75,0.37 -1.11,0.57l-5.67 1.78 -0.22 -0.15z"/>
   <path class="fil28" d="M17.86 90.98l7.97 -2.5 0.07 0.07c-0.28,0.13 -0.55,0.25 -0.82,0.39l-7 2.2 -0.22 -0.16z"/>
   <polygon class="fil29" points="17.63,90.83 25.66,88.31 25.83,88.48 17.86,90.98 "/>
   <polygon class="fil30" points="17.41,90.68 25.49,88.14 25.66,88.31 17.63,90.83 "/>
   <polygon class="fil31" points="17.17,90.53 25.31,87.97 25.49,88.14 17.41,90.68 "/>
   <polygon class="fil106" points="16.94,90.38 25.14,87.8 25.31,87.97 17.17,90.53 "/>
   <polygon class="fil106" points="16.7,90.24 24.96,87.64 25.14,87.8 16.94,90.38 "/>
   <polygon class="fil107" points="16.46,90.09 24.78,87.47 24.96,87.64 16.7,90.24 "/>
   <polygon class="fil108" points="16.21,89.94 24.6,87.31 24.78,87.47 16.46,90.09 "/>
   <polygon class="fil109" points="15.97,89.8 24.42,87.14 24.6,87.31 16.21,89.94 "/>
   <polygon class="fil109" points="15.71,89.66 24.24,86.98 24.42,87.14 15.97,89.8 "/>
   <polygon class="fil109" points="15.45,89.52 24.05,86.81 24.24,86.98 15.71,89.66 "/>
   <polygon class="fil110" points="15.19,89.38 23.86,86.65 24.05,86.81 15.45,89.52 "/>
   <polygon class="fil110" points="14.93,89.24 23.67,86.49 23.86,86.65 15.19,89.38 "/>
   <polygon class="fil32" points="14.66,89.1 23.47,86.33 23.67,86.49 14.93,89.24 "/>
   <polygon class="fil33" points="14.39,88.96 23.28,86.17 23.47,86.33 14.66,89.1 "/>
   <polygon class="fil33" points="14.11,88.83 23.08,86.01 23.28,86.17 14.39,88.96 "/>
   <polygon class="fil34" points="13.83,88.7 22.88,85.85 23.08,86.01 14.11,88.83 "/>
   <polygon class="fil35" points="13.54,88.56 22.67,85.69 22.88,85.85 13.83,88.7 "/>
   <path class="fil36" d="M13.8 88.26l8.67 -2.73 0.2 0.16 -9.13 2.87 -0.03 -0.01c0.09,-0.1 0.19,-0.19 0.29,-0.29z"/>
   <path class="fil36" d="M14.13 87.93l8.13 -2.55 0.21 0.15 -8.67 2.73c0.11,-0.11 0.22,-0.22 0.33,-0.33z"/>
   <path class="fil37" d="M14.48 87.6l7.57 -2.38 0.21 0.16 -8.13 2.55c0.12,-0.11 0.24,-0.22 0.35,-0.33z"/>
   <path class="fil38" d="M14.85 87.26l6.99 -2.19 0.21 0.15 -7.57 2.38c0.13,-0.11 0.25,-0.23 0.37,-0.34z"/>
   <path class="fil38" d="M15.24 86.92l6.38 -2.01 0.22 0.16 -6.99 2.19c0.13,-0.11 0.26,-0.23 0.39,-0.34z"/>
   <path class="fil38" d="M15.65 86.57l5.75 -1.81 0.22 0.15 -6.38 2.01c0.13,-0.12 0.27,-0.24 0.41,-0.35z"/>
   <path class="fil39" d="M16.08 86.21l5.1 -1.6 0.22 0.15 -5.75 1.81c0.14,-0.12 0.28,-0.24 0.43,-0.36z"/>
   <path class="fil39" d="M16.53 85.84l4.43 -1.39 0.22 0.16 -5.1 1.6c0.15,-0.12 0.3,-0.25 0.45,-0.37z"/>
   <path class="fil40" d="M17.02 85.47l3.71 -1.17 0.23 0.15 -4.43 1.39c0.16,-0.12 0.33,-0.25 0.49,-0.37z"/>
   <path class="fil40" d="M17.54 85.08l2.96 -0.93 0.23 0.15 -3.71 1.17c0.17,-0.13 0.35,-0.26 0.52,-0.39z"/>
   <path class="fil41" d="M18.11 84.68l2.16 -0.68 0.23 0.15 -2.96 0.93c0.19,-0.13 0.38,-0.27 0.57,-0.4z"/>
   <path class="fil42" d="M18.74 84.26l1.29 -0.4 0.24 0.14 -2.16 0.68c0.21,-0.14 0.42,-0.28 0.63,-0.42z"/>
   <path class="fil43" d="M19.43 83.82l0.36 -0.11 0.24 0.15 -1.29 0.4c0.23,-0.15 0.46,-0.3 0.69,-0.44z"/>
   <path class="fil43" d="M19.79 83.71l-0.36 0.11 0.24 -0.15 0 -0.01c0.01,0 0.02,-0.01 0.02,-0.01 0.01,0 0.01,0 0.01,0.01 0.01,-0.01 0.01,-0.01 0.01,-0.01 0.01,0 0.01,0.01 0.02,0.01l0 0.01 0.06 0.04z"/>
   <polygon class="fil28" points="33.69,86.23 33.81,86.19 33.82,86.21 "/>
   <path class="fil28" d="M31.86 86.58l1.83 -0.58 0.12 0.19 -0.12 0.04c-0.63,0.1 -1.24,0.22 -1.83,0.35z"/>
   <path class="fil29" d="M27.38 87.77l6.19 -1.95 0.12 0.18 -1.83 0.58c-1.57,0.35 -3.02,0.79 -4.37,1.31l-0.11 -0.12z"/>
   <polygon class="fil30" points="27.22,87.6 33.46,85.63 33.57,85.82 27.38,87.77 27.24,87.62 "/>
   <polygon class="fil31" points="27.05,87.43 33.34,85.45 33.46,85.63 27.22,87.6 "/>
   <polygon class="fil106" points="26.88,87.26 33.22,85.26 33.34,85.45 27.05,87.43 "/>
   <polygon class="fil106" points="26.71,87.09 33.1,85.08 33.22,85.26 26.88,87.26 "/>
   <polygon class="fil107" points="26.54,86.92 32.97,84.9 33.1,85.08 26.71,87.09 "/>
   <polygon class="fil108" points="26.36,86.75 32.85,84.71 32.97,84.9 26.54,86.92 "/>
   <polygon class="fil109" points="26.19,86.59 32.72,84.53 32.85,84.71 26.36,86.75 "/>
   <polygon class="fil109" points="26.01,86.42 32.6,84.35 32.72,84.53 26.19,86.59 "/>
   <polygon class="fil109" points="25.83,86.26 32.47,84.17 32.6,84.35 26.01,86.42 "/>
   <polygon class="fil110" points="25.64,86.09 32.34,83.98 32.47,84.17 25.83,86.26 "/>
   <polygon class="fil110" points="25.46,85.93 32.21,83.8 32.34,83.98 25.64,86.09 "/>
   <polygon class="fil32" points="25.27,85.76 32.08,83.62 32.21,83.8 25.46,85.93 "/>
   <polygon class="fil33" points="25.09,85.6 31.95,83.44 32.08,83.62 25.27,85.76 "/>
   <polygon class="fil33" points="24.89,85.44 31.81,83.26 31.95,83.44 25.09,85.6 "/>
   <polygon class="fil34" points="24.7,85.27 31.68,83.08 31.81,83.26 24.89,85.44 "/>
   <polygon class="fil35" points="24.51,85.11 31.54,82.9 31.68,83.08 24.7,85.27 "/>
   <polygon class="fil36" points="24.31,84.95 31.4,82.72 31.54,82.9 24.51,85.11 "/>
   <polygon class="fil36" points="24.11,84.8 31.26,82.55 31.4,82.72 24.31,84.95 "/>
   <polygon class="fil37" points="23.91,84.64 31.11,82.37 31.26,82.55 24.11,84.8 "/>
   <polygon class="fil38" points="23.7,84.48 30.97,82.19 31.11,82.37 23.91,84.64 "/>
   <polygon class="fil38" points="23.5,84.32 30.82,82.02 30.97,82.19 23.7,84.48 "/>
   <polygon class="fil38" points="23.29,84.16 30.68,81.84 30.82,82.02 23.5,84.32 "/>
   <polygon class="fil39" points="23.08,84.01 30.53,81.67 30.68,81.84 23.29,84.16 "/>
   <polygon class="fil39" points="22.86,83.85 30.37,81.49 30.53,81.67 23.08,84.01 "/>
   <polygon class="fil40" points="22.65,83.7 30.22,81.32 30.37,81.49 22.86,83.85 "/>
   <polygon class="fil40" points="22.43,83.55 30.06,81.15 30.22,81.32 22.65,83.7 "/>
   <polygon class="fil41" points="22.21,83.39 29.91,80.97 30.06,81.15 22.43,83.55 "/>
   <polygon class="fil42" points="21.98,83.24 29.75,80.8 29.91,80.97 22.21,83.39 "/>
   <polygon class="fil43" points="21.76,83.09 29.58,80.63 29.75,80.8 21.98,83.24 "/>
   <polygon class="fil43" points="21.53,82.94 29.42,80.46 29.58,80.63 21.76,83.09 "/>
   <polygon class="fil44" points="21.29,82.79 29.25,80.29 29.38,80.41 29.42,80.46 21.53,82.94 "/>
   <path class="fil45" d="M22.29 82.25l6.79 -2.13 0.17 0.17 -7.96 2.5 -0.03 -0.02c0.34,-0.18 0.69,-0.35 1.03,-0.52z"/>
   <path class="fil45" d="M24.06 81.48l4.84 -1.52 0.18 0.16 -6.79 2.13c0.58,-0.27 1.17,-0.53 1.77,-0.77z"/>
   <path class="fil46" d="M28.9 79.96l-4.84 1.52c1.55,-0.63 3.16,-1.14 4.84,-1.53l0 0.01z"/>
  </g>
 </g>
</svg>
