<?xml version="1.0" encoding="UTF-8"?>
<!DOCTYPE svg PUBLIC "-//W3C//DTD SVG 1.1//EN" "http://www.w3.org/Graphics/SVG/1.1/DTD/svg11.dtd">
<!-- Creator: CorelDRAW -->
<svg xmlns="http://www.w3.org/2000/svg" xml:space="preserve" width="160px" height="160px" version="1.1" style="shape-rendering:geometricPrecision; text-rendering:geometricPrecision; image-rendering:optimizeQuality; fill-rule:evenodd; clip-rule:evenodd"
viewBox="0 0 156.62 156.62"
 xmlns:xlink="http://www.w3.org/1999/xlink"
 xmlns:xodm="http://www.corel.com/coreldraw/odm/2003">
 <defs>
  <style type="text/css">
   <![CDATA[
    .fil0 {fill:none}
    .fil1 {fill:#FFED00}
    .fil2 {fill:#393185}
   ]]>
  </style>
 </defs>
 <g id="Слой_x0020_1">
  <metadata id="CorelCorpID_0Corel-Layer"/>
  <rect class="fil0" width="156.62" height="156.62"/>
  <g id="_2856994794464">
   <path class="fil1" d="M80.53 89.44l2.66 -0.23c23.7,-1.17 42.23,-10.95 42.23,-22.82 0,-11.88 -18.53,-21.65 -42.23,-22.83l-2.49 -0.05 0 4.55 1.53 0.03c19.01,0.94 30.33,8.78 30.33,18.3 0,7.14 -6.37,13.33 -17.58,16.38l-5.98 1.25 0 -18.5 0.44 0.05c7.2,1.17 12.93,3.44 16.88,6.41l0.08 0.07 0.86 0 0.28 -0.52c0.8,-1.63 1.2,-3.35 1.19,-5.14l-0.05 -0.83 -0.9 -0.39c-7.01,-2.7 -15.62,-4.47 -25.05,-4.93l-2.2 -0.05 0 29.25zm-2.1 0l-2.65 -0.22c-23.71,-1.18 -42.23,-10.96 -42.23,-22.83 0,-11.87 18.53,-21.65 42.22,-22.83l2.49 -0.05 0 4.55 -1.52 0.03c-19.01,0.94 -30.34,8.78 -30.34,18.3 0,7.14 6.38,13.33 17.59,16.38l5.98 1.25 0 -18.5 -0.45 0.05c-7.2,1.17 -12.92,3.44 -16.87,6.41l-0.08 0.07 -0.86 0 -0.3 -0.52c-0.79,-1.63 -1.18,-3.35 -1.18,-5.14l0.06 -0.83 0.89 -0.39c7.01,-2.7 15.63,-4.47 25.05,-4.93l2.2 -0.05 0 29.25z"/>
   <g>
    <path class="fil2" d="M146.82 100.04l0 -4.77 2.11 0c0.43,0 0.75,0.05 0.97,0.13 0.22,0.09 0.4,0.24 0.53,0.46 0.13,0.21 0.2,0.45 0.2,0.72 0,0.33 -0.11,0.62 -0.33,0.85 -0.22,0.23 -0.56,0.38 -1.01,0.44 0.16,0.08 0.29,0.16 0.38,0.24 0.18,0.17 0.36,0.38 0.52,0.64l0.83 1.29 -0.79 0 -0.63 -0.99c-0.19,-0.28 -0.34,-0.5 -0.46,-0.66 -0.12,-0.15 -0.23,-0.25 -0.32,-0.31 -0.09,-0.07 -0.19,-0.11 -0.29,-0.13 -0.07,-0.02 -0.19,-0.02 -0.35,-0.02l-0.73 0 0 2.11 -0.63 0zm0.63 -2.66l1.36 0c0.28,0 0.51,-0.03 0.67,-0.09 0.17,-0.06 0.29,-0.16 0.37,-0.29 0.09,-0.13 0.13,-0.27 0.13,-0.42 0,-0.23 -0.08,-0.42 -0.25,-0.56 -0.16,-0.15 -0.42,-0.22 -0.77,-0.22l-1.51 0 0 1.58zm1.02 -3.86l0 0 0 0c1.17,0 2.22,0.47 2.99,1.23 0.76,0.77 1.23,1.83 1.23,2.99l0.01 0 0 0 0 0 -0.01 0c0,1.17 -0.47,2.23 -1.23,2.99l0 0c-0.77,0.76 -1.82,1.24 -2.99,1.24l0 0 0 0 0 0 0 0c-1.17,0 -2.22,-0.48 -2.99,-1.24 -0.76,-0.76 -1.24,-1.82 -1.24,-2.99l0 0 0 0 0 0 0 0c0,-1.16 0.48,-2.22 1.24,-2.99 0.77,-0.76 1.82,-1.23 2.99,-1.23l0 0 0 0zm0 0.55l0 0 0 0 0 0 0 0c-1.01,0 -1.93,0.41 -2.6,1.08 -0.66,0.66 -1.07,1.58 -1.07,2.59l0 0 0 0 0 0 0 0c0,1.02 0.41,1.93 1.07,2.6 0.67,0.66 1.59,1.08 2.6,1.08l0 -0.01 0 0 0 0 0 0.01c1.01,0 1.93,-0.42 2.6,-1.08l0 0c0.66,-0.66 1.07,-1.58 1.07,-2.6l0 0 0 0 0 0 0 0c0,-1.01 -0.41,-1.93 -1.07,-2.59 -0.67,-0.67 -1.59,-1.08 -2.6,-1.08z"/>
    <path class="fil2" d="M136.31 112.04l-0.82 -0.01 0 -1.44 1.6 -0.07c1.77,-0.02 2.66,-1.52 2.66,-2.88 0,-1.02 -0.62,-1.89 -1.6,-2.46 -0.7,-0.32 -1.38,-0.72 -2.03,-1.21 -0.87,-0.74 -1.46,-1.68 -1.51,-2.77 -0.04,-3.08 3.1,-4.42 6.25,-4.42l0.83 0.01 0 1.43 -1.61 0.08c-1.76,0.02 -2.66,1.51 -2.66,2.87 0,1.02 0.63,1.89 1.61,2.46 0.75,0.38 1.41,0.79 2.02,1.21 0.88,0.74 1.47,1.68 1.52,2.78 0.04,3.08 -3.1,4.42 -6.26,4.42zm-46.12 -18.76l-0.5 5.3 3.17 -4.45 -2.67 -0.85zm0.48 19.49l-0.82 -0.01 0.06 -1.5 1.61 -0.08c1.77,-0.02 2.72,-1.59 2.79,-3.02 0.04,-1.06 -0.54,-1.97 -1.5,-2.57 -0.68,-0.34 -1.34,-0.76 -1.97,-1.27 -0.84,-0.78 -1.39,-1.76 -1.39,-2.91 0.1,-3.23 3.29,-4.63 6.45,-4.63l0.83 0.01 -0.07 1.5 -1.61 0.08c-1.76,0.02 -2.72,1.58 -2.78,3.02 -0.05,1.07 0.53,1.98 1.49,2.58 0.73,0.39 1.38,0.82 1.98,1.26 0.84,0.78 1.38,1.76 1.39,2.91 -0.1,3.23 -3.3,4.63 -6.46,4.63zm-68.38 -0.11l0 -15.52 2.7 0 0.55 -0.01c3.18,0 6.33,1.35 6.29,4.44 -0.08,1.66 -1.36,2.94 -3.03,3.75l-1.01 0.37 0.31 0.11c1.36,0.75 2.57,2.05 3.29,3.82 0.35,0.99 0.5,1.99 0.64,2.98l-2.55 0c-0.06,-2.59 -1.63,-4.68 -3.29,-5.73l-1.2 -0.49 0 6.28 -2.7 0zm2.7 -7.97c0.4,0.01 0.84,-0.07 1.29,-0.2 1.61,-0.48 2.72,-1.57 2.72,-2.94 0,-1.37 -1.03,-2.52 -2.67,-2.89l-1.34 -0.06 0 6.09zm43.65 7.97l0 -15.52 2.7 0 0.55 -0.01c3.17,0 6.33,1.35 6.29,4.44 -0.09,1.66 -1.37,2.94 -3.03,3.75l-1.01 0.37 0.31 0.11c1.36,0.74 2.58,2.05 3.29,3.82 0.35,0.99 0.5,1.99 0.64,2.98l-2.55 0c-0.05,-2.59 -1.63,-4.68 -3.29,-5.73l-1.21 -0.49 0.01 6.28 -2.7 0zm2.7 -7.97c0.41,-0.01 0.83,-0.04 1.3,-0.2 1.6,-0.48 2.71,-1.57 2.71,-2.95 0,-1.36 -1.03,-2.51 -2.68,-2.88l-1.33 -0.06 0 6.09zm-19.04 7.92l-0.61 -0.07c-5.51,-0.39 -9.81,-3.65 -9.81,-7.6 0,-3.95 4.3,-7.2 9.81,-7.59l0.5 -0.02 0 1.51 -0.28 0.02c-4.42,0.31 -7.05,2.91 -7.05,6.08 0,2.38 1.48,4.44 4.09,5.45l1.38 0.42 0 -6.15 -0.1 0.01c-1.67,0.39 -3,1.14 -3.92,2.14l-0.02 0.02 -0.19 0 -0.08 -0.18c-0.18,-0.54 -0.28,-1.11 -0.28,-1.71l0.02 -0.27 0.21 -0.13c1.63,-0.9 3.63,-1.49 5.82,-1.64l0.51 -0.02 0 9.73zm61.2 -0.44c0.01,-3.14 -0.27,-7.03 0.2,-9.49 0.84,-3.48 3.73,-5.66 6.48,-5.97l0 0.01 2.66 0 0 15.45 -2.68 0 0 -6.38 -4.29 0 0 6.38 -2.37 0zm6.66 -8.06l0 -6.06 -1.42 0.79c-0.92,0.65 -1.73,1.57 -2.25,2.71 -0.28,0.76 -0.57,1.51 -0.57,2.56l4.24 0zm9.72 1.13c2.11,1.08 3.93,3.48 4.1,6.87l-2.54 0c-0.06,-3.19 -2.46,-5.63 -4.46,-6.26l0 6.31 -2.68 0 0 -15.45 2.33 0c0.29,-0.01 0.66,0.01 0.89,0 3.17,0.01 6.31,1.35 6.27,4.42 -0.1,1.94 -1.83,3.37 -3.91,4.11zm-2.9 -0.96c2.26,-0.19 3.98,-1.47 3.98,-3.17 0,-1.7 -1.58,-3.06 -3.98,-3l0 6.17zm-14.65 7.88l-0.54 -0.08c-4.87,-0.39 -8.67,-3.66 -8.67,-7.64 -0.01,-3.98 3.8,-7.25 8.67,-7.64l0.44 -0.03 0 1.53 -0.24 0.01c-3.91,0.32 -5.44,2.94 -5.44,6.13 0,2.39 0.51,4.46 2.81,5.48l1.23 0.43 1.74 0.28 0 1.53zm-70.92 0.45l-0.48 -0.02c-5.26,-0.39 -9.36,-3.64 -9.36,-7.59 0,-3.95 4.1,-7.2 9.36,-7.59l0.59 -0.08 0 8.89 -0.01 0 0 0.13 -6.82 0c0.01,0.3 0.09,0.6 0.19,0.9 0.9,2.08 3.1,3.6 6.26,3.84l0.27 0.01 0 1.51zm-1.77 -8.03l0 -5.44 -1.33 0.41c-1.86,0.76 -3.12,2.11 -3.64,3.74 -0.12,0.4 -0.26,0.79 -0.19,1.29l5.16 0zm20.72 8.53l0 -0.02 -1.71 -0.55c-3.48,-1.42 -5.87,-4.33 -5.87,-7.69 0,-3.35 2.39,-6.26 5.87,-7.69l1.71 -0.55 0 -0.02 0.03 0.01 0.03 -0.01 0 0.02 1.7 0.55c3.48,1.43 5.87,4.34 5.87,7.69 0,3.36 -2.38,6.27 -5.87,7.69l-1.7 0.55 0 0.02 -0.03 -0.01 -0.03 0.01zm0.03 -1.87l0.64 -0.22c2.56,-1.15 4.02,-3.48 4.02,-6.17 0,-2.69 -1.46,-5.02 -4.02,-6.17l-0.64 -0.22 -0.64 0.23c-2.57,1.14 -4.02,3.47 -4.02,6.16 0,2.69 1.45,5.02 4.02,6.17l0.64 0.22zm22.23 1.42l-0.16 -6.33c-0.78,-0.53 -1.48,-1.31 -2.11,-2.23 -1.13,-1.66 -1.94,-3.96 -2.05,-6.8l2.55 0c0.04,2.22 0.75,4.16 1.71,5.61 0.39,0.52 0.76,0.95 1.15,1.28 0.41,-0.38 0.83,-0.79 1.14,-1.28 0.97,-1.45 1.68,-3.39 1.72,-5.61l2.55 0c-0.11,2.84 -0.92,5.14 -2.05,6.8 -0.59,0.77 -1.21,1.44 -1.84,1.98l-0.2 6.58 -2.41 0zm-61.33 -0.05l-0.62 -0.07c-5.51,-0.39 -9.81,-3.65 -9.81,-7.6 0,-3.95 4.3,-7.2 9.81,-7.59l0.51 -0.02 0 1.51 -0.29 0.02c-4.41,0.31 -7.05,2.91 -7.05,6.08 0,2.38 1.48,4.44 4.09,5.45l1.39 0.42 0 -6.15 -0.1 0.01c-1.67,0.39 -3.01,1.14 -3.93,2.14l-0.01 0.02 -0.2 0 -0.07 -0.18c-0.18,-0.54 -0.28,-1.11 -0.28,-1.71l0.02 -0.27 0.21 -0.13c1.62,-0.9 3.63,-1.49 5.81,-1.64l0.52 -0.02 0 9.73z"/>
   </g>
  </g>
 </g>
</svg>
