<?xml version="1.0" encoding="UTF-8"?>
<!DOCTYPE svg PUBLIC "-//W3C//DTD SVG 1.1//EN" "http://www.w3.org/Graphics/SVG/1.1/DTD/svg11.dtd">
<!-- Creator: CorelDRAW -->
<svg xmlns="http://www.w3.org/2000/svg" xml:space="preserve" width="160px" height="160px" version="1.1" style="shape-rendering:geometricPrecision; text-rendering:geometricPrecision; image-rendering:optimizeQuality; fill-rule:evenodd; clip-rule:evenodd"
viewBox="0 0 161.74 161.74"
 xmlns:xlink="http://www.w3.org/1999/xlink"
 xmlns:xodm="http://www.corel.com/coreldraw/odm/2003">
 <defs>
  <style type="text/css">
   <![CDATA[
    .fil0 {fill:none}
    .fil1 {fill:#010100;fill-rule:nonzero}
   ]]>
  </style>
 </defs>
 <g id="Слой_x0020_1">
  <metadata id="CorelCorpID_0Corel-Layer"/>
  <rect class="fil0" width="161.74" height="161.74"/>
  <g id="_2857482642496">
   <g>
    <g>
     <path class="fil1" d="M27.39 90.28l-1.07 0c-0.09,-1.09 -0.52,-2.05 -1.3,-2.89 -0.78,-0.83 -1.95,-1.27 -3.53,-1.32 -1.4,-0.06 -2.69,0.24 -3.86,0.87 -1.17,0.64 -2.1,1.62 -2.8,2.93 -0.69,1.32 -1.04,2.93 -1.04,4.85 0,1.95 0.37,3.63 1.11,5.02 0.74,1.4 1.7,2.43 2.88,3.08 1.18,0.66 2.41,1.01 3.69,1.05 0.95,0.01 1.83,-0.12 2.63,-0.39 0.04,-0.69 0.05,-1.24 0.05,-1.64 0.04,-0.55 0.08,-1.33 0.11,-2.36 0.08,-0.96 0.04,-1.72 -0.11,-2.27 -0.21,-1.11 -0.94,-1.6 -2.16,-1.48l0 -1.07c0.69,0 1.26,0.01 1.7,0.03 0.78,0.09 1.53,0.14 2.25,0.14 0.34,0 0.92,-0.02 1.72,-0.06 0.44,-0.05 0.88,-0.08 1.32,-0.08 0.18,-0.02 0.49,-0.03 0.91,-0.03l0 1.07c-0.57,-0.05 -1.01,0.03 -1.31,0.24 -0.3,0.2 -0.52,0.57 -0.67,1.1 -0.13,0.42 -0.19,1.13 -0.19,2.11 0,0.75 -0.01,1.35 -0.01,1.8 -0.01,0.44 -0.02,0.94 -0.02,1.49 0,0.6 0.01,1.03 0.03,1.28 -0.99,0.44 -2.11,0.79 -3.36,1.04 -1.25,0.26 -2.48,0.39 -3.69,0.39 -1.66,-0.04 -3.34,-0.47 -5.03,-1.29 -1.69,-0.82 -3.09,-2.04 -4.21,-3.65 -1.11,-1.62 -1.67,-3.58 -1.67,-5.9 0.02,-2.09 0.51,-3.86 1.48,-5.34 0.97,-1.48 2.33,-2.56 4.07,-3.25 1.75,-0.68 3.79,-0.97 6.13,-0.86 0.49,0.02 1.3,0.1 2.41,0.25 1.01,0.09 1.62,0.13 1.84,0.13 0.73,0 1.4,-0.06 2,-0.19 -0.04,0.4 -0.05,0.71 -0.05,0.93 -0.06,0.55 -0.1,1.4 -0.14,2.55 0,0.2 -0.01,0.44 -0.03,0.71 -0.02,0.27 -0.04,0.61 -0.08,1.01z"/>
     <path class="fil1" d="M31.14 85.19c0.39,-0.03 0.97,-0.03 1.75,0 0.39,0.04 0.97,0.07 1.73,0.11 0.31,0 0.69,-0.02 1.13,-0.06 0.44,-0.03 0.97,-0.07 1.59,-0.1 1.06,-0.13 1.92,-0.18 2.58,-0.14 2.24,0 3.9,0.56 4.96,1.67 1.06,1.11 1.57,2.4 1.54,3.86 -0.06,1.19 -0.51,2.37 -1.36,3.55 -0.85,1.17 -2.48,1.89 -4.87,2.14l0 0.36c1.5,0.33 2.66,0.84 3.5,1.53 0.83,0.7 1.77,1.85 2.83,3.46 0.64,0.96 1.14,1.57 1.49,1.83 0.67,0.64 1.45,0.91 2.32,0.82l0 0.93 -0.74 0c-0.16,-0.02 -0.38,-0.03 -0.67,-0.04 -0.28,-0.01 -0.55,-0.02 -0.8,-0.04 -1.21,-0.14 -2.24,-0.58 -3.09,-1.29 -0.85,-0.71 -1.7,-1.66 -2.54,-2.85 -0.22,-0.32 -0.47,-0.7 -0.76,-1.12 -0.3,-0.42 -0.5,-0.69 -0.61,-0.82 -1.28,-1.55 -2.64,-2.3 -4.08,-2.25 0,0.32 0,0.59 0.01,0.84 0.01,0.25 0.01,0.57 0.01,0.97 0.04,0.6 0.08,1.53 0.11,2.77 0.04,0.73 0.17,1.28 0.39,1.67 0.42,0.56 0.97,0.78 1.64,0.66l0 1.09c-0.45,0 -0.79,-0.01 -1.01,-0.03 -0.22,-0.03 -0.45,-0.06 -0.69,-0.09 -0.24,-0.03 -0.47,-0.05 -0.71,-0.07 -0.46,-0.07 -0.98,-0.11 -1.56,-0.11 -0.59,0 -1.09,0.04 -1.51,0.11 -0.24,0.02 -0.48,0.04 -0.71,0.07 -0.24,0.03 -0.47,0.06 -0.69,0.09 -0.27,0.02 -0.63,0.03 -1.07,0.03l0 -1.09c0.06,0 0.18,0 0.39,0.01 0.2,0.01 0.42,-0.05 0.68,-0.18 0.26,-0.12 0.49,-0.37 0.69,-0.72 0.2,-0.36 0.31,-0.84 0.33,-1.44 0.03,-0.33 0.05,-0.76 0.05,-1.3 0,-0.54 -0.01,-1.03 -0.03,-1.47 0,-1.27 -0.01,-2.22 -0.02,-2.85 0,-1.33 -0.01,-2.33 -0.03,-3.01 0,-0.29 -0.01,-0.53 -0.02,-0.71 0,-0.18 -0.01,-0.38 -0.01,-0.6 -0.02,-0.44 -0.04,-0.88 -0.05,-1.33 -0.02,-0.45 -0.06,-0.89 -0.12,-1.33 -0.03,-0.76 -0.23,-1.38 -0.58,-1.86 -0.36,-0.47 -0.82,-0.66 -1.39,-0.55l0 -1.12zm5.9 1.04l0 0c-0.1,1.77 -0.13,3.53 -0.11,5.29l0 2.38 0 1.8c2.08,0.13 3.57,-0.27 4.45,-1.21 0.89,-0.94 1.33,-2.21 1.33,-3.79 0,-1.28 -0.29,-2.28 -0.89,-3 -0.59,-0.73 -1.31,-1.19 -2.17,-1.4 -0.85,-0.21 -1.72,-0.23 -2.61,-0.07z"/>
     <path class="fil1" d="M65.12 101.21l-0.19 0c-2.14,2.68 -4.73,4 -7.76,3.94 -4.21,-0.09 -6.31,-2.58 -6.31,-7.47 0.04,-1.02 0.07,-1.78 0.11,-2.27 0.04,-0.9 0.09,-1.79 0.17,-2.69 0.03,-0.51 0.06,-0.95 0.08,-1.33 0.02,-0.37 0.03,-0.68 0.03,-0.94 0.03,-1.63 -0.05,-2.77 -0.25,-3.42 -0.2,-0.66 -0.8,-0.92 -1.79,-0.77l0 -1.1 0.91 0c0.2,0 0.46,0.02 0.77,0.06 0.31,0.03 0.54,0.06 0.68,0.08 0.5,0.07 1.02,0.11 1.57,0.11 0.56,0 1.1,-0.04 1.59,-0.11 0.33,-0.04 0.61,-0.07 0.85,-0.1 0.24,-0.02 0.43,-0.04 0.57,-0.04l0.94 0 0 1.1c-0.7,-0.13 -1.23,0.03 -1.59,0.46 -0.24,0.26 -0.38,0.82 -0.42,1.7 -0.03,0.53 -0.07,1.23 -0.11,2.11 0,0.24 0,0.58 -0.02,1.03 -0.02,0.44 -0.04,0.86 -0.06,1.24 -0.02,0.26 -0.03,0.65 -0.04,1.18 -0.01,0.53 -0.01,0.96 -0.01,1.29 0,0.32 -0.01,0.69 -0.03,1.09 -0.04,1.3 0.03,2.49 0.21,3.58 0.17,1.08 0.59,1.97 1.24,2.65 0.66,0.69 1.65,0.99 2.97,0.92 1.29,-0.07 2.47,-0.6 3.52,-1.58 1.05,-0.97 1.68,-2.02 1.9,-3.13 0.15,-0.47 0.22,-1.2 0.22,-2.19 0,-0.33 0.01,-0.63 0.02,-0.89 0.01,-0.27 0.01,-0.61 0.01,-1.03 0.02,-0.95 0.01,-2.35 -0.03,-4.21 0,-0.9 -0.02,-1.58 -0.08,-2.06 0,-1.62 -0.67,-2.34 -2.03,-2.16l0 -1.1 0.96 0c0.17,0 0.41,0.02 0.74,0.06 0.33,0.03 0.57,0.06 0.72,0.08 0.43,0.07 0.95,0.11 1.56,0.11 0.58,0 1.1,-0.04 1.56,-0.11 0.33,-0.04 0.61,-0.07 0.85,-0.1 0.24,-0.02 0.43,-0.04 0.58,-0.04l0.96 0 0 1.1c-0.7,-0.11 -1.24,0.05 -1.62,0.46 -0.24,0.24 -0.39,0.81 -0.47,1.7 0,0.51 0,0.92 -0.01,1.22 -0.01,0.3 -0.01,0.64 -0.01,1.03 -0.02,0.45 -0.03,1.17 -0.03,2.13l0 3.07c0,0.62 -0.01,1.56 -0.03,2.83 -0.02,1.27 0.03,2.27 0.14,2.99 0.11,0.72 0.34,1.27 0.71,1.65 0.37,0.39 0.9,0.5 1.62,0.36l0 1.07c-0.72,0 -1.22,-0.01 -1.51,-0.03 -0.84,-0.04 -1.46,-0.06 -1.86,-0.08 -0.19,-0.04 -0.48,-0.05 -0.88,-0.05 -0.37,0 -0.69,0.01 -0.98,0.05 -0.28,0.04 -0.49,0.07 -0.64,0.11l0 -0.79 0 -0.85 0 -1.21 0 -0.71z"/>
     <path class="fil1" d="M74.18 90.23l-1.24 0c0.13,-0.13 0.21,-0.29 0.25,-0.49 0.11,-0.28 0.19,-0.53 0.25,-0.77 0.05,-0.24 0.12,-0.54 0.19,-0.9 0.16,-0.59 0.33,-1.25 0.49,-1.97 0.04,-0.13 0.07,-0.29 0.11,-0.48 0.04,-0.2 0.07,-0.38 0.11,-0.54 0.59,0.06 1.6,0.12 3.03,0.19 1.44,0.08 2.57,0.12 3.41,0.14 0.84,0.02 1.92,0.03 3.24,0.03 1.43,-0.04 2.47,-0.08 3.12,-0.11 1.03,-0.04 1.78,-0.09 2.25,-0.14 0.55,-0.03 0.97,-0.07 1.26,-0.11l0 1.18c-0.05,0.07 -0.33,0.42 -0.83,1.03 -0.5,0.61 -0.91,1.13 -1.22,1.57 -0.73,0.91 -1.47,1.92 -2.22,3.01 -0.63,0.88 -1.11,1.56 -1.47,2.06 -0.35,0.49 -0.82,1.11 -1.38,1.86 -0.22,0.29 -0.52,0.71 -0.91,1.24 -0.38,0.54 -0.74,1.05 -1.07,1.52 -0.2,0.26 -0.49,0.65 -0.86,1.16 -0.38,0.53 -0.69,0.93 -0.95,1.22 -0.43,0.63 -0.78,1.05 -1.04,1.29 -0.15,0.15 -0.28,0.28 -0.4,0.4 -0.11,0.12 -0.2,0.2 -0.26,0.23l0 0.17c1.17,0 2.13,0.02 2.88,0.08 0.92,0.03 1.63,0.07 2.14,0.11 0.26,0 0.62,0.01 1.1,0.02 0.47,0.02 0.9,0.04 1.29,0.06 1.24,0 2.19,-0.1 2.84,-0.3 0.64,-0.2 1.14,-0.52 1.47,-0.96 0.34,-0.44 0.71,-1.13 1.12,-2.08l1.31 0c-0.13,0.4 -0.22,0.67 -0.27,0.82 -0.06,0.15 -0.14,0.4 -0.25,0.77 -0.27,0.93 -0.46,1.49 -0.55,1.67 -0.24,0.67 -0.62,1.16 -1.13,1.46 -0.53,0.31 -1.37,0.46 -2.54,0.46 -0.88,0 -1.55,-0.02 -2,-0.06 -0.52,-0.04 -0.89,-0.07 -1.14,-0.09 -0.25,-0.03 -0.65,-0.06 -1.19,-0.1 -2.36,-0.22 -4.31,-0.33 -5.84,-0.33 -1.5,0 -2.95,0.09 -4.34,0.27l0 -1.28c0.31,-0.26 1.05,-1.08 2.2,-2.47 0.18,-0.24 0.36,-0.48 0.55,-0.72 0.18,-0.25 0.36,-0.49 0.54,-0.73 0.19,-0.24 0.36,-0.47 0.52,-0.71 0.22,-0.29 0.9,-1.21 2.03,-2.74 0.5,-0.66 0.9,-1.2 1.22,-1.63 0.32,-0.43 0.55,-0.73 0.68,-0.92 0.38,-0.58 1.09,-1.58 2.13,-3.01 1.21,-1.7 2.27,-2.94 3.18,-3.72l0 -0.3c-0.29,0.03 -0.47,0.05 -0.54,0.05 -0.44,0.08 -0.94,0.11 -1.48,0.11 -0.55,0 -1.1,0.03 -1.65,0.08 -0.51,0 -1.07,0 -1.66,0 -0.59,0 -1.07,0.01 -1.44,0.03 -1.15,0 -2.16,0.21 -3.01,0.63 -0.86,0.42 -1.54,1.33 -2.03,2.74z"/>
     <path class="fil1" d="M93.23 85.16l0.96 0c0.17,0 0.4,0.02 0.69,0.04 0.29,0.03 0.57,0.05 0.82,0.07 1.17,0 2.51,-0.04 4.01,-0.13 0.21,-0.04 0.52,-0.08 0.9,-0.11 0.38,-0.04 0.74,-0.07 1.07,-0.09 0.69,-0.05 1.4,-0.08 2.11,-0.08 1.96,0 3.69,0.42 5.21,1.26 1.52,0.84 2.68,2 3.48,3.48 0.81,1.48 1.19,3.17 1.15,5.06 -0.01,1.94 -0.49,3.69 -1.42,5.25 -0.93,1.56 -2.19,2.79 -3.77,3.68 -1.58,0.9 -3.31,1.35 -5.17,1.37 -0.4,0.04 -1.23,0.01 -2.47,-0.08 -0.91,-0.11 -1.59,-0.18 -2.03,-0.22 -0.55,-0.05 -1.08,-0.08 -1.59,-0.08 -0.54,0 -1.09,0.03 -1.61,0.08 -0.5,0.05 -0.93,0.08 -1.3,0.08l-0.82 0 0 -1.12c0.96,0.18 1.55,-0.17 1.79,-1.07 0.23,-0.9 0.35,-2.23 0.35,-4 0,-0.47 0.01,-0.91 0.02,-1.31 0,-0.4 0.01,-0.9 0.01,-1.51l0 -3.06c0.02,-0.44 0.02,-0.87 0,-1.29 0,-0.55 -0.04,-1.46 -0.11,-2.74 -0.04,-0.82 -0.16,-1.37 -0.38,-1.64 -0.41,-0.64 -1.04,-0.87 -1.9,-0.69l0 -1.15zm6.31 1.21l0 0c-0.13,3.47 -0.19,6.37 -0.19,8.7l0 2.99c0,1.62 0.05,2.73 0.16,3.31 0.07,0.57 0.21,1.04 0.41,1.43 0.21,0.38 0.49,0.66 0.87,0.83 0.37,0.18 0.88,0.27 1.52,0.29 1.46,0.09 2.75,-0.23 3.87,-0.96 1.11,-0.73 1.97,-1.81 2.56,-3.26 0.59,-1.44 0.86,-3.12 0.81,-5.04 -0.07,-2.82 -0.72,-4.88 -1.95,-6.16 -1.22,-1.27 -2.55,-2 -3.99,-2.19 -1.43,-0.18 -2.79,-0.16 -4.07,0.06z"/>
     <path class="fil1" d="M128.92 85.19c-0.05,0.29 -0.12,0.62 -0.19,0.97 -0.07,0.36 -0.14,0.65 -0.19,0.87 -0.04,0.18 -0.1,0.45 -0.19,0.8 -0.09,0.36 -0.18,0.67 -0.25,0.95 -0.02,0.11 -0.04,0.22 -0.08,0.34 -0.04,0.12 -0.07,0.23 -0.1,0.34 -0.03,0.11 -0.06,0.23 -0.09,0.36l-1.1 0c0,-0.11 0.02,-0.26 0.05,-0.44 0.06,-0.33 0.09,-0.65 0.09,-0.96 -0.02,-0.69 -0.23,-1.15 -0.62,-1.37 -0.39,-0.22 -0.86,-0.35 -1.38,-0.41 -1.12,-0.04 -2.18,-0.01 -3.19,0.08 -0.07,0.92 -0.11,1.86 -0.14,2.84 -0.01,0.98 -0.01,2.44 0,4.39l1.08 0c0.38,0.02 0.8,0.02 1.26,0 1.09,-0.03 1.86,-0.18 2.29,-0.45 0.43,-0.26 0.6,-0.85 0.53,-1.77l1.07 0c-0.38,2.05 -0.55,4.05 -0.49,6l-0.99 0c0.16,-0.97 0.05,-1.64 -0.34,-2.01 -0.39,-0.37 -0.97,-0.58 -1.72,-0.62 -0.46,-0.03 -0.93,-0.03 -1.42,0 -0.57,0 -0.99,0.02 -1.27,0.06 0,0.98 0,1.74 -0.02,2.27l0 2.44c0,1.04 0.06,1.82 0.19,2.33 0.13,0.49 0.32,0.84 0.59,1.03 0.27,0.21 0.63,0.33 1.08,0.39 1.61,0.23 2.83,0.1 3.66,-0.41 0.83,-0.51 1.46,-1.47 1.88,-2.88l1.02 0c-0.11,2.8 -0.89,4.34 -2.33,4.63 -0.41,0.11 -1.05,0.11 -1.92,0 -0.44,-0.03 -0.8,-0.07 -1.09,-0.09 -0.28,-0.03 -0.59,-0.05 -0.92,-0.08 -1.07,-0.07 -1.85,-0.11 -2.33,-0.13 -0.36,-0.04 -0.67,-0.06 -0.93,-0.07 -0.25,-0.01 -0.53,-0.01 -0.82,-0.01 -0.93,0 -1.5,0.01 -1.7,0.03 -0.15,0 -0.31,0 -0.51,0.02 -0.19,0.02 -0.41,0.05 -0.67,0.08 -0.24,0.02 -0.56,0.03 -0.96,0.03l0 -1.09c1.01,0.16 1.64,-0.2 1.89,-1.08 0.26,-0.89 0.37,-2.2 0.33,-3.93 0,-1.36 -0.02,-2.36 -0.08,-3.02l0 -2.84c0,-0.32 -0.01,-0.57 -0.01,-0.76 -0.01,-0.19 -0.02,-0.41 -0.02,-0.64 0,-1.39 -0.02,-2.27 -0.05,-2.66 -0.06,-0.84 -0.26,-1.48 -0.62,-1.91 -0.36,-0.44 -0.84,-0.61 -1.44,-0.5l0 -1.12 0.8 0c0.47,0.04 1.17,0.07 2.08,0.11 0.64,0.07 1.39,0.11 2.25,0.11 2.28,0.06 4.96,-0.02 8.03,-0.22z"/>
     <path class="fil1" d="M130.95 85.14c0.28,0 0.49,0 0.63,0.02 0.17,0 0.38,0.01 0.63,0.03 0.26,0.02 0.55,0.05 0.88,0.08 0.24,0 0.59,0.02 1.04,0.06 0.46,0.03 0.79,0.05 0.99,0.05 0.31,-0.02 0.65,-0.03 1.03,-0.05 0.37,-0.02 0.64,-0.03 0.8,-0.03 0.76,-0.09 1.19,-0.14 1.32,-0.14 0.28,-0.02 0.65,-0.02 1.13,-0.02l0 1.2c-1.12,-0.13 -1.74,0.23 -1.87,1.07 -0.03,0.45 0.15,1.1 0.55,1.94 0.37,0.92 0.66,1.71 0.88,2.38 0.09,0.2 0.17,0.39 0.23,0.55 0.07,0.17 0.13,0.34 0.21,0.52 0.07,0.19 0.15,0.39 0.24,0.62 0.09,0.23 0.15,0.38 0.17,0.45 0.38,0.86 0.66,1.54 0.82,2.03 0.22,0.65 0.49,1.38 0.8,2.16 0.23,0.58 0.44,1.16 0.63,1.73 0.16,0.51 0.26,0.94 0.3,1.28l0.27 0c0.04,-0.11 0.08,-0.24 0.13,-0.38 0.04,-0.15 0.08,-0.28 0.12,-0.38 0.13,-0.42 0.32,-0.98 0.58,-1.67 0.25,-0.86 0.49,-1.57 0.71,-2.11 0.29,-0.72 0.56,-1.38 0.79,-2 0.09,-0.22 0.18,-0.44 0.26,-0.66 0.09,-0.22 0.17,-0.46 0.27,-0.71 0.08,-0.26 0.15,-0.46 0.19,-0.6 0.1,-0.22 0.22,-0.47 0.33,-0.74 0.1,-0.28 0.29,-0.72 0.54,-1.34 0.15,-0.44 0.27,-0.8 0.36,-1.06 0.09,-0.26 0.17,-0.57 0.22,-0.92 0.15,-0.73 0.02,-1.3 -0.37,-1.72 -0.39,-0.42 -0.94,-0.57 -1.63,-0.44l0 -1.2c0.77,0.03 1.28,0.07 1.53,0.1 0.24,0 0.43,0.01 0.56,0.03 0.14,0.02 0.29,0.04 0.44,0.06 0.16,0.02 0.3,0.03 0.43,0.04 0.12,0.01 0.29,0.01 0.49,0.01 0.33,0 0.86,-0.03 1.59,-0.11 0.19,-0.02 0.38,-0.04 0.58,-0.07 0.2,-0.02 0.36,-0.04 0.49,-0.04 0.13,0 0.24,0 0.35,-0.01 0.1,-0.01 0.23,-0.01 0.39,-0.01l0 1.2c-0.14,-0.02 -0.4,-0.03 -0.76,-0.03 -0.55,0.04 -1.06,0.37 -1.51,0.99 -0.28,0.35 -0.69,1.16 -1.24,2.44 -0.62,1.51 -1.06,2.56 -1.31,3.14 -1.43,3.38 -2.23,5.37 -2.39,5.97 -0.2,0.51 -0.34,0.86 -0.41,1.06 -0.07,0.19 -0.18,0.44 -0.3,0.75 -0.13,0.31 -0.25,0.64 -0.36,0.99 -0.16,0.4 -0.45,1.21 -0.85,2.43 -0.07,0.3 -0.15,0.53 -0.22,0.69 -0.86,0.03 -1.7,0.16 -2.52,0.38 -0.09,-0.31 -0.21,-0.71 -0.36,-1.2 -0.14,-0.5 -0.34,-1.11 -0.59,-1.84 -0.24,-0.73 -0.6,-1.72 -1.08,-2.97 -0.48,-1.25 -1.11,-2.83 -1.92,-4.75 -0.15,-0.37 -0.35,-0.86 -0.6,-1.48 -0.26,-0.62 -0.5,-1.18 -0.71,-1.67 -0.14,-0.33 -0.27,-0.66 -0.42,-1 -0.14,-0.34 -0.32,-0.74 -0.54,-1.22 -0.57,-1.4 -1.13,-2.24 -1.68,-2.52 -0.2,-0.09 -0.47,-0.13 -0.82,-0.13 -0.07,0 -0.14,-0.01 -0.19,-0.02 -0.06,0 -0.14,-0.01 -0.25,-0.01l0 -1.2z"/>
    </g>
    <g>
     <path class="fil1" d="M63.09 117.23l0.52 0c-0.13,0.67 -0.33,1.17 -0.59,1.51 -0.26,0.34 -0.64,0.58 -1.13,0.7 -0.49,0.12 -1.2,0.19 -2.13,0.19 -0.91,-0.02 -1.71,-0.16 -2.39,-0.44 -0.68,-0.27 -1.26,-0.64 -1.73,-1.11 -0.47,-0.48 -0.84,-1.02 -1.1,-1.62 -0.25,-0.62 -0.39,-1.25 -0.42,-1.92 -0.03,-0.85 0.15,-1.65 0.52,-2.42 0.37,-0.76 0.96,-1.37 1.76,-1.83 0.8,-0.46 1.79,-0.68 2.96,-0.67 0.45,0 0.88,0.02 1.28,0.06 0.41,0.04 0.59,0.06 0.56,0.06 0.14,0.02 0.26,0.03 0.34,0.05 0.09,0.01 0.21,0.03 0.37,0.05 0.16,0.02 0.28,0.03 0.35,0.03 0.35,0.01 0.71,0 1.07,-0.05 -0.08,0.65 -0.13,1.21 -0.14,1.7 -0.01,0.48 0,0.76 0.02,0.83l-0.57 0c0,-0.47 -0.12,-0.86 -0.38,-1.19 -0.25,-0.33 -0.59,-0.57 -1.02,-0.74 -0.43,-0.17 -0.9,-0.23 -1.39,-0.21 -0.72,0.03 -1.36,0.21 -1.92,0.55 -0.56,0.33 -1,0.81 -1.31,1.42 -0.31,0.62 -0.46,1.35 -0.46,2.19 0,0.98 0.19,1.82 0.57,2.53 0.38,0.71 0.87,1.24 1.47,1.59 0.6,0.36 1.21,0.53 1.83,0.53 0.64,0 1.25,-0.17 1.82,-0.53 0.56,-0.35 0.98,-0.77 1.24,-1.26z"/>
     <path class="fil1" d="M71.59 117.23l0.56 0c-0.05,0.18 -0.08,0.31 -0.1,0.39 -0.03,0.09 -0.05,0.19 -0.08,0.3 -0.03,0.16 -0.07,0.31 -0.1,0.42 -0.03,0.13 -0.07,0.29 -0.13,0.48 -0.13,0.35 -0.3,0.57 -0.5,0.67 -0.19,0.09 -0.5,0.13 -0.91,0.11 -0.51,-0.01 -0.9,-0.04 -1.19,-0.06 -0.11,-0.01 -0.25,-0.02 -0.42,-0.04 -0.17,-0.01 -0.37,-0.03 -0.59,-0.04 -0.18,-0.02 -0.44,-0.04 -0.78,-0.06 -0.26,-0.03 -0.52,-0.06 -0.78,-0.06 -0.28,0 -0.53,0.03 -0.75,0.06 -0.24,0.01 -0.47,0.03 -0.68,0.04l-0.45 0 0 -0.54c0.36,0.09 0.64,-0.02 0.84,-0.32 0.11,-0.19 0.17,-0.47 0.17,-0.82 0.03,-0.47 0.04,-0.93 0.04,-1.36 0,-0.3 0,-0.55 0,-0.74 -0.01,-0.2 -0.01,-0.41 -0.01,-0.63 0,-0.25 0,-0.48 0.01,-0.7 0,-0.2 0,-0.48 0,-0.82 0,-0.25 0,-0.45 0,-0.6 -0.01,-0.15 -0.01,-0.31 -0.01,-0.48 -0.02,-0.22 -0.03,-0.56 -0.03,-1.01 -0.07,-0.79 -0.4,-1.15 -1,-1.06l0 -0.54 0.48 0c0.07,0 0.16,0.01 0.28,0.02 0.12,0.01 0.26,0.03 0.42,0.05 0.22,0.03 0.47,0.05 0.77,0.05 0.28,0 0.54,-0.02 0.76,-0.05 0.08,-0.01 0.19,-0.02 0.36,-0.04 0.16,-0.02 0.28,-0.03 0.36,-0.03l0.47 0 0 0.54c-0.49,-0.07 -0.79,0.05 -0.89,0.36 -0.1,0.3 -0.15,0.88 -0.15,1.71l0 1.09 0 1.44c0.01,0.22 0.02,0.41 0.02,0.59 0.01,0.18 0.01,0.41 0.01,0.69 0,0.7 0.01,1.24 0.03,1.63 0.02,0.38 0.16,0.69 0.42,0.93 0.26,0.23 0.83,0.28 1.72,0.15 0.41,-0.06 0.75,-0.2 1.04,-0.42 0.29,-0.22 0.55,-0.65 0.79,-1.3z"/>
     <path class="fil1" d="M73.24 110.36l0 -0.54c0.22,0 0.38,0 0.47,0.01 0.07,0 0.17,0.01 0.29,0.02 0.12,0 0.26,0.02 0.43,0.04 0.21,0.03 0.47,0.05 0.76,0.05 0.29,0 0.55,-0.02 0.77,-0.05 0.17,-0.02 0.3,-0.04 0.42,-0.04 0.12,-0.01 0.21,-0.02 0.29,-0.02 0.09,-0.01 0.25,-0.01 0.47,-0.01l0 0.54c-0.62,-0.09 -0.96,0.27 -1.03,1.06 0,0.48 0,0.83 -0.01,1.05 0,0.49 -0.01,0.85 -0.02,1.09 0,0.24 0.01,0.49 0.02,0.74 0.01,0.25 0,0.51 -0.02,0.77l0 1.36c0,0.26 0.02,0.7 0.06,1.33 0.02,0.4 0.08,0.67 0.17,0.82 0.27,0.27 0.55,0.38 0.84,0.32l0 0.54c-0.18,0.01 -0.35,0.01 -0.53,0 -0.14,-0.01 -0.25,-0.03 -0.32,-0.05 -0.07,-0.01 -0.19,-0.02 -0.35,-0.05 -0.22,-0.03 -0.47,-0.05 -0.77,-0.05 -0.3,0 -0.55,0.02 -0.77,0.05 -0.16,0.03 -0.28,0.04 -0.35,0.05 -0.07,0.02 -0.18,0.04 -0.32,0.05 -0.17,0.02 -0.35,0.02 -0.53,0l0 -0.54c0.42,0.09 0.7,-0.06 0.86,-0.43 0.16,-0.38 0.23,-0.89 0.23,-1.54 0,-0.65 0,-1.27 -0.01,-1.86 0.01,-0.5 0.01,-0.99 0,-1.48 0.01,-0.54 0.02,-1.08 0.02,-1.64 0.01,-0.55 -0.06,-0.97 -0.21,-1.25 -0.14,-0.29 -0.43,-0.4 -0.86,-0.34z"/>
     <path class="fil1" d="M78.68 119.44l0 -0.54c0.5,0.05 0.83,-0.14 0.97,-0.55 0.12,-0.28 0.18,-0.73 0.18,-1.34 0,-0.26 0,-0.5 0,-0.72 0.01,-0.21 0.01,-0.5 0.01,-0.84 0.01,-0.42 0.01,-1.03 0.01,-1.83 -0.01,-0.34 -0.01,-0.84 -0.01,-1.51 -0.01,-0.23 -0.01,-0.57 -0.01,-1.04 -0.02,-0.3 -0.04,-0.71 -0.06,-1.24 0.13,-0.03 0.22,-0.06 0.28,-0.08 0.07,-0.02 0.15,-0.06 0.26,-0.09 0.1,-0.05 0.19,-0.08 0.28,-0.11 1.04,1.28 2.28,2.68 3.74,4.23 0.64,0.64 1.26,1.3 1.86,1.97 0.57,0.64 0.95,1.13 1.15,1.47l0.1 0 0 -0.75 0 -1.67c0.02,-0.55 0.02,-1.12 0.02,-1.74 0,-0.6 -0.03,-1.1 -0.08,-1.47 -0.05,-0.37 -0.18,-0.68 -0.4,-0.92 -0.21,-0.24 -0.52,-0.34 -0.91,-0.27l0 -0.57c0.15,-0.01 0.29,-0.01 0.42,0 0.14,0 0.31,0.02 0.51,0.06 0.34,0.04 0.64,0.07 0.9,0.07 0.31,-0.02 0.53,-0.04 0.68,-0.07 0.34,-0.05 0.67,-0.07 0.98,-0.06l0 0.57c-0.5,-0.07 -0.84,0.08 -1.01,0.46 -0.17,0.37 -0.25,0.94 -0.25,1.7 0,0.76 0,1.51 0.01,2.26 0,0.39 0,0.8 -0.01,1.24 0,0.44 -0.01,0.79 -0.02,1.04 0,0.29 0,0.58 0,0.87 0,0.3 0,0.6 0,0.91 0,0.09 0,0.18 0.01,0.26 0,0.09 0.01,0.18 0.01,0.3 -0.22,0.05 -0.39,0.1 -0.52,0.14 -0.13,0.04 -0.28,0.09 -0.44,0.13 -0.2,-0.23 -0.36,-0.41 -0.48,-0.54 -0.08,-0.11 -0.24,-0.31 -0.47,-0.58 -0.23,-0.28 -0.4,-0.47 -0.51,-0.59 -0.13,-0.17 -0.28,-0.34 -0.45,-0.52 -0.17,-0.18 -0.33,-0.36 -0.49,-0.53 -0.21,-0.23 -0.43,-0.48 -0.66,-0.74 -0.24,-0.26 -0.44,-0.47 -0.6,-0.64 -0.29,-0.31 -0.5,-0.54 -0.63,-0.68 -0.13,-0.15 -0.34,-0.37 -0.62,-0.67 -0.76,-0.8 -1.33,-1.49 -1.73,-2.08l-0.11 0c0.07,0.54 0.1,1.36 0.1,2.48 0,0.24 0,0.47 0,0.71 0,0.24 0,0.48 0,0.71 0,0.15 0.01,0.37 0.03,0.66 0.01,0.29 0.02,0.5 0.02,0.66 0,0.53 0.04,0.88 0.11,1.03 0.19,0.43 0.62,0.6 1.28,0.51l0 0.54c-0.13,0.02 -0.25,0.02 -0.35,0 -0.15,0 -0.32,-0.01 -0.51,-0.04 -0.27,-0.04 -0.52,-0.07 -0.74,-0.07 -0.2,0 -0.46,0.03 -0.77,0.07 -0.29,0.04 -0.52,0.06 -0.69,0.06 -0.08,0.01 -0.21,0 -0.39,-0.02z"/>
     <path class="fil1" d="M90.65 110.36l0 -0.54c0.23,0 0.38,0 0.47,0.01 0.08,0 0.17,0.01 0.3,0.02 0.12,0 0.26,0.02 0.42,0.04 0.22,0.03 0.47,0.05 0.77,0.05 0.29,0 0.55,-0.02 0.77,-0.05 0.16,-0.02 0.3,-0.04 0.41,-0.04 0.12,-0.01 0.22,-0.02 0.29,-0.02 0.1,-0.01 0.26,-0.01 0.47,-0.01l0 0.54c-0.61,-0.09 -0.95,0.27 -1.02,1.06 0,0.48 -0.01,0.83 -0.02,1.05 0,0.49 0,0.85 -0.01,1.09 0,0.24 0,0.49 0.01,0.74 0.01,0.25 0.01,0.51 -0.01,0.77l0 1.36c0,0.26 0.02,0.7 0.05,1.33 0.02,0.4 0.08,0.67 0.18,0.82 0.27,0.27 0.55,0.38 0.83,0.32l0 0.54c-0.18,0.01 -0.35,0.01 -0.52,0 -0.14,-0.01 -0.25,-0.03 -0.32,-0.05 -0.08,-0.01 -0.19,-0.02 -0.36,-0.05 -0.21,-0.03 -0.47,-0.05 -0.76,-0.05 -0.3,0 -0.56,0.02 -0.77,0.05 -0.17,0.03 -0.28,0.04 -0.35,0.05 -0.07,0.02 -0.19,0.04 -0.33,0.05 -0.17,0.02 -0.34,0.02 -0.52,0l0 -0.54c0.41,0.09 0.7,-0.06 0.85,-0.43 0.16,-0.38 0.24,-0.89 0.24,-1.54 0,-0.65 -0.01,-1.27 -0.01,-1.86 0,-0.5 0,-0.99 0,-1.48 0,-0.54 0.01,-1.08 0.02,-1.64 0,-0.55 -0.07,-0.97 -0.21,-1.25 -0.15,-0.29 -0.44,-0.4 -0.87,-0.34z"/>
     <path class="fil1" d="M104.38 117.23l0.53 0c-0.13,0.67 -0.33,1.17 -0.59,1.51 -0.26,0.34 -0.64,0.58 -1.13,0.7 -0.49,0.12 -1.2,0.19 -2.13,0.19 -0.92,-0.02 -1.71,-0.16 -2.39,-0.44 -0.68,-0.27 -1.26,-0.64 -1.73,-1.11 -0.48,-0.48 -0.84,-1.02 -1.1,-1.62 -0.25,-0.62 -0.39,-1.25 -0.42,-1.92 -0.03,-0.85 0.15,-1.65 0.52,-2.42 0.37,-0.76 0.96,-1.37 1.76,-1.83 0.8,-0.46 1.79,-0.68 2.96,-0.67 0.45,0 0.88,0.02 1.28,0.06 0.41,0.04 0.59,0.06 0.56,0.06 0.14,0.02 0.26,0.03 0.34,0.05 0.09,0.01 0.21,0.03 0.37,0.05 0.16,0.02 0.28,0.03 0.35,0.03 0.35,0.01 0.71,0 1.07,-0.05 -0.08,0.65 -0.13,1.21 -0.14,1.7 -0.01,0.48 0,0.76 0.02,0.83l-0.57 0c0,-0.47 -0.13,-0.86 -0.38,-1.19 -0.25,-0.33 -0.59,-0.57 -1.02,-0.74 -0.43,-0.17 -0.9,-0.23 -1.39,-0.21 -0.72,0.03 -1.36,0.21 -1.92,0.55 -0.56,0.33 -1,0.81 -1.31,1.42 -0.31,0.62 -0.47,1.35 -0.47,2.19 0,0.98 0.2,1.82 0.58,2.53 0.38,0.71 0.87,1.24 1.47,1.59 0.59,0.36 1.2,0.53 1.82,0.53 0.65,0 1.26,-0.17 1.82,-0.53 0.57,-0.35 0.98,-0.77 1.24,-1.26z"/>
    </g>
    <path class="fil1" d="M90.1 64.6c-0.44,0 -0.88,0.03 -1.31,0.08 -0.81,0.04 -1.38,0.06 -1.73,0.06 -0.71,0 -1.46,-0.05 -2.25,-0.14 -0.43,-0.02 -1,-0.03 -1.69,-0.03l0 1.07c1.22,-0.13 1.94,0.37 2.16,1.48 0.15,0.55 0.18,1.3 0.11,2.27 -0.04,1.02 -0.07,1.81 -0.11,2.36 0,0.4 -0.02,0.95 -0.06,1.64 -0.8,0.27 -1.68,0.4 -2.62,0.38 -1.28,-0.03 -2.51,-0.38 -3.69,-1.04 -1.18,-0.65 -2.13,-1.68 -2.88,-3.08 -0.73,-1.39 -1.1,-3.07 -1.1,-5.02 0,-1.92 0.34,-3.54 1.04,-4.85 0.69,-1.32 1.62,-2.29 2.79,-2.93 1.17,-0.64 2.46,-0.93 3.86,-0.88 1.57,0.06 2.74,0.5 3.52,1.33 0.78,0.83 1.21,1.79 1.3,2.89l1.07 0c0.04,-0.4 0.06,-0.74 0.08,-1.01 0.02,-0.28 0.03,-0.52 0.03,-0.72 0.04,-1.15 0.08,-2 0.14,-2.54 0,-0.22 0.01,-0.53 0.05,-0.94 -0.6,0.13 -1.27,0.2 -2,0.2 -0.22,0 -0.83,-0.05 -1.83,-0.14 -1.12,-0.15 -1.92,-0.23 -2.41,-0.25 -2.34,-0.1 -4.38,0.18 -6.12,0.87 -1.75,0.68 -3.11,1.76 -4.07,3.24 -0.97,1.48 -1.46,3.26 -1.48,5.34 0,2.32 0.56,4.29 1.67,5.91 1.12,1.61 2.52,2.83 4.21,3.65 1.68,0.82 3.36,1.25 5.02,1.29 1.21,0 2.43,-0.13 3.68,-0.38 1.25,-0.26 2.37,-0.61 3.36,-1.05 -0.02,-0.25 -0.03,-0.68 -0.03,-1.28 0,-0.55 0.01,-1.05 0.01,-1.5 0.01,-0.44 0.02,-1.04 0.02,-1.79 0,-0.99 0.06,-1.69 0.19,-2.11 0.15,-0.53 0.37,-0.9 0.67,-1.11 0.3,-0.21 0.74,-0.29 1.3,-0.23l0 -1.07c-0.42,0 -0.72,0.01 -0.9,0.03zm-4.77 -8.74l0 0c0.88,0.08 1.38,0.12 1.63,0.12 0.38,0 0.74,-0.02 1.09,-0.06 0,0.03 0,0.06 0,0.09 -0.05,0.49 -0.08,1.21 -0.12,2.18 0,0.17 0,0.36 -0.02,0.58 0,0.02 0,0.03 0,0.04 -0.2,-0.73 -0.57,-1.39 -1.11,-1.97 -0.43,-0.46 -0.96,-0.78 -1.59,-1 0.04,0.01 0.08,0.01 0.12,0.02zm-7.76 17.76l0 0c-1.65,-0.8 -3.03,-1.99 -4.11,-3.57 -1.09,-1.58 -1.63,-3.5 -1.63,-5.77 0.01,-2.03 0.49,-3.77 1.44,-5.22 0.95,-1.44 2.27,-2.5 3.98,-3.17 0.49,-0.19 1.01,-0.35 1.55,-0.48 -0.18,0.06 -0.36,0.12 -0.53,0.19 -1.76,0.69 -3.13,1.78 -4.1,3.27 -0.98,1.5 -1.48,3.29 -1.49,5.39 0,2.34 0.56,4.32 1.68,5.95 1.12,1.63 2.54,2.86 4.24,3.69 0.59,0.29 1.19,0.53 1.77,0.72 -0.93,-0.21 -1.86,-0.54 -2.8,-1zm9.45 -4.26l0 0c-0.04,0.95 -0.07,1.68 -0.11,2.2 0,0.4 -0.02,0.9 -0.06,1.55l0 0.04 -0.84 0.14 0.03 -0.4c0.03,-0.62 0.05,-1.11 0.05,-1.49 0.03,-0.5 0.07,-1.2 0.1,-2.11 0.02,-0.28 0.04,-0.57 0.04,-0.83 -0.01,-0.52 -0.05,-0.98 -0.16,-1.38 -0.11,-0.52 -0.36,-0.99 -0.77,-1.32 -0.1,-0.08 -0.21,-0.15 -0.32,-0.21l0 0c0.35,0.04 0.7,0.07 1.04,0.09 0.02,0.02 0.05,0.03 0.07,0.05 0.43,0.34 0.69,0.83 0.8,1.38 0.11,0.41 0.16,0.88 0.16,1.43 0,0.27 -0.01,0.57 -0.03,0.86z"/>
    <polygon class="fil1" points="71.79,57.88 71.79,57.88 "/>
    <path class="fil1" d="M71.79 57.88l0 0c0,-0.01 0,-0.01 0,-0.01l0 0c0,0 0,0 0,0.01z"/>
    <path class="fil1" d="M71.79 57.88c0,-0.01 0,-0.01 0,-0.01l-0.07 0.02 0.07 -0.01z"/>
    <path class="fil1" d="M73.44 49.97c0.01,-0.04 0.02,-0.08 0.03,-0.12 -0.01,0.04 -0.02,0.08 -0.03,0.12z"/>
    <path class="fil1" d="M88.29 49.98c-0.01,-0.05 -0.02,-0.09 -0.03,-0.13 0.01,0.04 0.02,0.08 0.03,0.13z"/>
    <g>
     <path class="fil1" d="M72.46 77.39c-0.16,0.11 -0.94,0.69 -0.94,1.79 0,0.58 0.27,0.78 0.55,0.78 0.29,0 0.54,-0.39 0.54,-0.83 0,-1.47 -2.31,-1.64 -2.31,-3.13 0,-0.58 0.29,-0.58 0.29,-0.58 0,0 0.27,-0.02 0.27,0.44 0,1.08 -2.06,1.56 -2.06,3.03 0,0.1 -0.01,0.46 0.39,0.46 0.25,0 0.37,-0.33 0.37,-0.68 0,-0.36 -0.64,-1.81 -2.8,-1.81 -1.04,0 -1.08,0.54 -1.08,0.54 0,0 -0.12,0.58 1.35,0.58 1.47,0 2.53,-0.9 2.53,-1.84 0,-0.53 -0.37,-0.58 -0.46,-0.58 -0.08,0 -0.33,0.07 -0.33,0.63 0,0.99 2.11,1.79 2.11,2.82 0,0.42 -0.22,0.46 -0.34,0.46 -0.12,0 -0.24,-0.14 -0.24,-0.41 0,-0.82 2.3,-2.12 2.3,-3.35 0,-0.56 -0.44,-0.78 -0.59,-0.78 -0.16,0 -0.51,0.1 -0.51,0.83 0,0.72 0.68,1.43 0.96,1.63l0.57 0.04c-0.64,-0.05 -1.41,-1.07 -1.39,-1.61 0.01,-0.59 0.11,-0.74 0.37,-0.74 0.25,0 0.39,0.34 0.38,0.55 -0.03,0.94 -2.24,2.15 -2.24,3.38 0,0.51 0.24,0.61 0.39,0.61 0.15,0 0.51,-0.08 0.51,-0.61 0,-1.08 -2.13,-1.81 -2.13,-2.89 0,-0.3 0.13,-0.41 0.23,-0.41 0.11,0 0.26,0.09 0.26,0.34 0,1.23 -2.08,1.76 -2.73,1.76 -0.66,0 -0.86,-0.17 -0.86,-0.41 0,-0.24 0.42,-0.44 0.96,-0.44 2.02,0 2.65,1.4 2.65,1.74 0,0.34 -0.11,0.48 -0.26,0.48 -0.15,0 -0.23,-0.05 -0.23,-0.29 0,-0.84 2.09,-1.68 2.09,-2.85 0,-0.77 -0.43,-0.75 -0.43,-0.75 0,0 -0.47,-0.04 -0.47,0.68 0,1.5 2.32,1.64 2.32,3.21 0,0.39 -0.24,0.63 -0.41,0.63 -0.17,0 -0.34,-0.14 -0.34,-0.67 0,-1.08 1.08,-1.61 1.33,-1.71l-0.57 -0.04z"/>
     <path class="fil1" d="M89.37 77.46c0.16,-0.11 0.95,-0.69 0.95,-1.79 0,-0.58 -0.27,-0.78 -0.56,-0.78 -0.29,0 -0.54,0.39 -0.54,0.83 0,1.47 2.31,1.64 2.31,3.12 0,0.58 -0.29,0.58 -0.29,0.58 0,0 -0.27,0.02 -0.27,-0.44 0,-1.07 2.06,-1.55 2.06,-3.02 0,-0.1 0.02,-0.46 -0.38,-0.46 -0.26,0 -0.37,0.32 -0.37,0.68 0,0.36 0.64,1.81 2.79,1.81 1.05,0 1.08,-0.55 1.08,-0.55 0,0 0.12,-0.58 -1.35,-0.58 -1.46,0 -2.52,0.91 -2.52,1.85 0,0.53 0.37,0.58 0.45,0.58 0.08,0 0.34,-0.07 0.34,-0.63 0,-0.99 -2.11,-1.8 -2.11,-2.82 0,-0.43 0.22,-0.46 0.33,-0.46 0.12,0 0.24,0.14 0.24,0.41 0,0.82 -2.29,2.12 -2.29,3.34 0,0.57 0.44,0.79 0.59,0.79 0.15,0 0.5,-0.1 0.5,-0.84 0,-0.71 -0.67,-1.42 -0.96,-1.62l-0.57 -0.04c0.65,0.05 1.42,1.07 1.4,1.61 -0.02,0.58 -0.12,0.74 -0.37,0.74 -0.26,0 -0.4,-0.35 -0.39,-0.55 0.03,-0.94 2.24,-2.15 2.24,-3.38 0,-0.51 -0.23,-0.61 -0.39,-0.61 -0.15,0 -0.5,0.08 -0.5,0.61 0,1.07 2.13,1.81 2.13,2.88 0,0.31 -0.14,0.41 -0.24,0.41 -0.1,0 -0.25,-0.08 -0.25,-0.34 0,-1.23 2.07,-1.76 2.73,-1.76 0.65,0 0.86,0.17 0.86,0.41 0,0.24 -0.42,0.45 -0.96,0.45 -2.03,0 -2.65,-1.4 -2.65,-1.74 0,-0.34 0.1,-0.48 0.25,-0.48 0.15,0 0.24,0.05 0.24,0.29 0,0.84 -2.09,1.67 -2.09,2.85 0,0.77 0.42,0.75 0.42,0.75 0,0 0.47,0.04 0.47,-0.68 0,-1.5 -2.31,-1.64 -2.31,-3.21 0,-0.39 0.23,-0.63 0.41,-0.63 0.16,0 0.33,0.13 0.33,0.66 0,1.09 -1.08,1.61 -1.33,1.72l0.57 0.04z"/>
    </g>
    <g>
     <g>
      <path class="fil1" d="M91.34 59.28c-0.6,-0.16 -0.92,-0.38 -1.09,-0.61 -0.17,-0.24 -0.18,-0.49 -0.18,-0.65 0,-0.19 0.07,-0.46 0.29,-0.67 0.22,-0.21 0.59,-0.37 1.2,-0.37 1.23,0 2.29,0.75 2.29,0.75l0.14 0.1 -0.15 0.07c0,0 -0.02,0.01 -0.06,0.03 -0.04,0.02 -0.08,0.06 -0.13,0.11 -0.1,0.1 -0.19,0.25 -0.19,0.49 0,0.44 0.2,0.71 0.41,0.88 0.21,0.17 0.42,0.22 0.42,0.22l-0.01 0.09 0.01 -0.09 -0.01 0.18c-0.01,0 -0.03,0 -0.05,0 -0.34,0 -1.59,-0.2 -2.89,-0.53zm0.22 -2.12l0 0c-1.19,0.02 -1.34,0.58 -1.34,0.86 0,0.16 0,0.34 0.14,0.53 0.14,0.19 0.43,0.4 1.01,0.55 0.97,0.25 1.92,0.43 2.47,0.5 -0.25,-0.19 -0.52,-0.52 -0.53,-1.07 0.01,-0.4 0.2,-0.61 0.34,-0.72 -0.11,-0.07 -0.3,-0.18 -0.54,-0.28 -0.4,-0.18 -0.95,-0.37 -1.54,-0.37 0,0 -0.01,0 -0.01,0z"/>
     </g>
     <g>
      <path class="fil1" d="M90.73 57.45c0,0 0.2,-0.16 0.36,-0.16 0,0 0.86,0 2.05,0.4 0,0 -2,-0.09 -2.41,-0.24z"/>
     </g>
     <g>
      <path class="fil1" d="M90.42 57.79c0,0 0.07,-0.24 0.24,-0.24 0,0 1.01,0.14 2.16,0.48 0,0 -2.12,-0.13 -2.4,-0.24z"/>
     </g>
     <g>
      <path class="fil1" d="M90.33 58.17c0,0 -0.02,-0.23 0.06,-0.28 0,0 1.11,0.16 2.34,0.52 0,0 -2,-0.09 -2.4,-0.24z"/>
     </g>
     <g>
      <path class="fil1" d="M90.39 58.55c0,0 -0.05,-0.14 -0.04,-0.28 0,0 1.22,0.16 2.44,0.53 0,0 -2.28,-0.2 -2.4,-0.25z"/>
     </g>
     <g>
      <path class="fil1" d="M90.88 58.86c0,0 -0.41,-0.11 -0.41,-0.24 0,0 1.37,0.22 2.6,0.58 0,0 -1.78,-0.19 -2.19,-0.34z"/>
     </g>
     <g>
      <path class="fil1" d="M95.42 58.46c-0.09,0 -0.18,-0.01 -0.28,-0.02 -1.1,-0.2 -2.09,-1.28 -3.51,-1.28 -0.97,0 -1.26,0.4 -1.35,0.57 -0.03,0.06 -0.03,0.09 -0.03,0.09l-0.07 -0.02 0.07 0.02 -0.14 -0.03c0,0 0,-0.01 0,-0.01 0,0 0,0 0,-0.01 0.01,-0.12 0.14,-0.87 0.51,-1.36 0.57,-0.74 0.73,-1.31 0.77,-1.55 0.02,-0.07 0.02,-0.11 0.02,-0.11l0 -0.11 0.09 0.03c4.22,1.5 4.91,2.89 4.93,2.92l0.02 0.04 -0.01 0.03c0,0.02 -0.15,0.8 -1.02,0.8 0,0 0,0 0,0zm-3.79 -1.48l0 0c1.48,0.01 2.49,1.11 3.53,1.28 0.09,0.01 0.18,0.02 0.26,0.02 0.59,0 0.78,-0.38 0.85,-0.56 0.01,-0.03 0.02,-0.05 0.02,-0.06 0,-0.01 -0.01,-0.02 -0.02,-0.03 -0.02,-0.03 -0.06,-0.09 -0.12,-0.17 -0.13,-0.15 -0.34,-0.36 -0.68,-0.63 -0.68,-0.52 -1.88,-1.22 -3.93,-1.96 -0.04,0.25 -0.2,0.87 -0.82,1.67 -0.18,0.23 -0.3,0.55 -0.37,0.81 0,0.01 -0.01,0.03 -0.01,0.04 0.2,-0.2 0.58,-0.41 1.27,-0.41 0.01,0 0.02,0 0.02,0z"/>
     </g>
     <g>
      <g>
       <polygon class="fil1" points="91.69,55.1 91.08,56.58 91.95,55.17 "/>
      </g>
      <g>
       <polygon class="fil1" points="92.09,55.23 91.56,56.51 92.32,55.31 "/>
      </g>
      <g>
       <polygon class="fil1" points="92.5,55.37 92.08,56.54 92.74,55.47 "/>
      </g>
      <g>
       <polygon class="fil1" points="92.89,55.53 92.51,56.58 93.16,55.63 "/>
      </g>
      <g>
       <polygon class="fil1" points="93.26,55.69 92.95,56.68 93.51,55.8 "/>
      </g>
      <g>
       <polygon class="fil1" points="93.6,55.85 93.36,56.81 93.85,55.96 "/>
      </g>
      <g>
       <polygon class="fil1" points="93.96,56.02 93.74,56.94 94.2,56.16 "/>
      </g>
      <g>
       <polygon class="fil1" points="94.37,56.24 94.14,57.16 94.61,56.38 "/>
      </g>
      <g>
       <polygon class="fil1" points="94.72,56.46 94.53,57.26 94.95,56.61 "/>
      </g>
      <g>
       <polygon class="fil1" points="95.04,56.67 94.85,57.48 95.27,56.83 "/>
      </g>
      <g>
       <polygon class="fil1" points="95.36,56.91 95.2,57.61 95.59,57.07 "/>
      </g>
      <g>
       <polygon class="fil1" points="95.68,57.15 95.55,57.77 95.84,57.29 "/>
      </g>
     </g>
     <g>
      <path class="fil1" d="M65.48 57.65c0,0 0,-0.23 -0.08,-0.64 -0.08,-0.41 -0.22,-0.99 -0.49,-1.7 -0.77,-1.98 -1.48,-2.36 -1.97,-3.59 -0.15,-0.39 -0.23,-0.7 -0.23,-0.98 0,-0.6 0.37,-0.97 0.96,-1.4 0,0 6.82,-4.64 17.29,-4.64 10.48,0 17.29,4.63 17.3,4.64 0.59,0.43 0.95,0.79 0.95,1.4 0,0.28 -0.07,0.59 -0.22,0.98 -0.49,1.23 -1.2,1.6 -1.97,3.59 -0.28,0.7 -0.42,1.29 -0.5,1.7 -0.07,0.41 -0.08,0.63 -0.08,0.63l-0.01 0.2 -0.11 -0.14c-1.84,-2.15 -5.68,-3.3 -9.06,-3.9 -3.35,-0.59 -6.23,-0.65 -6.3,-0.66 -0.02,0 -0.74,0.02 -1.87,0.11 -1.16,0.09 -2.73,0.25 -4.42,0.55 -3.38,0.6 -7.23,1.75 -9.06,3.91l-0.12 0.13 -0.01 -0.19zm-2.63 -6.91l0 0c0,0.24 0.07,0.53 0.22,0.9 0.45,1.17 1.18,1.57 1.97,3.59 0.41,1.08 0.54,1.88 0.57,2.23 3.89,-4.29 15.34,-4.49 15.35,-4.49l0 0.09 0 -0.09c0.01,0 11.46,0.2 15.35,4.48 0.04,-0.34 0.16,-1.15 0.58,-2.22 0.78,-2.02 1.51,-2.42 1.97,-3.59 0.15,-0.37 0.21,-0.66 0.21,-0.9 0,-0.5 -0.3,-0.81 -0.88,-1.25 0,0 -0.42,-0.28 -1.22,-0.72 -0.8,-0.43 -1.98,-1.01 -3.48,-1.58 -3,-1.16 -7.31,-2.32 -12.53,-2.32 -7.83,0 -13.61,2.6 -16.01,3.91 -0.79,0.43 -1.21,0.72 -1.21,0.72 -0.59,0.43 -0.89,0.75 -0.89,1.24z"/>
     </g>
     <g>
      <path class="fil1" d="M67.64 59.81l0.01 -0.09 0.01 0.09 -0.01 -0.09 -0.01 0.09 -0.01 -0.18c0,0 0.21,-0.05 0.42,-0.22 0.21,-0.17 0.42,-0.44 0.42,-0.88 0,-0.24 -0.1,-0.39 -0.19,-0.49 -0.1,-0.1 -0.19,-0.14 -0.2,-0.14l-0.15 -0.06 0.14 -0.1c0.01,-0.01 1.06,-0.75 2.29,-0.75 0.62,0 0.99,0.15 1.21,0.36 0.22,0.21 0.28,0.48 0.28,0.67 0,0.17 -0.01,0.42 -0.18,0.65 -0.17,0.24 -0.49,0.45 -1.09,0.61 -1.3,0.34 -2.54,0.53 -2.89,0.53 0,0 0,0 0,0 -0.02,0 -0.04,0 -0.05,0zm0.97 -1.28l0 0c0,0.56 -0.27,0.88 -0.52,1.07 0.54,-0.07 1.49,-0.25 2.46,-0.5 0.59,-0.15 0.88,-0.36 1.01,-0.55 0.14,-0.19 0.14,-0.37 0.14,-0.53 0,-0.28 -0.14,-0.84 -1.34,-0.85 -0.59,0 -1.15,0.18 -1.55,0.36 -0.24,0.11 -0.43,0.21 -0.54,0.28 0.14,0.11 0.34,0.33 0.34,0.72z"/>
     </g>
     <g>
      <path class="fil1" d="M71.19 57.46c0,0 -0.19,-0.16 -0.36,-0.16 0,0 -0.86,0 -2.04,0.4 0,0 2,-0.09 2.4,-0.24z"/>
     </g>
     <g>
      <path class="fil1" d="M71.5 57.79c0,0 -0.07,-0.24 -0.24,-0.24 0,0 -1.01,0.14 -2.16,0.49 0,0 2.13,-0.14 2.4,-0.25z"/>
     </g>
     <g>
      <path class="fil1" d="M71.6 58.18c0,0 0.01,-0.23 -0.06,-0.29 0,0 -1.12,0.16 -2.35,0.53 0,0 2,-0.09 2.41,-0.24z"/>
     </g>
     <g>
      <path class="fil1" d="M71.53 58.56c0,0 0.05,-0.15 0.05,-0.28 0,0 -1.22,0.15 -2.45,0.52 0,0 2.28,-0.2 2.4,-0.24z"/>
     </g>
     <g>
      <path class="fil1" d="M71.05 58.86c0,0 0.41,-0.1 0.4,-0.24 0,0 -1.37,0.22 -2.6,0.59 0,0 1.79,-0.2 2.2,-0.35z"/>
     </g>
     <g>
      <path class="fil1" d="M65.49 57.66l-0.01 -0.03 0.01 -0.03c0.02,-0.03 0.72,-1.43 4.94,-2.93l0.08 -0.02 0.01 0.11c0,0 0,0.03 0.01,0.11 0.02,0.08 0.04,0.19 0.1,0.34 0.1,0.29 0.29,0.71 0.68,1.21 0.36,0.47 0.49,1.22 0.5,1.35 0.01,0.01 0.01,0.01 0.01,0.02l-0.07 0.01 0.07 -0.01 -0.15 0.03c0,0 0,0 0,-0.02 0,-0.01 -0.01,-0.04 -0.03,-0.06 -0.03,-0.06 -0.08,-0.14 -0.17,-0.23 -0.18,-0.16 -0.53,-0.34 -1.18,-0.34 -1.41,-0.01 -2.41,1.08 -3.5,1.27 -0.11,0.02 -0.2,0.02 -0.29,0.02 0,0 0,0 0,0 -0.86,0 -1.01,-0.78 -1.01,-0.8zm0.16 0.06l0 0c0.03,0.06 0.06,0.15 0.13,0.23 0.12,0.16 0.33,0.33 0.72,0.33 0.08,0 0.17,0 0.27,-0.02 1.03,-0.16 2.04,-1.27 3.52,-1.27 0.71,-0.01 1.09,0.2 1.29,0.41 0,-0.02 0,-0.03 0,-0.05 -0.08,-0.26 -0.2,-0.58 -0.38,-0.81 -0.61,-0.8 -0.77,-1.42 -0.81,-1.66 -3.62,1.29 -4.57,2.49 -4.74,2.76 -0.01,0.01 -0.01,0.01 -0.01,0.02 0,0.02 0.01,0.04 0.01,0.06zm6.17 0.07l0 0c0,0 0,0 0,0l-0.07 0.01 0.07 -0.01z"/>
     </g>
     <g>
      <g>
       <polygon class="fil1" points="70.23,55.1 70.84,56.59 69.97,55.18 "/>
      </g>
      <g>
       <polygon class="fil1" points="69.84,55.23 70.36,56.51 69.6,55.32 "/>
      </g>
      <g>
       <polygon class="fil1" points="69.42,55.38 69.85,56.55 69.19,55.47 "/>
      </g>
      <g>
       <polygon class="fil1" points="69.03,55.53 69.42,56.59 68.77,55.63 "/>
      </g>
      <g>
       <polygon class="fil1" points="68.67,55.69 68.97,56.69 68.42,55.81 "/>
      </g>
      <g>
       <polygon class="fil1" points="68.32,55.85 68.57,56.82 68.07,55.97 "/>
      </g>
      <g>
       <polygon class="fil1" points="67.96,56.02 68.18,56.94 67.72,56.16 "/>
      </g>
      <g>
       <polygon class="fil1" points="67.56,56.25 67.78,57.17 67.32,56.39 "/>
      </g>
      <g>
       <polygon class="fil1" points="67.2,56.46 67.4,57.26 66.97,56.61 "/>
      </g>
      <g>
       <polygon class="fil1" points="66.88,56.67 67.08,57.49 66.65,56.83 "/>
      </g>
      <g>
       <polygon class="fil1" points="66.56,56.91 66.72,57.61 66.34,57.07 "/>
      </g>
      <g>
       <polygon class="fil1" points="66.24,57.16 66.38,57.77 66.08,57.29 "/>
      </g>
     </g>
     <g>
      <g>
       <path class="fil1" d="M63.09 50.54c0,0 1.22,-0.87 2.14,-1.36l-2.13 1.8c0,0 -0.06,-0.34 -0.01,-0.44z"/>
      </g>
      <g>
       <path class="fil1" d="M63.18 51.21c0,0 1.14,-0.79 2.07,-1.28l-1.97 1.69c0,0 -0.14,-0.3 -0.1,-0.41z"/>
      </g>
      <g>
       <path class="fil1" d="M63.41 51.78c0,0 1.04,-0.66 1.96,-1.15l-1.81 1.52c0,0 -0.19,-0.26 -0.15,-0.37z"/>
      </g>
      <g>
       <path class="fil1" d="M63.68 52.33c0,0 0.95,-0.58 1.87,-1.08l-1.67 1.43c0,0 -0.24,-0.25 -0.2,-0.35z"/>
      </g>
      <g>
       <path class="fil1" d="M64.04 52.82c0,0 0.83,-0.49 1.75,-0.98l-1.55 1.32c0,0 -0.25,-0.24 -0.2,-0.34z"/>
      </g>
      <g>
       <path class="fil1" d="M64.37 53.34c0,0 0.76,-0.41 1.68,-0.91l-1.48 1.26c0,0 -0.24,-0.25 -0.2,-0.35z"/>
      </g>
      <g>
       <path class="fil1" d="M64.69 53.88c0,0 0.66,-0.3 1.58,-0.8l-1.42 1.18c0,0 -0.15,-0.26 -0.16,-0.38z"/>
      </g>
      <g>
       <path class="fil1" d="M64.95 54.47c0,0 0.59,-0.19 1.51,-0.69l-1.36 1.08c0,0 -0.14,-0.27 -0.15,-0.39z"/>
      </g>
      <g>
       <path class="fil1" d="M65.17 55.05c0,0 0.53,-0.14 1.45,-0.63l-1.29 1.02c0,0 -0.14,-0.26 -0.16,-0.39z"/>
      </g>
      <g>
       <path class="fil1" d="M65.36 55.63c0,0 0.74,-0.17 1.66,-0.66l-1.53 1.1c0,0 -0.12,-0.31 -0.13,-0.44z"/>
      </g>
      <g>
       <path class="fil1" d="M65.54 56.29c0,0 1.33,-0.49 2.24,-0.9l-2.12 1.42c0,0 -0.11,-0.4 -0.12,-0.52z"/>
      </g>
     </g>
     <g>
      <g>
       <path class="fil1" d="M98.84 50.54c0,0 -1.22,-0.87 -2.14,-1.37l2.13 1.81c0,0 0.05,-0.34 0.01,-0.44z"/>
      </g>
      <g>
       <path class="fil1" d="M98.75 51.21c0,0 -1.15,-0.79 -2.07,-1.29l1.96 1.69c0,0 0.15,-0.3 0.11,-0.4z"/>
      </g>
      <g>
       <path class="fil1" d="M98.51 51.78c0,0 -1.03,-0.66 -1.96,-1.16l1.82 1.53c0,0 0.18,-0.27 0.14,-0.37z"/>
      </g>
      <g>
       <path class="fil1" d="M98.24 52.33c0,0 -0.95,-0.59 -1.87,-1.08l1.67 1.42c0,0 0.25,-0.24 0.2,-0.34z"/>
      </g>
      <g>
       <path class="fil1" d="M97.89 52.82c0,0 -0.83,-0.49 -1.76,-0.99l1.56 1.33c0,0 0.24,-0.24 0.2,-0.34z"/>
      </g>
      <g>
       <path class="fil1" d="M97.56 53.34c0,0 -0.76,-0.41 -1.68,-0.91l1.48 1.26c0,0 0.24,-0.25 0.2,-0.35z"/>
      </g>
      <g>
       <path class="fil1" d="M97.23 53.87c0,0 -0.66,-0.29 -1.58,-0.79l1.43 1.18c0,0 0.14,-0.27 0.15,-0.39z"/>
      </g>
      <g>
       <path class="fil1" d="M96.98 54.47c0,0 -0.59,-0.2 -1.51,-0.69l1.35 1.08c0,0 0.14,-0.27 0.16,-0.39z"/>
      </g>
      <g>
       <path class="fil1" d="M96.75 55.05c0,0 -0.52,-0.14 -1.45,-0.63l1.3 1.02c0,0 0.14,-0.27 0.15,-0.39z"/>
      </g>
      <g>
       <path class="fil1" d="M96.57 55.63c0,0 -0.74,-0.17 -1.67,-0.67l1.53 1.11c0,0 0.12,-0.31 0.14,-0.44z"/>
      </g>
      <g>
       <path class="fil1" d="M96.39 56.29c0,0 -1.34,-0.49 -2.25,-0.91l2.13 1.43c0,0 0.1,-0.4 0.12,-0.52z"/>
      </g>
     </g>
    </g>
    <g>
     <g>
      <path class="fil1" d="M83.12 43.67c0,-0.32 0.27,-0.58 0.62,-0.58 0.34,0 0.62,0.26 0.62,0.58 0,0.32 -0.28,0.58 -0.62,0.58 -0.35,0 -0.62,-0.26 -0.62,-0.58z"/>
      <path class="fil1" d="M83.74 44.08c0.24,0 0.44,-0.18 0.44,-0.41 0,-0.23 -0.2,-0.42 -0.44,-0.42 -0.25,0 -0.44,0.19 -0.44,0.42 0,0.23 0.19,0.41 0.44,0.41z"/>
     </g>
     <g>
      <path class="fil1" d="M87.53 44.77c0,-0.32 0.27,-0.59 0.62,-0.59 0.34,0 0.61,0.27 0.61,0.59 0,0.32 -0.27,0.58 -0.61,0.58 -0.35,0 -0.62,-0.26 -0.62,-0.58z"/>
      <path class="fil1" d="M88.15 45.18c0.24,0 0.43,-0.18 0.43,-0.41 0,-0.23 -0.19,-0.41 -0.43,-0.41 -0.25,0 -0.44,0.18 -0.44,0.41 0,0.23 0.19,0.41 0.44,0.41z"/>
     </g>
     <g>
      <path class="fil1" d="M89.63 45.57c0.2,-0.25 0.54,-0.31 0.77,-0.14 0.22,0.17 0.24,0.51 0.04,0.75 -0.2,0.25 -0.55,0.31 -0.77,0.14 -0.23,-0.17 -0.24,-0.5 -0.04,-0.75z"/>
      <path class="fil1" d="M89.77 46.19c0.17,0.12 0.41,0.08 0.55,-0.1 0.15,-0.17 0.13,-0.41 -0.03,-0.53 -0.16,-0.12 -0.4,-0.08 -0.55,0.1 -0.14,0.17 -0.12,0.41 0.03,0.53z"/>
     </g>
     <g>
      <path class="fil1" d="M86.64 47.71c0.1,-0.29 0.41,-0.45 0.68,-0.36 0.27,0.1 0.4,0.41 0.3,0.71 -0.11,0.29 -0.42,0.45 -0.69,0.36 -0.27,-0.1 -0.4,-0.41 -0.29,-0.71z"/>
      <path class="fil1" d="M86.99 48.26c0.19,0.07 0.41,-0.04 0.48,-0.25 0.08,-0.21 -0.01,-0.43 -0.2,-0.5 -0.2,-0.07 -0.41,0.05 -0.49,0.25 -0.08,0.21 0.02,0.43 0.21,0.5z"/>
     </g>
     <g>
      <path class="fil1" d="M85.61 43.99c0,-0.32 0.27,-0.58 0.62,-0.58 0.34,0 0.62,0.26 0.62,0.58 0,0.33 -0.28,0.59 -0.62,0.59 -0.35,0 -0.62,-0.26 -0.62,-0.59z"/>
      <path class="fil1" d="M86.23 44.41c0.24,0 0.44,-0.19 0.44,-0.42 0,-0.22 -0.2,-0.41 -0.44,-0.41 -0.25,0 -0.44,0.19 -0.44,0.41 0,0.23 0.19,0.42 0.44,0.42z"/>
     </g>
     <g>
      <path class="fil1" d="M80.28 43.46c0,-0.32 0.28,-0.58 0.62,-0.58 0.34,0 0.62,0.26 0.62,0.58 0,0.33 -0.28,0.59 -0.62,0.59 -0.34,0 -0.62,-0.26 -0.62,-0.59z"/>
      <path class="fil1" d="M80.9 43.88c0.24,0 0.44,-0.19 0.44,-0.42 0,-0.22 -0.2,-0.41 -0.44,-0.41 -0.24,0 -0.44,0.19 -0.44,0.41 0,0.23 0.2,0.42 0.44,0.42z"/>
     </g>
     <path class="fil1" d="M89.75 46.37c-0.27,0.34 -0.58,1.12 -0.67,1.44 -0.04,-0.13 -0.08,-0.23 -0.08,-0.23 0.09,-0.32 0.35,-0.96 0.61,-1.3 0.06,0.04 0.14,0.09 0.14,0.09z"/>
     <path class="fil1" d="M72.06 46.37c0.26,0.34 0.58,1.12 0.67,1.44 0.03,-0.13 0.08,-0.23 0.08,-0.23 -0.09,-0.32 -0.36,-0.96 -0.62,-1.3 -0.05,0.04 -0.13,0.09 -0.13,0.09z"/>
     <polygon class="fil1" points="84.07,46.37 83.75,48.06 83.92,48.07 84.27,46.4 "/>
     <polygon class="fil1" points="86.42,46.86 86.06,48.42 86.22,48.46 86.6,46.92 "/>
     <g>
      <path class="fil1" d="M85.79 48.12c-0.2,-0.07 -0.97,-0.28 -1.38,-0.31l0.21 -1.04c0.41,0.04 1.17,0.24 1.37,0.32l-0.2 1.03z"/>
      <path class="fil1" d="M85.77 47.2c-0.2,-0.07 -0.6,-0.2 -1.01,-0.23l-0.14 0.68c0.41,0.04 0.82,0.16 1.02,0.23l0.13 -0.68z"/>
     </g>
     <path class="fil1" d="M82.89 48c0.12,0 0.15,-0.09 0.2,-0.22 0.04,-0.13 0.08,-1.09 0.07,-1.21 -0.01,-0.12 0,-0.29 -0.13,-0.3l-0.22 -0.02c0.13,0.01 0.18,0.2 0.19,0.32 0.01,0.12 -0.03,1.08 -0.07,1.21 -0.05,0.13 -0.14,0.2 -0.26,0.21l0.22 0.01z"/>
     <g>
      <path class="fil1" d="M78.07 44.25c-0.34,0 -0.62,-0.26 -0.62,-0.58 0,-0.32 0.28,-0.58 0.62,-0.58 0.34,0 0.62,0.26 0.62,0.58 0,0.32 -0.28,0.58 -0.62,0.58z"/>
      <path class="fil1" d="M78.51 43.67c0,-0.23 -0.2,-0.42 -0.44,-0.42 -0.24,0 -0.44,0.19 -0.44,0.42 0,0.23 0.2,0.41 0.44,0.41 0.24,0 0.44,-0.18 0.44,-0.41z"/>
     </g>
     <g>
      <path class="fil1" d="M73.66 45.35c-0.34,0 -0.62,-0.26 -0.62,-0.58 0,-0.32 0.28,-0.59 0.62,-0.59 0.35,0 0.63,0.27 0.63,0.59 0,0.32 -0.28,0.58 -0.63,0.58z"/>
      <path class="fil1" d="M74.1 44.77c0,-0.23 -0.2,-0.41 -0.44,-0.41 -0.24,0 -0.43,0.18 -0.43,0.41 0,0.23 0.19,0.41 0.43,0.41 0.24,0 0.44,-0.18 0.44,-0.41z"/>
     </g>
     <g>
      <path class="fil1" d="M72.14 46.32c-0.23,0.17 -0.57,0.11 -0.77,-0.14 -0.2,-0.24 -0.18,-0.58 0.04,-0.75 0.23,-0.17 0.57,-0.11 0.77,0.14 0.2,0.25 0.19,0.58 -0.04,0.75z"/>
      <path class="fil1" d="M72.06 45.66c-0.14,-0.18 -0.39,-0.22 -0.54,-0.1 -0.16,0.12 -0.18,0.36 -0.03,0.53 0.14,0.18 0.38,0.22 0.54,0.1 0.16,-0.12 0.18,-0.36 0.03,-0.53z"/>
     </g>
     <g>
      <path class="fil1" d="M74.88 48.42c-0.27,0.09 -0.58,-0.07 -0.69,-0.36 -0.11,-0.3 0.03,-0.61 0.29,-0.71 0.27,-0.09 0.58,0.07 0.69,0.36 0.11,0.3 -0.02,0.61 -0.29,0.71z"/>
      <path class="fil1" d="M75.03 47.76c-0.08,-0.2 -0.3,-0.32 -0.49,-0.25 -0.19,0.07 -0.28,0.29 -0.2,0.5 0.07,0.21 0.29,0.32 0.48,0.25 0.19,-0.07 0.29,-0.29 0.21,-0.5z"/>
     </g>
     <g>
      <path class="fil1" d="M75.58 44.58c-0.34,0 -0.62,-0.26 -0.62,-0.59 0,-0.32 0.28,-0.58 0.62,-0.58 0.35,0 0.62,0.26 0.62,0.58 0,0.33 -0.27,0.59 -0.62,0.59z"/>
      <path class="fil1" d="M76.02 43.99c0,-0.22 -0.19,-0.41 -0.44,-0.41 -0.24,0 -0.44,0.19 -0.44,0.41 0,0.23 0.2,0.42 0.44,0.42 0.25,0 0.44,-0.19 0.44,-0.42z"/>
     </g>
     <path class="fil1" d="M80.36 44.13c0.15,0.5 -0.05,1.07 -0.65,1.21 -0.59,0.13 -1.14,-0.57 -1.29,-1.2 0,0 -0.13,0.13 -0.42,0.12 -0.03,0.48 -0.11,1.11 -0.65,1.28 -0.33,0.11 -0.8,-0.23 -0.93,-0.75 0.38,-0.1 0.6,-0.52 0.48,-0.93 -0.11,-0.38 -0.47,-0.63 -0.82,-0.59 -0.19,-0.37 -0.61,-0.56 -0.96,-0.43 -0.35,0.13 -0.51,0.52 -0.4,0.89 -0.26,0.21 -0.31,0.61 -0.11,0.94 0.22,0.38 0.68,0.53 1.03,0.35 0.05,0.17 0.18,0.73 -0.23,0.92 -0.3,0.14 -0.9,-0.07 -1.32,-0.76 0,0 -0.13,0.14 -0.36,0.17 0.2,0.56 0.22,0.98 -0.14,1.19 -0.35,0.22 -0.82,-0.26 -0.88,-0.36 0,0 0.09,-0.02 0.16,-0.08 0.07,-0.08 0.18,-0.51 -0.19,-1.03 -0.38,-0.52 -0.74,-0.39 -0.83,-0.33 -0.1,0.06 -0.09,0.12 -0.09,0.12 -0.08,-0.17 -0.15,-0.24 -0.27,-0.33 -0.12,-0.09 -0.49,-0.18 -0.65,-0.08 -0.11,0.07 -0.14,0.19 -0.02,0.39 0.14,0.22 0.52,0.64 0.52,0.64l0.09 -0.07c0,0 -0.19,-0.2 -0.32,-0.38 -0.12,-0.18 -0.27,-0.33 -0.16,-0.44 0.11,-0.11 0.36,0 0.5,0.12 0.15,0.12 0.31,0.29 0.38,0.49 -0.03,-0.13 0.02,-0.31 0.13,-0.36 0.1,-0.05 0.35,-0.04 0.61,0.33 0.25,0.37 0.14,0.71 0.02,0.79 -0.13,0.07 -0.28,0.08 -0.28,0.08 0.35,0.61 0.99,0.82 1.33,0.68 0.34,-0.14 0.48,-0.77 0.25,-1.4 0.28,0.62 1.05,1.02 1.56,0.83 0.56,-0.21 0.48,-0.86 0.27,-1.41 -0.03,0.04 -0.11,0.1 -0.17,0.13 -0.27,0.15 -0.63,0.02 -0.81,-0.27 -0.17,-0.29 -0.09,-0.64 0.18,-0.79 -0.01,-0.01 -0.01,-0.03 -0.02,-0.04 -0.13,-0.32 -0.01,-0.66 0.28,-0.77 0.3,-0.11 0.64,0.06 0.79,0.42 0.31,-0.07 0.69,0.15 0.78,0.48 0.1,0.32 -0.08,0.65 -0.38,0.73 -0.09,0.02 -0.24,0.05 -0.33,0.03 0.18,0.61 0.58,1.21 1.29,1.09 0.66,-0.11 0.79,-0.96 0.81,-1.51 0.2,0.79 0.85,1.44 1.6,1.28 0.63,-0.14 0.81,-0.69 0.81,-1.07 0,-0.29 -0.07,-0.42 -0.13,-0.54 -0.09,0.06 -0.21,0.1 -0.34,0.1 -0.31,0 -0.57,-0.23 -0.57,-0.53 0,-0.3 0.26,-0.53 0.57,-0.53 0.13,0 0.25,0.03 0.35,0.09 -0.07,-0.09 -0.09,-0.19 -0.09,-0.3 0,-0.3 0.25,-0.54 0.57,-0.54 0.31,0 0.56,0.24 0.56,0.54 0,0.11 -0.02,0.21 -0.08,0.3 0.09,-0.06 0.21,-0.09 0.34,-0.09 0.31,0 0.57,0.23 0.57,0.53 0,0.3 -0.26,0.53 -0.57,0.53 -0.13,0 -0.25,-0.04 -0.34,-0.1 -0.07,0.12 -0.13,0.25 -0.13,0.54 0,0.38 0.17,0.93 0.8,1.07 0.76,0.16 1.41,-0.49 1.6,-1.28 0.02,0.55 0.16,1.4 0.82,1.51 0.71,0.12 1.11,-0.48 1.29,-1.09 -0.09,0.02 -0.24,-0.01 -0.33,-0.03 -0.31,-0.08 -0.47,-0.41 -0.38,-0.73 0.09,-0.33 0.47,-0.55 0.78,-0.48 0.15,-0.36 0.49,-0.53 0.79,-0.42 0.29,0.11 0.42,0.45 0.28,0.77 0,0.01 -0.01,0.03 -0.02,0.04 0.27,0.15 0.35,0.5 0.18,0.79 -0.18,0.29 -0.54,0.42 -0.82,0.27 -0.05,-0.03 -0.13,-0.09 -0.16,-0.13 -0.21,0.55 -0.29,1.2 0.27,1.41 0.52,0.19 1.28,-0.21 1.55,-0.83 -0.22,0.63 -0.08,1.26 0.26,1.4 0.34,0.14 0.98,-0.07 1.33,-0.68 0,0 -0.15,-0.01 -0.28,-0.08 -0.13,-0.08 -0.23,-0.42 0.02,-0.79 0.26,-0.37 0.5,-0.38 0.61,-0.33 0.11,0.05 0.16,0.23 0.13,0.36 0.07,-0.2 0.23,-0.37 0.38,-0.49 0.14,-0.12 0.39,-0.23 0.5,-0.12 0.11,0.11 -0.04,0.26 -0.17,0.44 -0.12,0.18 -0.31,0.38 -0.31,0.38l0.09 0.07c0,0 0.38,-0.42 0.52,-0.64 0.12,-0.2 0.08,-0.32 -0.02,-0.39 -0.16,-0.1 -0.53,-0.01 -0.65,0.08 -0.12,0.09 -0.19,0.16 -0.27,0.33 0,0 0,-0.06 -0.09,-0.12 -0.09,-0.06 -0.45,-0.19 -0.83,0.33 -0.38,0.52 -0.26,0.95 -0.19,1.03 0.07,0.06 0.15,0.08 0.15,0.08 -0.05,0.1 -0.52,0.58 -0.87,0.36 -0.36,-0.21 -0.34,-0.63 -0.14,-1.19 -0.23,-0.03 -0.36,-0.17 -0.36,-0.17 -0.42,0.69 -1.03,0.9 -1.32,0.76 -0.41,-0.19 -0.28,-0.75 -0.23,-0.92 0.34,0.18 0.81,0.03 1.03,-0.35 0.2,-0.33 0.15,-0.73 -0.11,-0.94 0.11,-0.37 -0.06,-0.76 -0.4,-0.89 -0.35,-0.13 -0.77,0.06 -0.96,0.43 -0.35,-0.04 -0.71,0.21 -0.82,0.59 -0.12,0.41 0.09,0.83 0.48,0.93 -0.13,0.52 -0.61,0.86 -0.93,0.75 -0.54,-0.17 -0.62,-0.8 -0.65,-1.28 -0.29,0.01 -0.42,-0.12 -0.42,-0.12 -0.16,0.63 -0.7,1.33 -1.29,1.2 -0.6,-0.14 -0.82,-0.72 -0.67,-1.21 0.09,0.02 0.21,0.05 0.3,0.05 0.41,0 0.75,-0.31 0.75,-0.7 0,-0.39 -0.34,-0.71 -0.75,-0.71 -0.03,0 -0.05,-0.01 -0.08,-0.01 0,-0.01 0,0.01 0,0 0,-0.39 -0.33,-0.73 -0.74,-0.73 -0.42,0 -0.75,0.34 -0.75,0.73 0,0.01 0,-0.01 0,0 -0.03,0 -0.05,0.01 -0.08,0.01 -0.41,0 -0.75,0.32 -0.75,0.71 0,0.39 0.34,0.7 0.75,0.7 0.09,0 0.2,-0.02 0.28,-0.05z"/>
     <path class="fil1" d="M73.04 48.23c-0.07,-0.05 -0.14,-0.13 -0.14,-0.19 0,-1.67 5,-2.24 8.01,-2.24 3,0 8,0.57 8,2.24 0,0.06 -0.07,0.14 -0.15,0.19 0,0 0.01,0.16 0.01,0.19 0.17,-0.09 0.32,-0.3 0.32,-0.46 0,-1.67 -5.18,-2.3 -8.18,-2.3 -3.01,0 -8.19,0.63 -8.19,2.3 0,0.16 0.15,0.37 0.31,0.46l0.01 -0.19z"/>
     <path class="fil1" d="M80.91 46.19c-2.89,0.05 -7.71,0.62 -7.71,2.22 0,0.09 0.08,0.2 0.12,0.27 0.08,0.13 0.23,0.53 0.28,0.88 -0.05,0.07 -0.12,0.28 -0.15,0.46 0,-0.07 -0.05,-0.77 -0.17,-1.04 -0.08,-0.19 -0.24,-0.34 -0.24,-0.63 0,-1.61 4.87,-2.36 7.87,-2.3 2.99,0.06 7.86,0.69 7.86,2.3 0,0.29 -0.16,0.44 -0.24,0.63 -0.11,0.27 -0.17,0.97 -0.17,1.04 -0.03,-0.18 -0.1,-0.39 -0.15,-0.46 0.05,-0.35 0.2,-0.75 0.28,-0.88 0.04,-0.07 0.12,-0.18 0.12,-0.27 0,-1.6 -4.82,-2.27 -7.7,-2.22z"/>
     <path class="fil1" d="M81.01 51.92c2.41,0 7.21,-0.04 7.21,-1.79 0,-1.8 -4.52,-2.04 -7.31,-2.04 -2.8,0 -7.32,0.24 -7.32,2.04 0,1.75 5.31,1.79 7.72,1.79l-0.1 0.27c-2.6,0 -7.77,-0.12 -7.77,-2.06 0,-1.8 4.28,-2.18 7.47,-2.18 3.18,0 7.46,0.38 7.46,2.18 0,1.94 -4.65,2.06 -7.26,2.06l-0.1 -0.27z"/>
     <path class="fil1" d="M80.92 51.65c3.13,0 6.79,-0.19 6.79,-1.46 0,-1.11 -2.55,-1.66 -6.8,-1.66 -4.26,0 -6.81,0.55 -6.81,1.66 0,1.27 4.17,1.46 7.31,1.46l-0.05 0.14c-3.53,0 -7.48,-0.33 -7.48,-1.6 0,-1.29 2.57,-1.87 7.03,-1.87 4.45,0 7.02,0.58 7.02,1.87 0,1.27 -3.44,1.6 -6.97,1.6l-0.04 -0.14z"/>
     <polygon class="fil1" points="77.75,46.41 78.06,48.06 77.89,48.07 77.55,46.45 "/>
     <polygon class="fil1" points="75.39,46.86 75.75,48.42 75.58,48.46 75.21,46.92 "/>
     <g>
      <path class="fil1" d="M80.91 47.76c-0.18,0 -0.98,0.01 -1.14,-0.07 -0.16,-0.09 -0.15,-0.37 -0.15,-0.55 0,-0.17 0.01,-0.38 0.13,-0.53 0.13,-0.15 0.82,-0.17 1.16,-0.17 0.33,0 1.02,0.02 1.15,0.17 0.13,0.15 0.13,0.36 0.13,0.53 0,0.18 0.01,0.46 -0.15,0.55 -0.17,0.08 -0.96,0.07 -1.13,0.07z"/>
      <path class="fil1" d="M80.91 47.58c0.14,0 0.86,0.01 0.99,-0.06 0.14,-0.07 0.13,-0.25 0.13,-0.38 0,-0.14 -0.01,-0.27 -0.11,-0.39 -0.11,-0.13 -0.74,-0.12 -1.01,-0.12 -0.28,0 -0.91,-0.01 -1.02,0.12 -0.1,0.12 -0.11,0.25 -0.11,0.39 0,0.13 -0.01,0.31 0.13,0.38 0.13,0.07 0.86,0.06 1,0.06z"/>
     </g>
     <g>
      <path class="fil1" d="M75.82 47.09c0.2,-0.08 0.96,-0.28 1.37,-0.32l0.21 1.04c-0.41,0.03 -1.18,0.24 -1.38,0.31l-0.2 -1.03z"/>
      <path class="fil1" d="M76.17 47.88c0.2,-0.07 0.61,-0.19 1.02,-0.23l-0.14 -0.68c-0.41,0.03 -0.81,0.16 -1.01,0.23l0.13 0.68z"/>
     </g>
     <path class="fil1" d="M78.92 48c-0.12,0 -0.15,-0.09 -0.2,-0.22 -0.05,-0.13 -0.08,-1.09 -0.07,-1.21 0.01,-0.12 0,-0.26 0.13,-0.27l0.21 -0.02c-0.12,0.01 -0.17,0.17 -0.18,0.29 -0.01,0.12 0.03,1.08 0.07,1.21 0.05,0.13 0.14,0.2 0.26,0.21l-0.22 0.01z"/>
     <g>
      <path class="fil1" d="M88.61 48.41c-0.01,0.18 -0.32,0.6 -0.41,0.73 -0.09,0.13 -0.27,0.1 -0.31,0.07 -0.03,-0.04 -0.18,-0.14 -0.3,-0.22 -0.12,-0.08 -0.07,-0.35 0.17,-0.74 0.24,-0.39 0.51,-0.51 0.66,-0.34 0.11,0.14 0.19,0.31 0.19,0.5z"/>
      <path class="fil1" d="M88.38 48.06c-0.11,-0.14 -0.34,-0.04 -0.53,0.27 -0.19,0.31 -0.23,0.54 -0.14,0.6 0.1,0.07 0.17,0.1 0.2,0.13 0.03,0.03 0.17,0.05 0.25,-0.06 0.07,-0.1 0.32,-0.46 0.33,-0.61 0.01,-0.15 -0.01,-0.22 -0.11,-0.33z"/>
     </g>
     <g>
      <path class="fil1" d="M73.4 47.91c0.14,-0.17 0.41,-0.05 0.65,0.34 0.24,0.39 0.29,0.66 0.17,0.74 -0.12,0.08 -0.27,0.18 -0.3,0.22 -0.04,0.03 -0.22,0.06 -0.31,-0.07 -0.09,-0.13 -0.4,-0.55 -0.41,-0.73 0,-0.19 0.08,-0.36 0.2,-0.5z"/>
      <path class="fil1" d="M73.32 48.39c0.01,0.15 0.26,0.51 0.33,0.61 0.07,0.11 0.22,0.09 0.25,0.06 0.02,-0.03 0.1,-0.06 0.2,-0.13 0.09,-0.06 0.05,-0.29 -0.14,-0.6 -0.19,-0.31 -0.42,-0.41 -0.53,-0.27 -0.1,0.11 -0.12,0.18 -0.11,0.33z"/>
     </g>
    </g>
   </g>
   <g>
    <path class="fil1" d="M77.88 79.22l0.23 0c-0.03,0.08 -0.06,0.21 -0.12,0.38 -0.06,0.19 -0.1,0.38 -0.13,0.59 -0.17,0.05 -0.31,0.07 -0.41,0.07 -0.08,0 -0.22,-0.02 -0.43,-0.05 -0.35,-0.06 -0.68,-0.08 -1.01,-0.08 -0.35,0 -0.61,0.04 -0.77,0.12l0 -0.15c0.25,-0.21 0.53,-0.51 0.83,-0.9 0.31,-0.4 0.57,-0.82 0.78,-1.24 0.21,-0.43 0.31,-0.78 0.3,-1.07 -0.01,-0.23 -0.07,-0.4 -0.19,-0.52 -0.11,-0.12 -0.25,-0.19 -0.4,-0.2 -0.17,-0.01 -0.35,0.05 -0.54,0.17 -0.19,0.13 -0.34,0.34 -0.46,0.62 -0.06,-0.13 -0.12,-0.24 -0.2,-0.34 0.21,-0.21 0.42,-0.37 0.64,-0.49 0.22,-0.12 0.47,-0.18 0.75,-0.18 0.28,0 0.51,0.08 0.68,0.24 0.17,0.16 0.25,0.37 0.24,0.63 -0.01,0.25 -0.08,0.51 -0.23,0.79 -0.14,0.28 -0.37,0.64 -0.7,1.08 -0.25,0.32 -0.41,0.53 -0.49,0.63 -0.12,0.16 -0.23,0.29 -0.32,0.37 -0.01,0.01 -0.02,0.02 -0.02,0.03 -0.01,0.01 -0.03,0.02 -0.04,0.04l0.01 0.02c0.11,-0.06 0.3,-0.09 0.56,-0.09 0.05,0 0.14,0 0.27,0.01 0.21,0.02 0.36,0.03 0.44,0.04 0.13,0.03 0.25,0.04 0.35,0.02 0.2,-0.04 0.33,-0.22 0.38,-0.54z"/>
    <path class="fil1" d="M78.34 78.24c-0.01,-0.8 0.12,-1.37 0.41,-1.7 0.29,-0.34 0.6,-0.52 0.93,-0.54 0.17,-0.02 0.35,0 0.52,0.06 0.18,0.07 0.35,0.18 0.51,0.34 0.15,0.15 0.28,0.37 0.38,0.63 0.1,0.27 0.15,0.59 0.15,0.95 0,0.35 -0.05,0.71 -0.15,1.06 -0.09,0.35 -0.25,0.65 -0.45,0.89 -0.21,0.24 -0.47,0.36 -0.78,0.37 -0.28,0.02 -0.54,-0.06 -0.77,-0.24 -0.22,-0.18 -0.41,-0.43 -0.54,-0.76 -0.14,-0.32 -0.21,-0.67 -0.21,-1.06zm0.43 -0.12l0 0c0.02,0.7 0.15,1.21 0.38,1.53 0.22,0.33 0.46,0.5 0.72,0.51 0.13,0 0.27,-0.05 0.4,-0.16 0.14,-0.11 0.26,-0.32 0.35,-0.64 0.1,-0.31 0.14,-0.75 0.13,-1.31 -0.01,-0.43 -0.07,-0.79 -0.17,-1.07 -0.09,-0.29 -0.22,-0.51 -0.38,-0.65 -0.17,-0.14 -0.34,-0.2 -0.53,-0.19 -0.28,0.02 -0.5,0.19 -0.67,0.52 -0.17,0.34 -0.24,0.82 -0.23,1.46z"/>
    <path class="fil1" d="M81.62 78.24c-0.01,-0.8 0.12,-1.37 0.41,-1.7 0.29,-0.34 0.59,-0.52 0.93,-0.54 0.17,-0.02 0.34,0 0.52,0.06 0.18,0.07 0.35,0.18 0.51,0.34 0.15,0.15 0.28,0.37 0.38,0.63 0.1,0.27 0.15,0.59 0.15,0.95 0,0.35 -0.05,0.71 -0.15,1.06 -0.09,0.35 -0.25,0.65 -0.46,0.89 -0.2,0.24 -0.46,0.36 -0.77,0.37 -0.28,0.02 -0.54,-0.06 -0.77,-0.24 -0.23,-0.18 -0.41,-0.43 -0.54,-0.76 -0.14,-0.32 -0.21,-0.67 -0.21,-1.06zm0.43 -0.12l0 0c0.03,0.7 0.15,1.21 0.37,1.53 0.23,0.33 0.47,0.5 0.73,0.51 0.13,0 0.26,-0.05 0.4,-0.16 0.14,-0.11 0.26,-0.32 0.35,-0.64 0.1,-0.31 0.14,-0.75 0.13,-1.31 -0.01,-0.43 -0.07,-0.79 -0.17,-1.07 -0.09,-0.29 -0.22,-0.51 -0.39,-0.65 -0.16,-0.14 -0.33,-0.2 -0.52,-0.19 -0.28,0.02 -0.5,0.19 -0.67,0.52 -0.17,0.34 -0.24,0.82 -0.23,1.46z"/>
    <path class="fil1" d="M84.92 76.92l0 -0.23c0.48,-0.19 0.96,-0.47 1.42,-0.82l0.02 0c-0.03,0.26 -0.06,0.53 -0.07,0.82 -0.02,0.29 -0.02,0.72 -0.02,1.28 -0.01,0.37 -0.01,0.69 0,0.97 0,0.27 0.01,0.48 0.03,0.61 0.01,0.14 0.05,0.24 0.11,0.31 0.06,0.08 0.14,0.12 0.25,0.14 0.04,0.01 0.1,0.01 0.18,0.01l0.07 0 0 0.18c-0.02,0 -0.04,0 -0.08,0l-0.14 0c-0.13,-0.01 -0.23,-0.02 -0.29,-0.03 -0.14,-0.01 -0.24,-0.01 -0.32,-0.01 -0.08,0 -0.2,0 -0.36,0.01 -0.07,0.01 -0.18,0.01 -0.31,0.02 -0.07,0.01 -0.12,0.01 -0.15,0.01l-0.11 0 0 -0.18c0.22,0.02 0.37,-0.01 0.47,-0.06 0.1,-0.06 0.16,-0.16 0.18,-0.29 0.02,-0.12 0.03,-0.36 0.04,-0.7 0,-0.45 0,-0.8 0,-1.03 0,-0.51 -0.01,-0.82 -0.01,-0.92 -0.01,-0.2 -0.03,-0.32 -0.05,-0.36 -0.02,-0.05 -0.08,-0.06 -0.16,-0.05 -0.08,0 -0.19,0.04 -0.34,0.11 -0.14,0.07 -0.27,0.14 -0.36,0.21z"/>
   </g>
  </g>
 </g>
</svg>
