<?xml version="1.0" encoding="UTF-8"?>
<!DOCTYPE svg PUBLIC "-//W3C//DTD SVG 1.1//EN" "http://www.w3.org/Graphics/SVG/1.1/DTD/svg11.dtd">
<!-- Creator: CorelDRAW 2020 (64-Bit) -->
<svg xmlns="http://www.w3.org/2000/svg" xml:space="preserve" width="160px" height="160px" version="1.1" style="shape-rendering:geometricPrecision; text-rendering:geometricPrecision; image-rendering:optimizeQuality; fill-rule:evenodd; clip-rule:evenodd"
viewBox="0 0 160 160"
 xmlns:xlink="http://www.w3.org/1999/xlink"
 xmlns:xodm="http://www.corel.com/coreldraw/odm/2003">
 <defs>
  <style type="text/css">
   <![CDATA[
    .fil0 {fill:none}
    .fil1 {fill:#EF7F1A}
   ]]>
  </style>
 </defs>
 <g id="Слой_x0020_1">
  <metadata id="CorelCorpID_0Corel-Layer"/>
  <rect class="fil0" width="160" height="160"/>
  <path class="fil1" d="M139.37 64.13l0 1.4 0.17 0c0.35,0 0.64,-0.04 0.85,-0.14 0.22,-0.1 0.32,-0.28 0.32,-0.56 0,-0.29 -0.1,-0.48 -0.3,-0.56 -0.21,-0.09 -0.5,-0.14 -0.88,-0.14l-0.16 0zm15.63 21.74l-12.43 0 0 6.83 12.43 0 0 -6.83zm-19.09 3.92l0 1.71 1.84 0c0.73,0 1.09,-0.28 1.09,-0.85 0,-0.3 -0.11,-0.51 -0.34,-0.65 -0.22,-0.14 -0.64,-0.21 -1.25,-0.21l-1.34 0zm-1.81 2.83l0 -6.7 1.81 0 0 2.78 1.98 0c1.19,0 1.95,0.21 2.3,0.64 0.34,0.42 0.51,0.86 0.51,1.33 0,1.3 -0.86,1.95 -2.58,1.95l-4.02 0zm-7.42 -5.3l0 -1.4 6.18 0 0 1.4 -2.18 0 0 5.3 -1.81 0 0 -5.3 -2.19 0zm-1.05 0.58l-1.78 0.32c-0.13,-0.71 -0.54,-1.06 -1.23,-1.06 -0.44,0 -0.8,0.15 -1.07,0.45 -0.27,0.31 -0.41,0.82 -0.41,1.54 0,0.8 0.14,1.36 0.41,1.69 0.27,0.32 0.63,0.49 1.09,0.49 0.34,0 0.62,-0.09 0.84,-0.28 0.22,-0.19 0.37,-0.52 0.47,-1l1.78 0.3c-0.37,1.62 -1.42,2.42 -3.16,2.42 -1.11,0 -1.94,-0.34 -2.48,-1.02 -0.53,-0.68 -0.81,-1.5 -0.81,-2.46 0,-1.15 0.31,-2.03 0.92,-2.63 0.61,-0.6 1.4,-0.9 2.39,-0.9 0.8,0 1.45,0.17 1.96,0.52 0.5,0.34 0.86,0.88 1.08,1.62zm-12.58 1.37c0,0.68 0.17,1.19 0.49,1.54 0.33,0.34 0.73,0.52 1.2,0.52 0.45,0 0.84,-0.18 1.16,-0.53 0.33,-0.35 0.49,-0.86 0.49,-1.54 0,-0.67 -0.17,-1.18 -0.49,-1.53 -0.33,-0.34 -0.73,-0.52 -1.19,-0.52 -0.45,0 -0.84,0.18 -1.17,0.52 -0.32,0.35 -0.49,0.87 -0.49,1.54zm-1.85 -0.1c0,-0.65 0.17,-1.25 0.49,-1.79 0.32,-0.54 0.75,-0.94 1.27,-1.21 0.52,-0.27 1.11,-0.41 1.76,-0.41 1.1,0 1.96,0.35 2.59,1.04 0.62,0.7 0.94,1.51 0.94,2.43 0,0.69 -0.17,1.32 -0.49,1.87 -0.33,0.56 -0.76,0.98 -1.29,1.25 -0.53,0.28 -1.11,0.42 -1.74,0.42 -1.01,0 -1.86,-0.31 -2.52,-0.93 -0.67,-0.62 -1.01,-1.51 -1.01,-2.67zm-9.17 3.45l0 -6.7 2.25 0 1.68 4.67 1.72 -4.67 2.23 0 0 6.7 -1.56 0 0 -4.4 -1.65 4.4 -1.54 0 -1.57 -4.4 0 4.4 -1.56 0zm-8.66 0l0 -6.7 1.72 0 0 4.21 2.78 -4.21 1.78 0 0 6.7 -1.73 0 0 -4.29 -2.83 4.29 -1.72 0zm-5.15 0l-1.81 0 0 -2.86c-0.38,-0.02 -0.71,0.29 -0.98,0.93l-0.85 1.93 -1.94 0 0.96 -1.85c0.49,-0.93 1,-1.46 1.52,-1.59 -0.28,-0.12 -0.47,-0.28 -0.6,-0.47 -0.12,-0.2 -0.24,-0.49 -0.37,-0.87 -0.13,-0.39 -0.27,-0.61 -0.42,-0.67 -0.15,-0.07 -0.44,-0.1 -0.85,-0.1l0 -1.15c0.3,-0.03 0.54,-0.05 0.71,-0.05 0.56,0 0.96,0.13 1.19,0.37 0.24,0.25 0.45,0.64 0.65,1.18 0.2,0.53 0.35,0.87 0.45,1.01 0.11,0.14 0.28,0.21 0.53,0.22l0 -2.73 1.81 0 0 2.73c0.18,0 0.34,-0.06 0.48,-0.18 0.14,-0.12 0.31,-0.49 0.51,-1.1 0.19,-0.6 0.44,-1 0.75,-1.2 0.3,-0.2 0.66,-0.3 1.07,-0.3 0.18,0 0.42,0.02 0.72,0.05l0 1.15 -0.19 0c-0.29,0 -0.51,0.03 -0.66,0.1 -0.15,0.07 -0.3,0.29 -0.42,0.68 -0.13,0.38 -0.26,0.66 -0.38,0.86 -0.12,0.19 -0.32,0.35 -0.6,0.47 0.52,0.13 1.02,0.66 1.51,1.59l0.98 1.85 -1.94 0 -0.86 -1.93c-0.28,-0.64 -0.61,-0.95 -0.97,-0.93l0 2.86zm-13.24 0l0 -6.7 1.73 0 0 4.21 2.77 -4.21 1.79 0 0 6.7 -1.74 0 0 -4.29 -2.82 4.29 -1.73 0zm-6.7 -2.84l0 1.72 1.58 0c0.9,0 1.35,-0.28 1.35,-0.85 0,-0.29 -0.12,-0.5 -0.34,-0.65 -0.23,-0.15 -0.72,-0.22 -1.49,-0.22l-1.1 0zm0 -2.73l0 1.64 1.33 0c0.97,0 1.45,-0.29 1.45,-0.86 0,-0.52 -0.48,-0.78 -1.45,-0.78l-1.33 0zm2.63 5.57l-4.44 0 0 -6.7 4.08 0c1.52,0 2.27,0.58 2.27,1.75 0,0.78 -0.37,1.29 -1.14,1.52 0.93,0.26 1.39,0.82 1.39,1.67 0,0.53 -0.2,0.95 -0.59,1.28 -0.4,0.32 -0.92,0.48 -1.57,0.48zm-11.78 -1.47l3.07 0 0 -3.75 -2.17 0c-0.06,1.77 -0.36,3.02 -0.9,3.75zm4.88 0l0.72 0 0 1.53c-2.68,0 -5.4,0 -8.09,0l0 -1.53 0.73 0c0.71,-0.8 1.08,-2.54 1.12,-5.23l5.52 0 0 5.23zm-10.15 -2.45c-0.01,-0.53 -0.15,-0.92 -0.41,-1.18 -0.27,-0.27 -0.58,-0.4 -0.94,-0.4 -0.38,0 -0.7,0.14 -0.96,0.41 -0.27,0.28 -0.4,0.67 -0.39,1.17l2.7 0zm-0.1 1.79l1.79 0.29c-0.24,0.68 -0.61,1.18 -1.12,1.5 -0.5,0.33 -1.12,0.49 -1.84,0.49 -1.01,0 -1.79,-0.27 -2.34,-0.81 -0.65,-0.63 -0.97,-1.52 -0.97,-2.65 0,-1.12 0.32,-2.02 0.98,-2.69 0.55,-0.57 1.27,-0.86 2.14,-0.86 0.98,0 1.75,0.29 2.3,0.88 0.64,0.66 0.95,1.64 0.95,2.94l0 0.2 -4.52 0c0.01,0.53 0.16,0.94 0.44,1.23 0.29,0.29 0.63,0.44 1.03,0.44 0.58,0 0.97,-0.32 1.16,-0.96zm-12.47 2.13l0 -6.7 1.81 0 0 2.45 2.59 0 0 -2.45 1.81 0 0 6.7 -1.81 0 0 -2.81 -2.59 0 0 2.81 -1.81 0zm-22.86 -17.01c3.01,3.21 6.21,-0.07 4.31,-4.64 -5,-6.63 -11.65,1.19 -12.01,6.93 -0.36,5.74 0.45,7.81 2.73,11.14 2.86,4.19 7.12,7.68 11.69,8.31 -7.69,-0.58 -12.49,-2.88 -16.34,-9.64 -1.76,-3.1 -2.86,-7.11 -2.45,-10.98 0.59,-5.67 3.52,-11.76 8.79,-13.61 7.52,-2.62 14.92,7.01 12.15,17.18 -2.53,8.08 -10.28,1.97 -8.87,-4.69zm-0.34 -0.49c-0.62,-0.56 -1.27,-1.7 -1.68,-2.68 -8.31,8.37 4.25,22.04 14.88,20.79 -7.12,-1.08 -19.34,-11.69 -13.2,-18.11zm0.98 0.4c2.46,2.41 4.07,-0.25 3.54,-3.94 -0.45,2.57 -1.36,4.4 -3.54,3.94zm22.32 7.54l0 -20.19 3.74 0 0 13.98c2.55,-3.34 5.28,-7.04 7.21,-10.68 0.52,-1 1.41,-2.23 2.05,-3.3l2.18 0 0 20.19 -3.76 0 0 -13.95c-2.47,3.29 -5.65,7.18 -7.52,10.68 -0.54,1.03 -1.48,2.54 -2.1,3.27 -0.6,0 -1.21,0 -1.8,0zm31.17 -18.05l0 18.05 -3.77 0 0 -18.05c-1.33,0 -2.98,0.17 -4.61,0.58 0,-0.92 0,-1.81 0,-2.72l12.77 0c0,0.94 0,1.79 0,2.72 -1.97,-0.41 -3.46,-0.58 -4.39,-0.58zm12.92 11.98c-0.36,0.96 -1.8,5.21 -1.8,6.07l-2.25 0 6.82 -20.19 2.39 0 6.83 20.19c-1.5,0 -2.98,0 -4.47,0 -0.62,-2.69 -1.41,-4.82 -1.8,-6.07l-5.72 0zm0.69 -1.73l4.55 0 -2.25 -7.11 -2.3 7.11zm18.82 7.8l0 -20.19 3.73 0 0 9.21c2.14,-2.97 4.38,-6.07 6.51,-9.21l2.67 0 0 0.35c-2.23,2.59 -4.58,5.37 -6.61,8.14l7.05 11.55 0 0.15c-1.44,0 -2.86,0 -4.29,0l-5.33 -9.18 0 9.18c-1.26,0 -2.5,0 -3.73,0zm23.82 -6.07c-0.42,1.11 -1.81,5.02 -1.81,6.07l-2.26 0 6.75 -20.19 2.47 0 6.75 20.19c-1.47,0 -2.93,0 -4.39,0 -0.63,-2.69 -1.48,-4.82 -1.8,-6.07l-5.71 0zm0.61 -1.73l4.62 0 -2.33 -7.11 -2.29 7.11zm-90.73 10.61l-18.49 0c0.33,0.36 0.67,0.72 1.04,1.06 2.99,2.87 6.64,5.08 9.61,5.53l1.55 0.24 6.29 0 0 -6.83zm-7.79 2.77c0,-0.11 -0.02,-0.21 -0.07,-0.29 -0.04,-0.09 -0.11,-0.16 -0.2,-0.2 -0.09,-0.05 -0.2,-0.07 -0.32,-0.07 -0.18,0 -0.32,0.05 -0.41,0.15 -0.11,0.09 -0.16,0.23 -0.16,0.4 0,0.17 0.06,0.3 0.16,0.39 0.11,0.1 0.25,0.15 0.42,0.15 0.18,0 0.32,-0.05 0.43,-0.14 0.1,-0.09 0.15,-0.22 0.15,-0.39zm0.06 0.8c-0.15,0.1 -0.29,0.17 -0.41,0.21 -0.12,0.05 -0.26,0.07 -0.41,0.07 -0.24,0 -0.45,-0.05 -0.64,-0.13 -0.19,-0.09 -0.33,-0.21 -0.43,-0.37 -0.1,-0.16 -0.15,-0.34 -0.15,-0.55 0,-0.22 0.06,-0.42 0.17,-0.59 0.12,-0.17 0.28,-0.31 0.48,-0.4 0.21,-0.1 0.45,-0.14 0.72,-0.14 0.27,0 0.5,0.04 0.69,0.13 0.19,0.08 0.33,0.2 0.44,0.34 0.11,0.14 0.19,0.3 0.23,0.48 0.05,0.18 0.07,0.38 0.07,0.59 0,0.6 -0.12,1.05 -0.37,1.34 -0.24,0.29 -0.62,0.44 -1.12,0.44 -0.35,0 -0.63,-0.07 -0.82,-0.21 -0.2,-0.14 -0.32,-0.35 -0.38,-0.64l0.77 0c0.03,0.07 0.07,0.13 0.11,0.17 0.04,0.05 0.09,0.08 0.14,0.1 0.06,0.02 0.12,0.03 0.2,0.03 0.18,0 0.32,-0.04 0.42,-0.14 0.09,-0.09 0.16,-0.19 0.2,-0.32 0.04,-0.12 0.07,-0.26 0.09,-0.41zm2.97 -0.8c0,-0.11 -0.02,-0.21 -0.07,-0.29 -0.04,-0.09 -0.11,-0.16 -0.21,-0.2 -0.09,-0.05 -0.19,-0.07 -0.32,-0.07 -0.17,0 -0.31,0.05 -0.41,0.15 -0.1,0.09 -0.15,0.23 -0.15,0.4 0,0.17 0.05,0.3 0.16,0.39 0.1,0.1 0.24,0.15 0.41,0.15 0.18,0 0.33,-0.05 0.43,-0.14 0.11,-0.09 0.16,-0.22 0.16,-0.39zm0.05 0.8c-0.15,0.1 -0.28,0.17 -0.41,0.21 -0.12,0.05 -0.25,0.07 -0.4,0.07 -0.24,0 -0.46,-0.05 -0.64,-0.13 -0.19,-0.09 -0.33,-0.21 -0.43,-0.37 -0.1,-0.16 -0.15,-0.34 -0.15,-0.55 0,-0.22 0.06,-0.42 0.17,-0.59 0.11,-0.17 0.27,-0.31 0.48,-0.4 0.21,-0.1 0.45,-0.14 0.71,-0.14 0.28,0 0.51,0.04 0.7,0.13 0.18,0.08 0.33,0.2 0.44,0.34 0.1,0.14 0.18,0.31 0.23,0.48 0.04,0.18 0.07,0.38 0.07,0.59 0,0.6 -0.12,1.05 -0.37,1.34 -0.24,0.29 -0.62,0.44 -1.12,0.44 -0.35,0 -0.63,-0.07 -0.83,-0.21 -0.19,-0.14 -0.32,-0.35 -0.37,-0.64l0.76 0c0.04,0.07 0.08,0.13 0.12,0.17 0.04,0.05 0.08,0.08 0.14,0.1 0.05,0.02 0.12,0.03 0.2,0.03 0.18,0 0.31,-0.04 0.41,-0.14 0.1,-0.09 0.17,-0.19 0.21,-0.32 0.03,-0.12 0.06,-0.26 0.08,-0.41zm0.86 0.34l0.77 0c0.03,0.19 0.09,0.32 0.18,0.41 0.1,0.08 0.24,0.12 0.43,0.12 0.11,0 0.21,-0.02 0.3,-0.06 0.08,-0.04 0.15,-0.09 0.19,-0.16 0.05,-0.07 0.07,-0.15 0.07,-0.25 0,-0.17 -0.06,-0.3 -0.19,-0.36 -0.12,-0.06 -0.35,-0.1 -0.7,-0.11l0 -0.46c0.2,0 0.36,-0.02 0.48,-0.05 0.12,-0.03 0.2,-0.07 0.26,-0.14 0.05,-0.06 0.07,-0.15 0.07,-0.26 0,-0.11 -0.04,-0.21 -0.13,-0.27 -0.09,-0.07 -0.22,-0.11 -0.37,-0.11 -0.18,0 -0.32,0.04 -0.4,0.12 -0.08,0.07 -0.14,0.2 -0.16,0.39l-0.74 0c0.01,-0.12 0.02,-0.23 0.04,-0.31 0.02,-0.08 0.05,-0.15 0.09,-0.21 0.03,-0.06 0.08,-0.13 0.15,-0.2 0.24,-0.22 0.59,-0.33 1.04,-0.33 0.26,0 0.48,0.03 0.67,0.1 0.19,0.08 0.34,0.18 0.44,0.31 0.1,0.14 0.15,0.3 0.15,0.47 0,0.1 -0.01,0.18 -0.04,0.26 -0.04,0.07 -0.09,0.14 -0.15,0.21 -0.07,0.07 -0.15,0.13 -0.26,0.18 0.21,0.09 0.35,0.19 0.44,0.31 0.09,0.11 0.14,0.26 0.14,0.44 0,0.2 -0.06,0.38 -0.17,0.54 -0.12,0.16 -0.28,0.28 -0.49,0.37 -0.21,0.08 -0.46,0.13 -0.73,0.13 -0.25,0 -0.48,-0.04 -0.68,-0.11 -0.21,-0.07 -0.37,-0.17 -0.48,-0.3 -0.06,-0.06 -0.1,-0.12 -0.13,-0.17 -0.03,-0.06 -0.05,-0.13 -0.06,-0.22 -0.01,-0.08 -0.02,-0.18 -0.03,-0.28zm-7.92 -1.63c0.17,-0.01 0.31,-0.01 0.42,-0.02 0.11,-0.01 0.21,-0.04 0.3,-0.07 0.09,-0.04 0.16,-0.09 0.23,-0.17 0.06,-0.08 0.11,-0.18 0.14,-0.3l0.63 0 0 3.21 -0.81 0 0 -2.2 -0.91 0 0 -0.45zm-11.38 -2.28l-3.23 0c0.41,0.88 0.95,1.75 1.62,2.74l0 0 0.01 0.01 0 0c0.38,0.56 0.8,1.11 1.24,1.65 0.44,0.55 0.91,1.06 1.38,1.54 0.3,0.31 0.61,0.6 0.92,0.89l6.35 0c-0.92,-0.41 -1.82,-0.89 -2.67,-1.43 -2.24,-1.43 -4.2,-3.31 -5.62,-5.4zm-8.35 0l-2.19 0c1.09,2.7 2.7,5.21 4.69,6.83l1.96 0c-1.22,-1.26 -2.33,-2.77 -3.37,-4.6l0 -0.01 -0.01 0 0 0c-0.25,-0.45 -0.5,-0.92 -0.73,-1.41 -0.12,-0.27 -0.24,-0.54 -0.35,-0.81zm135.41 -20.25c0,-0.73 -0.26,-1.35 -0.77,-1.87 -0.52,-0.51 -1.14,-0.77 -1.87,-0.77 -0.73,0 -1.35,0.26 -1.87,0.77 -0.51,0.52 -0.77,1.14 -0.77,1.87 0,0.73 0.26,1.35 0.77,1.86 0.52,0.52 1.14,0.78 1.87,0.78 0.73,0 1.35,-0.26 1.87,-0.78 0.51,-0.51 0.77,-1.13 0.77,-1.86zm0.33 0c0,0.82 -0.29,1.52 -0.87,2.1 -0.58,0.58 -1.28,0.87 -2.1,0.87 -0.82,0 -1.52,-0.29 -2.1,-0.87 -0.58,-0.58 -0.87,-1.28 -0.87,-2.1 0,-0.82 0.29,-1.52 0.87,-2.1 0.58,-0.58 1.28,-0.87 2.1,-0.87 0.82,0 1.52,0.29 2.1,0.87 0.58,0.58 0.87,1.28 0.87,2.1zm-3.56 0.3l0 1.71 -0.51 0 0 -3.9 0.67 0c0.33,0 0.62,0.03 0.87,0.09 0.25,0.06 0.45,0.17 0.6,0.33 0.16,0.16 0.23,0.38 0.23,0.65 0,0.15 -0.02,0.29 -0.08,0.41 -0.05,0.13 -0.13,0.24 -0.23,0.34 -0.1,0.09 -0.22,0.17 -0.37,0.22 -0.14,0.06 -0.3,0.1 -0.48,0.11l1.48 1.75 -0.64 0 -1.41 -1.71 -0.13 0z"/>
 </g>
</svg>
