<?xml version="1.0" encoding="UTF-8"?>
<!DOCTYPE svg PUBLIC "-//W3C//DTD SVG 1.1//EN" "http://www.w3.org/Graphics/SVG/1.1/DTD/svg11.dtd">
<!-- Creator: CorelDRAW 2020 (64-Bit) -->
<svg xmlns="http://www.w3.org/2000/svg" xml:space="preserve" width="160px" height="160px" version="1.1" style="shape-rendering:geometricPrecision; text-rendering:geometricPrecision; image-rendering:optimizeQuality; fill-rule:evenodd; clip-rule:evenodd"
viewBox="0 0 160 160"
 xmlns:xlink="http://www.w3.org/1999/xlink"
 xmlns:xodm="http://www.corel.com/coreldraw/odm/2003">
 <defs>
  <style type="text/css">
   <![CDATA[
    .fil0 {fill:none}
    .fil2 {fill:#2B2A29}
    .fil1 {fill:#2B2A29;fill-rule:nonzero}
   ]]>
  </style>
 </defs>
 <g id="Слой_x0020_1">
  <metadata id="CorelCorpID_0Corel-Layer"/>
  <rect class="fil0" width="160" height="160"/>
  <g id="_2324404555424">
   <path class="fil1" d="M112.4 139.63c0,-0.81 -0.08,-1.66 -0.25,-2.57 -0.16,-0.9 -0.4,-1.67 -0.73,-2.3 -0.34,-0.67 -0.79,-1.21 -1.37,-1.62 -0.56,-0.4 -1.24,-0.61 -2.06,-0.61 -0.83,0 -1.54,0.21 -2.13,0.62 -0.6,0.41 -1.07,0.97 -1.45,1.69 -0.34,0.66 -0.58,1.42 -0.72,2.26 -0.15,0.85 -0.21,1.66 -0.21,2.46 0,1.04 0.08,1.99 0.25,2.89 0.16,0.87 0.44,1.67 0.8,2.36 0.36,0.7 0.83,1.24 1.39,1.63 0.56,0.4 1.25,0.59 2.07,0.59 1.36,0 2.43,-0.66 3.22,-1.96 0.8,-1.32 1.19,-3.12 1.19,-5.44zm38.99 -41.76c0,0.33 -0.11,0.73 -0.3,1.2 -0.2,0.46 -0.5,0.87 -0.88,1.22 -0.46,0.4 -1.01,0.73 -1.65,0.97 -0.65,0.25 -1.53,0.38 -2.64,0.38 -1.03,0 -1.9,-0.13 -2.57,-0.38 -0.69,-0.26 -1.25,-0.58 -1.68,-0.97 -0.41,-0.38 -0.71,-0.79 -0.89,-1.23 -0.18,-0.44 -0.27,-0.84 -0.27,-1.19 0,-0.52 0.16,-0.95 0.46,-1.28 0.31,-0.33 0.68,-0.5 1.12,-0.5 0.4,0 0.78,0.13 1.13,0.37 0.34,0.23 0.51,0.62 0.51,1.16 0,0.32 -0.06,0.66 -0.19,1.05 -0.13,0.39 -0.24,0.66 -0.31,0.84 0.29,0.36 0.68,0.62 1.16,0.8 0.48,0.16 0.99,0.25 1.53,0.25 0.49,0 0.99,-0.08 1.52,-0.25 0.53,-0.17 0.94,-0.43 1.23,-0.8 -0.08,-0.21 -0.19,-0.51 -0.31,-0.89 -0.13,-0.38 -0.19,-0.71 -0.19,-1 0,-0.54 0.17,-0.93 0.52,-1.16 0.34,-0.24 0.71,-0.37 1.11,-0.37 0.44,0 0.81,0.17 1.13,0.5 0.3,0.33 0.46,0.76 0.46,1.28zm-138.33 1.26c-0.29,-0.14 -0.74,-0.26 -1.32,-0.36 -0.59,-0.1 -0.98,-0.17 -1.16,-0.2l0 -1.16 18.33 0 0 1.16c-0.3,0.01 -0.67,0.06 -1.11,0.14 -0.45,0.09 -0.78,0.17 -0.99,0.24 -0.36,0.14 -0.61,0.35 -0.74,0.66 -0.12,0.3 -0.18,0.64 -0.18,0.98l0 16.64c0,0.37 0.06,0.69 0.18,0.96 0.13,0.26 0.38,0.49 0.74,0.68 0.19,0.1 0.52,0.2 0.99,0.3 0.47,0.09 0.84,0.14 1.11,0.16l0 1.15 -9.57 0 0 -1.15c0.26,-0.03 0.63,-0.06 1.12,-0.11 0.5,-0.04 0.83,-0.1 1.02,-0.19 0.32,-0.13 0.57,-0.32 0.72,-0.59 0.15,-0.27 0.22,-0.61 0.22,-1.03l0 -18.63 -6.21 0c0,3.78 -0.24,7.09 -0.75,9.91 -0.51,2.82 -1.17,5.13 -2,6.93 -0.79,1.74 -1.66,3.04 -2.63,3.9 -0.98,0.85 -1.95,1.29 -2.94,1.29 -0.91,0 -1.61,-0.24 -2.11,-0.7 -0.51,-0.46 -0.75,-1 -0.75,-1.61 0,-0.48 0.16,-0.94 0.48,-1.4 0.32,-0.46 0.78,-0.69 1.38,-0.69 0.42,0 0.78,0.08 1.08,0.25 0.31,0.16 0.55,0.35 0.75,0.57 0.19,0.21 0.37,0.44 0.51,0.67 0.15,0.24 0.27,0.42 0.37,0.57 0.41,-0.35 0.87,-0.92 1.38,-1.75 0.51,-0.82 1.02,-1.97 1.51,-3.46 0.48,-1.4 0.88,-2.98 1.22,-4.74 0.33,-1.77 0.5,-3.75 0.5,-5.94 0,-1.04 -0.07,-1.82 -0.22,-2.33 -0.14,-0.52 -0.45,-0.89 -0.93,-1.12zm26.63 12.47c-0.92,0.27 -1.73,0.54 -2.42,0.8 -0.7,0.26 -1.34,0.58 -1.93,0.98 -0.55,0.36 -0.98,0.81 -1.29,1.31 -0.32,0.49 -0.48,1.09 -0.48,1.79 0,0.9 0.25,1.56 0.72,1.99 0.47,0.42 1.07,0.62 1.79,0.62 0.77,0 1.45,-0.18 2.04,-0.55 0.58,-0.37 1.07,-0.82 1.47,-1.33l0.1 -5.61zm5.67 8.58c-0.51,0.19 -0.95,0.34 -1.34,0.45 -0.38,0.11 -0.82,0.18 -1.3,0.18 -0.85,0 -1.53,-0.2 -2.03,-0.6 -0.5,-0.4 -0.82,-0.97 -0.96,-1.73l-0.1 0c-0.71,0.78 -1.47,1.38 -2.28,1.79 -0.8,0.41 -1.77,0.62 -2.91,0.62 -1.2,0 -2.19,-0.37 -2.97,-1.11 -0.78,-0.74 -1.16,-1.7 -1.16,-2.89 0,-0.62 0.09,-1.18 0.26,-1.66 0.18,-0.49 0.43,-0.93 0.78,-1.32 0.27,-0.32 0.63,-0.61 1.07,-0.86 0.45,-0.26 0.87,-0.47 1.25,-0.62 0.49,-0.18 1.48,-0.52 2.97,-1.02 1.5,-0.5 2.5,-0.89 3.02,-1.17l0 -1.61c0,-0.14 -0.03,-0.42 -0.09,-0.82 -0.06,-0.39 -0.19,-0.77 -0.38,-1.13 -0.22,-0.4 -0.53,-0.76 -0.93,-1.05 -0.39,-0.3 -0.95,-0.45 -1.68,-0.45 -0.49,0 -0.96,0.08 -1.38,0.26 -0.43,0.16 -0.74,0.34 -0.91,0.52 0,0.22 0.05,0.54 0.16,0.96 0.1,0.42 0.15,0.81 0.15,1.18 0,0.37 -0.17,0.71 -0.51,1.03 -0.34,0.32 -0.81,0.47 -1.43,0.47 -0.53,0 -0.93,-0.19 -1.19,-0.58 -0.25,-0.38 -0.38,-0.81 -0.38,-1.29 0,-0.5 0.18,-0.97 0.53,-1.42 0.35,-0.46 0.81,-0.87 1.37,-1.22 0.49,-0.31 1.08,-0.57 1.78,-0.78 0.69,-0.21 1.36,-0.32 2.02,-0.32 0.91,0 1.71,0.07 2.39,0.19 0.68,0.13 1.29,0.4 1.84,0.81 0.56,0.4 0.98,0.94 1.26,1.63 0.29,0.68 0.44,1.57 0.44,2.65 0,1.56 -0.02,2.93 -0.05,4.13 -0.04,1.2 -0.05,2.51 -0.05,3.93 0,0.42 0.07,0.75 0.22,1 0.14,0.25 0.37,0.46 0.67,0.64 0.16,0.1 0.42,0.15 0.77,0.16 0.36,0.02 0.72,0.02 1.08,0.02l0 1.03zm14.02 -4.34c0,1.52 -0.67,2.73 -2.01,3.66 -1.34,0.94 -3.08,1.4 -5.24,1.4 -0.97,0 -1.84,-0.11 -2.63,-0.33 -0.78,-0.22 -1.44,-0.52 -1.97,-0.9 -0.51,-0.38 -0.9,-0.81 -1.18,-1.29 -0.26,-0.48 -0.4,-1 -0.4,-1.56 0,-0.49 0.13,-0.88 0.39,-1.2 0.26,-0.32 0.66,-0.47 1.22,-0.47 0.59,0 1.03,0.15 1.33,0.47 0.3,0.32 0.46,0.64 0.46,0.99 0,0.31 -0.05,0.69 -0.14,1.13 -0.09,0.43 -0.17,0.76 -0.23,1 0.27,0.28 0.69,0.51 1.23,0.69 0.54,0.18 1.18,0.26 1.9,0.26 1.12,0 2.06,-0.32 2.81,-1 0.75,-0.67 1.12,-1.62 1.12,-2.85 0,-0.36 -0.04,-0.74 -0.14,-1.12 -0.1,-0.37 -0.28,-0.71 -0.55,-1.01 -0.28,-0.28 -0.64,-0.52 -1.11,-0.71 -0.46,-0.18 -1.07,-0.28 -1.83,-0.28l-1.71 0 0 -1.51 1.39 0c1.31,0 2.22,-0.27 2.74,-0.82 0.52,-0.55 0.78,-1.39 0.78,-2.54 0,-0.8 -0.26,-1.44 -0.75,-1.92 -0.5,-0.47 -1.19,-0.7 -2.07,-0.7 -0.64,0 -1.2,0.14 -1.7,0.42 -0.5,0.27 -0.96,0.65 -1.39,1.13 -0.37,0.42 -0.71,0.94 -1,1.51 -0.28,0.58 -0.52,1.13 -0.7,1.64l-1.09 0 0.09 -5.81 1.09 0 0.59 0.9c0.55,-0.25 1.19,-0.48 1.96,-0.7 0.77,-0.22 1.62,-0.33 2.57,-0.33 1.2,0 2.17,0.15 2.92,0.44 0.74,0.28 1.32,0.63 1.73,1.03 0.41,0.39 0.68,0.8 0.82,1.24 0.13,0.44 0.21,0.8 0.21,1.08 0,0.37 -0.06,0.74 -0.17,1.14 -0.11,0.38 -0.33,0.75 -0.64,1.09 -0.3,0.34 -0.73,0.67 -1.27,0.97 -0.53,0.29 -1.2,0.53 -2.02,0.69l0 0.21c0.51,0.02 1.04,0.11 1.57,0.24 0.54,0.15 1.03,0.37 1.49,0.67 0.48,0.34 0.86,0.75 1.13,1.26 0.27,0.5 0.4,1.1 0.4,1.79zm12.24 -5.24c0,-0.61 -0.05,-1.26 -0.15,-1.96 -0.11,-0.69 -0.27,-1.27 -0.5,-1.73 -0.25,-0.5 -0.59,-0.91 -1.02,-1.22 -0.44,-0.32 -0.99,-0.48 -1.67,-0.48 -1.15,0 -2.09,0.48 -2.85,1.43 -0.75,0.95 -1.16,2.26 -1.22,3.96l7.41 0zm3.6 6.1c-0.68,1.29 -1.58,2.3 -2.7,3.06 -1.13,0.76 -2.43,1.14 -3.89,1.14 -1.29,0 -2.41,-0.23 -3.39,-0.68 -0.97,-0.46 -1.77,-1.07 -2.4,-1.85 -0.62,-0.78 -1.09,-1.7 -1.4,-2.74 -0.31,-1.04 -0.46,-2.13 -0.46,-3.3 0,-1.03 0.16,-2.05 0.49,-3.06 0.33,-1.01 0.81,-1.9 1.45,-2.71 0.62,-0.76 1.39,-1.38 2.3,-1.86 0.92,-0.47 1.95,-0.71 3.09,-0.71 1.17,0 2.17,0.19 3.01,0.56 0.83,0.37 1.51,0.87 2.02,1.51 0.5,0.61 0.87,1.33 1.12,2.14 0.24,0.83 0.36,1.73 0.36,2.68l0 1.08 -10.61 0c0,1.05 0.1,2.01 0.3,2.86 0.2,0.86 0.52,1.61 0.96,2.26 0.41,0.63 0.96,1.13 1.65,1.49 0.68,0.36 1.49,0.54 2.44,0.54 0.96,0 1.8,-0.22 2.5,-0.67 0.68,-0.45 1.37,-1.26 2.02,-2.43l1.14 0.69zm12.82 1.18c0.43,-0.67 0.75,-1.45 0.96,-2.35 0.2,-0.88 0.31,-1.87 0.31,-2.97 0,-0.8 -0.09,-1.62 -0.26,-2.45 -0.18,-0.84 -0.45,-1.56 -0.82,-2.18 -0.37,-0.63 -0.85,-1.14 -1.44,-1.53 -0.6,-0.38 -1.32,-0.59 -2.15,-0.59 -0.8,0 -1.48,0.18 -2.04,0.54 -0.57,0.35 -1.06,0.77 -1.47,1.26l0 9.47c0.1,0.29 0.25,0.6 0.48,0.91 0.22,0.31 0.47,0.59 0.74,0.81 0.34,0.27 0.7,0.5 1.08,0.66 0.4,0.17 0.87,0.25 1.44,0.25 0.6,0 1.19,-0.16 1.75,-0.47 0.57,-0.33 1.04,-0.77 1.42,-1.36zm2.65 -11.53c0.64,0.76 1.14,1.64 1.49,2.64 0.34,1.01 0.52,2.15 0.52,3.44 0,1.27 -0.21,2.43 -0.63,3.47 -0.43,1.05 -0.98,1.94 -1.67,2.68 -0.73,0.75 -1.54,1.32 -2.43,1.72 -0.89,0.4 -1.83,0.6 -2.82,0.6 -0.97,0 -1.76,-0.11 -2.38,-0.32 -0.61,-0.21 -1.12,-0.47 -1.51,-0.77l-0.13 0 0 4.81c0,0.39 0.08,0.72 0.23,0.98 0.14,0.26 0.38,0.45 0.7,0.57 0.25,0.1 0.63,0.19 1.11,0.29 0.48,0.08 0.88,0.14 1.19,0.14l0 1.1 -8.95 0 0 -1.1c0.33,-0.01 0.66,-0.04 0.97,-0.07 0.32,-0.04 0.6,-0.09 0.85,-0.16 0.32,-0.12 0.55,-0.31 0.68,-0.57 0.13,-0.28 0.2,-0.59 0.2,-0.97l0 -17.05c0,-0.32 -0.09,-0.63 -0.25,-0.94 -0.16,-0.31 -0.37,-0.55 -0.63,-0.73 -0.19,-0.13 -0.47,-0.23 -0.82,-0.3 -0.34,-0.07 -0.68,-0.11 -1,-0.14l0 -1.05 5.46 -0.36 0.23 0.19 0 1.81 0.13 0.03c0.56,-0.65 1.26,-1.19 2.09,-1.63 0.84,-0.43 1.66,-0.65 2.49,-0.65 0.99,0 1.91,0.21 2.74,0.63 0.82,0.43 1.54,1 2.14,1.71zm21.04 14.13l-7.84 0 0 -1.07c0.26,-0.03 0.51,-0.04 0.78,-0.07 0.27,-0.02 0.49,-0.06 0.69,-0.13 0.31,-0.1 0.53,-0.27 0.7,-0.51 0.17,-0.25 0.25,-0.56 0.25,-0.95l0 -5.11 -7.14 0 0 4.95c0,0.36 0.07,0.67 0.23,0.91 0.14,0.24 0.37,0.42 0.68,0.55 0.23,0.11 0.47,0.19 0.74,0.24 0.27,0.06 0.54,0.09 0.82,0.12l0 1.07 -7.84 0 0 -1.07c0.26,-0.03 0.51,-0.04 0.78,-0.07 0.26,-0.02 0.49,-0.06 0.68,-0.13 0.31,-0.1 0.53,-0.27 0.67,-0.51 0.16,-0.25 0.23,-0.56 0.23,-0.95l0 -10.41c0,-0.36 -0.07,-0.66 -0.23,-0.9 -0.15,-0.24 -0.38,-0.42 -0.68,-0.56 -0.28,-0.13 -0.55,-0.22 -0.82,-0.26 -0.26,-0.04 -0.52,-0.07 -0.74,-0.1l0 -1.07 7.83 0 0 1.07c-0.31,0.03 -0.58,0.05 -0.82,0.08 -0.23,0.04 -0.44,0.07 -0.64,0.12 -0.3,0.09 -0.52,0.25 -0.67,0.51 -0.15,0.25 -0.22,0.57 -0.22,0.95l0 4.13 7.14 0 0 -3.97c0,-0.36 -0.08,-0.66 -0.23,-0.9 -0.16,-0.24 -0.38,-0.42 -0.68,-0.56 -0.28,-0.13 -0.56,-0.22 -0.83,-0.26 -0.26,-0.04 -0.51,-0.07 -0.74,-0.1l0 -1.07 7.84 0 0 1.07c-0.32,0.03 -0.59,0.05 -0.82,0.08 -0.23,0.04 -0.45,0.07 -0.64,0.12 -0.31,0.09 -0.53,0.25 -0.68,0.51 -0.15,0.25 -0.21,0.57 -0.21,0.95l0 10.41c0,0.38 0.05,0.68 0.19,0.91 0.13,0.24 0.35,0.42 0.66,0.55 0.23,0.11 0.47,0.19 0.74,0.24 0.27,0.06 0.54,0.09 0.82,0.12l0 1.07zm24.08 0l-7.82 0 0 -1.07c0.25,-0.03 0.5,-0.04 0.75,-0.07 0.25,-0.02 0.48,-0.06 0.67,-0.13 0.31,-0.1 0.54,-0.27 0.7,-0.51 0.17,-0.25 0.25,-0.56 0.25,-0.95l0 -10.41c0,-0.36 -0.08,-0.66 -0.23,-0.9 -0.15,-0.24 -0.38,-0.42 -0.68,-0.56 -0.28,-0.13 -0.56,-0.22 -0.82,-0.26 -0.27,-0.04 -0.52,-0.07 -0.74,-0.1l0 -1.07 7.85 0 0 1.07c-0.32,0.03 -0.59,0.05 -0.82,0.08 -0.23,0.04 -0.45,0.07 -0.65,0.12 -0.29,0.09 -0.53,0.25 -0.67,0.51 -0.15,0.25 -0.22,0.57 -0.22,0.95l0 10.41c0,0.38 0.07,0.68 0.19,0.91 0.14,0.24 0.36,0.42 0.68,0.55 0.22,0.11 0.47,0.19 0.73,0.24 0.27,0.06 0.54,0.09 0.83,0.12l0 1.07zm-8.26 -4.93c0,0.86 -0.19,1.6 -0.55,2.22 -0.37,0.63 -0.85,1.14 -1.43,1.54 -0.59,0.38 -1.24,0.68 -1.96,0.87 -0.71,0.2 -1.46,0.3 -2.24,0.3l-8.45 0 0 -1.07c0.25,-0.03 0.5,-0.04 0.77,-0.07 0.26,-0.02 0.49,-0.06 0.69,-0.13 0.3,-0.1 0.53,-0.27 0.67,-0.51 0.15,-0.25 0.22,-0.56 0.22,-0.95l0 -10.41c0,-0.36 -0.07,-0.66 -0.22,-0.9 -0.15,-0.24 -0.39,-0.42 -0.68,-0.56 -0.29,-0.13 -0.57,-0.22 -0.83,-0.26 -0.26,-0.04 -0.51,-0.07 -0.74,-0.1l0 -1.07 8.08 0 0 1.07c-0.32,0.03 -0.64,0.05 -0.95,0.08 -0.31,0.02 -0.57,0.06 -0.77,0.12 -0.34,0.09 -0.57,0.28 -0.7,0.55 -0.13,0.27 -0.19,0.58 -0.19,0.91l0 3.82c0.43,-0.01 0.79,-0.02 1.11,-0.04 0.31,-0.02 0.76,-0.02 1.33,-0.02 1.06,0 1.98,0.08 2.78,0.25 0.79,0.17 1.49,0.42 2.08,0.77 0.61,0.37 1.11,0.84 1.45,1.42 0.35,0.57 0.53,1.29 0.53,2.17zm-3.28 -0.07c0,-0.92 -0.34,-1.7 -1,-2.34 -0.66,-0.65 -1.63,-0.97 -2.89,-0.97 -0.53,0 -0.97,0.02 -1.32,0.06 -0.35,0.04 -0.61,0.05 -0.79,0.05l0 5.73c0,0.46 0.15,0.79 0.49,1.02 0.33,0.23 0.93,0.34 1.8,0.34 0.74,0 1.35,-0.12 1.84,-0.35 0.49,-0.25 0.87,-0.54 1.14,-0.92 0.27,-0.4 0.46,-0.81 0.57,-1.24 0.1,-0.44 0.16,-0.9 0.16,-1.38zm30.7 5l-7.79 0 0 -1.07c0.25,-0.03 0.5,-0.04 0.78,-0.07 0.25,-0.02 0.49,-0.06 0.68,-0.13 0.3,-0.1 0.54,-0.27 0.7,-0.51 0.16,-0.25 0.24,-0.56 0.24,-0.95l0 -8.42 -7.38 7.98 0 0.28c0,0.36 0.08,0.67 0.23,0.91 0.15,0.24 0.38,0.42 0.68,0.55 0.24,0.11 0.49,0.19 0.76,0.24 0.26,0.06 0.54,0.09 0.84,0.12l0 1.07 -7.78 0 0 -1.07c0.24,-0.03 0.5,-0.04 0.77,-0.07 0.26,-0.02 0.49,-0.06 0.68,-0.13 0.3,-0.1 0.54,-0.27 0.68,-0.51 0.14,-0.25 0.22,-0.56 0.22,-0.95l0 -10.41c0,-0.36 -0.08,-0.66 -0.22,-0.9 -0.17,-0.24 -0.39,-0.42 -0.69,-0.56 -0.28,-0.13 -0.56,-0.22 -0.82,-0.26 -0.27,-0.04 -0.51,-0.07 -0.75,-0.1l0 -1.07 7.8 0 0 1.07c-0.32,0.03 -0.59,0.05 -0.82,0.08 -0.24,0.04 -0.45,0.07 -0.65,0.12 -0.3,0.09 -0.52,0.25 -0.67,0.51 -0.15,0.25 -0.22,0.57 -0.22,0.95l0 8.3 7.37 -8.01c0,-0.48 -0.07,-0.82 -0.22,-1.06 -0.15,-0.22 -0.38,-0.39 -0.68,-0.53 -0.28,-0.13 -0.56,-0.22 -0.84,-0.26 -0.28,-0.04 -0.53,-0.07 -0.76,-0.1l0 -1.07 7.79 0 0 1.07c-0.32,0.03 -0.59,0.05 -0.82,0.08 -0.23,0.04 -0.44,0.07 -0.64,0.12 -0.31,0.09 -0.53,0.25 -0.67,0.51 -0.16,0.25 -0.23,0.57 -0.23,0.95l0 10.41c0,0.38 0.07,0.68 0.2,0.91 0.13,0.24 0.35,0.42 0.67,0.55 0.23,0.11 0.47,0.19 0.73,0.24 0.27,0.06 0.54,0.09 0.83,0.12l0 1.07zm-24.06 13.17c0.64,0.77 1.13,1.65 1.49,2.65 0.34,1 0.53,2.14 0.53,3.44 0,1.26 -0.22,2.42 -0.63,3.46 -0.44,1.05 -0.99,1.94 -1.68,2.68 -0.73,0.74 -1.54,1.32 -2.42,1.72 -0.9,0.4 -1.84,0.6 -2.83,0.6 -0.97,0 -1.76,-0.1 -2.38,-0.32 -0.61,-0.21 -1.12,-0.47 -1.51,-0.77l-0.13 0 0 4.82c0,0.39 0.08,0.71 0.23,0.97 0.15,0.26 0.38,0.45 0.69,0.57 0.27,0.1 0.64,0.19 1.13,0.28 0.47,0.1 0.87,0.15 1.19,0.16l0 1.09 -8.96 0 0 -1.09c0.33,-0.02 0.66,-0.05 0.97,-0.08 0.32,-0.03 0.6,-0.09 0.85,-0.16 0.32,-0.11 0.55,-0.3 0.68,-0.57 0.13,-0.28 0.2,-0.59 0.2,-0.96l0 -17.05c0,-0.33 -0.09,-0.64 -0.25,-0.95 -0.16,-0.3 -0.37,-0.55 -0.63,-0.73 -0.2,-0.13 -0.47,-0.23 -0.81,-0.3 -0.35,-0.07 -0.69,-0.11 -1.01,-0.14l0 -1.06 5.46 -0.35 0.23 0.19 0 1.81 0.13 0.03c0.56,-0.65 1.25,-1.19 2.09,-1.63 0.84,-0.43 1.67,-0.64 2.5,-0.64 0.98,0 1.9,0.2 2.73,0.62 0.83,0.43 1.54,1 2.14,1.71zm-2.65 11.53c0.43,-0.67 0.76,-1.45 0.96,-2.34 0.2,-0.89 0.31,-1.88 0.31,-2.98 0,-0.8 -0.09,-1.62 -0.27,-2.45 -0.17,-0.84 -0.43,-1.56 -0.81,-2.18 -0.36,-0.63 -0.85,-1.14 -1.45,-1.53 -0.59,-0.38 -1.3,-0.59 -2.14,-0.59 -0.8,0 -1.48,0.18 -2.05,0.54 -0.56,0.35 -1.05,0.77 -1.46,1.26l0 9.48c0.1,0.28 0.26,0.59 0.48,0.9 0.22,0.32 0.47,0.59 0.74,0.82 0.33,0.26 0.7,0.49 1.09,0.66 0.39,0.16 0.86,0.25 1.43,0.25 0.61,0 1.2,-0.16 1.75,-0.48 0.57,-0.32 1.04,-0.77 1.42,-1.36zm-96.3 2.55c-0.43,0.05 -0.85,0.3 -1.25,0.74 -0.41,0.44 -0.77,0.94 -1.1,1.51 -0.31,0.51 -0.57,1.09 -0.81,1.73 -0.24,0.64 -0.41,1.11 -0.51,1.45l-1.22 0 0 -6.79 2.25 0c1.31,-1.97 2.5,-4.67 3.58,-8.06 1.08,-3.41 1.62,-6.44 1.62,-9.1 0,-0.8 -0.07,-1.42 -0.22,-1.85 -0.14,-0.43 -0.42,-0.74 -0.84,-0.94 -0.27,-0.13 -0.7,-0.24 -1.28,-0.35 -0.59,-0.1 -1.02,-0.17 -1.29,-0.2l0 -1.15 18.58 0 0 1.15c-0.3,0.01 -0.67,0.06 -1.1,0.14 -0.45,0.09 -0.78,0.17 -0.99,0.25 -0.37,0.13 -0.62,0.35 -0.74,0.65 -0.13,0.3 -0.19,0.63 -0.19,0.99l0 16.87c0,0.61 0.16,1.03 0.45,1.26 0.31,0.24 0.8,0.35 1.47,0.35l1.37 0 0 6.78 -1.23 0c-0.1,-0.42 -0.25,-0.89 -0.42,-1.4 -0.17,-0.51 -0.44,-1.1 -0.81,-1.78 -0.32,-0.61 -0.66,-1.12 -1.02,-1.53 -0.36,-0.41 -0.78,-0.65 -1.26,-0.72l-13.04 0zm11.03 -2.83l0 -18.82 -6.47 0c0,3.87 -0.49,7.61 -1.46,11.22 -0.97,3.61 -2.19,6.63 -3.66,9.07l10.08 0c0.52,0 0.89,-0.12 1.14,-0.36 0.24,-0.24 0.37,-0.61 0.37,-1.11zm19.58 -5.27c0,-0.81 -0.08,-1.66 -0.25,-2.57 -0.15,-0.9 -0.4,-1.67 -0.73,-2.3 -0.34,-0.67 -0.79,-1.21 -1.36,-1.62 -0.57,-0.4 -1.26,-0.61 -2.06,-0.61 -0.84,0 -1.55,0.21 -2.14,0.62 -0.6,0.41 -1.08,0.97 -1.44,1.69 -0.35,0.66 -0.59,1.42 -0.73,2.26 -0.15,0.85 -0.21,1.66 -0.21,2.46 0,1.04 0.08,1.99 0.25,2.89 0.16,0.87 0.43,1.67 0.8,2.36 0.37,0.7 0.83,1.24 1.39,1.63 0.56,0.4 1.26,0.59 2.08,0.59 1.35,0 2.42,-0.66 3.21,-1.96 0.79,-1.32 1.19,-3.12 1.19,-5.44zm3.36 -0.03c0,1.13 -0.17,2.24 -0.52,3.33 -0.37,1.09 -0.88,2.01 -1.54,2.77 -0.74,0.87 -1.62,1.51 -2.6,1.93 -0.98,0.43 -2.09,0.64 -3.31,0.64 -1.03,0 -2,-0.2 -2.92,-0.58 -0.92,-0.38 -1.74,-0.95 -2.45,-1.68 -0.7,-0.72 -1.27,-1.61 -1.69,-2.66 -0.41,-1.04 -0.62,-2.22 -0.62,-3.52 0,-2.51 0.73,-4.55 2.19,-6.14 1.45,-1.59 3.37,-2.4 5.73,-2.4 2.24,0 4.09,0.77 5.55,2.28 1.46,1.51 2.18,3.52 2.18,6.03zm17.5 8.18l-5.51 0c-0.27,-0.89 -0.51,-1.64 -0.73,-2.28 -0.22,-0.64 -0.53,-1.37 -0.95,-2.21 -0.51,-1.01 -1.07,-1.75 -1.69,-2.21 -0.61,-0.45 -1.4,-0.68 -2.36,-0.68l-0.37 0 0 4.49c0,0.37 0.07,0.67 0.22,0.91 0.15,0.24 0.38,0.42 0.69,0.55 0.23,0.11 0.47,0.19 0.74,0.25 0.26,0.05 0.53,0.09 0.82,0.11l0 1.07 -7.82 0 0 -1.07c0.25,-0.02 0.5,-0.04 0.77,-0.07 0.26,-0.02 0.49,-0.06 0.69,-0.12 0.3,-0.1 0.53,-0.28 0.67,-0.52 0.15,-0.24 0.23,-0.56 0.23,-0.95l0 -10.4c0,-0.36 -0.08,-0.67 -0.23,-0.91 -0.16,-0.24 -0.38,-0.42 -0.68,-0.56 -0.29,-0.12 -0.57,-0.21 -0.83,-0.26 -0.26,-0.04 -0.51,-0.07 -0.74,-0.09l0 -1.08 7.82 0 0 1.08c-0.31,0.02 -0.59,0.04 -0.82,0.07 -0.23,0.04 -0.44,0.08 -0.64,0.12 -0.3,0.08 -0.53,0.26 -0.68,0.52 -0.14,0.25 -0.21,0.56 -0.21,0.94l0 4.7 1.02 0c0.36,0 0.71,-0.07 1.08,-0.21 0.35,-0.14 0.65,-0.34 0.89,-0.58 0.3,-0.33 0.57,-0.76 0.81,-1.29 0.24,-0.53 0.43,-1.03 0.6,-1.49 0.18,-0.49 0.38,-0.99 0.6,-1.52 0.22,-0.52 0.44,-0.92 0.67,-1.2 0.4,-0.48 0.83,-0.83 1.29,-1.03 0.46,-0.21 0.96,-0.3 1.52,-0.3 0.83,0 1.45,0.17 1.84,0.54 0.39,0.35 0.58,0.8 0.58,1.34 0,0.47 -0.15,0.87 -0.46,1.21 -0.31,0.33 -0.72,0.51 -1.23,0.51 -0.48,0 -0.86,-0.14 -1.15,-0.38 -0.27,-0.26 -0.65,-0.67 -1.14,-1.25 -0.2,0.18 -0.41,0.57 -0.59,1.16 -0.19,0.59 -0.38,1.1 -0.55,1.55 -0.32,0.88 -0.66,1.55 -1,2.03 -0.34,0.48 -0.74,0.86 -1.2,1.16l0 0.2c1,0.2 1.78,0.56 2.35,1.08 0.58,0.52 1.08,1.17 1.48,1.97 0.19,0.37 0.41,0.84 0.65,1.39 0.25,0.54 0.41,0.91 0.49,1.08 0.22,0.49 0.47,0.82 0.77,1 0.31,0.18 0.6,0.29 0.85,0.33 0.25,0.05 0.5,0.11 0.76,0.14 0.25,0.03 0.48,0.07 0.68,0.09l0 1.07zm15.67 -10.89l-0.98 0c-0.1,-0.31 -0.25,-0.66 -0.44,-1.07 -0.19,-0.41 -0.4,-0.81 -0.62,-1.17 -0.24,-0.4 -0.51,-0.76 -0.8,-1.07 -0.3,-0.31 -0.62,-0.48 -0.94,-0.52 -0.34,-0.04 -0.71,-0.06 -1.12,-0.08 -0.41,-0.01 -0.77,-0.03 -1.05,-0.03l0 11.94c0,0.37 0.07,0.67 0.22,0.91 0.15,0.24 0.38,0.42 0.69,0.55 0.23,0.11 0.5,0.19 0.81,0.25 0.3,0.05 0.6,0.09 0.89,0.11l0 1.07 -8.16 0 0 -1.07c0.24,-0.02 0.53,-0.04 0.85,-0.07 0.32,-0.02 0.58,-0.06 0.77,-0.12 0.31,-0.1 0.53,-0.28 0.67,-0.52 0.15,-0.24 0.23,-0.56 0.23,-0.95l0 -12.1c-0.35,0.02 -0.75,0.03 -1.17,0.05 -0.43,0.01 -0.78,0.03 -1.03,0.06 -0.28,0.02 -0.58,0.19 -0.89,0.53 -0.33,0.33 -0.6,0.69 -0.84,1.06 -0.23,0.36 -0.45,0.78 -0.65,1.22 -0.18,0.45 -0.32,0.79 -0.4,1.02l-0.99 0 0 -5.14 14.95 0 0 5.14zm16.66 2.71c0,1.13 -0.18,2.24 -0.53,3.33 -0.36,1.09 -0.87,2.01 -1.53,2.77 -0.75,0.87 -1.61,1.51 -2.6,1.93 -0.99,0.43 -2.09,0.64 -3.31,0.64 -1.03,0 -2,-0.2 -2.92,-0.58 -0.92,-0.38 -1.74,-0.95 -2.45,-1.68 -0.71,-0.72 -1.28,-1.61 -1.68,-2.66 -0.42,-1.04 -0.63,-2.22 -0.63,-3.52 0,-2.51 0.72,-4.55 2.18,-6.14 1.46,-1.59 3.37,-2.4 5.73,-2.4 2.24,0 4.1,0.77 5.56,2.28 1.45,1.51 2.18,3.52 2.18,6.03z"/>
   <path class="fil2" d="M85.42 24.22c-0.85,2.99 -0.76,7.33 0.93,13.04 0.55,1.63 1.23,3.38 2.08,5.24 0,0.02 0.01,0.03 0.02,0.04 0,-0.01 0.01,-0.02 0.01,-0.04 4.01,-8.8 4.46,-14.14 3.46,-17.74 -1.52,-5.49 -5.24,-4.99 -6.5,-0.54zm-8.03 33.24c-1.25,0.02 -2.5,0.07 -3.74,0.14l0.3 -0.51 0.22 -0.39c0.92,-0.04 1.84,-0.08 2.76,-0.1 0.15,0.29 0.31,0.57 0.46,0.86zm-2.8 -33.24c0.84,2.99 0.76,7.33 -0.92,13.04 -0.56,1.63 -1.25,3.38 -2.09,5.24 -0.01,0.02 -0.02,0.03 -0.02,0.04 0,-0.01 0,-0.02 -0.01,-0.04 -4,-8.8 -4.46,-14.14 -3.46,-17.74 1.52,-5.49 5.25,-4.99 6.5,-0.54zm-27.49 39.27l0 0 0.01 0 0.01 -0.01 0.01 0 0.01 0 0.01 -0.01 0 0 -0.05 0.02zm15.73 -4.73c-3.91,5.61 -9,11.36 -14.51,13.74 -1.61,0.69 -3.36,1.12 -4.99,0.99 -3.83,-0.82 -4.18,-6.1 3.76,-9.99l0.01 -0.01 0 0 0.06 -0.02 0.24 -0.12c4.09,-1.93 9.2,-3.53 15.43,-4.59zm5.45 -5.06c8.68,-15.05 9.62,-24.94 7.52,-30.05 -2.07,-5.04 -6.64,-5.82 -8.21,0.22 -0.99,3.8 -0.47,10.12 3.54,18.94 0.09,0.21 0.19,0.42 0.29,0.62 -1.22,2.85 -2.77,5.97 -4.72,9.34 -0.99,1.71 -2.07,3.35 -3.17,4.99 -6.56,1.01 -11.95,2.61 -16.28,4.56l0 0c-10.82,4.91 -8.38,13.11 -1.84,12.32 4.76,-0.13 11.86,-4.33 19.71,-15.97l0.2 -0.28c-0.01,0 3.02,-0.43 5.5,-0.6 0.19,-0.31 0.38,-0.61 0.56,-0.92 -1.88,0.14 -3.69,0.32 -5.42,0.54 0,0.01 1.23,-1.84 2.32,-3.71zm18.1 3.91c-1.26,-0.07 -2.51,-0.11 -3.75,-0.14 0.16,-0.29 0.31,-0.58 0.47,-0.86 0.91,0.03 1.84,0.06 2.76,0.11l0.21 0.37c0.1,0.17 0.2,0.35 0.31,0.52zm10.8 1.17c3.92,5.6 9,11.34 14.52,13.72 1.61,0.69 3.35,1.12 4.99,0.99 3.82,-0.82 4.17,-6.11 -3.78,-9.99l0 -0.01 -0.19 -0.08 -0.06 -0.03c-4.09,-1.94 -9.21,-3.55 -15.48,-4.6zm-5.45 -5.08c-8.68,-15.05 -9.63,-24.94 -7.52,-30.05 2.08,-5.04 6.65,-5.82 8.21,0.22 0.99,3.8 0.47,10.12 -3.54,18.94 -0.09,0.21 -0.19,0.42 -0.29,0.62 1.22,2.85 2.77,5.97 4.72,9.34 0.9,1.56 1.95,3.17 3,4.74l0.17 0.26c6.56,1.01 11.93,2.6 16.26,4.55l0.01 -0.01c10.81,4.92 8.39,13.12 1.85,12.33 -4.77,-0.13 -11.86,-4.33 -19.71,-15.97l-0.18 -0.28c-1.76,-0.24 -3.59,-0.43 -5.51,-0.59 -0.19,-0.3 -0.37,-0.61 -0.56,-0.91 1.88,0.14 3.69,0.32 5.42,0.54 -0.82,-1.24 -1.59,-2.47 -2.33,-3.73z"/>
   <path class="fil2" d="M77.38 26.23c0.15,3.44 0.94,7.59 2.59,12.44 1.75,-5.13 2.53,-9.46 2.61,-13.03 0.14,-5.98 -1.2,-9.89 -2.55,-9.83 -1.44,0.05 -2.9,4.46 -2.65,10.42zm-7.84 33.53c-13.54,1.29 -21.67,5.11 -25.86,9.38 -9.17,9.37 -1.15,15.92 8.21,10.04 6.22,-3.9 11.87,-10.79 16.21,-17.26 0.48,-0.71 0.96,-1.44 1.44,-2.16zm46.5 9.17c-4.24,-4.18 -12.33,-7.88 -25.62,-9.16 0.47,0.72 0.94,1.44 1.42,2.15 4.18,6.23 9.57,12.85 15.52,16.82 9.57,6.37 18.67,0.04 8.68,-9.81zm-26.1 -9.89c13.66,1.21 22.12,4.86 26.72,9.11 11.33,10.46 2.73,20.83 -10.63,12.26 -4.76,-3.05 -10.21,-8.44 -15.99,-17.01 -0.88,-1.29 -1.72,-2.58 -2.53,-3.87 -0.55,-0.04 -1.11,-0.06 -1.68,-0.09 -3.92,-0.2 -7.9,-0.21 -11.81,-0.01 -0.53,0.03 -1.06,0.06 -1.58,0.09 -0.81,1.3 -1.66,2.58 -2.54,3.88 -6.12,9.09 -11.9,14.6 -16.84,17.54 -12.96,7.69 -20.53,-2.54 -10.01,-12.59 4.55,-4.34 13.06,-8.1 26.95,-9.32 0.68,-1.05 1.32,-2.1 1.91,-3.12 2.94,-5.1 5.18,-9.73 6.83,-13.9 -2.43,-6.42 -3.43,-11.71 -3.46,-15.91 -0.02,-2.61 0.14,-11.44 4.7,-11.55 2.29,-0.06 4.59,3.26 4.68,11.09 0.05,4.27 -0.94,9.73 -3.46,16.37 1.65,4.17 3.89,8.8 6.83,13.9 0.6,1.03 1.24,2.08 1.91,3.13zm-4.08 -0.28c0.41,0.02 0.81,0.04 1.21,0.07 -0.36,-0.58 -0.7,-1.16 -1.04,-1.74 -2.5,-4.34 -4.5,-8.34 -6.06,-12.01 -1.56,3.67 -3.56,7.67 -6.06,12.01 -0.34,0.58 -0.68,1.16 -1.03,1.72 0.37,-0.02 0.74,-0.04 1.12,-0.06 3.98,-0.2 7.92,-0.19 11.86,0.01z"/>
   <path class="fil1" d="M71.06 13.89c-2.79,8.38 -1.55,22.19 8.94,41.41 9.78,-17.95 11.52,-31.17 9.43,-39.66 -1.19,-4.84 -3.67,-9.06 -9.22,-9.19 -4.99,-0.12 -7.71,3.14 -9.15,7.44zm41.93 48.54c13.45,6.15 16.65,15.77 13.57,22.05 -2.76,5.59 -9.74,7.02 -15.58,5.66 -7.75,-1.8 -17.43,-8.39 -27.36,-22.71 -1.27,-1.83 -2.48,-3.63 -3.62,-5.46l0 0.01 0 -0.01c-1.15,1.83 -2.36,3.63 -3.63,5.46 -9.83,14.18 -19.43,20.78 -27.14,22.66 -5.49,1.33 -11.91,0.33 -15.11,-4.45 -4.14,-6.18 -1.43,-16.65 12.85,-23.21 -3.16,1.49 -5.15,3.25 -6.21,4.98 -7.13,5.69 -8.33,12.57 -5.62,17.06 3.08,5.1 8.49,4.79 13.5,3.1 10.07,-3.37 18.8,-13.06 25.1,-22.19 1.51,-2.19 3.02,-4.46 4.33,-6.68l-0.01 -0.03c-12.33,-21.82 -13.02,-36.98 -9.17,-45.48 2.02,-4.47 6.03,-8.26 11.26,-8.19 5.77,0.09 9.77,4.69 11.56,9.68 3.12,8.72 1.86,23.33 -9.69,43.85l-0.09 0.17c1.3,2.22 2.81,4.49 4.33,6.68 6.3,9.13 15.03,18.82 25.09,22.19 5.28,1.77 11.11,1.94 13.9,-3.81 2.18,-4.49 0.74,-10.97 -6.06,-16.37 -1.06,-1.72 -3.04,-3.48 -6.2,-4.96z"/>
  </g>
 </g>
</svg>
