<?xml version="1.0" encoding="UTF-8"?>
<!DOCTYPE svg PUBLIC "-//W3C//DTD SVG 1.1//EN" "http://www.w3.org/Graphics/SVG/1.1/DTD/svg11.dtd">
<!-- Creator: CorelDRAW -->
<svg xmlns="http://www.w3.org/2000/svg" xml:space="preserve" width="160px" height="160px" version="1.1" style="shape-rendering:geometricPrecision; text-rendering:geometricPrecision; image-rendering:optimizeQuality; fill-rule:evenodd; clip-rule:evenodd"
viewBox="0 0 156.62 156.62"
 xmlns:xlink="http://www.w3.org/1999/xlink"
 xmlns:xodm="http://www.corel.com/coreldraw/odm/2003">
 <defs>
  <style type="text/css">
   <![CDATA[
    .fil2 {fill:none}
    .fil1 {fill:#2B2A29}
    .fil0 {fill:#2B2A29;fill-rule:nonzero}
   ]]>
  </style>
 </defs>
 <g id="Слой_x0020_1">
  <metadata id="CorelCorpID_0Corel-Layer"/>
  <g id="_2856994797296">
   <path class="fil0" d="M103.64 124.94c0,-0.63 -0.06,-1.3 -0.19,-2.01 -0.12,-0.71 -0.31,-1.31 -0.57,-1.8 -0.27,-0.53 -0.62,-0.95 -1.07,-1.27 -0.44,-0.31 -0.98,-0.47 -1.61,-0.47 -0.65,0 -1.21,0.16 -1.67,0.48 -0.47,0.32 -0.84,0.76 -1.13,1.32 -0.27,0.52 -0.46,1.11 -0.56,1.77 -0.12,0.66 -0.17,1.3 -0.17,1.92 0,0.81 0.07,1.56 0.19,2.26 0.13,0.68 0.35,1.3 0.63,1.84 0.29,0.55 0.65,0.97 1.09,1.28 0.44,0.31 0.98,0.47 1.62,0.47 1.06,0 1.9,-0.52 2.51,-1.54 0.63,-1.03 0.93,-2.44 0.93,-4.25zm30.49 -32.66c0,0.26 -0.08,0.57 -0.23,0.94 -0.16,0.36 -0.39,0.68 -0.69,0.95 -0.36,0.32 -0.79,0.57 -1.29,0.76 -0.51,0.2 -1.19,0.3 -2.06,0.3 -0.81,0 -1.49,-0.1 -2.02,-0.3 -0.53,-0.2 -0.97,-0.45 -1.31,-0.76 -0.32,-0.29 -0.55,-0.61 -0.69,-0.96 -0.15,-0.34 -0.21,-0.65 -0.21,-0.93 0,-0.41 0.12,-0.74 0.36,-1 0.24,-0.26 0.53,-0.39 0.87,-0.39 0.32,0 0.61,0.1 0.88,0.29 0.27,0.18 0.4,0.48 0.4,0.91 0,0.24 -0.04,0.52 -0.15,0.82 -0.1,0.3 -0.18,0.52 -0.24,0.65 0.23,0.28 0.53,0.49 0.91,0.63 0.38,0.13 0.78,0.2 1.2,0.2 0.38,0 0.77,-0.07 1.19,-0.2 0.41,-0.13 0.73,-0.34 0.96,-0.63 -0.07,-0.16 -0.15,-0.39 -0.25,-0.69 -0.1,-0.3 -0.14,-0.56 -0.14,-0.78 0,-0.43 0.13,-0.73 0.4,-0.91 0.27,-0.19 0.56,-0.29 0.87,-0.29 0.34,0 0.64,0.13 0.88,0.39 0.24,0.26 0.36,0.59 0.36,1zm-108.16 0.99c-0.23,-0.11 -0.58,-0.21 -1.04,-0.29 -0.46,-0.08 -0.76,-0.13 -0.91,-0.15l0 -0.91 14.34 0 0 0.91c-0.24,0.01 -0.53,0.05 -0.87,0.11 -0.35,0.07 -0.6,0.13 -0.77,0.19 -0.29,0.1 -0.48,0.27 -0.58,0.51 -0.09,0.24 -0.15,0.5 -0.15,0.77l0 13.01c0,0.29 0.06,0.54 0.15,0.75 0.1,0.21 0.29,0.38 0.58,0.53 0.14,0.08 0.4,0.16 0.77,0.24 0.37,0.07 0.66,0.11 0.87,0.12l0 0.9 -7.48 0 0 -0.9c0.2,-0.02 0.49,-0.04 0.87,-0.08 0.39,-0.03 0.65,-0.08 0.8,-0.15 0.25,-0.1 0.44,-0.25 0.56,-0.47 0.12,-0.2 0.17,-0.47 0.17,-0.8l0 -14.57 -4.85 0c0,2.96 -0.19,5.54 -0.59,7.75 -0.4,2.2 -0.91,4.01 -1.56,5.42 -0.62,1.37 -1.3,2.38 -2.06,3.05 -0.77,0.67 -1.52,1.01 -2.3,1.01 -0.71,0 -1.26,-0.18 -1.65,-0.54 -0.39,-0.36 -0.58,-0.79 -0.58,-1.26 0,-0.38 0.12,-0.74 0.37,-1.1 0.25,-0.36 0.61,-0.54 1.08,-0.54 0.33,0 0.61,0.06 0.84,0.2 0.25,0.12 0.43,0.27 0.59,0.44 0.15,0.17 0.29,0.35 0.4,0.53 0.12,0.18 0.21,0.32 0.29,0.44 0.32,-0.27 0.68,-0.72 1.08,-1.37 0.4,-0.64 0.79,-1.54 1.18,-2.7 0.38,-1.1 0.69,-2.33 0.96,-3.71 0.25,-1.39 0.39,-2.93 0.39,-4.64 0,-0.82 -0.06,-1.43 -0.17,-1.83 -0.12,-0.4 -0.36,-0.69 -0.73,-0.87zm20.82 9.75c-0.72,0.21 -1.35,0.42 -1.9,0.62 -0.54,0.21 -1.04,0.46 -1.51,0.77 -0.42,0.28 -0.76,0.63 -1,1.02 -0.25,0.39 -0.37,0.86 -0.37,1.4 0,0.71 0.18,1.23 0.55,1.56 0.37,0.33 0.84,0.49 1.41,0.49 0.6,0 1.13,-0.14 1.59,-0.44 0.45,-0.29 0.84,-0.63 1.15,-1.03l0.08 -4.39zm4.43 6.71c-0.39,0.14 -0.74,0.26 -1.04,0.35 -0.3,0.09 -0.64,0.14 -1.02,0.14 -0.67,0 -1.2,-0.16 -1.59,-0.47 -0.39,-0.31 -0.64,-0.76 -0.75,-1.35l-0.08 0c-0.55,0.61 -1.15,1.08 -1.78,1.4 -0.63,0.32 -1.39,0.48 -2.28,0.48 -0.93,0 -1.71,-0.29 -2.32,-0.87 -0.61,-0.57 -0.91,-1.33 -0.91,-2.25 0,-0.49 0.08,-0.92 0.21,-1.3 0.14,-0.39 0.33,-0.73 0.61,-1.03 0.21,-0.26 0.49,-0.48 0.84,-0.68 0.34,-0.2 0.67,-0.36 0.97,-0.48 0.39,-0.14 1.16,-0.41 2.32,-0.8 1.17,-0.39 1.96,-0.69 2.36,-0.92l0 -1.26c0,-0.1 -0.02,-0.32 -0.07,-0.63 -0.04,-0.31 -0.15,-0.61 -0.29,-0.89 -0.17,-0.31 -0.41,-0.59 -0.73,-0.82 -0.3,-0.23 -0.74,-0.35 -1.31,-0.35 -0.39,0 -0.75,0.06 -1.08,0.2 -0.34,0.13 -0.58,0.27 -0.71,0.41 0,0.17 0.04,0.42 0.12,0.75 0.08,0.33 0.12,0.63 0.12,0.92 0,0.29 -0.13,0.56 -0.4,0.81 -0.27,0.25 -0.64,0.37 -1.12,0.37 -0.42,0 -0.73,-0.16 -0.93,-0.46 -0.19,-0.29 -0.3,-0.63 -0.3,-1.01 0,-0.39 0.14,-0.76 0.42,-1.11 0.27,-0.36 0.63,-0.68 1.07,-0.96 0.38,-0.23 0.84,-0.43 1.39,-0.6 0.54,-0.17 1.07,-0.25 1.58,-0.25 0.71,0 1.34,0.05 1.87,0.15 0.53,0.1 1.01,0.31 1.44,0.63 0.43,0.31 0.76,0.74 0.98,1.27 0.23,0.54 0.35,1.23 0.35,2.08 0,1.22 -0.02,2.29 -0.05,3.23 -0.02,0.93 -0.03,1.96 -0.03,3.07 0,0.33 0.06,0.59 0.17,0.78 0.11,0.2 0.29,0.36 0.53,0.5 0.12,0.08 0.33,0.12 0.6,0.13 0.28,0.01 0.56,0.01 0.84,0.01l0 0.81zm10.97 -3.39c0,1.18 -0.53,2.13 -1.57,2.86 -1.05,0.73 -2.42,1.09 -4.1,1.09 -0.76,0 -1.45,-0.08 -2.06,-0.26 -0.61,-0.17 -1.13,-0.41 -1.54,-0.7 -0.4,-0.3 -0.7,-0.64 -0.92,-1.01 -0.21,-0.37 -0.32,-0.78 -0.32,-1.22 0,-0.38 0.11,-0.69 0.31,-0.94 0.2,-0.25 0.52,-0.37 0.95,-0.37 0.46,0 0.81,0.12 1.04,0.37 0.24,0.25 0.36,0.5 0.36,0.78 0,0.24 -0.04,0.54 -0.11,0.88 -0.07,0.33 -0.13,0.6 -0.18,0.78 0.22,0.22 0.54,0.4 0.96,0.54 0.43,0.14 0.93,0.21 1.49,0.21 0.88,0 1.61,-0.26 2.2,-0.79 0.59,-0.52 0.88,-1.26 0.88,-2.22 0,-0.29 -0.04,-0.58 -0.12,-0.88 -0.07,-0.29 -0.21,-0.56 -0.43,-0.79 -0.21,-0.22 -0.5,-0.41 -0.86,-0.56 -0.37,-0.14 -0.84,-0.21 -1.44,-0.21l-1.33 0 0 -1.18 1.09 0c1.02,0 1.73,-0.22 2.14,-0.65 0.4,-0.43 0.6,-1.08 0.6,-1.98 0,-0.63 -0.19,-1.13 -0.58,-1.5 -0.39,-0.37 -0.93,-0.55 -1.62,-0.55 -0.49,0 -0.94,0.11 -1.33,0.32 -0.39,0.22 -0.75,0.51 -1.08,0.89 -0.3,0.33 -0.56,0.73 -0.78,1.18 -0.23,0.46 -0.41,0.89 -0.55,1.28l-0.85 0 0.07 -4.54 0.85 0 0.46 0.71c0.42,-0.2 0.93,-0.38 1.53,-0.55 0.6,-0.17 1.27,-0.26 2.01,-0.26 0.94,0 1.7,0.11 2.28,0.34 0.59,0.22 1.04,0.5 1.36,0.8 0.32,0.31 0.53,0.64 0.64,0.98 0.1,0.34 0.16,0.62 0.16,0.84 0,0.29 -0.04,0.58 -0.13,0.89 -0.09,0.3 -0.26,0.59 -0.5,0.86 -0.24,0.26 -0.57,0.52 -0.99,0.75 -0.42,0.23 -0.95,0.41 -1.58,0.54l0 0.16c0.39,0.02 0.81,0.09 1.23,0.2 0.42,0.11 0.8,0.28 1.16,0.52 0.38,0.26 0.67,0.59 0.88,0.99 0.21,0.39 0.32,0.86 0.32,1.4zm9.57 -4.11c0,-0.47 -0.04,-0.98 -0.12,-1.52 -0.08,-0.55 -0.21,-1 -0.39,-1.36 -0.2,-0.39 -0.46,-0.71 -0.8,-0.96 -0.34,-0.24 -0.78,-0.37 -1.31,-0.37 -0.89,0 -1.63,0.37 -2.22,1.12 -0.59,0.74 -0.91,1.77 -0.96,3.09l5.8 0zm2.81 4.78c-0.53,1 -1.23,1.8 -2.11,2.39 -0.89,0.6 -1.9,0.89 -3.04,0.89 -1.01,0 -1.89,-0.18 -2.65,-0.53 -0.76,-0.36 -1.38,-0.84 -1.88,-1.45 -0.48,-0.61 -0.86,-1.33 -1.1,-2.14 -0.24,-0.81 -0.36,-1.67 -0.36,-2.58 0,-0.81 0.13,-1.61 0.39,-2.39 0.26,-0.79 0.63,-1.49 1.14,-2.12 0.48,-0.6 1.08,-1.09 1.79,-1.45 0.72,-0.37 1.52,-0.56 2.42,-0.56 0.91,0 1.69,0.14 2.35,0.44 0.65,0.28 1.18,0.67 1.59,1.17 0.38,0.48 0.67,1.04 0.87,1.68 0.18,0.65 0.28,1.35 0.28,2.1l0 0.84 -8.3 0c0,0.82 0.08,1.57 0.24,2.24 0.15,0.67 0.4,1.26 0.74,1.77 0.33,0.49 0.76,0.87 1.3,1.16 0.53,0.28 1.17,0.42 1.91,0.42 0.75,0 1.4,-0.17 1.95,-0.53 0.54,-0.35 1.07,-0.98 1.58,-1.89l0.89 0.54zm10.03 0.92c0.33,-0.52 0.59,-1.13 0.75,-1.84 0.16,-0.69 0.24,-1.46 0.24,-2.32 0,-0.63 -0.07,-1.27 -0.21,-1.92 -0.13,-0.65 -0.34,-1.22 -0.64,-1.7 -0.28,-0.49 -0.66,-0.89 -1.12,-1.2 -0.47,-0.3 -1.03,-0.46 -1.68,-0.46 -0.63,0 -1.16,0.14 -1.6,0.42 -0.44,0.27 -0.83,0.6 -1.15,0.99l0 7.41c0.08,0.22 0.2,0.46 0.38,0.71 0.17,0.24 0.36,0.45 0.58,0.63 0.26,0.21 0.54,0.39 0.85,0.52 0.3,0.13 0.67,0.19 1.12,0.19 0.47,0 0.93,-0.12 1.37,-0.37 0.44,-0.25 0.81,-0.6 1.11,-1.06zm2.07 -9.02c0.5,0.6 0.89,1.29 1.16,2.07 0.27,0.78 0.41,1.68 0.41,2.69 0,0.99 -0.16,1.9 -0.49,2.71 -0.34,0.82 -0.77,1.52 -1.31,2.09 -0.57,0.59 -1.2,1.04 -1.89,1.35 -0.7,0.32 -1.44,0.47 -2.21,0.47 -0.76,0 -1.38,-0.08 -1.86,-0.25 -0.48,-0.17 -0.88,-0.37 -1.19,-0.6l-0.1 0 0 3.76c0,0.3 0.07,0.56 0.18,0.77 0.12,0.2 0.3,0.35 0.55,0.44 0.2,0.08 0.49,0.15 0.87,0.23 0.38,0.06 0.69,0.11 0.93,0.11l0 0.86 -7 0 0 -0.86c0.26,-0.01 0.52,-0.03 0.76,-0.06 0.25,-0.02 0.47,-0.07 0.66,-0.12 0.25,-0.09 0.43,-0.24 0.54,-0.45 0.09,-0.22 0.15,-0.46 0.15,-0.75l0 -13.34c0,-0.25 -0.07,-0.49 -0.19,-0.73 -0.13,-0.24 -0.29,-0.43 -0.5,-0.58 -0.15,-0.1 -0.36,-0.17 -0.64,-0.23 -0.26,-0.06 -0.53,-0.09 -0.78,-0.11l0 -0.82 4.27 -0.28 0.18 0.15 0 1.41 0.1 0.02c0.44,-0.51 0.99,-0.92 1.64,-1.27 0.65,-0.34 1.3,-0.5 1.95,-0.5 0.77,0 1.49,0.16 2.13,0.49 0.65,0.33 1.21,0.77 1.68,1.33zm16.46 11.05l-6.14 0 0 -0.84c0.2,-0.01 0.4,-0.03 0.61,-0.05 0.21,-0.02 0.39,-0.05 0.54,-0.1 0.24,-0.08 0.42,-0.21 0.55,-0.4 0.13,-0.19 0.19,-0.44 0.19,-0.74l0 -3.99 -5.58 0 0 3.86c0,0.29 0.06,0.53 0.18,0.72 0.11,0.18 0.29,0.32 0.53,0.42 0.18,0.09 0.37,0.15 0.58,0.19 0.21,0.05 0.42,0.08 0.64,0.09l0 0.84 -6.13 0 0 -0.84c0.2,-0.01 0.4,-0.03 0.61,-0.05 0.21,-0.02 0.39,-0.05 0.53,-0.1 0.24,-0.08 0.42,-0.21 0.53,-0.4 0.12,-0.19 0.18,-0.44 0.18,-0.74l0 -8.14c0,-0.28 -0.06,-0.52 -0.18,-0.71 -0.12,-0.18 -0.3,-0.33 -0.53,-0.43 -0.22,-0.11 -0.44,-0.17 -0.65,-0.21 -0.2,-0.03 -0.4,-0.05 -0.57,-0.07l0 -0.84 6.12 0 0 0.84c-0.25,0.02 -0.46,0.03 -0.64,0.06 -0.18,0.02 -0.35,0.05 -0.5,0.09 -0.24,0.07 -0.41,0.2 -0.53,0.4 -0.11,0.2 -0.17,0.45 -0.17,0.74l0 3.23 5.58 0 0 -3.1c0,-0.28 -0.06,-0.52 -0.18,-0.71 -0.12,-0.18 -0.29,-0.33 -0.53,-0.43 -0.22,-0.11 -0.43,-0.17 -0.65,-0.21 -0.2,-0.03 -0.4,-0.05 -0.57,-0.07l0 -0.84 6.13 0 0 0.84c-0.25,0.02 -0.47,0.03 -0.64,0.06 -0.19,0.02 -0.36,0.05 -0.5,0.09 -0.25,0.07 -0.42,0.2 -0.54,0.4 -0.12,0.2 -0.17,0.45 -0.17,0.74l0 8.14c0,0.3 0.05,0.54 0.15,0.72 0.1,0.18 0.28,0.32 0.52,0.42 0.18,0.09 0.37,0.15 0.58,0.19 0.21,0.05 0.42,0.08 0.65,0.09l0 0.84zm18.82 0l-6.11 0 0 -0.84c0.19,-0.01 0.39,-0.03 0.58,-0.05 0.2,-0.02 0.38,-0.05 0.53,-0.1 0.24,-0.08 0.42,-0.21 0.54,-0.4 0.14,-0.19 0.2,-0.44 0.2,-0.74l0 -8.14c0,-0.28 -0.06,-0.52 -0.18,-0.71 -0.12,-0.18 -0.3,-0.33 -0.53,-0.43 -0.22,-0.11 -0.44,-0.17 -0.65,-0.21 -0.21,-0.03 -0.4,-0.05 -0.58,-0.07l0 -0.84 6.14 0 0 0.84c-0.24,0.02 -0.46,0.03 -0.64,0.06 -0.18,0.02 -0.35,0.05 -0.5,0.09 -0.23,0.07 -0.41,0.2 -0.53,0.4 -0.11,0.2 -0.17,0.45 -0.17,0.74l0 8.14c0,0.3 0.05,0.54 0.15,0.72 0.11,0.18 0.28,0.32 0.53,0.42 0.17,0.09 0.37,0.15 0.57,0.19 0.21,0.05 0.43,0.08 0.65,0.09l0 0.84zm-6.46 -3.85c0,0.67 -0.15,1.25 -0.43,1.73 -0.29,0.49 -0.66,0.9 -1.12,1.2 -0.46,0.31 -0.97,0.54 -1.53,0.69 -0.56,0.15 -1.14,0.23 -1.75,0.23l-6.61 0 0 -0.84c0.2,-0.01 0.39,-0.03 0.6,-0.05 0.21,-0.02 0.39,-0.05 0.54,-0.1 0.24,-0.08 0.41,-0.21 0.53,-0.4 0.11,-0.19 0.17,-0.44 0.17,-0.74l0 -8.14c0,-0.28 -0.06,-0.52 -0.18,-0.71 -0.11,-0.18 -0.3,-0.33 -0.52,-0.43 -0.23,-0.11 -0.45,-0.17 -0.65,-0.21 -0.21,-0.03 -0.4,-0.05 -0.58,-0.07l0 -0.84 6.31 0 0 0.84c-0.25,0.02 -0.49,0.03 -0.74,0.05 -0.24,0.03 -0.44,0.06 -0.6,0.1 -0.27,0.07 -0.45,0.22 -0.55,0.43 -0.1,0.21 -0.15,0.45 -0.15,0.71l0 2.99c0.34,-0.01 0.63,-0.02 0.87,-0.03 0.24,-0.01 0.6,-0.02 1.05,-0.02 0.82,0 1.54,0.07 2.17,0.2 0.62,0.13 1.16,0.33 1.62,0.6 0.48,0.29 0.87,0.66 1.14,1.11 0.27,0.45 0.41,1.01 0.41,1.7zm-2.57 -0.06c0,-0.71 -0.26,-1.33 -0.77,-1.83 -0.52,-0.5 -1.28,-0.75 -2.27,-0.75 -0.41,0 -0.75,0.01 -1.03,0.04 -0.27,0.03 -0.48,0.04 -0.62,0.04l0 4.48c0,0.36 0.12,0.62 0.39,0.8 0.26,0.18 0.73,0.27 1.4,0.27 0.58,0 1.06,-0.1 1.44,-0.28 0.39,-0.19 0.69,-0.42 0.89,-0.72 0.22,-0.31 0.37,-0.63 0.45,-0.97 0.08,-0.34 0.12,-0.7 0.12,-1.08zm24.01 3.91l-6.09 0 0 -0.84c0.2,-0.01 0.4,-0.03 0.61,-0.05 0.2,-0.02 0.39,-0.05 0.53,-0.1 0.24,-0.08 0.42,-0.21 0.55,-0.4 0.13,-0.19 0.19,-0.44 0.19,-0.74l0 -6.59 -5.77 6.24 0 0.22c0,0.29 0.06,0.53 0.18,0.72 0.12,0.18 0.29,0.32 0.53,0.42 0.19,0.09 0.38,0.15 0.59,0.19 0.21,0.05 0.43,0.08 0.66,0.09l0 0.84 -6.09 0 0 -0.84c0.19,-0.01 0.4,-0.03 0.61,-0.05 0.2,-0.02 0.38,-0.05 0.53,-0.1 0.24,-0.08 0.42,-0.21 0.53,-0.4 0.11,-0.19 0.17,-0.44 0.17,-0.74l0 -8.14c0,-0.28 -0.06,-0.52 -0.17,-0.71 -0.13,-0.18 -0.3,-0.33 -0.54,-0.43 -0.22,-0.11 -0.43,-0.17 -0.64,-0.21 -0.21,-0.03 -0.4,-0.05 -0.58,-0.07l0 -0.84 6.09 0 0 0.84c-0.25,0.02 -0.46,0.03 -0.64,0.06 -0.18,0.02 -0.35,0.05 -0.5,0.09 -0.24,0.07 -0.41,0.2 -0.53,0.4 -0.11,0.2 -0.17,0.45 -0.17,0.74l0 6.49 5.77 -6.26c0,-0.37 -0.06,-0.65 -0.18,-0.83 -0.11,-0.17 -0.3,-0.31 -0.53,-0.41 -0.22,-0.11 -0.44,-0.17 -0.66,-0.21 -0.22,-0.03 -0.41,-0.05 -0.59,-0.07l0 -0.84 6.09 0 0 0.84c-0.25,0.02 -0.46,0.03 -0.64,0.06 -0.18,0.02 -0.35,0.05 -0.5,0.09 -0.24,0.07 -0.42,0.2 -0.53,0.4 -0.12,0.2 -0.17,0.45 -0.17,0.74l0 8.14c0,0.3 0.05,0.54 0.15,0.72 0.1,0.18 0.28,0.32 0.52,0.42 0.18,0.09 0.37,0.15 0.58,0.19 0.21,0.05 0.42,0.08 0.64,0.09l0 0.84zm-18.81 10.3c0.5,0.6 0.88,1.29 1.16,2.07 0.27,0.78 0.42,1.68 0.42,2.69 0,0.99 -0.17,1.89 -0.5,2.71 -0.33,0.82 -0.77,1.52 -1.31,2.09 -0.57,0.59 -1.2,1.04 -1.89,1.35 -0.7,0.31 -1.44,0.47 -2.22,0.47 -0.75,0 -1.37,-0.08 -1.85,-0.25 -0.48,-0.17 -0.88,-0.37 -1.19,-0.6l-0.1 0 0 3.76c0,0.31 0.06,0.56 0.18,0.76 0.12,0.21 0.3,0.36 0.55,0.45 0.2,0.08 0.49,0.15 0.87,0.22 0.38,0.07 0.69,0.12 0.94,0.12l0 0.86 -7.01 0 0 -0.86c0.26,-0.01 0.52,-0.03 0.76,-0.06 0.25,-0.02 0.47,-0.07 0.66,-0.12 0.25,-0.09 0.44,-0.24 0.54,-0.45 0.1,-0.21 0.15,-0.46 0.15,-0.75l0 -13.34c0,-0.25 -0.07,-0.5 -0.2,-0.73 -0.12,-0.24 -0.28,-0.43 -0.49,-0.57 -0.15,-0.11 -0.36,-0.18 -0.63,-0.24 -0.27,-0.06 -0.54,-0.09 -0.79,-0.11l0 -0.83 4.27 -0.28 0.18 0.16 0 1.41 0.1 0.02c0.44,-0.5 0.98,-0.93 1.64,-1.27 0.65,-0.34 1.3,-0.5 1.95,-0.5 0.77,0 1.49,0.16 2.14,0.49 0.65,0.33 1.2,0.78 1.67,1.33zm-2.07 9.02c0.33,-0.53 0.59,-1.14 0.75,-1.83 0.16,-0.7 0.24,-1.47 0.24,-2.33 0,-0.62 -0.07,-1.27 -0.21,-1.92 -0.13,-0.65 -0.34,-1.21 -0.63,-1.7 -0.29,-0.5 -0.66,-0.9 -1.14,-1.2 -0.46,-0.3 -1.02,-0.46 -1.67,-0.46 -0.63,0 -1.16,0.14 -1.6,0.42 -0.44,0.27 -0.83,0.6 -1.15,0.99l0 7.41c0.08,0.22 0.2,0.46 0.38,0.71 0.17,0.24 0.37,0.45 0.58,0.63 0.26,0.21 0.55,0.39 0.85,0.52 0.3,0.13 0.67,0.19 1.12,0.19 0.47,0 0.93,-0.12 1.37,-0.37 0.44,-0.25 0.81,-0.6 1.11,-1.06zm-75.3 1.99c-0.34,0.04 -0.67,0.23 -0.99,0.58 -0.31,0.35 -0.6,0.74 -0.85,1.18 -0.24,0.4 -0.45,0.86 -0.64,1.35 -0.19,0.5 -0.32,0.88 -0.39,1.14l-0.96 0 0 -5.31 1.76 0c1.03,-1.55 1.96,-3.65 2.8,-6.31 0.84,-2.66 1.27,-5.03 1.27,-7.11 0,-0.63 -0.06,-1.11 -0.18,-1.45 -0.11,-0.34 -0.33,-0.58 -0.66,-0.73 -0.2,-0.1 -0.54,-0.19 -1,-0.28 -0.45,-0.07 -0.79,-0.13 -1,-0.16l0 -0.9 14.53 0 0 0.9c-0.23,0.01 -0.53,0.05 -0.87,0.12 -0.34,0.07 -0.6,0.13 -0.77,0.19 -0.29,0.1 -0.48,0.27 -0.58,0.51 -0.1,0.24 -0.15,0.5 -0.15,0.78l0 13.19c0,0.47 0.13,0.8 0.36,0.98 0.24,0.19 0.62,0.28 1.14,0.28l1.07 0 0 5.3 -0.95 0c-0.09,-0.33 -0.2,-0.69 -0.33,-1.09 -0.13,-0.4 -0.35,-0.87 -0.63,-1.4 -0.26,-0.48 -0.53,-0.88 -0.81,-1.2 -0.28,-0.32 -0.61,-0.51 -0.97,-0.56l-10.2 0zm8.62 -2.21l0 -14.72 -5.06 0c0,3.03 -0.38,5.95 -1.14,8.77 -0.76,2.82 -1.72,5.19 -2.87,7.1l7.89 0c0.41,0 0.7,-0.1 0.89,-0.28 0.19,-0.19 0.29,-0.48 0.29,-0.87zm15.31 -4.12c0,-0.63 -0.06,-1.3 -0.19,-2.01 -0.12,-0.71 -0.32,-1.31 -0.57,-1.8 -0.27,-0.53 -0.63,-0.95 -1.07,-1.27 -0.44,-0.31 -0.98,-0.47 -1.61,-0.47 -0.65,0 -1.21,0.16 -1.68,0.48 -0.46,0.32 -0.84,0.76 -1.12,1.32 -0.27,0.52 -0.46,1.11 -0.57,1.77 -0.12,0.66 -0.17,1.3 -0.17,1.92 0,0.81 0.07,1.56 0.2,2.26 0.13,0.68 0.34,1.3 0.63,1.84 0.28,0.55 0.65,0.97 1.08,1.28 0.44,0.31 0.98,0.47 1.63,0.47 1.05,0 1.89,-0.52 2.51,-1.54 0.62,-1.03 0.93,-2.44 0.93,-4.25zm2.63 -0.02c0,0.88 -0.14,1.74 -0.41,2.6 -0.29,0.85 -0.69,1.57 -1.2,2.16 -0.59,0.68 -1.27,1.18 -2.04,1.52 -0.77,0.33 -1.63,0.49 -2.59,0.49 -0.8,0 -1.56,-0.15 -2.28,-0.45 -0.71,-0.3 -1.36,-0.74 -1.91,-1.31 -0.55,-0.57 -0.99,-1.27 -1.32,-2.08 -0.32,-0.82 -0.49,-1.74 -0.49,-2.76 0,-1.96 0.57,-3.55 1.71,-4.8 1.14,-1.24 2.63,-1.87 4.48,-1.87 1.76,0 3.2,0.59 4.34,1.78 1.14,1.18 1.71,2.75 1.71,4.72zm13.68 6.39l-4.3 0c-0.22,-0.69 -0.4,-1.29 -0.58,-1.78 -0.17,-0.5 -0.41,-1.08 -0.74,-1.73 -0.4,-0.79 -0.84,-1.37 -1.32,-1.73 -0.48,-0.35 -1.09,-0.53 -1.85,-0.53l-0.29 0 0 3.51c0,0.29 0.06,0.52 0.18,0.71 0.12,0.19 0.29,0.33 0.53,0.43 0.18,0.09 0.37,0.15 0.58,0.19 0.21,0.04 0.42,0.08 0.64,0.09l0 0.84 -6.11 0 0 -0.84c0.19,-0.01 0.39,-0.03 0.6,-0.05 0.21,-0.02 0.39,-0.05 0.54,-0.1 0.24,-0.08 0.42,-0.21 0.53,-0.4 0.11,-0.19 0.18,-0.44 0.18,-0.75l0 -8.13c0,-0.28 -0.07,-0.52 -0.18,-0.71 -0.13,-0.19 -0.3,-0.33 -0.54,-0.43 -0.22,-0.1 -0.44,-0.17 -0.64,-0.21 -0.21,-0.03 -0.4,-0.06 -0.58,-0.07l0 -0.84 6.11 0 0 0.84c-0.24,0.01 -0.46,0.03 -0.64,0.06 -0.18,0.03 -0.35,0.06 -0.5,0.09 -0.24,0.06 -0.41,0.2 -0.53,0.4 -0.11,0.2 -0.17,0.45 -0.17,0.74l0 3.68 0.8 0c0.28,0 0.56,-0.06 0.84,-0.17 0.28,-0.11 0.51,-0.26 0.7,-0.46 0.23,-0.25 0.45,-0.58 0.63,-1 0.19,-0.42 0.34,-0.8 0.48,-1.17 0.13,-0.38 0.29,-0.77 0.46,-1.19 0.17,-0.4 0.35,-0.71 0.53,-0.93 0.31,-0.38 0.65,-0.66 1.01,-0.81 0.35,-0.16 0.75,-0.24 1.19,-0.24 0.65,0 1.13,0.14 1.43,0.43 0.31,0.27 0.46,0.62 0.46,1.05 0,0.36 -0.12,0.68 -0.36,0.94 -0.25,0.26 -0.56,0.4 -0.96,0.4 -0.38,0 -0.68,-0.11 -0.9,-0.3 -0.22,-0.2 -0.51,-0.52 -0.9,-0.97 -0.16,0.14 -0.31,0.44 -0.46,0.9 -0.15,0.47 -0.29,0.87 -0.43,1.22 -0.25,0.68 -0.51,1.21 -0.78,1.58 -0.26,0.38 -0.58,0.68 -0.93,0.91l0 0.16c0.77,0.15 1.38,0.43 1.83,0.84 0.46,0.41 0.84,0.92 1.16,1.54 0.15,0.29 0.32,0.66 0.51,1.09 0.19,0.42 0.32,0.71 0.38,0.84 0.17,0.39 0.37,0.64 0.6,0.79 0.25,0.13 0.47,0.22 0.67,0.26 0.19,0.03 0.39,0.08 0.59,0.1 0.2,0.03 0.37,0.06 0.53,0.07l0 0.84zm12.26 -8.52l-0.77 0c-0.08,-0.23 -0.19,-0.51 -0.34,-0.83 -0.15,-0.32 -0.32,-0.64 -0.49,-0.92 -0.19,-0.31 -0.4,-0.59 -0.63,-0.83 -0.23,-0.25 -0.48,-0.38 -0.73,-0.41 -0.26,-0.03 -0.56,-0.05 -0.88,-0.06 -0.32,-0.01 -0.6,-0.02 -0.82,-0.02l0 9.33c0,0.29 0.05,0.52 0.18,0.71 0.11,0.19 0.29,0.33 0.53,0.43 0.18,0.09 0.39,0.15 0.63,0.19 0.24,0.04 0.47,0.08 0.7,0.09l0 0.84 -6.37 0 0 -0.84c0.18,-0.01 0.41,-0.03 0.66,-0.05 0.25,-0.02 0.45,-0.05 0.6,-0.1 0.24,-0.08 0.42,-0.21 0.52,-0.4 0.12,-0.19 0.18,-0.44 0.18,-0.75l0 -9.45c-0.27,0.01 -0.58,0.02 -0.91,0.03 -0.34,0.01 -0.61,0.03 -0.81,0.05 -0.22,0.01 -0.45,0.15 -0.7,0.41 -0.25,0.27 -0.47,0.54 -0.65,0.83 -0.18,0.28 -0.35,0.61 -0.51,0.96 -0.14,0.35 -0.25,0.62 -0.31,0.79l-0.77 0 0 -4.01 11.69 0 0 4.01zm13.02 2.13c0,0.88 -0.14,1.74 -0.41,2.6 -0.29,0.85 -0.68,1.57 -1.2,2.16 -0.58,0.68 -1.26,1.18 -2.03,1.52 -0.77,0.33 -1.64,0.49 -2.59,0.49 -0.81,0 -1.56,-0.15 -2.29,-0.45 -0.71,-0.3 -1.35,-0.74 -1.91,-1.31 -0.55,-0.57 -1,-1.27 -1.31,-2.08 -0.33,-0.82 -0.49,-1.74 -0.49,-2.76 0,-1.96 0.56,-3.55 1.7,-4.8 1.14,-1.24 2.64,-1.87 4.48,-1.87 1.76,0 3.21,0.59 4.35,1.78 1.13,1.18 1.7,2.75 1.7,4.72z"/>
   <path class="fil1" d="M82.55 34.69c-0.66,2.34 -0.6,5.73 0.73,10.2 0.42,1.27 0.96,2.64 1.62,4.1 0,0.01 0.01,0.02 0.01,0.03 0.01,-0.01 0.01,-0.02 0.02,-0.03 3.13,-6.88 3.48,-11.06 2.7,-13.88 -1.19,-4.29 -4.1,-3.9 -5.08,-0.42zm-6.28 25.99c-0.98,0.02 -1.95,0.06 -2.93,0.11l0.24 -0.4 0.17 -0.3c0.72,-0.04 1.44,-0.06 2.16,-0.08 0.11,0.23 0.24,0.45 0.36,0.67zm-2.19 -25.99c0.66,2.34 0.6,5.73 -0.72,10.2 -0.44,1.27 -0.97,2.64 -1.64,4.1 0,0.01 -0.01,0.02 -0.01,0.03 0,-0.01 0,-0.02 -0.01,-0.03 -3.13,-6.88 -3.48,-11.06 -2.7,-13.88 1.19,-4.29 4.1,-3.9 5.08,-0.42zm-21.49 30.71l0 0 0 0 0.01 -0.01 0.01 0 0 0 0.01 -0.01 0 0 -0.03 0.02zm12.3 -3.7c-3.07,4.39 -7.04,8.88 -11.36,10.74 -1.26,0.55 -2.62,0.88 -3.9,0.78 -2.99,-0.64 -3.26,-4.77 2.94,-7.81l0.01 -0.01 0.01 0 0.04 -0.02 0.19 -0.09c3.19,-1.51 7.19,-2.76 12.07,-3.59zm4.25 -3.96c6.79,-11.77 7.53,-19.5 5.89,-23.5 -1.63,-3.94 -5.2,-4.55 -6.43,0.18 -0.77,2.97 -0.37,7.91 2.78,14.81 0.07,0.16 0.14,0.32 0.22,0.48 -0.95,2.23 -2.17,4.67 -3.69,7.3 -0.77,1.34 -1.62,2.63 -2.48,3.9 -5.13,0.8 -9.34,2.04 -12.73,3.57l0 0c-8.46,3.84 -6.55,10.26 -1.44,9.63 3.73,-0.1 9.28,-3.38 15.41,-12.48l0.16 -0.22c-0.01,0 2.36,-0.34 4.3,-0.47 0.15,-0.24 0.3,-0.48 0.44,-0.72 -1.47,0.11 -2.89,0.25 -4.24,0.43 0,0 0.97,-1.44 1.81,-2.91zm14.16 3.06c-0.98,-0.05 -1.96,-0.09 -2.94,-0.11 0.13,-0.23 0.25,-0.45 0.37,-0.67 0.72,0.02 1.44,0.04 2.16,0.08l0.16 0.29c0.08,0.14 0.16,0.27 0.25,0.41zm8.45 0.91c3.06,4.39 7.03,8.87 11.34,10.73 1.27,0.55 2.63,0.88 3.91,0.78 2.98,-0.64 3.26,-4.78 -2.96,-7.82l0 0 -0.15 -0.07 -0.04 -0.02c-3.2,-1.52 -7.2,-2.77 -12.1,-3.6zm-4.26 -3.97c-6.8,-11.77 -7.53,-19.5 -5.89,-23.5 1.62,-3.94 5.2,-4.55 6.42,0.18 0.77,2.97 0.37,7.91 -2.77,14.81 -0.07,0.16 -0.15,0.32 -0.22,0.48 0.95,2.23 2.16,4.67 3.68,7.3 0.71,1.23 1.53,2.49 2.36,3.71l0.13 0.2c5.12,0.79 9.33,2.04 12.71,3.56l0.01 0c8.45,3.84 6.56,10.26 1.44,9.63 -3.72,-0.1 -9.27,-3.38 -15.41,-12.48l-0.14 -0.22c-1.37,-0.18 -2.8,-0.34 -4.31,-0.46 -0.14,-0.24 -0.29,-0.48 -0.43,-0.72 1.47,0.11 2.88,0.26 4.23,0.43 -0.64,-0.97 -1.24,-1.93 -1.81,-2.92z"/>
   <path class="fil1" d="M76.26 36.26c0.12,2.69 0.74,5.93 2.03,9.73 1.36,-4.02 1.97,-7.4 2.03,-10.19 0.11,-4.67 -0.93,-7.73 -1.99,-7.69 -1.12,0.04 -2.26,3.49 -2.07,8.15zm-6.13 26.22c-10.59,1.01 -16.95,4 -20.22,7.34 -7.17,7.32 -0.9,12.45 6.42,7.85 4.87,-3.05 9.28,-8.44 12.68,-13.5 0.37,-0.56 0.75,-1.12 1.12,-1.69zm36.36 7.17c-3.31,-3.27 -9.64,-6.16 -20.04,-7.16 0.37,0.56 0.74,1.13 1.12,1.68 3.27,4.87 7.49,10.05 12.14,13.15 7.48,4.99 14.59,0.03 6.78,-7.67zm-20.41 -7.73c10.69,0.94 17.3,3.8 20.9,7.12 8.86,8.18 2.13,16.29 -8.32,9.59 -3.72,-2.39 -7.98,-6.6 -12.5,-13.31 -0.68,-1.01 -1.35,-2.01 -1.98,-3.02 -0.43,-0.03 -0.87,-0.05 -1.31,-0.07 -3.07,-0.15 -6.18,-0.16 -9.24,-0.01 -0.41,0.03 -0.82,0.05 -1.23,0.08 -0.64,1.01 -1.3,2.01 -1.99,3.02 -4.79,7.11 -9.3,11.43 -13.16,13.72 -10.14,6.02 -16.06,-1.99 -7.83,-9.84 3.55,-3.39 10.21,-6.33 21.07,-7.29 0.53,-0.82 1.03,-1.64 1.5,-2.44 2.3,-3.99 4.05,-7.61 5.33,-10.86 -1.9,-5.03 -2.68,-9.16 -2.7,-12.45 -0.01,-2.04 0.11,-8.94 3.67,-9.03 1.8,-0.05 3.6,2.55 3.66,8.67 0.04,3.34 -0.73,7.61 -2.7,12.81 1.29,3.25 3.04,6.87 5.34,10.86 0.46,0.81 0.97,1.62 1.49,2.45zm-3.19 -0.22c0.32,0.01 0.64,0.03 0.95,0.05 -0.28,-0.45 -0.55,-0.9 -0.81,-1.36 -1.96,-3.39 -3.52,-6.52 -4.74,-9.39 -1.22,2.87 -2.79,6 -4.74,9.39 -0.27,0.46 -0.53,0.91 -0.81,1.35 0.29,-0.02 0.58,-0.03 0.88,-0.05 3.11,-0.15 6.19,-0.15 9.27,0.01z"/>
   <path class="fil0" d="M71.32 26.62c-2.19,6.55 -1.21,17.34 6.99,32.37 7.65,-14.03 9,-24.37 7.38,-31.01 -0.93,-3.78 -2.87,-7.08 -7.22,-7.19 -3.9,-0.09 -6.02,2.46 -7.15,5.83zm32.79 37.95c10.52,4.81 13.02,12.33 10.61,17.24 -2.16,4.37 -7.62,5.49 -12.18,4.43 -6.06,-1.41 -13.63,-6.57 -21.4,-17.76 -0.99,-1.43 -1.94,-2.84 -2.83,-4.27l0 0.01 0 -0.01c-0.9,1.43 -1.85,2.84 -2.84,4.27 -7.69,11.09 -15.19,16.25 -21.22,17.71 -4.3,1.05 -9.31,0.26 -11.81,-3.47 -3.24,-4.84 -1.13,-13.02 10.05,-18.15 -2.48,1.17 -4.04,2.54 -4.86,3.89 -5.58,4.46 -6.52,9.83 -4.4,13.34 2.41,3.99 6.64,3.75 10.56,2.43 7.87,-2.64 14.7,-10.22 19.62,-17.36 1.18,-1.71 2.37,-3.48 3.39,-5.22l-0.01 -0.02c-9.64,-17.06 -10.18,-28.92 -7.17,-35.57 1.59,-3.49 4.72,-6.46 8.81,-6.4 4.51,0.07 7.63,3.67 9.04,7.57 2.43,6.82 1.45,18.24 -7.58,34.29l-0.07 0.13c1.02,1.74 2.2,3.51 3.38,5.22 4.93,7.14 11.76,14.72 19.63,17.36 4.12,1.38 8.68,1.51 10.86,-2.98 1.71,-3.51 0.58,-8.58 -4.73,-12.8 -0.83,-1.35 -2.39,-2.72 -4.85,-3.88z"/>
  </g>
  <rect class="fil2" width="156.62" height="156.62"/>
 </g>
</svg>
