<?xml version="1.0" encoding="UTF-8"?>
<!-- Generator: Adobe Illustrator 20.0.0, SVG Export Plug-In . SVG Version: 6.00 Build 0)  -->
<svg version="1.1" id="Layer_1" xmlns="http://www.w3.org/2000/svg" xmlns:xlink="http://www.w3.org/1999/xlink" x="0px" y="0px" width="192.4px" height="40.1px" viewBox="0 0 192.4 40.1" style="enable-background:new 0 0 192.4 40.1;" xml:space="preserve">
<style type="text/css">
	.st0{fill:none;stroke:#1A1A18;stroke-width:0.2514;stroke-miterlimit:22.9256;}
	.st1{fill-rule:evenodd;clip-rule:evenodd;fill:#25136B;stroke:#2F2482;stroke-width:0.2514;stroke-miterlimit:22.9256;}
	.st2{fill-rule:evenodd;clip-rule:evenodd;fill:#97001A;stroke:#BF1742;stroke-width:0.2514;stroke-miterlimit:22.9256;}
	.st3{fill-rule:evenodd;clip-rule:evenodd;fill:#25136B;}
</style>
<g>
	<line class="st0" x1="3.3" y1="25.5" x2="38.4" y2="2"/>
	<polyline class="st0" points="12.8,25.5 38.4,8.4 44.7,12.7  "/>
	<line class="st0" x1="44.7" y1="12.7" x2="38.4" y2="8.4"/>
	<line class="st0" x1="44.7" y1="10.9" x2="38.4" y2="6.7"/>
	<line class="st0" x1="12.8" y1="25.5" x2="38.4" y2="8.4"/>
	<line class="st0" x1="44.7" y1="17.3" x2="38.4" y2="13.1"/>
	<line class="st0" x1="44.7" y1="19.1" x2="38.4" y2="14.9"/>
	<line class="st0" x1="22.5" y1="25.5" x2="38.4" y2="14.9"/>
	<line class="st0" x1="22.5" y1="25.5" x2="22.5" y2="23.7"/>
	<polyline class="st0" points="22.5,25.5 38.4,14.9 44.7,19.1  "/>
	<polyline class="st0" points="44.7,17.3 38.4,13.1 22.5,23.7  "/>
	<line class="st0" x1="44.7" y1="12.7" x2="44.7" y2="10.9"/>
	<polygon class="st1" points="38.4,14.9 44.7,20.7 44.7,17.3 38.4,13.1 19,25.8 24,25.8  "/>
	<polygon class="st2" points="38.4,8.4 44.7,14.4 44.7,10.9 38.4,6.7 10,25.8 14.7,25.8  "/>
	<polygon class="st1" points="38.4,2 44.7,8.1 44.7,4.4 38.4,0.3 0.4,25.9 5.1,25.9  "/>
	<polygon class="st1" points="32.1,6.6 17.6,6.6 17.6,16.2 19.2,15.1 19.2,8.2 29.8,8.2  "/>
	<polygon class="st3" points="50.3,0 70.2,0 70.2,25.8 65.1,25.8 65.1,4.3 55.4,4.3 55.4,25.8 50.3,25.8  "/>
	<path class="st3" d="M75.3,25.8V0h8.1c3.1,0,5.1,0.1,6,0.3C90.8,0.8,92,1.6,93,2.9c1,1.3,1.5,3,1.5,5.1c0,1.6-0.3,2.9-0.8,4   c-0.5,1.1-1.3,1.9-2.2,2.6c-0.9,0.6-1.7,1-2.6,1.2c-1.2,0.2-3,0.3-5.2,0.3h-3.3v9.8H75.3L75.3,25.8z M80.4,4.3v7.4h2.7   c2,0,3.3-0.2,4-0.4c0.6-0.3,1.2-0.6,1.6-1.2s0.5-1.3,0.5-2c0-0.9-0.3-1.7-0.8-2.3c-0.5-0.6-1.2-1-2-1.1c-0.6-0.1-1.8-0.2-3.6-0.2   H80.4z"/>
	<path class="st3" d="M118.3,25.8h-5.4l-2.2-5.9h-10.1l-2,5.9h-5.3L103,0h5.3L118.3,25.8L118.3,25.8z M109.1,15.5L105.6,6l-3.4,9.6   H109.1z"/>
	<polygon class="st3" points="121.3,0 138.2,0 138.2,4.3 126.3,4.3 126.3,25.8 121.3,25.8  "/>
	<polygon class="st3" points="140.8,25.8 140.8,0 148.3,0 152.8,17.6 157.2,0 164.8,0 164.8,25.8 160.1,25.8 160.1,5.4 155.2,25.8    150.4,25.8 145.4,5.4 145.4,25.8  "/>
	<path class="st3" d="M192.4,25.8h-5.5l-2.2-5.9h-10l-2,5.9h-5.4L177.1,0h5.3L192.4,25.8L192.4,25.8z M183.2,15.5L179.7,6l-3.3,9.6   H183.2z"/>
	<path class="st3" d="M8.5,31l-2.2,0.4c-0.1-0.5-0.2-0.8-0.5-1s-0.6-0.3-1-0.3c-0.5,0-1,0.2-1.3,0.6c-0.3,0.4-0.5,1-0.5,1.9   c0,1,0.2,1.7,0.5,2.1c0.4,0.4,0.9,0.6,1.4,0.6c0.4,0,0.8-0.2,1-0.4s0.4-0.6,0.5-1.2l2.2,0.4c-0.2,1-0.6,1.8-1.3,2.3   c-0.6,0.5-1.5,0.8-2.6,0.8c-1.2,0-2.2-0.4-3-1.1c-0.7-0.8-1.1-1.8-1.1-3.2c0-1.3,0.4-2.4,1.1-3.2c0.8-0.8,1.7-1.1,3-1.1   c1,0,1.8,0.2,2.4,0.6C7.8,29.5,8.3,30.1,8.5,31z"/>
	<polygon class="st3" points="9.2,28.6 16.8,28.6 16.8,30.3 14.1,30.3 14.1,36.9 11.9,36.9 11.9,30.3 9.2,30.3  "/>
	<path class="st3" d="M18.1,28.6h2v1.2c0.3-0.4,0.6-0.8,1.1-1s1-0.4,1.5-0.4c1,0,1.8,0.4,2.5,1.1c0.7,0.8,1.1,1.8,1.1,3.2   c0,1.4-0.4,2.5-1.1,3.3c-0.6,0.8-1.5,1.1-2.5,1.1c-0.4,0-0.9-0.1-1.2-0.3c-0.4-0.2-0.8-0.5-1.2-0.9v4.1h-2.2V28.6L18.1,28.6z    M20.2,32.6c0,1,0.2,1.7,0.5,2.1c0.4,0.4,0.9,0.7,1.3,0.7c0.5,0,1-0.3,1.3-0.6c0.3-0.4,0.5-1.1,0.5-2c0-0.9-0.2-1.5-0.5-1.9   c-0.4-0.4-0.9-0.6-1.3-0.6c-0.5,0-1,0.2-1.3,0.6S20.2,31.8,20.2,32.6z"/>
	<path class="st3" d="M27.4,32.6c0-0.8,0.2-1.5,0.5-2.2c0.4-0.7,0.9-1.2,1.6-1.6c0.6-0.3,1.4-0.5,2.3-0.5c1.2,0,2.3,0.4,3.1,1.2   c0.8,0.8,1.2,1.8,1.2,3.1c0,1.2-0.4,2.3-1.2,3.1c-0.8,0.9-1.8,1.2-3.1,1.2c-0.8,0-1.5-0.2-2.2-0.5c-0.7-0.3-1.2-0.9-1.6-1.5   C27.6,34.4,27.4,33.6,27.4,32.6L27.4,32.6z M29.7,32.8c0,0.9,0.2,1.5,0.6,1.9c0.4,0.5,0.9,0.7,1.5,0.7c0.6,0,1-0.2,1.5-0.7   c0.4-0.4,0.6-1.1,0.6-1.9c0-0.8-0.2-1.5-0.6-1.9c-0.4-0.5-0.9-0.7-1.5-0.7c-0.6,0-1.1,0.2-1.5,0.7C29.9,31.3,29.7,31.9,29.7,32.8z"/>
	<polygon class="st3" points="37.7,28.6 39.9,28.6 39.9,33.8 43.3,28.6 45.4,28.6 45.4,36.9 43.3,36.9 43.3,31.6 39.9,36.9    37.7,36.9  "/>
	<polygon class="st3" points="46.7,28.6 54.3,28.6 54.3,30.3 51.6,30.3 51.6,36.9 49.4,36.9 49.4,30.3 46.7,30.3  "/>
	<path class="st3" d="M60.5,34.3l2.2,0.4c-0.3,0.8-0.8,1.5-1.3,1.9c-0.6,0.4-1.4,0.6-2.3,0.6c-1.5,0-2.5-0.5-3.2-1.5   c-0.6-0.8-0.9-1.7-0.9-2.8c0-1.4,0.4-2.5,1.1-3.3c0.8-0.8,1.7-1.2,2.8-1.2c1.2,0,2.2,0.4,2.9,1.2c0.8,0.8,1.1,2.1,1,3.8h-5.5   c0,0.6,0.2,1.1,0.5,1.5c0.4,0.4,0.8,0.5,1.3,0.5c0.3,0,0.6-0.1,0.9-0.3C60.2,35,60.3,34.7,60.5,34.3L60.5,34.3z M60.6,32   c-0.1-0.6-0.2-1.1-0.5-1.4s-0.8-0.5-1.2-0.5s-0.9,0.2-1.2,0.5s-0.5,0.9-0.5,1.4H60.6z"/>
	<path class="st3" d="M65.2,28.6h7.4v8.3h-2.2v-6.6h-3v3.8c0,1-0.1,1.6-0.3,2c-0.2,0.4-0.4,0.6-0.7,0.7c-0.3,0.2-0.8,0.2-1.3,0.2   c-0.3,0-0.8-0.1-1.4-0.2v-1.6c0.1,0,0.2,0.1,0.4,0.1c0.2,0,0.4,0,0.5,0c0.3,0,0.5-0.1,0.5-0.3c0.1-0.2,0.2-0.8,0.2-1.7V28.6z"/>
	<path class="st3" d="M74.8,28.6h2.2V32h2.3c0.9,0,1.6,0.1,2,0.3c0.5,0.1,0.9,0.3,1.2,0.8c0.3,0.4,0.5,0.9,0.5,1.5   c0,0.8-0.3,1.4-0.9,1.8c-0.5,0.4-1.4,0.6-2.5,0.6h-4.7V28.6L74.8,28.6z M77.1,35.5h2.1c0.6,0,1.1-0.1,1.3-0.3   c0.2-0.2,0.3-0.4,0.3-0.7c0-0.4-0.2-0.7-0.5-0.9c-0.3-0.2-0.9-0.2-1.7-0.2h-1.5V35.5z"/>
	<polygon class="st3" points="84.6,28.6 86.9,28.6 86.9,31.6 90.1,31.6 90.1,28.6 92.3,28.6 92.3,36.9 90.1,36.9 90.1,33.5    86.9,33.5 86.9,36.9 84.6,36.9  "/>
	<path class="st3" d="M96.2,31.1l-2-0.3c0.2-0.8,0.6-1.5,1.2-1.8c0.5-0.4,1.4-0.6,2.5-0.6c0.9,0,1.7,0.1,2.2,0.3   c0.5,0.2,0.9,0.5,1,0.9c0.2,0.4,0.3,1,0.3,2l-0.1,2.6c0,0.7,0.1,1.2,0.1,1.6c0.1,0.4,0.2,0.8,0.4,1.1h-2.3c0-0.1-0.1-0.4-0.2-0.6   c-0.1-0.1-0.1-0.2-0.1-0.3c-0.3,0.4-0.8,0.7-1.2,0.9c-0.4,0.2-0.9,0.3-1.3,0.3c-0.9,0-1.6-0.2-2-0.7c-0.5-0.4-0.8-1-0.8-1.8   c0-0.4,0.1-0.9,0.3-1.2c0.2-0.4,0.5-0.6,1-0.8c0.4-0.3,1-0.4,1.8-0.6c1-0.2,1.7-0.3,2.1-0.5v-0.2c0-0.4-0.1-0.7-0.3-0.9   c-0.2-0.2-0.6-0.3-1.2-0.3c-0.4,0-0.7,0.1-0.9,0.3C96.5,30.5,96.3,30.8,96.2,31.1L96.2,31.1z M99.1,32.9c-0.3,0.1-0.7,0.2-1.3,0.3   c-0.6,0.2-1.1,0.3-1.2,0.4c-0.3,0.2-0.4,0.4-0.4,0.8s0.1,0.6,0.3,0.8c0.3,0.2,0.5,0.3,0.9,0.3c0.4,0,0.8-0.2,1.1-0.4   c0.3-0.2,0.5-0.4,0.5-0.8c0.1-0.2,0.1-0.5,0.1-1V32.9z"/>
	<path class="st3" d="M110.7,28.6v8.3h-2.2v-3.4h-0.2c-0.5,0-0.9,0.1-1.1,0.2c-0.2,0.1-0.4,0.3-0.7,0.8l-0.2,0.2l-1.5,2.3h-2.6   l1.6-2.4c0.5-0.8,0.9-1.1,1.3-1.2c-0.6,0-1.1-0.3-1.6-0.7c-0.4-0.4-0.6-1-0.6-1.7c0-0.5,0.2-1,0.4-1.4c0.3-0.3,0.6-0.6,1-0.8   c0.5-0.1,1.1-0.2,1.9-0.2H110.7L110.7,28.6z M108.5,30h-1.6c-0.5,0-1,0.1-1.2,0.2c-0.3,0.2-0.4,0.4-0.4,0.9c0,0.4,0.2,0.6,0.4,0.8   c0.3,0.2,0.6,0.2,1.3,0.2h1.5V30z"/>
	<path class="st3" d="M117.2,28.6h2.3V32c0.3-0.1,0.6-0.2,0.8-0.4c0.2-0.2,0.4-0.5,0.6-1.2c0.3-0.8,0.6-1.3,0.9-1.6   c0.3-0.2,0.8-0.4,1.3-0.4c0.1,0,0.4,0.1,0.9,0.1v1.5c-0.6,0-1,0-1.1,0.1c-0.2,0.2-0.3,0.4-0.5,1c-0.3,0.8-0.6,1.2-1.1,1.4   c0.7,0.3,1.3,0.9,1.8,1.9c0.1,0.1,0.1,0.1,0.1,0.1l1.2,2.3h-2.4l-1.1-2.4c-0.2-0.5-0.4-0.8-0.6-1c-0.2-0.1-0.4-0.2-0.7-0.2v3.5   h-2.3V28.6z"/>
	<path class="st3" d="M124.7,32.6c0-0.8,0.2-1.5,0.5-2.2c0.4-0.7,0.9-1.2,1.6-1.6c0.6-0.3,1.4-0.5,2.3-0.5c1.2,0,2.3,0.4,3.1,1.2   c0.8,0.8,1.2,1.8,1.2,3.1c0,1.2-0.4,2.3-1.2,3.1c-0.9,0.9-1.9,1.2-3.1,1.2c-0.8,0-1.5-0.2-2.3-0.5c-0.6-0.3-1.2-0.9-1.6-1.5   C124.9,34.4,124.7,33.6,124.7,32.6L124.7,32.6z M127,32.8c0,0.9,0.2,1.5,0.6,1.9c0.3,0.5,0.9,0.7,1.5,0.7c0.5,0,1-0.2,1.4-0.7   c0.4-0.4,0.6-1.1,0.6-1.9c0-0.8-0.2-1.5-0.6-1.9c-0.4-0.5-0.9-0.7-1.4-0.7c-0.6,0-1.1,0.2-1.5,0.7C127.2,31.3,127,31.9,127,32.8z"/>
	<polygon class="st3" points="134.9,28.6 137.7,28.6 139.8,34.4 141.9,28.6 144.6,28.6 144.6,36.9 142.7,36.9 142.7,31.5    140.7,36.9 138.8,36.9 136.9,31.5 136.9,36.9 134.9,36.9  "/>
	<polygon class="st3" points="146.8,28.6 154.2,28.6 154.2,36.9 152,36.9 152,30.3 149,30.3 149,36.9 146.8,36.9  "/>
	<path class="st3" d="M158.3,31.1l-2-0.3c0.2-0.8,0.6-1.5,1.2-1.8s1.3-0.6,2.4-0.6c1,0,1.8,0.1,2.2,0.3c0.5,0.2,0.9,0.5,1,0.9   c0.2,0.4,0.3,1,0.3,2v2.6c0,0.7,0.1,1.2,0.1,1.6c0.1,0.4,0.2,0.8,0.4,1.1h-2.3c0-0.1-0.1-0.4-0.2-0.6c-0.1-0.1-0.1-0.2-0.1-0.3   c-0.4,0.4-0.8,0.7-1.2,0.9c-0.4,0.2-0.9,0.3-1.3,0.3c-0.9,0-1.6-0.2-2-0.7c-0.5-0.4-0.8-1-0.8-1.8c0-0.4,0.1-0.9,0.3-1.2   c0.2-0.4,0.5-0.6,1-0.8c0.4-0.3,1-0.4,1.8-0.6c1-0.2,1.7-0.3,2.1-0.5v-0.2c0-0.4-0.1-0.7-0.3-0.9c-0.2-0.2-0.6-0.3-1.2-0.3   c-0.4,0-0.7,0.1-0.9,0.3C158.5,30.5,158.4,30.8,158.3,31.1L158.3,31.1z M161.2,32.9c-0.3,0.1-0.7,0.2-1.3,0.3   c-0.6,0.2-1,0.3-1.2,0.4c-0.3,0.2-0.4,0.4-0.4,0.8s0.1,0.6,0.3,0.8c0.3,0.2,0.5,0.3,0.9,0.3c0.4,0,0.8-0.2,1.2-0.4   c0.3-0.2,0.4-0.4,0.5-0.8c0.1-0.2,0.1-0.5,0.1-1V32.9z"/>
	<polygon class="st3" points="165.5,28.6 167.7,28.6 167.7,31.6 170.8,31.6 170.8,28.6 173.1,28.6 173.1,36.9 170.8,36.9    170.8,33.5 167.7,33.5 167.7,36.9 165.5,36.9  "/>
	<polygon class="st3" points="175.3,28.6 177.4,28.6 177.4,33.8 180.7,28.6 182.9,28.6 182.9,36.9 180.8,36.9 180.8,31.6    177.4,36.9 175.3,36.9  "/>
	<path class="st3" d="M192.4,28.6v8.3h-2.2v-3.4H190c-0.5,0-0.9,0.1-1.1,0.2c-0.2,0.1-0.4,0.3-0.8,0.8l-0.1,0.2l-1.5,2.3H184   l1.6-2.4c0.5-0.8,0.9-1.1,1.2-1.2c-0.6,0-1.1-0.3-1.5-0.7c-0.4-0.4-0.6-1-0.6-1.7c0-0.5,0.2-1,0.4-1.4c0.2-0.3,0.6-0.6,1-0.8   c0.5-0.1,1.1-0.2,1.9-0.2H192.4L192.4,28.6z M190.2,30h-1.6c-0.6,0-1,0.1-1.2,0.2c-0.2,0.2-0.3,0.4-0.3,0.9c0,0.4,0.2,0.6,0.4,0.8   c0.3,0.2,0.7,0.2,1.3,0.2h1.5V30z"/>
	<rect x="5.1" y="24.7" class="st1" width="18.8" height="1.1"/>
</g>
<g>
</g>
<g>
</g>
<g>
</g>
<g>
</g>
<g>
</g>
<g>
</g>
<g>
</g>
<g>
</g>
<g>
</g>
<g>
</g>
<g>
</g>
<g>
</g>
<g>
</g>
<g>
</g>
<g>
</g>
</svg>