<?xml version="1.0" encoding="UTF-8"?>
<!DOCTYPE svg PUBLIC "-//W3C//DTD SVG 1.1//EN" "http://www.w3.org/Graphics/SVG/1.1/DTD/svg11.dtd">
<!-- Creator: CorelDRAW -->
<svg xmlns="http://www.w3.org/2000/svg" xml:space="preserve" width="160px" height="160px" version="1.1" style="shape-rendering:geometricPrecision; text-rendering:geometricPrecision; image-rendering:optimizeQuality; fill-rule:evenodd; clip-rule:evenodd"
viewBox="0 0 26.9 26.9"
 xmlns:xlink="http://www.w3.org/1999/xlink"
 xmlns:xodm="http://www.corel.com/coreldraw/odm/2003">
 <defs>
  <style type="text/css">
   <![CDATA[
    .fil0 {fill:#F18D16}
    .fil1 {fill:#FEFEFE;fill-rule:nonzero}
   ]]>
  </style>
 </defs>
 <g id="Слой_x0020_1">
  <metadata id="CorelCorpID_0Corel-Layer"/>
  <rect class="fil0" width="26.9" height="26.9"/>
  <g id="_2892743446144">
   <path class="fil1" d="M17.5 14.04c-0.01,-0.04 -0.02,-0.08 -0.02,-0.13 0,-0.01 0,-0.02 0,-0.04 0,-0.01 -0.01,-0.02 -0.02,-0.01 0,0 0,0 0,0 -0.1,0.12 -0.18,0.16 -0.22,0.15 -0.03,0 -0.05,-0.03 -0.05,-0.04 -0.01,-0.02 -0.05,-0.1 -0.03,-0.34 0.01,-0.15 0.04,-0.34 0.09,-0.57 0.02,-0.1 0.05,-0.2 0.07,-0.3 0.01,-0.05 0.03,-0.1 0.04,-0.15 0.03,-0.1 0.05,-0.19 0.08,-0.28 0.03,-0.11 -0.03,-0.23 -0.14,-0.26 -0.12,-0.04 -0.23,0.03 -0.27,0.14 0,0.01 -0.06,0.19 -0.12,0.45 -0.09,0.29 -0.18,0.6 -0.29,0.86 -0.17,0.43 -0.31,0.5 -0.34,0.51 -0.09,0.02 -0.11,-0.01 -0.12,-0.02 -0.02,-0.03 -0.02,-0.09 -0.01,-0.11 0.1,-0.05 0.14,-0.17 0.09,-0.28 -0.05,-0.1 -0.18,-0.15 -0.29,-0.1 -0.09,0.05 -0.16,0.12 -0.2,0.22 -0.03,0.1 -0.09,0.4 0.15,0.61 0.03,0.02 0.05,0.04 0.08,0.05 0.06,0.03 0.13,0.06 0.24,0.06 0.05,0 0.11,-0.01 0.17,-0.02 0.14,-0.04 0.27,-0.14 0.4,-0.31 0,0.01 0.01,0.02 0.01,0.03 0.07,0.15 0.22,0.25 0.38,0.27 0.02,0.01 0.04,0.01 0.07,0.01 0.09,0 0.2,-0.03 0.33,-0.11 0.01,-0.01 0.02,-0.04 0.01,-0.05 -0.05,-0.08 -0.08,-0.17 -0.09,-0.24z"/>
   <path class="fil1" d="M24.15 13.26c-0.09,-0.06 -0.23,-0.04 -0.29,0.05 -0.14,0.2 -0.42,0.55 -0.7,0.65 -0.09,0.03 -0.18,0.03 -0.23,-0.01 -0.11,-0.07 -0.15,-0.28 -0.15,-0.37 0.01,-0.3 0.12,-0.65 0.31,-0.92 0.1,-0.15 0.21,-0.23 0.29,-0.23 0,0 0,0 0,0 0.06,0 0.11,0.04 0.11,0.05 0.05,0.06 0.04,0.11 0,0.23 -0.02,0.1 -0.07,0.2 -0.14,0.29 0,0.01 0,0.01 0,0.02 0,0 0,0.01 0.01,0.01 0.02,0 0.04,0 0.06,0.01 0.04,0.01 0.08,0.04 0.1,0.06 0.02,0.02 0.04,0.04 0.05,0.06 0,0 0,0 0,0.01 0,0 0,0 0,0 0.01,0.01 0.01,0.02 0.01,0.02 0.01,0.01 0,0.02 0,0.02 -0.01,0.01 -0.02,0 -0.02,0 0,0 -0.01,-0.01 -0.02,-0.03 -0.01,-0.01 -0.02,-0.03 -0.05,-0.05 -0.02,-0.02 -0.05,-0.04 -0.09,-0.04 -0.01,-0.01 -0.03,-0.01 -0.05,0 -0.02,0 -0.03,0 -0.05,0.01 0,0 0,0 0,0 -0.01,0.01 -0.02,0.02 -0.04,0.04 0,0 0,0 0,0 0,0 -0.02,0.02 -0.03,0.06 -0.02,0.08 0.01,0.16 0.07,0.21 0.09,0.08 0.23,0.06 0.3,-0.03 0.14,-0.17 0.25,-0.36 0.3,-0.54 0.04,-0.14 0.11,-0.36 -0.06,-0.61 -0.07,-0.1 -0.24,-0.23 -0.46,-0.23l0 0c-0.11,0 -0.22,0.04 -0.33,0.11 -0.11,0.07 -0.22,0.17 -0.31,0.31 -0.12,0.17 -0.21,0.37 -0.28,0.57 -0.01,0.01 -0.01,0.03 -0.02,0.05 0,0.01 0,0.01 0,0.02 -0.03,0.12 -0.16,0.76 0.09,1.09l0 0c0.05,0.07 0.1,0.12 0.17,0.16 0.09,0.06 0.19,0.09 0.31,0.09 0.01,0 0.02,0.01 0.03,0.01 0.08,0 0.17,-0.02 0.26,-0.05 0.13,-0.05 0.27,-0.13 0.41,-0.24 0.16,-0.14 0.33,-0.33 0.49,-0.56 0.07,-0.1 0.05,-0.23 -0.05,-0.3z"/>
   <path class="fil1" d="M15.56 14.05c-0.01,-0.03 -0.02,-0.08 -0.02,-0.14l0 0c0,-0.02 -0.03,-0.03 -0.05,-0.02 -0.13,0.08 -0.25,0.13 -0.34,0.15 -0.06,0.01 -0.14,0.02 -0.19,-0.01 -0.03,-0.03 -0.06,-0.08 -0.07,-0.15 -0.03,-0.09 -0.04,-0.21 -0.02,-0.36 0.03,-0.2 0.09,-0.38 0.09,-0.38 0,0 0,0 0,-0.01 0.04,-0.12 0.09,-0.23 0.16,-0.34 0.05,-0.09 0.12,-0.21 0.22,-0.27 0.04,-0.02 0.09,-0.04 0.14,-0.04 0.02,0 0.05,0.01 0.07,0.02 0.03,0.01 0.06,0.04 0.07,0.07 0.03,0.11 0,0.23 -0.26,0.41 -0.1,0.07 -0.21,0.14 -0.33,0.2 -0.02,0.01 -0.03,0.03 -0.04,0.05 -0.02,0.07 -0.05,0.18 -0.06,0.29 -0.01,0.07 -0.01,0.13 -0.01,0.18 0,0.01 0.01,0.02 0.02,0.01 0.05,-0.02 0.13,-0.07 0.17,-0.09 0.16,-0.09 0.34,-0.18 0.5,-0.3 0.1,-0.07 0.23,-0.17 0.33,-0.31 0.05,-0.08 0.08,-0.16 0.1,-0.25 0.02,-0.1 0.02,-0.2 -0.01,-0.3 -0.05,-0.17 -0.16,-0.3 -0.33,-0.36 -0.18,-0.07 -0.41,-0.05 -0.59,0.06 -0.17,0.11 -0.29,0.29 -0.36,0.42 -0.1,0.16 -0.17,0.34 -0.23,0.53 -0.01,0.05 -0.03,0.13 -0.05,0.24 0,0 0,0.01 0,0.02 0,0 0,0 0,0.01 -0.01,0.05 -0.02,0.11 -0.02,0.17 0,0 0,0 0,0 -0.01,0.06 -0.01,0.13 0,0.21 0.01,0.24 0.08,0.42 0.21,0.56 0,0 0,0 0,0 0.02,0.02 0.03,0.04 0.06,0.05 0.07,0.05 0.15,0.09 0.24,0.1 0.03,0 0.06,0.01 0.09,0.01 0.06,0 0.13,-0.01 0.19,-0.03 0.11,-0.02 0.24,-0.07 0.37,-0.14 0.02,-0.01 0.03,-0.04 0.02,-0.06 -0.04,-0.07 -0.06,-0.13 -0.07,-0.2z"/>
   <path class="fil1" d="M24.12 14.71c-0.05,-0.04 -0.12,-0.03 -0.12,-0.03 0,0 0,0 0,0 -0.02,0 -0.04,0 -0.05,0.01 0,0 0,0 0,0 -0.02,0.01 -0.03,0.02 -0.04,0.03 -0.02,0.01 -0.03,0.03 -0.03,0.04 -0.02,0.04 -0.02,0.08 -0.02,0.1 0,0.03 0.01,0.05 0.02,0.07 0,0.02 0.01,0.03 0.01,0.03 0,0.01 0,0.01 -0.01,0.02 0,0 0,0 -0.01,0 0,0 -0.01,0 -0.01,-0.01 0,0 0,-0.01 -0.01,-0.02 0,0 0,-0.01 0,-0.01 0,0 -0.01,0 -0.01,0 0,-0.02 -0.02,-0.04 -0.02,-0.08 0,-0.02 -0.01,-0.07 0.01,-0.12 0,-0.01 0.01,-0.01 0.01,-0.02l0 0c0,-0.01 0,-0.02 0,-0.02 -0.01,-0.01 -0.01,-0.01 -0.02,-0.01 -0.46,0.12 -0.94,0.22 -1.58,0.32 -1.7,0.27 -4.46,0.29 -6.28,0.04 -0.44,-0.06 -2.57,-0.3 -3.69,-0.35 -0.48,-0.01 -1.03,0.05 -1.51,0.13 -0.02,0.12 -0.05,0.28 -0.08,0.44 0.49,-0.08 1.08,-0.16 1.57,-0.14 1.05,0.04 3.13,0.27 3.65,0.34 0.88,0.12 1.76,0.18 2.62,0.18 0.95,0 2.87,-0.07 3.78,-0.22 0.5,-0.07 1.09,-0.18 1.74,-0.35 0.11,-0.03 0.18,-0.15 0.15,-0.26 -0.01,-0.05 -0.04,-0.08 -0.07,-0.11z"/>
   <path class="fil1" d="M4.29 13.88c0,0 0,0 0,0 0,0 0.01,0 0.01,0 0,0 0,0 -0.01,0zm5.28 1c-0.03,-0.14 -0.13,-0.25 -0.28,-0.3 0,0 -0.01,-0.01 -0.01,-0.01 -0.02,0 -0.09,-0.02 -0.18,-0.02 -0.15,0.01 -0.27,0.08 -0.34,0.2 -0.07,0.12 -0.08,0.27 -0.03,0.42 0.01,0.01 0.01,0.02 0.02,0.04 0.04,-0.01 0.09,-0.02 0.13,-0.03 0.1,-0.04 0.18,-0.08 0.24,-0.13 -0.03,-0.03 -0.04,-0.07 -0.03,-0.09 0,-0.02 0.01,-0.04 0.03,-0.05 0.01,0 0.03,0 0.05,0 0.01,0.01 0.05,0.04 0.02,0.1 -0.01,0.02 -0.02,0.04 -0.04,0.06 0,0 0,0 0,0l0 0c0,0 0,0 -0.01,0 0,0 0,0 0,0 0,0 0,0.01 0,0.01 -0.04,0.04 -0.17,0.15 -0.35,0.2 0,0 0,0 0,0 -0.12,0.03 -0.24,0.03 -0.37,0 -0.16,-0.03 -0.32,-0.12 -0.44,-0.25 -0.16,-0.15 -0.27,-0.35 -0.35,-0.59 -0.12,-0.4 -0.11,-0.86 -0.04,-1.26 0,-0.03 0,-0.06 0.01,-0.09l0 0 0 0c0,0 0,0.01 0,0.01 0,0 0,-0.01 0.01,-0.03 0.03,-0.15 0.09,-0.35 0.1,-0.4 0.07,-0.22 0.15,-0.47 0.2,-0.55 0.01,-0.01 0.02,-0.01 0.04,-0.01 0,0 0,0 0,0 0.01,0.01 0.01,0.02 0.01,0.03 -0.01,0.09 -0.1,0.32 -0.19,0.53 0,0 0,0.01 0,0.01 0,0.01 0.02,0.02 0.03,0.02 0.01,0 0.02,0 0.02,-0.01 0.05,-0.08 0.1,-0.18 0.15,-0.28 0.3,-0.55 0.36,-0.73 0.38,-0.81 0.02,-0.07 0.03,-0.13 0.01,-0.19 -0.01,-0.08 -0.06,-0.15 -0.13,-0.2 -0.08,-0.06 -0.17,-0.08 -0.27,-0.06 -0.1,0.03 -0.18,0.09 -0.24,0.18 -0.08,0.14 -0.3,0.62 -0.46,1.23 -0.04,0.13 -0.07,0.27 -0.09,0.4 -0.15,0.26 -0.34,0.53 -0.51,0.75 0,-0.06 -0.01,-0.13 -0.02,-0.2 0,-0.09 -0.01,-0.17 -0.02,-0.25 -0.01,-0.08 -0.01,-0.16 -0.02,-0.25 -0.01,-0.1 -0.01,-0.21 -0.02,-0.32 0,-0.01 0,-0.03 0,-0.12 -0.01,-0.08 -0.01,-0.17 -0.01,-0.26 0,-0.18 0,-0.39 0.01,-0.43 0.01,-0.02 0.02,-0.02 0.03,-0.02 0.01,0 0.01,0.01 0.02,0.02 0.01,0.04 0,0.26 -0.01,0.46 0,0 0,0 0,0.01 0,0.01 0.01,0.01 0.02,0.01 0.01,0 0.01,-0.01 0.01,-0.01 0.07,-0.35 0.1,-0.59 0.1,-0.59 0,0 0,-0.01 0,-0.01 0,-0.08 0.01,-0.22 -0.07,-0.33 -0.06,-0.08 -0.15,-0.13 -0.25,-0.13 -0.1,0 -0.19,0.05 -0.24,0.13 -0.09,0.13 -0.09,0.32 -0.09,0.38 0,0.1 0.01,0.2 0.01,0.31 0,0.15 0.01,0.3 0.02,0.44 0,0.02 0,0.04 0,0.06 -0.06,0.2 -0.13,0.42 -0.22,0.63 -0.18,0.43 -0.4,0.77 -0.66,1.01 -0.15,0.14 -0.31,0.25 -0.49,0.33 -0.18,0.08 -0.39,0.12 -0.61,0.13 -0.24,0.01 -0.45,-0.05 -0.63,-0.16 -0.18,-0.11 -0.31,-0.27 -0.37,-0.48 -0.06,-0.19 -0.06,-0.39 -0.01,-0.57 0.05,-0.19 0.16,-0.35 0.31,-0.45 0.12,-0.1 0.28,-0.15 0.45,-0.17 0.16,-0.02 0.32,0.02 0.45,0.09 0.17,0.1 0.26,0.26 0.25,0.46 -0.01,0.09 -0.04,0.18 -0.09,0.26 -0.03,0.05 -0.08,0.1 -0.12,0.13 -0.01,0.01 -0.01,0.01 -0.01,0.01 0,0.01 0,0.01 0,0.02l0 0c0,0 0,0 0,0 0.03,0.03 0.05,0.07 0.06,0.11 0,0.03 0,0.06 -0.01,0.09 0,0.03 -0.01,0.04 -0.01,0.04 0,0 -0.01,0.01 -0.01,0.01 -0.01,0 -0.01,0 -0.01,-0.01 -0.01,0 -0.01,-0.01 -0.01,-0.01 0,0 0.01,-0.01 0.01,-0.03 0,-0.02 0.01,-0.05 0,-0.08 -0.01,-0.03 -0.03,-0.06 -0.05,-0.08 0,-0.01 -0.01,-0.01 -0.01,-0.01 -0.04,-0.04 -0.12,-0.05 -0.19,-0.03 0,0 -0.01,0 -0.02,0.01 -0.11,0.06 -0.15,0.2 -0.09,0.3 0.06,0.12 0.18,0.17 0.31,0.16 0.06,0 0.11,-0.03 0.13,-0.03 0.17,-0.08 0.31,-0.2 0.41,-0.35 0.09,-0.15 0.15,-0.32 0.16,-0.49 0.01,-0.36 -0.16,-0.69 -0.48,-0.87 -0.2,-0.12 -0.45,-0.17 -0.72,-0.15 -0.24,0.03 -0.48,0.11 -0.67,0.25 -0.23,0.17 -0.39,0.41 -0.47,0.69 -0.08,0.27 -0.07,0.56 0.01,0.83 0.09,0.31 0.29,0.57 0.57,0.74 0.24,0.15 0.55,0.23 0.87,0.22 0.53,-0.01 1.01,-0.21 1.4,-0.58 0.25,-0.24 0.47,-0.54 0.65,-0.91 0.02,0.2 0.03,0.39 0.04,0.59 0,0.01 0,0.02 0,0.02 0.01,0.11 0.02,0.32 0,0.48 0,0.05 -0.01,0.11 -0.02,0.16 -0.01,0.06 -0.03,0.09 -0.05,0.09l0 0c0,0 -0.01,0 -0.01,-0.01 -0.02,-0.02 -0.01,-0.11 0.01,-0.22 0,-0.01 0,-0.03 0,-0.04 0.01,-0.09 0.03,-0.21 0.04,-0.33 0,0 0,0 0,0 0,-0.01 -0.01,-0.02 -0.02,-0.01 0,0 0,0 0,0 -0.06,0.11 -0.11,0.23 -0.15,0.34 -0.03,0.09 -0.06,0.18 -0.07,0.26 -0.02,0.1 -0.02,0.19 0,0.27 0.03,0.11 0.09,0.16 0.14,0.19 0.1,0.06 0.22,0.06 0.31,0.01 0.1,-0.05 0.17,-0.15 0.21,-0.29 0.04,-0.12 0.05,-0.23 0.05,-0.27 0.02,-0.16 0.02,-0.33 0.02,-0.5 0.05,-0.08 0.14,-0.19 0.23,-0.32 0.05,-0.06 0.1,-0.13 0.15,-0.2 0.01,0.24 0.05,0.47 0.11,0.68 0.1,0.32 0.26,0.58 0.46,0.78 0.19,0.19 0.42,0.31 0.66,0.37 0.09,0.02 0.19,0.03 0.28,0.03 0.11,0 0.21,-0.01 0.31,-0.04 0.2,-0.06 0.37,-0.16 0.5,-0.3 0.06,-0.07 0.11,-0.15 0.14,-0.23 0.04,-0.1 0.04,-0.2 0.02,-0.3z"/>
   <path class="fil1" d="M9.7 14.98c0,0.13 -0.04,0.31 -0.19,0.47 0.04,0 0.08,-0.01 0.13,-0.02 0.05,-0.01 0.14,-0.03 0.22,-0.05l0.07 -0.45c-0.07,0.01 -0.16,0.03 -0.23,0.05z"/>
   <path class="fil1" d="M10.86 13.6l0.03 -0.16c0,-0.01 0,-0.02 0,-0.03 0.03,-0.13 0.11,-0.37 0.23,-0.58 0.13,-0.24 0.25,-0.33 0.31,-0.35 0.05,-0.01 0.11,-0.02 0.15,0.02 0.08,0.08 0.08,0.25 0.04,0.44 -0.05,0.26 -0.15,0.55 -0.27,0.75 -0.07,0.1 -0.13,0.18 -0.2,0.23 -0.07,0.06 -0.12,0.05 -0.14,0.05 -0.02,-0.01 -0.07,-0.02 -0.1,-0.07 -0.05,-0.06 -0.07,-0.17 -0.05,-0.3zm0.94 0.15c0,0 0,0 -0.01,0 0.11,-0.22 0.2,-0.48 0.25,-0.73 0.03,-0.14 0.04,-0.28 0.02,-0.41 -0.02,-0.17 -0.08,-0.31 -0.18,-0.41 -0.09,-0.09 -0.26,-0.19 -0.53,-0.13 -0.04,0 -0.07,0.01 -0.1,0.03 -0.08,0.03 -0.13,0.07 -0.16,0.14 0,0.04 -0.02,0.05 -0.03,0.05 0,0 -0.01,0 -0.01,0 -0.01,0 -0.01,0 -0.02,-0.01 -0.01,-0.01 -0.01,-0.03 0,-0.05 0.02,-0.02 0.04,-0.05 0.05,-0.07 0.01,-0.01 0.01,-0.01 0,-0.02 -0.02,-0.06 -0.08,-0.1 -0.15,-0.11 -0.11,-0.02 -0.22,0.05 -0.25,0.17l-0.03 0.16 0 0 -0.58 3.12c-0.02,0.12 0.06,0.23 0.17,0.25 0.02,0 0.03,0.01 0.04,0.01 0.1,0 0.19,-0.08 0.21,-0.18l0.24 -1.25c0.02,0.01 0.05,0.03 0.08,0.04 0.01,0 0.01,0 0.01,0 0.05,0.03 0.11,0.05 0.17,0.06 0.39,0.04 0.67,-0.39 0.81,-0.66z"/>
   <path class="fil1" d="M19.79 13.64c0,-0.01 -0.01,-0.01 -0.02,0l0 0c-0.12,0.2 -0.26,0.33 -0.39,0.37 -0.05,0.01 -0.1,0.01 -0.14,-0.01 -0.04,-0.02 -0.08,-0.06 -0.09,-0.12 -0.08,-0.22 -0.01,-0.52 0.05,-0.79 0.01,-0.04 0.02,-0.08 0.03,-0.12 0.02,-0.07 0.04,-0.14 0.05,-0.21 0.02,-0.05 0.03,-0.1 0.04,-0.15 0.03,-0.1 0.06,-0.19 0.08,-0.28 0.03,-0.11 -0.03,-0.23 -0.14,-0.26 -0.11,-0.04 -0.23,0.03 -0.27,0.14 -0.04,0.14 -0.08,0.29 -0.12,0.45 -0.08,0.29 -0.17,0.6 -0.28,0.86 -0.18,0.43 -0.31,0.5 -0.35,0.51 -0.09,0.02 -0.11,-0.01 -0.11,-0.02 -0.03,-0.03 -0.03,-0.09 -0.02,-0.11 0.1,-0.05 0.14,-0.17 0.09,-0.28 -0.05,-0.1 -0.18,-0.15 -0.28,-0.1 -0.1,0.05 -0.17,0.12 -0.2,0.22 0,0 -0.01,0 -0.01,0.01 0,0 0,0 0,0.01 -0.03,0.1 -0.08,0.37 0.13,0.57 0.01,0 0.01,0.01 0.01,0.01 0.01,0 0.01,0.01 0.01,0.01 0.03,0.02 0.05,0.04 0.08,0.05 0.06,0.03 0.14,0.06 0.24,0.06 0.05,0 0.11,-0.01 0.17,-0.02 0.16,-0.04 0.29,-0.16 0.42,-0.35 0.11,0.22 0.31,0.35 0.55,0.35 0.06,0 0.12,0 0.18,-0.02 0.13,-0.04 0.25,-0.11 0.37,-0.22 0.01,-0.01 0.01,-0.03 0.01,-0.05 -0.06,-0.12 -0.09,-0.29 -0.09,-0.51z"/>
   <path class="fil1" d="M22.17 13.48c0,-0.02 -0.03,-0.02 -0.04,-0.01 0,0 0,0.01 0,0.01 -0.02,0.05 -0.04,0.11 -0.06,0.16 -0.02,0.04 -0.04,0.09 -0.06,0.13 -0.01,0.01 -0.01,0.02 -0.02,0.03 -0.08,0.15 -0.13,0.19 -0.15,0.2 -0.01,0 -0.03,0.01 -0.06,-0.01 -0.01,0 -0.05,-0.05 -0.06,-0.2 -0.01,-0.15 0,-0.35 0.05,-0.6 0.01,-0.09 0.03,-0.17 0.05,-0.26 0.06,-0.2 0.12,-0.41 0.16,-0.62 0.03,-0.12 -0.04,-0.23 -0.15,-0.26 -0.11,-0.03 -0.22,0.04 -0.26,0.14 0,0.02 -0.09,0.29 -0.17,0.63 -0.08,0.27 -0.18,0.5 -0.28,0.7 -0.17,0.32 -0.35,0.5 -0.5,0.5 -0.01,0 -0.02,0 -0.03,-0.01 -0.06,-0.01 -0.1,-0.03 -0.12,-0.08 -0.03,-0.05 -0.06,-0.15 -0.05,-0.35 0,0 0,0 0,0 0,-0.02 0.01,-0.06 0.01,-0.12 0.01,-0.03 0.01,-0.06 0.02,-0.1 0.02,-0.13 0.05,-0.33 0.12,-0.58 0,-0.03 0.02,-0.05 0.03,-0.06 0.01,0 0.02,0 0.03,0 0.02,0.01 0.03,0.03 0.02,0.05 -0.01,0.02 -0.01,0.04 -0.02,0.06 -0.02,0.03 -0.03,0.06 -0.04,0.1 -0.05,0.16 -0.08,0.3 -0.1,0.41 0,0 0,0 0,0 0,0.02 0.01,0.03 0.02,0.02 0.01,0 0.02,0 0.02,-0.01 0.04,-0.09 0.09,-0.19 0.13,-0.29 0.08,-0.18 0.14,-0.33 0.17,-0.45 0.05,-0.15 0.08,-0.33 -0.01,-0.45 -0.05,-0.08 -0.15,-0.13 -0.25,-0.11 -0.04,0 -0.12,0.02 -0.18,0.11 0,0.01 0,0.01 0,0.01 -0.01,0.01 -0.02,0.03 -0.03,0.05 -0.06,0.1 -0.15,0.32 -0.27,0.77 -0.01,0.05 -0.02,0.11 -0.04,0.16 0,0 0,0 0,0l0 0c0,0.04 -0.01,0.08 -0.02,0.11 -0.01,0.06 -0.02,0.12 -0.02,0.17 -0.01,0.06 -0.01,0.12 -0.01,0.18 -0.01,0.16 0.01,0.3 0.05,0.41 0.01,0.04 0.02,0.07 0.04,0.11 0.09,0.16 0.24,0.27 0.42,0.3 0.04,0.01 0.07,0.01 0.11,0.01 0.13,0 0.3,-0.04 0.48,-0.19 0.07,-0.07 0.15,-0.15 0.22,-0.25 0.01,0.05 0.03,0.09 0.05,0.14 0.06,0.14 0.16,0.21 0.24,0.25 0.13,0.05 0.27,0.06 0.4,0 0.09,-0.04 0.18,-0.12 0.26,-0.22 0.01,-0.02 0.02,-0.05 0,-0.08 -0.09,-0.18 -0.11,-0.41 -0.1,-0.61z"/>
   <path class="fil1" d="M9.36 12.91c-0.01,0.04 -0.02,0.08 -0.04,0.12 -0.17,0.55 -0.35,0.79 -0.48,0.89 -0.1,0.08 -0.17,0.07 -0.18,0.07 0,0 0,0 0,0 -0.05,-0.01 -0.08,-0.06 -0.11,-0.14 -0.04,-0.14 -0.03,-0.35 0.03,-0.57 0.07,-0.23 0.18,-0.44 0.32,-0.59 0.15,-0.15 0.28,-0.21 0.36,-0.18 0.02,0.01 0.03,0.02 0.04,0.02 0.03,0.03 0.05,0.07 0.06,0.11 0.01,0.04 0.01,0.09 0.01,0.13 0,0.05 -0.01,0.09 -0.01,0.14zm0.63 1.02c-0.06,0.06 -0.11,0.07 -0.14,0.07 -0.03,0 -0.07,-0.01 -0.11,-0.06 -0.03,-0.05 -0.09,-0.17 -0.05,-0.47 0.05,-0.32 0.15,-0.7 0.21,-0.94l0.06 -0.21c0,0 0,0 0,0 0,0 0,-0.01 0,-0.01 0,0 0,0 0,0 0,-0.01 0,-0.01 0,-0.01 0,0 0,0 0,0 0,-0.01 0,-0.01 0,-0.01 0,0 0,0 0,0 0,-0.01 0,-0.01 0,-0.01 0,0 0,0 0,-0.01 0,0 0,0 0,0 0,0 0,0 0,-0.01 0,0 0,0 0,0 0,0 0,0 0,-0.01 0,0 0,0 0,0 0,0 0,-0.01 0,-0.01 0,0 0,0 0,0 0,0 0,-0.01 0,-0.01 0,0 0,0 0,0 0,0 0,-0.01 0,-0.01 0,0 0,0 0,0 0,0 0,-0.01 0,-0.01 0,0 0,0 -0.01,0 0,0 0,-0.01 0,-0.01 0,0 0,0 0,0 0,0 0,-0.01 0,-0.01 0,0 0,0 0,0 0,0 0,-0.01 0,-0.01 0,0 0,0 -0.01,0 0,0 0,0 0,-0.01 0,0 0,0 0,0 0,0 0,0 0,-0.01 0,0 0,0 0,0 -0.01,0 -0.01,0 -0.01,0 0,-0.01 0,-0.01 0,-0.01 0,0 0,0 0,0 0,0 0,-0.01 -0.01,-0.01 0,0 0,0 0,0 0,0 0,0 0,-0.01 0,0 0,0 0,0 -0.01,0 -0.01,0 -0.01,0 0,0 0,-0.01 0,-0.01 0,0 0,0 -0.01,0 0,0 0,0 0,0 0,-0.01 0,-0.01 0,-0.01 0,0 0,0 -0.01,0 0,0 0,0 0,-0.01 0,0 0,0 0,0 -0.01,0 -0.01,0 -0.01,0 0,0 0,0 0,0 0,-0.01 0,-0.01 -0.01,-0.01 0,0 0,0 0,0 0,0 0,0 0,0 -0.01,0 -0.01,-0.01 -0.01,-0.01 0,0 0,0 0,0 -0.01,0 -0.01,0 -0.01,0 0,0 0,0 0,0 0,-0.01 -0.01,-0.01 -0.01,-0.01 0,0 0,0 0,0 0,0 -0.01,0 -0.01,0 0,0 0,0 0,0 0,0 -0.01,0 -0.01,0 0,-0.01 0,-0.01 0,-0.01 0,0 -0.01,0 -0.01,0 0,0 0,0 0,0 0,0 0,0 0,0 0,0 0,0 0,0 -0.01,0 -0.01,0 -0.01,0 0,0 0,0 0,0 -0.01,0 -0.01,0 -0.01,0 0,0 0,0 0,0 -0.01,0 -0.01,-0.01 -0.01,-0.01 0,0 0,0 0,0 -0.01,0 -0.01,0 -0.01,0 0,0 0,0 0,0 -0.01,0 -0.01,0 -0.01,0 0,0 0,0 -0.01,0 0,0 0,0 -0.01,0 0,0 0,0 0,0 0,0 0,0 -0.01,0 0,0 0,0 0,0 0,0 0,0 -0.01,0 0,0 0,0 0,0 0,0 0,0 -0.01,0.01 0,0 0,0 0,0 0,0 0,0 -0.01,0 0,0 0,0 0,0 0,0 0,0 -0.01,0 0,0 0,0 0,0 0,0 0,0 -0.01,0 0,0 0,0 0,0 0,0 0,0.01 0,0.01 -0.01,0 -0.01,0 -0.01,0 0,0 0,0 0,0 -0.01,0 -0.01,0 -0.01,0 0,0 0,0 0,0 0,0 -0.01,0 -0.01,0.01 0,0 0,0 0,0 0,0 0,0 -0.01,0 0,0 0,0 0,0 0,0 0,0 0,0.01 -0.01,0 -0.01,0 -0.01,0 0,0 0,0 0,0 0,0 -0.01,0 -0.01,0 0,0.01 0,0.01 0,0.01 0,0 0,0 0,0 -0.01,0 -0.01,0 -0.01,0 0,0 0,0.01 0,0.01 0,0 0,0 -0.01,0 0,0 0,0 0,0 0,0.01 0,0.01 0,0.01 0,0 -0.01,0 -0.01,0 0,0 0,0 0,0 0,0.01 0,0.01 -0.01,0.01 0,0 0,0 0,0 0,0.01 0,0.01 0,0.01 0,0 0,0 0,0 -0.01,0 -0.01,0.01 -0.01,0.01 0,0 0,0 0,0 0,0 0,0.01 0,0.01 0,0 -0.01,0 -0.01,0 0,0 0,0 0,0.01 0,0 0,0 0,0 0,0 0,0 0,0.01 0,0 0,0 -0.01,0 0,0 0,0 0,0.01 0,0 0,0 0,0 0,0 0,0 0,0 -0.02,-0.02 -0.05,-0.03 -0.08,-0.05 -0.13,-0.07 -0.28,-0.09 -0.44,-0.04 -0.15,0.05 -0.3,0.15 -0.44,0.3 -0.19,0.2 -0.33,0.47 -0.42,0.77 -0.08,0.3 -0.09,0.58 -0.03,0.8 0.07,0.23 0.21,0.38 0.4,0.43 0.03,0.01 0.07,0.02 0.13,0.02 0.08,0 0.18,-0.02 0.29,-0.07 0.12,-0.06 0.23,-0.15 0.33,-0.28 0,0 0,0 0,0 0,-0.01 0,-0.01 0,-0.02 -0.01,-0.04 -0.02,-0.1 -0.02,-0.16 0,-0.02 0,-0.04 0.02,-0.05 0.01,0 0.02,0 0.03,0.01 0.01,0 0.02,0.02 0.02,0.06 -0.02,0.08 0,0.18 0.04,0.25 0.01,0.02 0.02,0.03 0.03,0.05 0.05,0.06 0.13,0.11 0.21,0.13 0.09,0.02 0.18,-0.01 0.26,-0.06 0.1,-0.05 0.17,-0.15 0.19,-0.27l0.01 -0.04c0.01,-0.05 -0.05,-0.08 -0.09,-0.04 0,0 0,0 0,0z"/>
   <path class="fil1" d="M14.28 14.02c-0.03,-0.09 -0.05,-0.19 -0.05,-0.3 -0.01,-0.03 -0.01,-0.09 -0.01,-0.12 0,-0.02 -0.01,-0.02 -0.02,-0.01 -0.06,0.05 -0.29,0.24 -0.37,0.3 -0.11,0.08 -0.19,0.12 -0.26,0.12 -0.02,0 -0.09,0.01 -0.12,-0.03 -0.01,-0.02 -0.04,-0.08 -0.02,-0.24 0.02,-0.13 0.07,-0.29 0.14,-0.45 0.03,-0.06 0.05,-0.12 0.08,-0.17 0,0 0,0 0,0 0.08,-0.18 0.18,-0.33 0.29,-0.47 0.02,-0.02 0.05,-0.03 0.07,-0.02 0.02,0.01 0.03,0.03 0.03,0.05 -0.01,0.02 -0.02,0.04 -0.05,0.04 -0.07,0.02 -0.16,0.15 -0.27,0.36 0,0 0.01,-0.01 0.02,-0.01 0.02,-0.01 0.1,-0.05 0.17,-0.11 0.15,-0.11 0.24,-0.21 0.27,-0.33 0.02,-0.1 0,-0.2 -0.06,-0.28 -0.06,-0.08 -0.16,-0.13 -0.26,-0.11 -0.12,0.01 -0.24,0.1 -0.36,0.28 -0.05,0.07 -0.1,0.15 -0.15,0.25 -0.06,0.01 -0.12,0 -0.17,-0.03 -0.01,0 -0.01,0 -0.01,0 -0.15,-0.05 -0.25,-0.15 -0.32,-0.3 -0.01,-0.03 -0.01,-0.05 0.01,-0.07 0,-0.01 0.02,-0.01 0.03,-0.01 0.02,0.01 0.04,0.03 0.04,0.07 0.02,0.12 0.14,0.22 0.22,0.25 0,0 0.01,0.01 0.02,0.01 0,0 0,0 0,0 0.07,-0.22 0.04,-0.39 -0.07,-0.51 -0.08,-0.08 -0.19,-0.13 -0.3,-0.11 -0.11,0.02 -0.19,0.08 -0.24,0.18 -0.04,0.09 -0.06,0.19 -0.04,0.28 0.01,0.1 0.05,0.21 0.13,0.31 0,0 0.02,0.02 0.04,0.04 -0.18,0.26 -0.32,0.29 -0.44,0.27 -0.03,-0.01 -0.05,0.01 -0.06,0.03l-0.09 0.32c-0.01,0.03 0.01,0.05 0.03,0.06 0.06,0.01 0.12,0.02 0.18,0.02 0.18,0 0.35,-0.07 0.5,-0.2 0.08,-0.07 0.15,-0.15 0.21,-0.24 0.05,0.02 0.09,0.03 0.13,0.04 -0.07,0.18 -0.12,0.36 -0.14,0.51 -0.03,0.22 0,0.4 0.09,0.53 0.05,0.08 0.12,0.14 0.21,0.17 0.08,0.04 0.18,0.05 0.28,0.05 0.22,-0.01 0.49,-0.18 0.67,-0.33 0.02,-0.02 0.03,-0.06 0.02,-0.09z"/>
   <path class="fil1" d="M18.91 12.84c0,0.03 -0.01,0.05 -0.05,0.05 -0.03,0 -0.05,-0.02 -0.05,-0.05 0,-0.03 0.02,-0.05 0.05,-0.05 0.04,0 0.05,0.02 0.05,0.05z"/>
  </g>
 </g>
</svg>
