<?xml version="1.0" encoding="UTF-8"?>
<!DOCTYPE svg PUBLIC "-//W3C//DTD SVG 1.1//EN" "http://www.w3.org/Graphics/SVG/1.1/DTD/svg11.dtd">
<!-- Creator: CorelDRAW -->
<svg xmlns="http://www.w3.org/2000/svg" xml:space="preserve" width="160px" height="160px" version="1.1" style="shape-rendering:geometricPrecision; text-rendering:geometricPrecision; image-rendering:optimizeQuality; fill-rule:evenodd; clip-rule:evenodd"
viewBox="0 0 160 160"
 xmlns:xlink="http://www.w3.org/1999/xlink"
 xmlns:xodm="http://www.corel.com/coreldraw/odm/2003">
 <defs>
  <style type="text/css">
   <![CDATA[
    .fil0 {fill:none}
    .fil1 {fill:#F18D16;fill-rule:nonzero}
   ]]>
  </style>
 </defs>
 <g id="Слой_x0020_1">
  <metadata id="CorelCorpID_0Corel-Layer"/>
  <rect class="fil0" x="-1.73" y="-0.03" width="160" height="160"/>
  <path class="fil1" d="M105.35 83.89c-0.05,-0.22 -0.09,-0.49 -0.11,-0.83 -0.01,-0.07 -0.01,-0.17 0,-0.28 0,-0.07 -0.09,-0.11 -0.14,-0.06 0,0 0,0.01 0,0.01 -0.67,0.79 -1.21,1.03 -1.5,0.99 -0.2,-0.02 -0.31,-0.18 -0.34,-0.24 -0.07,-0.14 -0.28,-0.7 -0.16,-2.28 0.07,-1.04 0.27,-2.32 0.58,-3.8 0.15,-0.71 0.31,-1.39 0.47,-2.01 0.09,-0.34 0.19,-0.68 0.28,-1.01 0.18,-0.68 0.36,-1.32 0.53,-1.9 0.22,-0.75 -0.21,-1.53 -0.96,-1.76 -0.75,-0.23 -1.54,0.19 -1.77,0.94 -0.02,0.07 -0.41,1.31 -0.84,3.02 -0.55,1.95 -1.16,4.04 -1.89,5.79 -1.18,2.85 -2.08,3.29 -2.32,3.35 -0.58,0.16 -0.71,-0.03 -0.76,-0.1 -0.16,-0.23 -0.16,-0.58 -0.1,-0.72 0.66,-0.36 0.92,-1.18 0.59,-1.86 -0.34,-0.71 -1.19,-1.01 -1.9,-0.67 -0.61,0.29 -1.07,0.81 -1.33,1.47 -0.19,0.63 -0.62,2.62 1,4.05 0.16,0.14 0.33,0.26 0.52,0.36 0.37,0.19 0.9,0.38 1.59,0.38 0.34,0 0.72,-0.04 1.13,-0.15 0.98,-0.27 1.86,-0.95 2.67,-2.09 0.03,0.08 0.07,0.16 0.11,0.24 0.48,0.99 1.45,1.69 2.55,1.82 0.13,0.02 0.27,0.03 0.42,0.03 0.61,0 1.38,-0.17 2.21,-0.73 0.12,-0.08 0.15,-0.24 0.07,-0.36 -0.35,-0.53 -0.52,-1.08 -0.6,-1.6zm44.5 -5.16c-0.64,-0.46 -1.53,-0.3 -1.99,0.34 -0.93,1.33 -2.78,3.65 -4.64,4.29 -0.61,0.21 -1.21,0.2 -1.58,-0.04 -0.7,-0.44 -0.95,-1.87 -0.97,-2.51 0.04,-1.95 0.83,-4.28 2.07,-6.1 0.68,-1 1.38,-1.56 1.96,-1.57 0,0 0.01,0 0.02,0 0.39,0 0.67,0.26 0.72,0.32 0.31,0.46 0.26,0.79 0.01,1.59 -0.19,0.63 -0.52,1.29 -0.96,1.93 -0.02,0.03 -0.03,0.07 -0.02,0.11 0.01,0.03 0.04,0.05 0.09,0.06 0.12,0 0.24,0.02 0.36,0.06 0.32,0.09 0.56,0.28 0.7,0.42 0.15,0.14 0.24,0.29 0.31,0.4 0.01,0.02 0.01,0.03 0.02,0.04 0,0 0.01,0.01 0.01,0.01 0.05,0.12 0.08,0.18 0.08,0.18 0.02,0.05 0,0.1 -0.04,0.13 -0.05,0.02 -0.11,0.01 -0.14,-0.04 0,0 -0.03,-0.06 -0.1,-0.16 -0.07,-0.1 -0.17,-0.23 -0.33,-0.36 -0.12,-0.1 -0.33,-0.23 -0.59,-0.29 -0.12,-0.02 -0.24,-0.02 -0.35,0 -0.12,0.02 -0.23,0.06 -0.32,0.11 0,0.01 -0.01,0.01 -0.01,0.01 -0.08,0.05 -0.17,0.12 -0.26,0.22 0,0 0,0 0,0.01 -0.01,0 -0.16,0.16 -0.24,0.43 -0.11,0.5 0.06,1.05 0.49,1.4 0.61,0.5 1.51,0.41 2.01,-0.2 0.94,-1.16 1.64,-2.42 2.01,-3.63 0.28,-0.91 0.74,-2.42 -0.39,-4.06 -0.5,-0.71 -1.6,-1.54 -3.06,-1.54l-0.02 0c-0.77,0 -1.52,0.24 -2.24,0.69 -0.74,0.47 -1.43,1.19 -2.08,2.12 -0.76,1.12 -1.4,2.43 -1.85,3.77 -0.04,0.12 -0.08,0.25 -0.12,0.38 -0.01,0.03 -0.03,0.07 -0.04,0.11 -0.18,0.82 -1.04,5.1 0.62,7.28l-0.01 0c0.32,0.45 0.7,0.82 1.14,1.09 0.59,0.38 1.31,0.59 2.07,0.63 0.06,0 0.13,0 0.2,0 0.58,0 1.18,-0.1 1.76,-0.3 0.89,-0.31 1.8,-0.85 2.71,-1.61 1.11,-0.92 2.23,-2.18 3.33,-3.74 0.46,-0.64 0.3,-1.53 -0.34,-1.98zm-57.47 5.29c-0.06,-0.24 -0.12,-0.55 -0.15,-0.96l0 0c-0.01,-0.14 -0.16,-0.23 -0.29,-0.16 -0.89,0.52 -1.66,0.86 -2.31,1 -0.39,0.09 -0.92,0.15 -1.22,-0.06 -0.23,-0.17 -0.41,-0.52 -0.52,-1.01 -0.2,-0.57 -0.24,-1.38 -0.09,-2.42 0.17,-1.31 0.56,-2.48 0.56,-2.49 0.01,-0.02 0.02,-0.04 0.03,-0.06 0.28,-0.82 0.62,-1.6 1.03,-2.3 0.33,-0.57 0.84,-1.38 1.5,-1.8 0.27,-0.16 0.59,-0.26 0.9,-0.26 0.18,0 0.35,0.03 0.49,0.09 0.23,0.1 0.38,0.28 0.46,0.51 0.23,0.72 -0.01,1.5 -1.71,2.71 -0.7,0.5 -1.44,0.93 -2.22,1.36 -0.13,0.07 -0.22,0.18 -0.26,0.32 -0.13,0.45 -0.31,1.19 -0.42,1.97 -0.06,0.43 -0.08,0.82 -0.08,1.16 0,0.09 0.1,0.15 0.18,0.1 0.29,-0.15 0.84,-0.46 1.11,-0.6 1.11,-0.6 2.26,-1.21 3.35,-1.99 0.69,-0.5 1.57,-1.19 2.19,-2.12 0.35,-0.52 0.58,-1.08 0.69,-1.65 0.13,-0.65 0.1,-1.32 -0.08,-2 -0.3,-1.13 -1.08,-1.99 -2.17,-2.42 -1.25,-0.49 -2.76,-0.33 -3.94,0.41 -1.2,0.75 -1.98,1.95 -2.46,2.78 -0.62,1.08 -1.12,2.28 -1.49,3.56 -0.09,0.32 -0.24,0.89 -0.36,1.61 0,0.03 0,0.06 -0.01,0.11 -0.01,0.02 -0.01,0.05 -0.02,0.07 -0.05,0.36 -0.1,0.74 -0.12,1.15 -0.01,0 -0.01,0.01 -0.01,0.01 -0.03,0.41 -0.04,0.89 0,1.41 0.11,1.57 0.58,2.84 1.4,3.76 0,0 0,0 0.01,0.01 0.12,0.12 0.25,0.23 0.39,0.33 0.47,0.34 1.02,0.56 1.63,0.64 0.2,0.03 0.41,0.05 0.62,0.05 0.41,0 0.83,-0.05 1.27,-0.16 0.76,-0.17 1.57,-0.48 2.45,-0.95 0.16,-0.08 0.22,-0.28 0.13,-0.43 -0.25,-0.42 -0.39,-0.86 -0.46,-1.28zm57.26 4.38c-0.36,-0.29 -0.81,-0.22 -0.81,-0.22 0,0 -0.01,0 -0.01,0 -0.13,0.01 -0.24,0.04 -0.33,0.08 0,0.01 0,0.01 -0.01,0.01 -0.09,0.04 -0.19,0.1 -0.28,0.19 -0.08,0.08 -0.14,0.18 -0.19,0.29 -0.11,0.25 -0.12,0.49 -0.11,0.65 0.01,0.2 0.07,0.36 0.1,0.48 0.05,0.11 0.08,0.18 0.08,0.18 0.02,0.04 0,0.1 -0.04,0.12 -0.02,0.01 -0.04,0.02 -0.05,0.02 -0.03,0 -0.07,-0.02 -0.09,-0.05 0,0 -0.03,-0.07 -0.1,-0.18 0,0 0,0 0,0 -0.01,-0.02 -0.01,-0.03 -0.02,-0.04 -0.05,-0.12 -0.12,-0.28 -0.15,-0.49 -0.04,-0.2 -0.05,-0.5 0.05,-0.81 0.03,-0.06 0.05,-0.12 0.08,-0.18l0 0c0.03,-0.05 0.02,-0.11 -0.03,-0.14 -0.03,-0.02 -0.05,-0.03 -0.08,-0.02 -3.11,0.81 -6.34,1.46 -10.61,2.14 -11.35,1.81 -29.83,1.89 -42,0.25 -2.95,-0.39 -17.14,-2.04 -24.66,-2.32 -3.22,-0.12 -6.88,0.31 -10.09,0.83 -0.15,0.8 -0.36,1.91 -0.55,2.99 3.29,-0.58 7.21,-1.09 10.54,-0.97 7.01,0.26 20.92,1.83 24.38,2.3 5.91,0.8 11.76,1.19 17.52,1.19 6.37,0 19.2,-0.48 25.3,-1.46 3.32,-0.52 7.29,-1.22 11.6,-2.38 0.76,-0.21 1.21,-0.99 1,-1.75 -0.07,-0.28 -0.23,-0.53 -0.44,-0.71zm-132.59 -5.57c0,0.01 0,0.01 0,0.01 0,0 0.01,-0.01 0.01,-0.01 0,0 0,0 -0.01,0zm35.29 6.73c-0.23,-0.95 -0.89,-1.68 -1.86,-2.05 -0.03,-0.01 -0.07,-0.02 -0.11,-0.03 -0.13,-0.04 -0.6,-0.16 -1.18,-0.13 -0.99,0.06 -1.8,0.53 -2.27,1.32 -0.46,0.79 -0.53,1.83 -0.19,2.79 0.04,0.08 0.07,0.17 0.11,0.25 0.27,-0.02 0.62,-0.07 0.9,-0.18 0.65,-0.26 1.18,-0.55 1.56,-0.88 -0.17,-0.2 -0.24,-0.42 -0.2,-0.61 0.03,-0.13 0.1,-0.23 0.21,-0.28 0.11,-0.05 0.24,-0.05 0.34,-0.01 0.1,0.06 0.33,0.23 0.14,0.65 -0.05,0.11 -0.14,0.24 -0.29,0.4 0,0 0,0 0,0l-0.01 0.01c0,0 0,0 0,0.01 -0.01,0 -0.01,0.01 -0.02,0.01 0,0.01 -0.01,0.01 -0.01,0.02 -0.27,0.26 -1.13,1.04 -2.35,1.34 0,0 0,0 0,0 -0.78,0.22 -1.63,0.23 -2.47,0.04 -1.08,-0.25 -2.11,-0.83 -2.97,-1.68 -1.02,-1 -1.79,-2.34 -2.3,-3.98 -0.83,-2.67 -0.72,-5.73 -0.3,-8.43 0.01,-0.16 0.05,-0.35 0.09,-0.56l-0.01 0.02 0.01 -0.04c-0.01,0.03 -0.02,0.05 -0.02,0.05 0,0 0.02,-0.07 0.05,-0.19 0.22,-1.02 0.62,-2.31 0.73,-2.65 0.44,-1.52 0.98,-3.17 1.33,-3.67 0.05,-0.06 0.12,-0.12 0.22,-0.09 0.01,0.01 0.01,0.01 0.02,0.01 0.08,0.04 0.08,0.13 0.07,0.2 -0.09,0.59 -0.67,2.13 -1.24,3.55 0,0.01 0,0.03 0,0.04 0,0.09 0.08,0.17 0.18,0.17 0.05,0 0.1,-0.03 0.13,-0.07 0.31,-0.56 0.66,-1.2 1.01,-1.87 1.99,-3.71 2.41,-4.87 2.56,-5.43 0.13,-0.46 0.15,-0.88 0.07,-1.26 -0.11,-0.56 -0.42,-1.02 -0.9,-1.36 -0.5,-0.37 -1.15,-0.5 -1.78,-0.37 -0.67,0.14 -1.24,0.56 -1.61,1.17 -0.56,0.94 -2.05,4.18 -3.11,8.22 -0.24,0.91 -0.44,1.8 -0.6,2.67 -0.98,1.78 -2.24,3.53 -3.38,5.06 -0.04,-0.46 -0.09,-0.93 -0.13,-1.38 -0.05,-0.56 -0.11,-1.13 -0.16,-1.68 -0.04,-0.52 -0.08,-1.05 -0.12,-1.63 -0.05,-0.69 -0.09,-1.4 -0.13,-2.17 -0.01,-0.05 -0.02,-0.22 -0.05,-0.78 -0.02,-0.54 -0.03,-1.18 -0.04,-1.75 -0.02,-1.17 -0.02,-2.63 0.1,-2.91 0.03,-0.07 0.1,-0.11 0.17,-0.11 0.06,0.01 0.1,0.05 0.12,0.12 0.09,0.32 0.02,1.79 -0.06,3.1 0,0.01 0,0.03 0.01,0.04 0.02,0.06 0.08,0.1 0.14,0.08 0.04,-0.02 0.07,-0.04 0.08,-0.08 0.48,-2.31 0.62,-3.9 0.62,-3.93 0.01,-0.02 0.01,-0.04 0.01,-0.07 0.04,-0.5 0.12,-1.44 -0.44,-2.22 -0.38,-0.52 -1.02,-0.84 -1.69,-0.83 -0.64,0.01 -1.24,0.32 -1.59,0.85 -0.59,0.86 -0.61,2.17 -0.6,2.55 0.01,0.67 0.03,1.37 0.05,2.08 0.03,1 0.07,1.98 0.12,2.93 0,0.13 0.01,0.26 0.02,0.39 -0.37,1.34 -0.85,2.8 -1.46,4.26 -1.2,2.86 -2.69,5.13 -4.43,6.75 -0.99,0.94 -2.08,1.66 -3.24,2.17 -1.26,0.54 -2.64,0.84 -4.11,0.88 -1.58,0.04 -3.04,-0.32 -4.21,-1.04 -1.22,-0.76 -2.06,-1.84 -2.48,-3.24 -0.38,-1.25 -0.4,-2.61 -0.05,-3.84 0.35,-1.27 1.06,-2.31 2.03,-3.01 0.84,-0.61 1.91,-1 3.02,-1.11 1.13,-0.1 2.19,0.1 3.01,0.58 1.14,0.67 1.75,1.79 1.68,3.07 -0.03,0.63 -0.23,1.25 -0.58,1.78 -0.23,0.35 -0.51,0.65 -0.84,0.89 -0.02,0.02 -0.04,0.04 -0.05,0.06 0,0.03 0.01,0.06 0.03,0.08l0 0c0,0 0.01,0.01 0.01,0.01 0.18,0.2 0.31,0.48 0.35,0.75 0.03,0.21 0.02,0.43 -0.03,0.63 -0.04,0.15 -0.08,0.22 -0.08,0.23 -0.02,0.03 -0.05,0.05 -0.09,0.05 -0.01,0 -0.02,0 -0.04,-0.01 -0.05,-0.02 -0.07,-0.07 -0.05,-0.12 0,0 0.02,-0.07 0.05,-0.2 0.01,-0.09 0.04,-0.29 -0.02,-0.51 -0.05,-0.21 -0.16,-0.42 -0.31,-0.56 -0.02,-0.02 -0.04,-0.03 -0.06,-0.05 -0.3,-0.25 -0.81,-0.36 -1.25,-0.21 -0.06,0.02 -0.13,0.05 -0.19,0.08 -0.72,0.41 -0.98,1.32 -0.58,2.04 0.41,0.74 1.18,1.13 2.06,1.05 0.43,-0.04 0.78,-0.19 0.89,-0.24 1.11,-0.5 2.04,-1.31 2.71,-2.33 0.64,-0.98 1,-2.1 1.07,-3.27 0.12,-2.4 -1.06,-4.57 -3.16,-5.8 -1.38,-0.81 -3.04,-1.15 -4.81,-0.98 -1.64,0.15 -3.23,0.74 -4.5,1.66 -1.53,1.1 -2.62,2.7 -3.16,4.62 -0.5,1.78 -0.48,3.75 0.07,5.53 0.63,2.09 1.94,3.79 3.78,4.92 1.67,1.03 3.69,1.54 5.85,1.49 3.58,-0.09 6.73,-1.4 9.37,-3.89 1.66,-1.56 3.11,-3.59 4.33,-6.05 0.12,1.3 0.23,2.61 0.29,3.91 0.01,0.09 0.01,0.12 0.01,0.14 0.04,0.75 0.11,2.14 -0.01,3.25 -0.03,0.29 -0.08,0.7 -0.15,1.02 -0.09,0.43 -0.18,0.61 -0.31,0.61l-0.01 0c-0.04,0 -0.07,-0.02 -0.1,-0.05 -0.13,-0.15 -0.06,-0.71 0.06,-1.47 0.01,-0.09 0.03,-0.17 0.04,-0.25 0.09,-0.62 0.2,-1.45 0.27,-2.23 0,0 0,-0.01 0,-0.01 -0.01,-0.05 -0.06,-0.09 -0.12,-0.08 -0.02,0.01 -0.04,0.02 -0.05,0.03 -0.37,0.73 -0.71,1.52 -0.97,2.25 -0.23,0.64 -0.4,1.23 -0.49,1.75 -0.13,0.71 -0.13,1.29 -0.01,1.78 0.2,0.75 0.65,1.13 0.99,1.33 0.67,0.37 1.42,0.39 2.06,0.05 0.64,-0.34 1.1,-0.98 1.41,-1.96 0.23,-0.76 0.31,-1.49 0.33,-1.78 0.09,-1.11 0.11,-2.22 0.09,-3.33 0.38,-0.58 0.93,-1.31 1.55,-2.14 0.33,-0.44 0.68,-0.9 1.03,-1.38 0.07,1.65 0.32,3.18 0.75,4.56 0.65,2.11 1.68,3.87 3.05,5.22 1.26,1.25 2.79,2.1 4.42,2.47 0.61,0.14 1.23,0.21 1.85,0.21 0.72,0 1.43,-0.09 2.11,-0.28 1.3,-0.37 2.45,-1.06 3.35,-2.02 0.4,-0.43 0.72,-0.96 0.91,-1.53 0.23,-0.68 0.28,-1.35 0.14,-1.97zm0.87 0.63c-0.02,0.9 -0.28,2.07 -1.26,3.18 0.25,-0.05 0.52,-0.11 0.82,-0.17 0.39,-0.08 0.98,-0.22 1.47,-0.32l0.53 -3.02c-0.51,0.11 -1.13,0.24 -1.56,0.33zm7.73 -9.23l0.2 -1.07c0.02,-0.05 0.03,-0.1 0.04,-0.16 0.17,-0.91 0.7,-2.48 1.51,-3.91 0.89,-1.57 1.7,-2.19 2.11,-2.33 0.28,-0.09 0.69,-0.12 0.96,0.13 0.54,0.51 0.56,1.69 0.31,2.95 -0.34,1.75 -1.05,3.68 -1.86,5.01 -0.43,0.69 -0.86,1.21 -1.28,1.53 -0.51,0.38 -0.86,0.33 -0.96,0.31 -0.13,-0.01 -0.46,-0.1 -0.71,-0.43 -0.31,-0.42 -0.42,-1.13 -0.32,-2.03zm6.29 1.02c-0.01,0.01 -0.02,0.02 -0.02,0.02 0.73,-1.46 1.33,-3.21 1.66,-4.88 0.18,-0.93 0.23,-1.91 0.12,-2.76 -0.14,-1.17 -0.55,-2.1 -1.22,-2.76 -0.61,-0.61 -1.73,-1.26 -3.55,-0.89 -0.23,0.05 -0.45,0.12 -0.68,0.22 -0.49,0.2 -0.88,0.51 -1.01,0.98 -0.06,0.21 -0.14,0.32 -0.25,0.33 -0.01,0.01 -0.02,0.01 -0.03,0.01 -0.06,0 -0.12,-0.03 -0.16,-0.09 -0.06,-0.09 -0.05,-0.23 0.01,-0.33 0.11,-0.18 0.23,-0.33 0.35,-0.47 0.05,-0.06 0.02,-0.1 0.01,-0.13 -0.19,-0.39 -0.56,-0.68 -1.02,-0.77 -0.77,-0.14 -1.51,0.37 -1.66,1.14l-0.2 1.09 0.01 0 -3.89 20.88c-0.15,0.77 0.36,1.52 1.14,1.66 0.09,0.02 0.17,0.02 0.26,0.02 0.67,0 1.27,-0.48 1.4,-1.16l1.56 -8.4c0.19,0.12 0.38,0.22 0.58,0.3 0.02,0.01 0.04,0.02 0.06,0.03 0.32,0.14 0.7,0.28 1.15,0.38 2.6,0.26 4.48,-2.64 5.38,-4.42zm53.45 -0.71c0,-0.07 -0.08,-0.09 -0.12,-0.04l0 0.01c-0.83,1.35 -1.74,2.21 -2.63,2.46 -0.35,0.11 -0.68,0.08 -0.95,-0.06 -0.27,-0.15 -0.49,-0.42 -0.61,-0.79 -0.51,-1.48 -0.03,-3.5 0.39,-5.28 0.06,-0.27 0.13,-0.55 0.19,-0.83 0.11,-0.46 0.21,-0.91 0.32,-1.35 0.1,-0.34 0.19,-0.68 0.28,-1.01 0.19,-0.68 0.37,-1.32 0.53,-1.9 0.22,-0.75 -0.21,-1.54 -0.96,-1.76 -0.74,-0.23 -1.53,0.19 -1.77,0.94 -0.29,0.94 -0.57,1.94 -0.83,3 -0.55,1.96 -1.16,4.06 -1.89,5.81 -1.19,2.85 -2.08,3.29 -2.33,3.35 -0.57,0.16 -0.71,-0.03 -0.76,-0.1 -0.16,-0.23 -0.16,-0.58 -0.1,-0.72 0.66,-0.36 0.93,-1.18 0.6,-1.86 -0.34,-0.71 -1.19,-1.01 -1.9,-0.67 -0.61,0.29 -1.07,0.8 -1.34,1.46 0,0.01 0,0.02 0,0.02 -0.01,0.02 -0.02,0.05 -0.03,0.07 -0.19,0.68 -0.51,2.47 0.88,3.84 0.03,0.02 0.05,0.05 0.08,0.07 0.02,0.02 0.03,0.03 0.05,0.05 0.17,0.14 0.35,0.27 0.54,0.37 0.37,0.19 0.9,0.38 1.6,0.38 0.34,0 0.71,-0.04 1.12,-0.15 1.05,-0.28 1.97,-1.03 2.83,-2.32 0.7,1.48 2.09,2.36 3.64,2.36 0.4,0 0.81,-0.06 1.22,-0.18 0.87,-0.25 1.7,-0.74 2.46,-1.46 0.09,-0.08 0.12,-0.21 0.07,-0.32 -0.41,-0.84 -0.6,-1.96 -0.58,-3.39zm15.9 -1.09c0,-0.14 -0.19,-0.17 -0.23,-0.04 0,0 0,0 -0.01,0 -0.13,0.37 -0.27,0.74 -0.42,1.1 -0.13,0.3 -0.26,0.59 -0.4,0.88 -0.04,0.07 -0.08,0.15 -0.12,0.22 -0.53,0.99 -0.9,1.25 -1.04,1.31 -0.06,0.02 -0.15,0.06 -0.4,-0.04 -0.06,-0.03 -0.31,-0.35 -0.39,-1.38 -0.08,-1.01 0.03,-2.35 0.32,-4 0.1,-0.59 0.22,-1.16 0.34,-1.71 0.43,-1.35 0.81,-2.77 1.12,-4.2 0.16,-0.74 -0.29,-1.48 -1.02,-1.68 -0.73,-0.2 -1.49,0.21 -1.73,0.94 -0.03,0.09 -0.61,1.91 -1.13,4.21 -0.57,1.75 -1.22,3.34 -1.91,4.63 -1.15,2.14 -2.35,3.34 -3.32,3.34 -0.07,0 -0.14,-0.01 -0.21,-0.02 -0.39,-0.07 -0.64,-0.25 -0.82,-0.58 -0.17,-0.32 -0.4,-1.01 -0.31,-2.34 0,0 0,0 0,0 0,-0.1 0.03,-0.37 0.08,-0.79 0.03,-0.18 0.06,-0.4 0.09,-0.65 0.13,-0.85 0.37,-2.21 0.79,-3.86 0.06,-0.24 0.15,-0.38 0.26,-0.43 0.06,-0.03 0.14,-0.02 0.2,0.01 0.11,0.05 0.14,0.17 0.1,0.33 -0.03,0.11 -0.09,0.25 -0.16,0.41 -0.08,0.18 -0.17,0.39 -0.24,0.62 -0.33,1.09 -0.54,2.04 -0.67,2.78 0,0.01 0,0.02 0,0.03 0.01,0.08 0.09,0.14 0.17,0.13 0.05,-0.01 0.09,-0.05 0.11,-0.09 0.28,-0.59 0.59,-1.27 0.89,-1.96 0.52,-1.2 0.9,-2.21 1.13,-3.01 0.29,-1.02 0.52,-2.17 -0.05,-3 -0.38,-0.55 -1.01,-0.83 -1.7,-0.76 -0.29,0.03 -0.82,0.18 -1.2,0.8 0,0 0,0.01 -0.01,0.01 -0.08,0.11 -0.16,0.23 -0.21,0.36 -0.38,0.69 -1.02,2.16 -1.77,5.14 -0.1,0.37 -0.19,0.73 -0.27,1.08 0,0.01 0,0.02 0,0.02l0 0c-0.05,0.25 -0.1,0.49 -0.15,0.72 -0.07,0.39 -0.12,0.77 -0.17,1.13 -0.03,0.42 -0.05,0.82 -0.06,1.19 -0.02,1.1 0.09,2.02 0.32,2.75 0.09,0.26 0.2,0.5 0.32,0.73 0.59,1.1 1.56,1.8 2.81,2.03 0.22,0.04 0.47,0.07 0.74,0.07 0.88,0 1.99,-0.28 3.16,-1.29 0.51,-0.44 1.01,-1 1.5,-1.67 0.07,0.33 0.18,0.63 0.3,0.91 0.45,0.99 1.13,1.45 1.62,1.67 0.92,0.39 1.85,0.4 2.69,0.02 0.63,-0.28 1.2,-0.77 1.72,-1.48 0.11,-0.15 0.12,-0.35 0.04,-0.51 -0.63,-1.2 -0.76,-2.74 -0.7,-4.08zm-85.68 -3.84c-0.06,0.27 -0.13,0.54 -0.21,0.8 -1.15,3.72 -2.39,5.29 -3.22,5.96 -0.68,0.54 -1.14,0.51 -1.21,0.5 -0.01,-0.01 -0.02,-0.01 -0.03,-0.01 -0.31,-0.08 -0.54,-0.39 -0.69,-0.93 -0.27,-0.95 -0.2,-2.36 0.2,-3.79 0.44,-1.56 1.19,-2.97 2.12,-3.96 0.97,-1.04 1.88,-1.45 2.43,-1.2 0.08,0.03 0.15,0.08 0.22,0.14 0.2,0.17 0.32,0.44 0.39,0.69 0.09,0.29 0.1,0.59 0.1,0.89 0,0.31 -0.04,0.61 -0.1,0.91zm4.25 6.83c-0.42,0.44 -0.73,0.48 -0.95,0.46 -0.16,-0.01 -0.47,-0.07 -0.71,-0.37 -0.25,-0.31 -0.63,-1.14 -0.33,-3.14 0.33,-2.12 0.96,-4.71 1.36,-6.27l0.39 -1.43c0,-0.01 0,-0.01 0.01,-0.02 0,-0.01 0,-0.03 0.01,-0.04 0,-0.01 0,-0.02 0,-0.03 0,-0.02 0.01,-0.03 0.01,-0.04 0,-0.01 0,-0.02 0.01,-0.03 0,-0.02 0,-0.03 0,-0.04 0,-0.01 0,-0.02 0,-0.04 0,-0.01 0.01,-0.02 0.01,-0.03 0,-0.01 0,-0.03 0,-0.04 0,-0.01 0,-0.02 0,-0.03 0,-0.01 0,-0.03 0,-0.04 0,-0.01 0,-0.02 0,-0.03 0,-0.02 0,-0.03 0,-0.04 0,-0.01 0,-0.02 -0.01,-0.03 0,-0.02 0,-0.03 0,-0.04 0,-0.01 0,-0.02 0,-0.03 0,-0.01 -0.01,-0.03 -0.01,-0.04 0,-0.01 0,-0.02 0,-0.03 -0.01,-0.01 -0.01,-0.02 -0.01,-0.04 0,-0.01 0,-0.02 -0.01,-0.03 0,-0.01 0,-0.02 -0.01,-0.03 0,-0.01 0,-0.02 0,-0.04 -0.01,-0.01 -0.01,-0.02 -0.01,-0.03 -0.01,-0.01 -0.01,-0.02 -0.01,-0.03 -0.01,-0.01 -0.01,-0.02 -0.02,-0.03 0,-0.01 0,-0.02 -0.01,-0.04 0,-0.01 -0.01,-0.02 -0.01,-0.03 -0.01,-0.01 -0.01,-0.02 -0.01,-0.03 -0.01,-0.01 -0.01,-0.02 -0.02,-0.03 0,-0.01 -0.01,-0.02 -0.01,-0.03 -0.01,-0.01 -0.01,-0.02 -0.02,-0.03 -0.01,-0.01 -0.01,-0.02 -0.02,-0.03 0,-0.01 -0.01,-0.02 -0.01,-0.03 -0.01,-0.01 -0.01,-0.02 -0.02,-0.03 -0.01,-0.01 -0.01,-0.02 -0.02,-0.03 -0.01,-0.01 -0.01,-0.02 -0.02,-0.03 -0.01,-0.01 -0.01,-0.01 -0.02,-0.02 -0.01,-0.01 -0.01,-0.02 -0.02,-0.03 -0.01,-0.01 -0.01,-0.02 -0.02,-0.03 -0.01,-0.01 -0.01,-0.02 -0.02,-0.02 -0.01,-0.01 -0.02,-0.02 -0.02,-0.03 -0.01,-0.01 -0.02,-0.02 -0.03,-0.03 -0.01,0 -0.01,-0.01 -0.02,-0.02 -0.01,-0.01 -0.02,-0.02 -0.03,-0.03 0,0 -0.01,-0.01 -0.02,-0.02 -0.01,-0.01 -0.02,-0.01 -0.03,-0.02 -0.01,-0.01 -0.02,-0.02 -0.02,-0.02 -0.01,-0.01 -0.02,-0.02 -0.03,-0.03 -0.01,0 -0.02,-0.01 -0.03,-0.02 -0.01,0 -0.02,-0.01 -0.03,-0.02 -0.01,0 -0.02,-0.01 -0.03,-0.02 0,0 -0.01,-0.01 -0.02,-0.02 -0.01,0 -0.03,-0.01 -0.03,-0.02 -0.02,0 -0.02,-0.01 -0.03,-0.01 -0.01,-0.01 -0.03,-0.01 -0.04,-0.02 -0.01,-0.01 -0.02,-0.01 -0.03,-0.02 -0.01,0 -0.02,-0.01 -0.03,-0.01 -0.01,-0.01 -0.02,-0.01 -0.03,-0.02 -0.01,0 -0.02,-0.01 -0.04,-0.01 -0.01,-0.01 -0.02,-0.01 -0.03,-0.02 -0.01,0 -0.02,0 -0.03,-0.01 -0.01,0 -0.02,-0.01 -0.04,-0.01 -0.01,0 -0.02,-0.01 -0.03,-0.01 -0.01,0 -0.02,-0.01 -0.03,-0.01 0,0 0,0 -0.01,0 0,0 0,0 -0.01,0 0,-0.01 -0.01,-0.01 -0.02,-0.01 -0.01,0 -0.03,-0.01 -0.04,-0.01 -0.01,0 -0.02,0 -0.03,-0.01 -0.01,0 -0.02,0 -0.04,0 -0.01,-0.01 -0.02,-0.01 -0.03,-0.01 -0.01,0 -0.02,0 -0.03,0 -0.02,-0.01 -0.03,-0.01 -0.04,-0.01 -0.01,0 -0.02,0 -0.03,0 -0.02,0 -0.04,0 -0.05,0 -0.01,0 -0.02,0 -0.02,0 -0.03,0 -0.05,0 -0.07,0 -0.01,0 -0.01,0 -0.02,0 -0.02,0 -0.03,0 -0.05,0 -0.01,0 -0.02,0 -0.02,0 -0.02,0 -0.03,0 -0.05,0.01 -0.01,0 -0.01,0 -0.02,0 -0.02,0 -0.03,0 -0.04,0.01 -0.01,0 -0.02,0 -0.03,0 -0.01,0 -0.03,0.01 -0.04,0.01 -0.01,0 -0.02,0 -0.03,0.01 -0.01,0 -0.02,0 -0.04,0.01 0,0 -0.01,0 -0.02,0 -0.01,0.01 -0.03,0.01 -0.04,0.01 -0.01,0.01 -0.02,0.01 -0.03,0.01 -0.01,0.01 -0.02,0.01 -0.03,0.02 -0.01,0 -0.02,0 -0.03,0.01 -0.01,0 -0.02,0.01 -0.04,0.01 0,0 -0.01,0.01 -0.02,0.01 -0.01,0.01 -0.02,0.01 -0.04,0.02 0,0 -0.01,0.01 -0.02,0.01 -0.01,0.01 -0.02,0.01 -0.04,0.02 0,0 -0.01,0.01 -0.02,0.01 -0.01,0.01 -0.02,0.02 -0.03,0.02 -0.01,0.01 -0.02,0.01 -0.03,0.02 -0.01,0 -0.02,0.01 -0.03,0.02 -0.01,0 -0.02,0.01 -0.02,0.02 -0.01,0 -0.02,0.01 -0.03,0.02 -0.01,0 -0.02,0.01 -0.03,0.01 -0.01,0.01 -0.02,0.02 -0.03,0.03 -0.01,0 -0.01,0.01 -0.02,0.02 -0.01,0.01 -0.02,0.01 -0.03,0.02 -0.01,0.01 -0.01,0.01 -0.02,0.02 -0.01,0.01 -0.02,0.02 -0.03,0.03 -0.01,0.01 -0.01,0.01 -0.02,0.02 -0.01,0.01 -0.02,0.02 -0.03,0.03 0,0.01 -0.01,0.01 -0.01,0.02 -0.02,0.01 -0.03,0.03 -0.05,0.05 0,0 0,0 0,0.01 -0.02,0.01 -0.03,0.03 -0.04,0.04 0,0.01 -0.01,0.01 -0.01,0.02 -0.01,0.01 -0.02,0.03 -0.03,0.04 0,0.01 -0.01,0.01 -0.01,0.02 -0.01,0.01 -0.02,0.03 -0.02,0.04 -0.01,0.01 -0.01,0.01 -0.02,0.02 0,0.01 -0.01,0.03 -0.02,0.04 0,0.01 -0.01,0.02 -0.01,0.02 -0.01,0.02 -0.01,0.03 -0.02,0.04 0,0.01 -0.01,0.02 -0.01,0.03 -0.01,0.01 -0.01,0.02 -0.02,0.03 0,0.01 0,0.02 -0.01,0.03 0,0.01 0,0.02 -0.01,0.03 -0.16,-0.13 -0.32,-0.25 -0.5,-0.35 -0.89,-0.49 -1.91,-0.59 -2.95,-0.27 -1,0.3 -2,0.98 -2.96,2.01 -1.24,1.32 -2.23,3.15 -2.79,5.14 -0.55,1.97 -0.61,3.87 -0.19,5.35 0.43,1.51 1.38,2.53 2.67,2.89 0.15,0.04 0.46,0.11 0.87,0.11 0.5,0 1.17,-0.1 1.92,-0.48 0.77,-0.39 1.5,-1 2.17,-1.83 0,0 0.01,-0.01 0.01,-0.01 0.03,-0.04 0.02,-0.09 0.01,-0.12 -0.08,-0.32 -0.13,-0.7 -0.15,-1.12 0,-0.12 0.05,-0.23 0.15,-0.28 0.07,-0.04 0.16,-0.03 0.23,0.02 0.06,0.05 0.14,0.16 0.08,0.41 -0.12,0.53 0.01,1.24 0.29,1.71 0.07,0.1 0.14,0.2 0.21,0.3 0.35,0.42 0.84,0.75 1.39,0.86 0.6,0.12 1.21,-0.04 1.73,-0.35 0.66,-0.4 1.14,-1.07 1.29,-1.83l0.05 -0.27c0.07,-0.33 -0.33,-0.54 -0.56,-0.29 0,0 -0.01,0 -0.01,0zm28.7 0.62c-0.2,-0.6 -0.33,-1.27 -0.38,-2 -0.02,-0.24 -0.02,-0.61 -0.02,-0.84 0,-0.08 -0.1,-0.13 -0.16,-0.07 -0.4,0.38 -1.92,1.64 -2.5,2.06 -0.69,0.5 -1.27,0.77 -1.71,0.79 -0.15,0.01 -0.62,0.03 -0.79,-0.22 -0.07,-0.1 -0.28,-0.51 -0.14,-1.57 0.11,-0.87 0.43,-1.93 0.93,-3.06 0.18,-0.41 0.35,-0.78 0.51,-1.12 0.01,0 0.01,-0.01 0.02,-0.01 0.53,-1.17 1.19,-2.22 1.96,-3.11 0.11,-0.13 0.32,-0.22 0.49,-0.13 0.1,0.06 0.16,0.18 0.14,0.3 -0.02,0.15 -0.13,0.26 -0.28,0.29 -0.48,0.11 -1.13,0.97 -1.87,2.42 0.06,-0.03 0.11,-0.06 0.17,-0.09 0.16,-0.09 0.64,-0.35 1.16,-0.72 1,-0.72 1.58,-1.45 1.76,-2.23 0.16,-0.66 0.02,-1.32 -0.39,-1.86 -0.41,-0.56 -1.06,-0.85 -1.73,-0.77 -0.82,0.09 -1.59,0.69 -2.42,1.88 -0.33,0.47 -0.67,1.03 -1.02,1.68 -0.39,0.06 -0.77,0 -1.13,-0.17 -0.01,0 -0.02,-0.01 -0.04,-0.01 -0.98,-0.37 -1.65,-1 -2.15,-2.03 -0.08,-0.16 -0.04,-0.33 0.04,-0.42 0.06,-0.08 0.16,-0.11 0.24,-0.09 0.15,0.04 0.24,0.2 0.29,0.48 0.13,0.77 0.91,1.43 1.41,1.64 0.03,0.01 0.13,0.05 0.18,0.07 0,0 0.01,0 0.01,0 0.41,-1.48 0.25,-2.63 -0.48,-3.41 -0.51,-0.56 -1.31,-0.84 -2.04,-0.73 -0.68,0.11 -1.26,0.55 -1.57,1.22 -0.29,0.62 -0.4,1.23 -0.31,1.87 0.08,0.69 0.39,1.39 0.92,2.08 0,0 0.08,0.1 0.22,0.26 -1.18,1.73 -2.12,1.96 -2.94,1.79 -0.15,-0.03 -0.3,0.06 -0.35,0.21l-0.64 2.16c-0.05,0.16 0.05,0.34 0.22,0.38 0.4,0.09 0.8,0.14 1.2,0.14 1.2,0 2.34,-0.45 3.35,-1.33 0.55,-0.47 1.02,-1.03 1.43,-1.61 0.27,0.11 0.55,0.2 0.84,0.26 -0.5,1.22 -0.83,2.39 -0.96,3.41 -0.19,1.47 0.02,2.67 0.62,3.55 0.35,0.51 0.83,0.9 1.4,1.15 0.55,0.23 1.18,0.33 1.87,0.3 1.46,-0.07 3.28,-1.2 4.47,-2.19 0.17,-0.15 0.24,-0.38 0.17,-0.6zm30.96 -7.91c0,0.19 -0.1,0.35 -0.34,0.35 -0.23,0 -0.34,-0.16 -0.34,-0.35 0,-0.19 0.11,-0.35 0.34,-0.35 0.24,0 0.34,0.16 0.34,0.35z"/>
 </g>
</svg>
