<?xml version="1.0" encoding="UTF-8"?>
<!DOCTYPE svg PUBLIC "-//W3C//DTD SVG 1.1//EN" "http://www.w3.org/Graphics/SVG/1.1/DTD/svg11.dtd">
<!-- Creator: CorelDRAW -->
<svg xmlns="http://www.w3.org/2000/svg" xml:space="preserve" width="160px" height="160px" version="1.1" style="shape-rendering:geometricPrecision; text-rendering:geometricPrecision; image-rendering:optimizeQuality; fill-rule:evenodd; clip-rule:evenodd"
viewBox="0 0 156.62 156.62"
 xmlns:xlink="http://www.w3.org/1999/xlink"
 xmlns:xodm="http://www.corel.com/coreldraw/odm/2003">
 <defs>
  <style type="text/css">
   <![CDATA[
    .fil0 {fill:none}
    .fil3 {fill:#991F36}
    .fil2 {fill:#FEFEFE;fill-rule:nonzero}
    .fil1 {fill:#991F36;fill-rule:nonzero}
   ]]>
  </style>
 </defs>
 <g id="Слой_x0020_1">
  <metadata id="CorelCorpID_0Corel-Layer"/>
  <rect class="fil0" width="156.62" height="156.62"/>
  <g id="_2857489815888">
   <path class="fil1" d="M110.4 110.51c-8.22,8.24 -19.55,13.34 -32.1,13.34 -12.53,0 -23.86,-5.1 -32.09,-13.34 -8.21,-8.25 -13.28,-19.62 -13.28,-32.2 0,-12.58 5.07,-23.95 13.28,-32.2 8.23,-8.24 19.56,-13.34 32.09,-13.34 12.55,0 23.88,5.1 32.1,13.34 8.22,8.25 13.29,19.62 13.29,32.2 0,12.06 -4.78,23.66 -13.29,32.2zm-32.1 -81.51c-27.14,0 -49.14,22.08 -49.14,49.31 0,27.24 22,49.31 49.14,49.31 27.15,0 49.15,-22.07 49.15,-49.31 0,-27.03 -22.06,-49.31 -49.15,-49.31z"/>
   <path class="fil1" d="M119.14 78.32c0,22.32 -17.85,40.59 -40.17,40.95 -0.23,0 -0.45,0.01 -0.68,0.01 -22.24,0 -40.44,-17.91 -40.8,-40.3 0,-0.23 -0.01,-0.46 -0.01,-0.68 0,-22.32 17.85,-40.59 40.16,-40.95 0.23,0 0.46,-0.01 0.68,-0.01 22.24,0 40.45,17.92 40.81,40.31 0.01,0.23 0.01,0.45 0.01,0.67zm3.42 -0.74c-0.39,-24.27 -20.13,-43.68 -44.24,-43.68 -0.24,0 -0.49,0 -0.73,0.01 -24.19,0.39 -43.54,20.19 -43.54,44.39 0,0.24 0,0.48 0,0.73 0.4,24.28 20.13,43.69 44.24,43.69 0.25,0 0.49,0 0.73,-0.01 24.2,-0.39 43.55,-20.19 43.55,-44.39 0,-0.24 0,-0.48 -0.01,-0.72 0,-0.54 0,0.56 0,-0.02z"/>
   <path class="fil1" d="M114.6 78.34c0,19.49 -15.4,35.64 -34.97,36.35 -0.45,0.02 -0.9,0.03 -1.34,0.03 -19.43,0 -35.53,-15.44 -36.24,-35.08 -0.02,-0.46 -0.02,-0.9 -0.02,-1.35 0,-19.49 15.38,-35.65 34.96,-36.36 0.45,-0.02 0.9,-0.03 1.34,-0.03 19.43,0 35.53,15.44 36.24,35.09 0.02,0.45 0.03,0.9 0.03,1.35zm-36.27 -39.55c-0.49,0 -0.97,0.01 -1.45,0.02 -21.26,0.78 -37.96,18.31 -37.96,39.48 0,0.48 0.01,0.97 0.03,1.46 0.77,21.32 18.23,38.08 39.34,38.08 0.47,0 0.97,-0.01 1.45,-0.03 21.26,-0.77 37.96,-18.29 37.96,-39.46 0,-0.49 -0.01,-0.98 -0.02,-1.47 -0.77,-21.07 -18.21,-38.08 -39.35,-38.08z"/>
   <path class="fil1" d="M110.07 78.34c0,16.7 -12.95,30.73 -29.79,31.78 -0.67,0.04 -1.34,0.06 -2,0.06 -16.64,0 -30.62,-13 -31.67,-29.88 -0.04,-0.68 -0.07,-1.35 -0.07,-2.02 0,-16.69 12.95,-30.73 29.78,-31.78 0.69,-0.04 1.35,-0.06 2.01,-0.06 16.64,0 30.63,13 31.68,29.88 0.04,0.68 0.06,1.35 0.06,2.02zm-31.74 -34.68c-0.71,0 -1.44,0.02 -2.17,0.06 -18.31,1.15 -32.39,16.4 -32.39,34.56 0,0.72 0.02,1.46 0.06,2.19 1.15,18.37 16.35,32.49 34.45,32.49 0.72,0 1.44,-0.02 2.18,-0.06 18.31,-1.15 32.38,-16.4 32.38,-34.56 0,-0.73 -0.01,-1.45 -0.06,-2.19 -1.13,-18.11 -16.26,-32.49 -34.45,-32.49z"/>
   <path class="fil1" d="M105.58 78.34c0,13.92 -10.54,25.83 -24.64,27.21 -0.89,0.08 -1.79,0.12 -2.67,0.12 -13.87,0 -25.74,-10.57 -27.1,-24.71 -0.09,-0.9 -0.13,-1.8 -0.13,-2.68 0,-13.92 10.53,-25.83 24.63,-27.2 0.9,-0.09 1.79,-0.13 2.67,-0.13 13.87,0 25.74,10.58 27.11,24.72 0.09,0.88 0.13,1.78 0.13,2.67zm-27.24 -29.85c-0.96,0 -1.93,0.05 -2.9,0.14 -15.36,1.51 -26.85,14.47 -26.85,29.65 0,0.96 0.05,1.93 0.14,2.91 1.5,15.41 14.42,26.94 29.54,26.94 0.96,0 1.94,-0.05 2.91,-0.14 15.36,-1.5 26.85,-14.47 26.85,-29.65 0,-0.96 -0.05,-1.93 -0.15,-2.91 -1.46,-15.14 -14.29,-26.94 -29.54,-26.94z"/>
   <path class="fil1" d="M101.14 78.34c0,11.18 -8.19,20.98 -19.54,22.63 -1.11,0.17 -2.23,0.25 -3.32,0.25 -11.15,0 -20.91,-8.21 -22.56,-19.61 -0.15,-1.12 -0.23,-2.23 -0.23,-3.33 0,-11.18 8.17,-20.97 19.53,-22.63 1.11,-0.16 2.22,-0.25 3.31,-0.25 11.15,0 20.92,8.22 22.57,19.61 0.15,1.1 0.24,2.22 0.24,3.33zm-22.81 -25.06c-1.19,0 -2.4,0.09 -3.61,0.27 -12.42,1.81 -21.36,12.51 -21.36,24.73 0,1.2 0.09,2.42 0.26,3.64 1.81,12.45 12.47,21.42 24.66,21.42 1.2,0 2.4,-0.09 3.63,-0.27 12.4,-1.81 21.34,-12.5 21.34,-24.73 0,-1.2 -0.08,-2.41 -0.26,-3.63 -1.77,-12.2 -12.32,-21.43 -24.66,-21.43z"/>
   <path class="fil1" d="M96.77 78.33c0,8.51 -5.89,16.18 -14.52,18.08 -1.33,0.29 -2.66,0.42 -3.96,0.42 -8.49,0 -16.13,-5.91 -18.02,-14.57 -0.29,-1.33 -0.42,-2.66 -0.42,-3.97 0,-8.51 5.89,-16.19 14.52,-18.07 1.32,-0.3 2.65,-0.43 3.95,-0.43 8.49,0 16.14,5.91 18.02,14.57 0.29,1.3 0.43,2.64 0.43,3.97zm-18.45 -20.34c-1.43,0 -2.88,0.16 -4.33,0.48 -9.47,2.07 -15.93,10.48 -15.93,19.82 0,1.44 0.15,2.9 0.47,4.36 2.07,9.5 10.45,15.98 19.76,15.98 1.43,0 2.88,-0.16 4.33,-0.47 9.48,-2.08 15.94,-10.48 15.94,-19.83 0,-1.44 -0.15,-2.9 -0.47,-4.35 -2.02,-9.26 -10.29,-15.99 -19.77,-15.99z"/>
   <path class="fil1" d="M92.56 78.31c0,5.95 -3.74,11.51 -9.67,13.53 -1.52,0.52 -3.07,0.77 -4.59,0.77 -5.93,0 -11.46,-3.75 -13.48,-9.7 -0.52,-1.53 -0.77,-3.08 -0.77,-4.6 0.01,-5.96 3.74,-11.52 9.67,-13.54 1.52,-0.51 3.07,-0.76 4.58,-0.76 5.95,0 11.49,3.75 13.5,9.7 0.5,1.48 0.76,3.04 0.76,4.6zm-14.26 -15.76c-1.67,0 -3.37,0.27 -5.04,0.84 -6.54,2.23 -10.66,8.36 -10.66,14.92 0,1.68 0.27,3.39 0.84,5.07 2.22,6.56 8.32,10.69 14.86,10.69 1.68,0 3.39,-0.27 5.06,-0.84 6.54,-2.23 10.65,-8.36 10.65,-14.92 0,-1.68 -0.26,-3.39 -0.83,-5.07 -2.15,-6.35 -8.17,-10.69 -14.88,-10.69z"/>
   <path class="fil1" d="M88.68 78.3c0,3.58 -1.84,7.07 -5.15,9 -1.64,0.97 -3.44,1.42 -5.21,1.42 -3.58,0 -7.05,-1.85 -8.97,-5.17 -0.96,-1.65 -1.42,-3.45 -1.42,-5.23 0,-3.59 1.85,-7.07 5.16,-9.01 1.64,-0.95 3.43,-1.41 5.2,-1.41 3.58,0 7.06,1.85 8.99,5.17 0.91,1.59 1.4,3.4 1.4,5.23zm-10.39 -11.53c-1.96,0 -3.95,0.5 -5.77,1.57 -3.67,2.14 -5.72,6 -5.72,9.98 0,1.97 0.51,3.97 1.57,5.8 2.13,3.68 5.99,5.73 9.95,5.73 1.96,0 3.96,-0.5 5.78,-1.57 3.67,-2.14 5.71,-6.01 5.71,-9.98 0,-1.98 -0.5,-3.98 -1.56,-5.8 -2.05,-3.54 -5.86,-5.73 -9.96,-5.73z"/>
   <path class="fil2" d="M99.24 66.98l16.52 -11.21c0.44,-0.3 0.71,-0.78 0.72,-1.32 0.02,-0.53 -0.22,-1.03 -0.65,-1.35l-16.05 -12.1c-0.49,-0.38 -1.15,-0.44 -1.7,-0.16 -0.56,0.28 -0.91,0.84 -0.91,1.46l-0.02 4.62 -0.22 0.22c0,0 -13.25,-0.01 -27.26,-0.02 -12.28,-0.01 -12.07,-0.02 -17.06,-0.02 -0.82,0 -1.52,0.61 -1.63,1.42l-4.88 11.95c-0.06,0.47 0.08,0.95 0.39,1.3 0.32,0.36 0.76,0.56 1.24,0.56l2.09 0c2.57,0 6.05,0.01 9.72,0.01 7.33,0 5.6,0 8.56,0 3.35,0 5.86,0.53 7.79,1.58 1.91,1.03 3.25,2.61 4.17,4.57 0.63,1.33 1.08,2.84 1.46,4.54l0 0.05 -0.04 0.13 -0.18 0.09 -12.85 0c-0.87,0 -1.58,0.67 -1.63,1.53l-1.59 9.1c-0.03,0.45 0.13,0.89 0.44,1.22 0.31,0.33 0.74,0.52 1.2,0.52l12.68 0 0.19 0.11 0.03 0.11 -0.03 0.11c-1.9,3.32 -3.99,6.11 -6.81,8.07 -2.8,1.96 -6.31,3.09 -10.94,3.1l-0.06 0c-3.76,-0.01 -7.96,-0.94 -11.55,-2.04 -0.46,-0.14 -0.95,-0.07 -1.36,0.19 -0.4,0.26 -0.67,0.68 -0.74,1.16 -0.26,1.93 -0.64,4.57 -1.01,7.1 -0.33,2.19 -0.64,4.24 -0.84,5.59 -0.13,0.82 0.38,1.6 1.17,1.82 4.07,1.15 10.35,2.47 15.75,2.48l0.05 0c11.51,0 20.98,-3.86 27.55,-10.23 6.59,-6.37 10.3,-15.25 10.3,-25.31l0 -0.02c-0.01,-4.03 -0.85,-7.42 -1.48,-9.25 -0.1,-0.3 -0.21,-0.57 -0.29,-0.78l-0.12 -0.26 -0.09 -0.2 -0.07 -0.15 -0.06 -0.13 0 -0.01 0.1 -0.15z"/>
   <path class="fil3" d="M85.7 78.31c0,1.57 -0.49,3.16 -1.52,4.5 -1.45,1.91 -3.66,2.92 -5.88,2.92 -1.56,0 -3.14,-0.5 -4.48,-1.52 -1.9,-1.46 -2.9,-3.67 -2.9,-5.9 0,-1.58 0.49,-3.16 1.51,-4.5 1.46,-1.91 3.65,-2.92 5.89,-2.92 1.56,0 3.14,0.5 4.48,1.53 1.83,1.4 2.9,3.59 2.9,5.89zm-7.38 -8.22c-2.47,0 -4.91,1.12 -6.53,3.23 -1.13,1.49 -1.67,3.24 -1.67,4.99 0,2.47 1.1,4.92 3.22,6.54 1.48,1.13 3.23,1.68 4.96,1.68 2.47,0 4.91,-1.11 6.52,-3.24 1.13,-1.48 1.68,-3.24 1.68,-4.98 0,-2.47 -1.11,-4.92 -3.22,-6.53 -1.42,-1.09 -3.17,-1.69 -4.96,-1.69z"/>
   <path class="fil2" d="M99.24 66.98l16.52 -11.21c0.44,-0.3 0.71,-0.78 0.72,-1.32 0.02,-0.53 -0.22,-1.03 -0.65,-1.35l-16.05 -12.1c-0.49,-0.38 -1.15,-0.44 -1.7,-0.16 -0.56,0.28 -0.91,0.84 -0.91,1.46l-0.02 4.62 -0.22 0.22c0,0 -13.25,-0.01 -27.26,-0.02 -12.28,-0.01 -12.07,-0.02 -17.06,-0.02 -0.82,0 -1.52,0.61 -1.63,1.42l-4.88 11.95c-0.06,0.47 0.08,0.95 0.39,1.3 0.32,0.36 0.76,0.56 1.24,0.56l2.09 0c2.57,0 6.05,0.01 9.72,0.01 7.33,0 5.6,0 8.56,0 3.35,0 5.86,0.53 7.79,1.58 1.91,1.03 3.25,2.61 4.17,4.57 0.63,1.33 1.08,2.84 1.46,4.54l0 0.05 -0.04 0.13 -0.18 0.09 -12.85 0c-0.87,0 -1.58,0.67 -1.63,1.53l-1.59 9.1c-0.03,0.45 0.13,0.89 0.44,1.22 0.31,0.33 0.74,0.52 1.2,0.52l12.68 0 0.19 0.11 0.03 0.11 -0.03 0.11c-1.9,3.32 -3.99,6.11 -6.81,8.07 -2.8,1.96 -6.31,3.09 -10.94,3.1l-0.06 0c-3.76,-0.01 -7.96,-0.94 -11.55,-2.04 -0.46,-0.14 -0.95,-0.07 -1.36,0.19 -0.4,0.26 -0.67,0.68 -0.74,1.16 -0.26,1.93 -0.64,4.57 -1.01,7.1 -0.33,2.19 -0.64,4.24 -0.84,5.59 -0.13,0.82 0.38,1.6 1.17,1.82 4.07,1.15 10.35,2.47 15.75,2.48l0.05 0c11.51,0 20.98,-3.86 27.55,-10.23 6.59,-6.37 10.3,-15.25 10.3,-25.31l0 -0.02c-0.01,-4.03 -0.85,-7.42 -1.48,-9.25 -0.1,-0.3 -0.21,-0.57 -0.29,-0.78l-0.12 -0.26 -0.09 -0.2 -0.07 -0.15 -0.06 -0.13 0 -0.01 0.1 -0.15z"/>
  </g>
 </g>
</svg>
