<svg width="190" height="60" viewBox="0 0 190 60" fill="none" xmlns="http://www.w3.org/2000/svg">
<path fill-rule="evenodd" clip-rule="evenodd" d="M78.2353 41.2411C85.951 41.2411 92.2059 38.0937 92.2059 34.2113C92.2059 30.3289 85.951 27.1816 78.2353 27.1816C70.5196 27.1816 64.2647 30.3289 64.2647 34.2113C64.2647 38.0937 70.5196 41.2411 78.2353 41.2411ZM78.2353 36.5546C79.7784 36.5546 81.0294 35.5055 81.0294 34.2113C81.0294 32.9172 79.7784 31.8681 78.2353 31.8681C76.6921 31.8681 75.4412 32.9172 75.4412 34.2113C75.4412 35.5055 76.6921 36.5546 78.2353 36.5546Z" fill="black"/>
<path d="M95 27.1816H105.245V41.2411H95V27.1816Z" fill="black"/>
<path d="M111.765 27.1816H123.873L115.49 34.2113L123.873 41.2411H111.765L105.245 34.2113L111.765 27.1816Z" fill="black"/>
<path d="M125.735 45.9275H135.98V59.987H125.735V45.9275Z" fill="black"/>
<path d="M142.5 45.9275H154.608L146.225 52.9572L154.608 59.987H142.5L135.98 52.9572L142.5 45.9275Z" fill="black"/>
<path fill-rule="evenodd" clip-rule="evenodd" d="M176.961 27.1816H164.387L154.142 41.2411H164.853L166.716 38.4292H174.167L176.029 41.2411H186.74L176.961 27.1816ZM168.113 35.6173L170.441 30.9308L172.77 35.6173H168.113Z" fill="black"/>
<path fill-rule="evenodd" clip-rule="evenodd" d="M180.221 45.9275H167.647L157.402 59.987H168.113L169.975 57.1751H177.426L179.289 59.987H190L180.221 45.9275ZM171.373 54.3632L173.701 49.6767L176.029 54.3632H171.373Z" fill="black"/>
<path d="M125.735 27.1816H135.98V41.2411H125.735V27.1816Z" fill="black"/>
<path d="M141.569 27.1816H151.814V41.2411H141.569V27.1816Z" fill="black"/>
<path d="M135.98 32.8054H141.569V35.6173H135.98V32.8054Z" fill="black"/>
<path fill-rule="evenodd" clip-rule="evenodd" d="M68.9216 45.9275H86.6176C86.6176 45.9275 93.1373 45.4589 93.1373 49.2081C93.1373 51.5513 89.8774 52.4886 89.8774 52.4886C89.8774 52.4886 94.0686 52.9573 94.0686 55.7691C94.0686 60.4556 86.6176 59.987 86.6176 59.987H68.9216V45.9275ZM79.1667 48.7394H81.4951C81.4951 48.7394 82.8922 48.7394 82.8922 50.1454C82.8922 51.5513 81.4951 51.5513 81.4951 51.5513H79.1667V48.7394ZM81.4951 54.3632H79.1667V57.1751H81.4951C81.4951 57.1751 82.8922 57.1751 82.8922 55.7691C82.8922 54.3632 81.4951 54.3632 81.4951 54.3632Z" fill="black"/>
<path d="M99.6569 45.9275H109.902C109.902 51.4181 109.902 54.4964 109.902 59.987H99.6569V45.9275Z" fill="black"/>
<path d="M109.902 45.9275H119.216V49.6767H109.902V45.9275Z" fill="black"/>
<path d="M109.902 56.2378H119.216V59.987H109.902V56.2378Z" fill="black"/>
<path d="M109.902 51.5513H118.284V54.3632H109.902V51.5513Z" fill="black"/>
<path d="M184.971 26.0568V22.5982H186.712C186.852 22.5982 187.004 22.6388 187.169 22.7201C187.333 22.7982 187.473 22.92 187.588 23.0856C187.706 23.2481 187.765 23.4543 187.765 23.7042C187.765 23.9573 187.704 24.1729 187.583 24.351C187.462 24.5259 187.315 24.6587 187.141 24.7493C186.97 24.8399 186.808 24.8852 186.656 24.8852H185.399V24.3228H186.424C186.526 24.3228 186.636 24.2713 186.754 24.1682C186.875 24.0651 186.936 23.9104 186.936 23.7042C186.936 23.4918 186.875 23.348 186.754 23.2731C186.636 23.1981 186.532 23.1606 186.442 23.1606H185.725V26.0568H184.971ZM187.048 24.4259L187.904 26.0568H187.076L186.237 24.4259H187.048ZM186.275 28.1189C185.759 28.1189 185.276 28.022 184.826 27.8283C184.376 27.6346 183.98 27.3659 183.639 27.0222C183.297 26.6786 183.03 26.2802 182.838 25.8272C182.645 25.3742 182.549 24.8883 182.549 24.3697C182.549 23.8511 182.645 23.3652 182.838 22.9122C183.03 22.4592 183.297 22.0608 183.639 21.7171C183.98 21.3735 184.376 21.1048 184.826 20.9111C185.276 20.7174 185.759 20.6205 186.275 20.6205C186.79 20.6205 187.273 20.7174 187.723 20.9111C188.173 21.1048 188.569 21.3735 188.91 21.7171C189.252 22.0608 189.519 22.4592 189.711 22.9122C189.904 23.3652 190 23.8511 190 24.3697C190 24.8883 189.904 25.3742 189.711 25.8272C189.519 26.2802 189.252 26.6786 188.91 27.0222C188.569 27.3659 188.173 27.6346 187.723 27.8283C187.273 28.022 186.79 28.1189 186.275 28.1189ZM186.275 27.2191C186.796 27.2191 187.271 27.091 187.7 26.8348C188.128 26.5786 188.469 26.2349 188.724 25.8038C188.979 25.3726 189.106 24.8946 189.106 24.3697C189.106 23.8448 188.979 23.3668 188.724 22.9356C188.469 22.5045 188.128 22.1608 187.7 21.9046C187.271 21.6484 186.796 21.5203 186.275 21.5203C185.753 21.5203 185.278 21.6484 184.85 21.9046C184.421 22.1608 184.08 22.5045 183.825 22.9356C183.57 23.3668 183.443 23.8448 183.443 24.3697C183.443 24.8946 183.57 25.3726 183.825 25.8038C184.08 26.2349 184.421 26.5786 184.85 26.8348C185.278 27.091 185.753 27.2191 186.275 27.2191Z" fill="black"/>
<path d="M2.79412 27.1816C2.79412 27.1816 6.12011 29.8327 8.84804 30.9308C11.576 32.0289 16.7647 32.8054 16.7647 32.8054V52.4886H38.1863C38.1863 52.4886 45.6373 52.4886 45.6373 45.4589C45.6373 38.4292 37.2549 38.4292 37.2549 38.4292H24.2157V32.8054H42.3774C42.3774 32.8054 63.3333 31.8681 63.3333 45.4589C63.3333 60.9243 38.1863 59.987 38.1863 59.987H2.79412V27.1816Z" fill="#396F04"/>
<path d="M0.931373 13.1222V14.9967H1.87493C1.86682 14.8409 1.86275 14.6847 1.86275 14.5281C1.86275 14.0556 1.89984 13.5864 1.9729 13.1222H0.931373Z" fill="#0B81BB"/>
<path fill-rule="evenodd" clip-rule="evenodd" d="M32.2828 23.2928C35.3186 21.0378 37.0812 18.1011 37.2427 14.9967H1.87493C1.86682 14.8409 1.86275 14.6847 1.86275 14.5281C1.86275 14.0556 1.89984 13.5864 1.9729 13.1222H18.325L9.54524 4.11366C10.1318 3.82319 10.7447 3.5569 11.3811 3.31725L18.7639 10.8976V1.88724C16.0948 1.97234 13.5953 2.48355 11.3811 3.31725L10.7102 2.62838L9.19003 3.7492L9.54524 4.11366C8.56376 4.59971 7.65601 5.15348 6.83484 5.76343C4.1064 7.79009 2.40646 10.3674 1.9729 13.1222H0.931373V14.9967H1.87493C2.03647 18.1011 3.79901 21.0378 6.83484 23.2928C10.0225 25.6605 14.515 27.1816 19.5588 27.1816C24.6027 27.1816 29.0952 25.6605 32.2828 23.2928ZM20.6266 1.89745V10.8976L27.9354 3.39329C25.7475 2.54379 23.2731 2.01106 20.6266 1.89745ZM29.7567 4.20616L21.0658 13.1222H37.1447C36.7112 10.3674 35.0112 7.79009 32.2828 5.76343C31.5133 5.19184 30.6677 4.66959 29.7567 4.20616ZM19.5588 29.0562C30.3609 29.0562 39.1176 22.5517 39.1176 14.5281C39.1176 6.50445 30.3609 0 19.5588 0C8.75678 0 0 6.50445 0 14.5281C0 22.5517 8.75678 29.0562 19.5588 29.0562Z" fill="#0B81BB"/>
<path d="M10.7102 2.62838L9.19003 3.7492L9.54524 4.11366C10.1318 3.82319 10.7447 3.5569 11.3811 3.31725L10.7102 2.62838Z" fill="#0B81BB"/>
</svg>
