<?xml version="1.0" encoding="UTF-8"?>
<!DOCTYPE svg PUBLIC "-//W3C//DTD SVG 1.1//EN" "http://www.w3.org/Graphics/SVG/1.1/DTD/svg11.dtd">
<!-- Creator: CorelDRAW 2020 (64-Bit) -->
<svg xmlns="http://www.w3.org/2000/svg" xml:space="preserve" width="160px" height="160px" version="1.1" style="shape-rendering:geometricPrecision; text-rendering:geometricPrecision; image-rendering:optimizeQuality; fill-rule:evenodd; clip-rule:evenodd"
viewBox="0 0 160 160"
 xmlns:xlink="http://www.w3.org/1999/xlink"
 xmlns:xodm="http://www.corel.com/coreldraw/odm/2003">
 <defs>
  <style type="text/css">
   <![CDATA[
    .str0 {stroke:blue;stroke-width:0.9;stroke-miterlimit:22.9256}
    .str1 {stroke:#00CCFF;stroke-width:0.9;stroke-miterlimit:22.9256}
    .fil0 {fill:none}
    .fil3 {fill:none;fill-rule:nonzero}
    .fil2 {fill:white}
    .fil1 {fill:#009846;fill-rule:nonzero}
    .fil4 {fill:white;fill-rule:nonzero}
   ]]>
  </style>
 </defs>
 <g id="Слой_x0020_1">
  <metadata id="CorelCorpID_0Corel-Layer"/>
  <rect class="fil0" width="160" height="160"/>
  <g id="_2324404581536">
   <path class="fil1 str0" d="M5.43 79.25c1.31,0.78 2.76,1.26 4.31,1.5l0 4.66 6.09 0c0.71,0 1.29,-0.16 1.73,-0.49 0.44,-0.33 0.67,-0.7 0.67,-1.12 0,-0.26 -0.11,-0.51 -0.32,-0.74 -0.21,-0.23 -0.55,-0.41 -0.98,-0.55 -0.44,-0.14 -0.98,-0.21 -1.6,-0.22l-3.38 -0.04 -0.03 -1.38c2.44,0.03 6.9,-0.2 8.96,0.4 0.81,0.23 1.34,0.64 1.7,1.08 0.37,0.45 0.55,0.93 0.55,1.45 0,0.53 -0.18,1.04 -0.54,1.52 -0.36,0.48 -0.89,0.87 -1.57,1.18 -0.67,0.3 -2.43,0.45 -3.33,0.45l-12.26 0 0 -7.7z"/>
   <g>
    <path class="fil2" d="M11.16 73.05c3.4,0 6.16,1.49 6.16,3.33 0,1.85 -2.76,3.34 -6.16,3.34 -3.4,0 -6.16,-1.49 -6.16,-3.34 0,-1.84 2.76,-3.33 6.16,-3.33z"/>
    <path id="1" class="fil3 str1" d="M11.16 73.05c3.4,0 6.16,1.49 6.16,3.33 0,1.85 -2.76,3.34 -6.16,3.34 -3.4,0 -6.16,-1.49 -6.16,-3.34 0,-1.84 2.76,-3.33 6.16,-3.33z"/>
   </g>
   <g>
    <path class="fil3 str1" d="M11.16 76.38l-6.16 0c0,-1.84 2.76,-3.33 6.16,-3.33 3.4,0 6.16,1.49 6.16,3.33l-6.16 0z"/>
   </g>
   <g>
    <path class="fil3 str1" d="M11.16 76.38l-4.35 -2.35c1.15,-0.63 2.72,-0.98 4.35,-0.98 3.4,0 6.16,1.49 6.16,3.33l-6.16 0z"/>
   </g>
   <g>
    <path class="fil3 str1" d="M11.16 76.38l4.35 -2.35c-1.16,-0.63 -2.72,-0.98 -4.35,-0.98 -3.4,0 -6.16,1.49 -6.16,3.33l6.16 0z"/>
   </g>
   <g>
    <path class="fil3 str1" d="M11.16 76.38l0 -3.33c3.4,0 6.16,1.49 6.16,3.33l-6.16 0z"/>
   </g>
   <path class="fil4 str0" d="M81.78 82.97l-1.25 -3.11 -1.3 3.1 2.55 0.01zm7.66 3.98l-6.08 -0.04 -0.68 -1.67 -4.38 -0.03 -0.7 1.66 -6.09 -0.04 4.77 -9.63 8.52 0.06 4.64 9.69z"/>
   <polygon class="fil4 str0" points="71.14,86.82 65.21,86.78 65.23,83.21 62.31,83.19 62.29,86.76 56.35,86.72 56.41,77.06 62.35,77.1 62.33,80.65 65.25,80.67 65.27,77.12 71.21,77.16 "/>
   <polygon class="fil4 str0" points="55.99,86.72 48.86,86.67 45.7,82.19 45.68,86.65 39.84,86.61 39.9,76.95 45.74,76.99 45.71,81.06 49.22,77.01 55.76,77.06 51.26,81.47 "/>
   <path class="fil4 str0" d="M33.53 81.73c0.01,-0.46 -0.16,-0.83 -0.48,-1.13 -0.3,-0.27 -0.65,-0.41 -1.05,-0.41 -0.4,0 -0.75,0.13 -1.05,0.4 -0.32,0.29 -0.49,0.66 -0.49,1.12 -0.01,0.46 0.16,0.84 0.48,1.13 0.29,0.27 0.64,0.4 1.04,0.41 0.41,0 0.77,-0.13 1.06,-0.4 0.33,-0.28 0.49,-0.66 0.49,-1.12zm5.66 0.04c-0.01,1.39 -0.68,2.56 -2.01,3.51 -1.37,0.96 -3.11,1.44 -5.22,1.43 -2.1,-0.02 -3.84,-0.52 -5.19,-1.5 -1.33,-0.96 -1.98,-2.14 -1.98,-3.54 0.01,-1.4 0.69,-2.57 2.02,-3.51 1.38,-0.96 3.11,-1.44 5.22,-1.43 2.1,0.02 3.84,0.52 5.19,1.5 1.32,0.96 1.98,2.14 1.97,3.54z"/>
   <path class="fil4 str0" d="M147.22 83.24l-1.29 -2.93 -1.29 2.93 2.58 0zm7.78 3.71l-6.15 0 -0.7 -1.57 -4.44 0 -0.7 1.57 -6.15 0 4.76 -9.13 8.62 0 4.76 9.13z"/>
   <polygon class="fil4 str0" points="136.71,86.95 129.5,86.95 126.28,82.74 126.28,86.95 120.38,86.95 120.38,77.82 126.28,77.82 126.28,81.67 129.8,77.82 136.42,77.82 131.9,82.02 "/>
   <polygon class="fil4 str0" points="119.28,86.95 108.54,86.95 108.54,77.82 119.28,77.82 119.28,80.1 114.44,80.1 114.44,81.19 118.72,81.19 118.72,83.45 114.44,83.45 114.44,84.58 119.28,84.58 "/>
   <path class="fil4 str0" d="M101.36 83.85c0,-0.61 -0.63,-0.92 -1.88,-0.92l-0.18 0 0 1.89 0.18 0c1.25,0 1.88,-0.32 1.88,-0.97zm-0.18 -3.16c0,-0.27 -0.15,-0.49 -0.45,-0.66 -0.3,-0.17 -0.71,-0.26 -1.25,-0.26l-0.18 0 0 1.89 0.18 0c1.13,0 1.7,-0.32 1.7,-0.97zm6.38 3.61c0,1.77 -2.07,2.65 -6.2,2.65l-7.8 0 0 -9.13 8.14 0c1.57,0 2.82,0.21 3.76,0.63 0.95,0.42 1.43,1.01 1.43,1.76 0,0.41 -0.15,0.75 -0.45,1.01 -0.28,0.25 -0.76,0.48 -1.41,0.68 1.69,0.33 2.53,1.13 2.53,2.4z"/>
  </g>
 </g>
</svg>
