<?xml version="1.0" encoding="UTF-8"?>
<!DOCTYPE svg PUBLIC "-//W3C//DTD SVG 1.1//EN" "http://www.w3.org/Graphics/SVG/1.1/DTD/svg11.dtd">
<!-- Creator: CorelDRAW -->
<svg xmlns="http://www.w3.org/2000/svg" xml:space="preserve" width="160px" height="160px" version="1.1" style="shape-rendering:geometricPrecision; text-rendering:geometricPrecision; image-rendering:optimizeQuality; fill-rule:evenodd; clip-rule:evenodd"
viewBox="0 0 156.62 156.62"
 xmlns:xlink="http://www.w3.org/1999/xlink"
 xmlns:xodm="http://www.corel.com/coreldraw/odm/2003">
 <defs>
  <style type="text/css">
   <![CDATA[
    .fil0 {fill:none}
    .fil2 {fill:#DA3735}
    .fil1 {fill:#DA3735;fill-rule:nonzero}
   ]]>
  </style>
 </defs>
 <g id="Слой_x0020_1">
  <metadata id="CorelCorpID_0Corel-Layer"/>
  <rect class="fil0" width="156.62" height="156.62"/>
  <g id="_2857002456000">
   <g>
    <path class="fil1" d="M11.12 122.07c0.57,-1.38 1.18,-3.59 1.34,-6.87 0.01,-0.22 0.2,-0.39 0.41,-0.39l3.48 0 0 7.26 -5.23 0zm7.84 -9.88l-6.43 0c-1.42,0 -2.6,1.12 -2.66,2.55 -0.17,4.44 -1.25,6.66 -1.65,7.33l-0.38 0c-0.86,0 -1.56,0.7 -1.56,1.55l0 3.09 2.62 0 0 -2.03 8.74 0 0 2.03 2.61 0 0 -4.64 -1.29 0 0 -9.88z"/>
    <path class="fil1" d="M104.39 122.35c-2.16,0 -3.92,-1.76 -3.92,-3.92 0,-2.16 1.76,-3.91 3.92,-3.91 2.16,0 3.92,1.75 3.92,3.91 0,2.16 -1.76,3.92 -3.92,3.92zm0 -10.44c-3.6,0 -6.53,2.93 -6.53,6.52 0,3.6 2.93,6.53 6.53,6.53 3.6,0 6.53,-2.93 6.53,-6.53 0,-3.59 -2.93,-6.52 -6.53,-6.52z"/>
    <path class="fil1" d="M120.16 118.33c-0.69,0.22 -1.66,0.34 -2.28,0.35 -0.89,0 -1.56,-0.22 -1.98,-0.65 -0.63,-0.65 -0.6,-1.65 -0.6,-1.65l0 -4.19 -2.61 0 0 4.1c-0.02,0.35 0,2.15 1.31,3.53 0.93,0.98 2.23,1.47 3.9,1.47l0 0c0.17,0 1.18,-0.03 2.26,-0.27l0 3.65 2.61 0 0 -4.05 0 -3.01 0 -5.42 -2.61 0 0 6.14z"/>
    <path class="fil1" d="M29.41 122.06l-4.36 0 0 -2.06c0,-0.23 0.19,-0.41 0.41,-0.41l4 0c0.72,0 1.3,0.63 1.23,1.36 -0.06,0.64 -0.64,1.11 -1.28,1.11zm-4.36 -6.84c0,-0.23 0.19,-0.41 0.41,-0.41l3.65 0c0.52,0 0.99,0.35 1.09,0.85 0.15,0.7 -0.39,1.32 -1.06,1.32l-4.09 0 0 -1.76zm7.78 0.36c-0.17,-1.94 -1.86,-3.39 -3.8,-3.39l-4.94 0c-0.91,0 -1.65,0.74 -1.65,1.65l0 10.83 6.91 0c2.05,0 3.83,-1.56 3.95,-3.61 0.07,-1.18 -0.4,-2.25 -1.17,-3 0.5,-0.69 0.77,-1.55 0.7,-2.48z"/>
    <path class="fil1" d="M55.49 113.84l0 10.83 2.61 0 0 -9.45c0,-0.23 0.19,-0.41 0.42,-0.41l4.96 0 0 9.86 2.62 0 0 -12.48 -8.96 0c-0.91,0 -1.65,0.74 -1.65,1.65z"/>
    <path class="fil1" d="M74.97 122.35c-2.16,0 -3.92,-1.76 -3.92,-3.92 0,-2.16 1.76,-3.91 3.92,-3.91 2.16,0 3.91,1.75 3.91,3.91 0,2.16 -1.75,3.92 -3.91,3.92zm3.91 -8.74c-1.11,-1.06 -2.58,-1.7 -4.19,-1.7 -3.45,0 -6.25,2.93 -6.25,6.52 0,3.6 2.8,6.53 6.25,6.53 1.61,0 3.08,-0.64 4.19,-1.7l0 1.41 2.62 0 0 -12.48 -2.62 0 0 1.42z"/>
    <polygon class="fil1" points="137.23,112.2 133.76,112.2 130.42,116.88 128.57,116.88 128.57,112.19 125.96,112.19 125.96,124.67 128.57,124.67 128.57,119.49 130.43,119.49 134.17,124.67 137.7,124.67 132.84,118.17 "/>
    <polygon class="fil1" points="148.41,112.2 142.21,119.73 142.21,112.2 139.6,112.2 139.6,124.67 141.52,124.67 147.72,117.14 147.72,124.67 150.33,124.67 150.33,112.2 "/>
    <path class="fil1" d="M86.88 113.81c0,0.07 -0.01,0.12 -0.01,0.16 -0.04,1.24 -0.23,4.59 -0.99,6.73 -0.28,0.81 -1.06,1.36 -1.93,1.36l-0.23 0.06 0.23 2.55c1.98,0 3.75,-1.25 4.4,-3.11 0.74,-2.11 1.01,-5.07 1.1,-6.74l3.41 0 0 9.86 2.61 0 0 -12.48 -6.95 0c-0.89,0 -1.62,0.72 -1.64,1.61z"/>
    <path class="fil1" d="M37.64 117.13c0.16,-0.47 0.42,-0.92 0.77,-1.3 0.74,-0.83 1.81,-1.31 2.92,-1.31 1.71,0 3.16,1.09 3.7,2.61l-7.39 0zm3.69 -5.22c-1.85,0 -3.63,0.79 -4.86,2.18 -1.24,1.38 -1.83,3.24 -1.62,5.09 0.34,3.06 2.81,5.48 5.88,5.75 0.2,0.02 0.4,0.03 0.6,0.03 1.79,0 3.48,-0.72 4.72,-2.02l0.38 -0.39 -1.65 -0.95 -0.68 -0.4c-0.83,0.83 -1.96,1.24 -3.14,1.13 -1.31,-0.11 -2.44,-0.88 -3.05,-1.98 -0.15,-0.27 0.05,-0.61 0.36,-0.61l8.29 0c0.71,0 1.3,-0.57 1.3,-1.28 0.01,-3.61 -2.92,-6.55 -6.53,-6.55z"/>
   </g>
   <path class="fil2" d="M27.3 29.91c-0.54,3.94 -0.17,7.43 1.42,11.55 1.59,4.12 4.33,7.08 8.22,8.88l16.44 7.6c1.74,0.81 2.68,1.59 4.18,2.86 2.32,1.96 2.38,4.7 3.2,6.19 0.69,-2.22 1.06,-4.08 1.08,-5.59 0.14,-3.1 -0.33,-6.76 -1.87,-9.85 -1.55,-3.14 -5.78,-6.92 -9.57,-8.67l-16.2 -7.49c-0.98,-0.46 -2.14,-1.18 -3.45,-2.18 -1.31,-1.02 -2.96,-2.68 -3.45,-3.3zm78.36 51.86c-5.57,-11.27 -16.35,-20.19 -28.81,-22.53 5.42,-7.8 13.82,-13.14 23.97,-13.38l-0.12 -9.3c0,0 -1.17,0.01 -3.11,0.25 -14.47,1.85 -25.62,9.88 -31.95,22.87 -2.6,5.33 -4.43,12.07 -4.53,16.59l9.36 -0.08c0,0 0.19,-2.6 1.3,-6.33l0.57 -1.76c15.72,2 27.35,14.88 28.72,30.25l9.36 -0.08c0,0 0.19,-2.6 1.31,-6.33 2.81,-9.46 9.18,-17.53 17.83,-21.45l0 -9.85c-10.59,3.38 -18.79,10.64 -23.9,21.13z"/>
  </g>
 </g>
</svg>
