<?xml version="1.0" encoding="UTF-8"?>
<!DOCTYPE svg PUBLIC "-//W3C//DTD SVG 1.1//EN" "http://www.w3.org/Graphics/SVG/1.1/DTD/svg11.dtd">
<!-- Creator: CorelDRAW 2020 (64-Bit) -->
<svg xmlns="http://www.w3.org/2000/svg" xml:space="preserve" width="210mm" height="297mm" version="1.1" style="shape-rendering:geometricPrecision; text-rendering:geometricPrecision; image-rendering:optimizeQuality; fill-rule:evenodd; clip-rule:evenodd"
viewBox="0 0 21000 29700"
 xmlns:xlink="http://www.w3.org/1999/xlink"
 xmlns:xodm="http://www.corel.com/coreldraw/odm/2003">
 <defs>
  <style type="text/css">
   <![CDATA[
    .fil2 {fill:#991F36}
    .fil1 {fill:#FEFEFE;fill-rule:nonzero}
    .fil0 {fill:#991F36;fill-rule:nonzero}
   ]]>
  </style>
 </defs>
 <g id="Слой_x0020_1">
  <metadata id="CorelCorpID_0Corel-Layer"/>
  <g id="_2595488518704">
   <path class="fil0" d="M17989.8 21461.46c-1555.94,1560.31 -3699.63,2523.54 -6073.28,2524.34 -2372.31,-0.8 -4516.46,-964.03 -6072.28,-2524.34 -1553.64,-1559.89 -2514.27,-3711.78 -2514.27,-6092.31 0,-2380.44 960.63,-4532.21 2514.27,-6092.24 1555.82,-1560.23 3699.97,-2524.26 6072.28,-2524.26 2373.65,0 4517.34,964.03 6073.28,2524.26 1554.91,1560.03 2515.2,3711.8 2515.2,6092.24 0,2281.22 -905.31,4477.27 -2515.2,6092.31zm-6073.28 -15423.82c-5135.66,0.93 -9298.35,4177.97 -9298.35,9331.51 0,5153.28 4162.69,9330.79 9298.35,9330.79 5137.27,0 9300.28,-4177.51 9300.28,-9330.79 0,-5114.34 -4175.35,-9330.6 -9300.28,-9331.51z"/>
   <path class="fil0" d="M19643.18 15371.62c0,4222.11 -3376.48,7678.87 -7601.04,7748.16 -43.4,0.19 -85.09,0.66 -127.56,0.66 -4208.1,0 -7653.38,-3388.7 -7720.79,-7625.74 -0.59,-43.27 -1.6,-86.14 -1.6,-127.94 -0.72,-4222.38 3376.96,-7679.82 7599.59,-7748.03 43.4,-0.8 85.93,-1.92 128.27,-1.92 4207.84,0 7653.19,3389.82 7720.79,7627.34 2.34,42.44 2.34,84.99 2.34,127.47zm647.68 -141.02c-74.2,-4592.07 -3808.41,-8265.27 -8370.81,-8265.27 -46.93,0 -92.33,1.08 -137.94,1.6 -4578.27,74.68 -8238.98,3821.54 -8238.98,8399.83 0,45.47 0,92 0,138.61 74.47,4594.08 3808.73,8266.34 8371.45,8266.34 46.61,0 91.28,0 138.03,-0.8 4578.86,-74.53 8239.9,-3821 8239.9,-8399.29 0,-45.8 0,-91.37 -1.57,-136.98 0,-102.09 -0.08,106.59 -0.08,-4.04z"/>
   <path class="fil0" d="M18783.89 15373.56c0,3688.25 -2912.56,6744.71 -6617.01,6879.99 -84.22,2.66 -170.36,4.94 -253.89,4.94 -3676.31,0.13 -6722.36,-2922.19 -6856.36,-6638.51 -3.55,-85.74 -4.61,-170.62 -4.61,-255.83 0,-3687.92 2911.62,-6744.85 6615.14,-6879.19 85.48,-3.6 170.36,-5.53 254.83,-5.53 3675.98,0 6722.69,2922.3 6856.71,6639.36 3.53,84.88 5.19,169.83 5.19,254.77zm-6861.9 -7483.33c-92.28,0 -183.62,1.86 -274.9,5.07 -4022.21,147.62 -7182.2,3464.11 -7182.2,7468.85 0,92.68 0.59,184.7 4.54,276.44 147.01,4035.42 3450.81,7206.43 7443.56,7206.43 90.67,0 184.29,-2.01 275.56,-5.07 4021.54,-146.88 7182.54,-3462.57 7182.54,-7468.39 0,-91.75 -1.27,-184.02 -4.47,-276.43 -145.42,-3987.44 -3445.08,-7206.9 -7444.63,-7206.9z"/>
   <path class="fil0" d="M17927 15375.02c0,3158.68 -2450.44,5814.02 -5636.11,6012.84 -126.88,7.8 -254.29,11.66 -378.84,11.66 -3148.44,0.4 -5794.79,-2459.45 -5993.28,-5654.4 -7.46,-128.34 -12.06,-255.09 -12.06,-381.76 0,-3158.27 2450.45,-5814.68 5635.37,-6013.18 128.69,-7.66 255.23,-10.87 379.91,-10.87 3147.98,-0.59 5795.06,2458.34 5994.28,5653.74 8,127.16 10.73,254.6 10.73,381.97zm-6005.01 -6563.48c-135.01,0 -273.63,4.26 -411.57,12.8 -3464.5,217.48 -6128.3,3103.05 -6128.3,6539.02 0,137 4.13,275.62 11.94,413.78 217.08,3476.1 3093.97,6148.65 6517.99,6148.65 135.96,0 272.97,-4.14 411.91,-12.61 3465.15,-217.28 6128.36,-3102.52 6128.36,-6538.16 0,-138.01 -3.26,-275.63 -12.06,-414.11 -213.91,-3426.54 -3077.2,-6149.37 -6518.27,-6149.37z"/>
   <path class="fil0" d="M17077.78 15375.02c0,2633.61 -1994.47,4887.85 -4662.48,5147.41 -169.08,15.74 -338.09,24.14 -505.18,24.14 -2624.8,0 -4870.16,-2001.47 -5127.93,-4676.96 -17.8,-170.55 -24.94,-339.3 -24.94,-506.86 0,-2632.8 1993.69,-4887.51 4661.89,-5147.14 169.01,-15.33 337.37,-24.74 504.12,-24.74 2623.73,0 4870.75,2002.29 5130.53,4677.57 16.29,168.33 23.99,337.47 23.99,506.58zm-5154.52 -5648.25c-181.28,0 -364.65,8.99 -549.19,26.8 -2906.1,284.23 -5079.92,2737.48 -5079.92,5609.18 0,182.15 9.06,366.38 25.93,551.4 283.64,2915.65 2729.28,5096.73 5590.04,5096.73 182.55,0 366.24,-8.13 549.86,-26.73 2907.02,-283.23 5080.84,-2737.22 5080.84,-5609.13 0,-182.02 -9.39,-366.44 -27.2,-551.25 -277.51,-2865.4 -2705.3,-5097 -5590.36,-5097z"/>
   <path class="fil0" d="M16236.63 15374.35c0,2115.36 -1548.16,3969.09 -3697.31,4282.93 -209.83,30.47 -420.31,45.59 -627.27,45.59 -2109.08,0 -3955.86,-1553.08 -4267.97,-3709.52 -30.26,-211.76 -45.41,-421.78 -45.41,-629.79 0,-2116.23 1547.84,-3969.29 3696.06,-4282.6 211.08,-30.66 421.04,-46.4 627.26,-46.4 2109.82,0 3957.13,1553.83 4269.3,3710.52 29.93,208.34 45.34,418.78 45.34,629.27zm-4314.64 -4740.82c-225.63,0 -454.04,16.32 -684,50.2 -2350.04,343.17 -4040.61,2366.31 -4040.61,4679.83 0,227.55 16.92,456.98 49.27,687.46 341.89,2356.39 2358.97,4053.17 4665.4,4053.17 226.03,0 454.32,-16.48 685.88,-49.55 2348.03,-343.49 4039.68,-2366.63 4039.68,-4680.29 0,-226.82 -16.54,-456.5 -50.81,-687.4 -334.8,-2306.98 -2329.41,-4053.42 -4664.81,-4053.42z"/>
   <path class="fil0" d="M15411.47 15372.76c0,1610.64 -1115.43,3062.32 -2749,3420.1 -251.1,55.06 -502.05,80.61 -749.22,80.61 -1605.09,0 -3051.84,-1117.99 -3409.02,-2756.5 -54.74,-251.62 -79.34,-503.39 -79.34,-752.02 0,-1610.63 1114.39,-3062.78 2746.68,-3419.3 250.76,-55.6 502.07,-81.87 748.48,-81.87 1606.77,0 3053.51,1118.26 3409.42,2757.3 53.78,246.83 82,499 82,751.68zm-3491.42 -3848.61c-271.69,0 -545.72,29.34 -820.68,89.74 -1790.99,392.98 -3013.31,1983.94 -3013.31,3751.06 0,272.36 29.21,549.2 88.47,824.69 391.85,1797.26 1976.87,3023.79 3738.72,3023.79 270.76,0 546.06,-29.2 820.75,-89.14 1792.86,-392.78 3014.91,-1983.35 3014.91,-3751.53 0,-271.77 -28.54,-548.33 -88.81,-824.16 -381.63,-1750.43 -1946.01,-3024.45 -3740.05,-3024.45z"/>
   <path class="fil0" d="M14613.39 15369.15c0,1126.26 -707.32,2178.57 -1829.18,2560.6 -288.3,98.29 -580.12,144.69 -867.69,144.69 -1122.51,-0.47 -2169.96,-708.61 -2551.8,-1835.19 -97.21,-288.9 -144.41,-582.26 -144.41,-870.9 1.67,-1126.71 707.28,-2178.55 1828.86,-2560.54 288.29,-98.41 581.39,-144.47 867.35,-144.47 1124.12,0 2172.82,709.2 2553.73,1835.65 94.8,280.06 143.14,574.51 143.14,870.16zm-2696.87 -2983.05c-316.03,0 -638,51.68 -955.43,159.42 -1236.59,422.18 -2016.07,1581.51 -2016.07,2822.83 0,318.78 51.14,642.27 159.35,959.7 420.11,1241.13 1574.62,2023.16 2812.15,2023.16 317.77,0 640.27,-51.27 956.43,-159.29 1236.8,-422.18 2016.41,-1580.97 2016.41,-2822.77 0,-318.7 -50.2,-642.19 -158.02,-960.1 -407.67,-1201.5 -1545.49,-2022.95 -2814.82,-2022.95z"/>
   <path class="fil0" d="M13880.52 15366.76c0,678.26 -349.17,1337.81 -975.83,1703.44 -310.56,182.62 -649.74,268.64 -985.57,268.64 -676.53,0 -1332.8,-350.31 -1697.77,-977.91 -181.68,-312.91 -267.49,-652.94 -267.49,-990.51 0,-677.94 349.16,-1337.41 975.5,-1703.51 310.23,-181.62 649.73,-268.16 985.22,-268.16 675.94,0.46 1334.41,350.64 1699.72,978.58 173.58,300.28 266.22,642.54 266.22,989.43zm-1965.94 -2182.43c-371.43,0 -747.8,95.54 -1092.71,297.77 -694.46,405.09 -1081.7,1136.31 -1081.7,1888.32 0,372.91 95.74,752.28 296.62,1098.45 403.79,696.02 1133.52,1083.79 1882.33,1083.79 371.77,0 749.07,-95.28 1094.31,-297.11 694.15,-405.3 1080.51,-1136.65 1080.51,-1888.79 0,-373.71 -94.27,-752.21 -295.09,-1096.65 -389.01,-670.1 -1109.89,-1085.78 -1884.27,-1085.78z"/>
   <path class="fil1" d="M15878.39 13225.33l3126.12 -2121.29c82.88,-56.14 133.68,-148.48 135.42,-249.29 3.73,-100.08 -41.87,-194.83 -123.15,-255.57l-3036.04 -2290.44c-93.95,-71.41 -218.56,-82.54 -323.17,-29.87 -105.54,52.41 -171.68,159.42 -171.68,276.5l-3.94 873.62 -41.07 41.81c0.67,0 -2507.72,-2.07 -5158.33,-4 -2323.7,-2 -2283.3,-3.14 -3228.59,-3.27 -154.82,0 -286.7,114.61 -307.7,268.63l-923.03 2261.31c-12.4,89.34 15.14,178.88 74.08,246.29 59.07,66.87 143.88,105.68 233.29,105.68l396.44 0c485.78,0 1144.45,1.06 1838.85,1.06 1387.81,0.67 1059.44,1.14 1619.7,1.14 634.13,0 1108.98,100.27 1473.95,298.16 362.11,194.29 614.4,493.39 789.22,864.23 119.21,252.29 204.75,538.05 275.96,859.62l1.06 9.27 -8.13 25.87 -34 15.6 -2432.59 0c-163.88,0 -298.29,126.48 -308.43,289.9l-299.49 1721.25c-5.87,85.07 24.93,169.88 83.27,231.89 57.54,62.14 139.55,97.74 225.69,97.74l2400.18 0 36.27 21.34 4.53 20.53 -5.2 20.14c-358.17,628.66 -754.54,1156.72 -1288.93,1528.49 -528.65,370.51 -1193.52,583.66 -2070.21,584.93l-11.07 0c-711.81,-0.33 -1506.02,-177.29 -2184.76,-384.84 -86.8,-26.87 -180.41,-13.47 -257.16,35.6 -76.14,48.94 -126.28,129.22 -139.61,219.23 -49.87,364.97 -121.75,865.55 -192.42,1343.94 -61.54,414.44 -119.75,802.35 -158.68,1058.18 -23.87,154.41 72.94,302.56 221.49,344.63 770.21,217.63 1958.93,467.19 2980.7,468.32l9.07 0c2178.36,0.27 3969.27,-730.41 5212.6,-1935.07 1247.26,-1205.33 1949.47,-2886.04 1949.47,-4789.31l0 -4.6c-1.67,-761.35 -160.69,-1403.88 -279.57,-1750.18 -20,-57.21 -40.07,-107.82 -55,-146.55l-22.4 -49.74 -18.34 -37.21 -12.67 -28.8 -11 -25.6 0 -0.8 19 -28.47z"/>
   <path class="fil2" d="M13315.73 15369.15c0,297.37 -93.07,597.27 -286.69,850.69 -274.96,362.05 -692.41,552.33 -1112.85,552.52 -295.64,-0.19 -594.26,-93.13 -847.29,-287.42 -360.71,-276.1 -550.18,-694.41 -550.18,-1116.91 0,-297.43 93.6,-596.74 286.28,-850.1 276.23,-362.43 691.54,-552.45 1114.12,-552.45 295.64,0 594.59,93.61 847.63,288.03 346.43,265.02 548.98,680.28 548.98,1115.64zm-1396.61 -1555.62c-467.37,0 -928.15,211.22 -1235.26,612.05 -213.08,281.17 -316.43,612.73 -316.43,942.45 -0.34,467.58 209.62,932.02 609.85,1237.73 280.84,215.02 610.87,318.02 938.91,318.02 466.04,1.27 928.15,-210.49 1233.33,-611.93 213.74,-280.76 317.69,-613.72 317.69,-942.7 0.67,-467.31 -208.95,-930.37 -609.86,-1236.52 -268.66,-206.26 -599.58,-319.1 -938.23,-319.1z"/>
   <path class="fil1" d="M15878.39 13225.33l3126.12 -2121.29c82.88,-56.14 133.68,-148.48 135.42,-249.29 3.73,-100.08 -41.87,-194.83 -123.15,-255.57l-3036.04 -2290.44c-93.95,-71.41 -218.56,-82.54 -323.17,-29.87 -105.54,52.41 -171.68,159.42 -171.68,276.5l-3.94 873.62 -41.07 41.81c0.67,0 -2507.72,-2.07 -5158.33,-4 -2323.7,-2 -2283.3,-3.14 -3228.59,-3.27 -154.82,0 -286.7,114.61 -307.7,268.63l-923.03 2261.31c-12.4,89.34 15.14,178.88 74.08,246.29 59.07,66.87 143.88,105.68 233.29,105.68l396.44 0c485.78,0 1144.45,1.06 1838.85,1.06 1387.81,0.67 1059.44,1.14 1619.7,1.14 634.13,0 1108.98,100.27 1473.95,298.16 362.11,194.29 614.4,493.39 789.22,864.23 119.21,252.29 204.75,538.05 275.96,859.62l1.06 9.27 -8.13 25.87 -34 15.6 -2432.59 0c-163.88,0 -298.29,126.48 -308.43,289.9l-299.49 1721.25c-5.87,85.07 24.93,169.88 83.27,231.89 57.54,62.14 139.55,97.74 225.69,97.74l2400.18 0 36.27 21.34 4.53 20.53 -5.2 20.14c-358.17,628.66 -754.54,1156.72 -1288.93,1528.49 -528.65,370.51 -1193.52,583.66 -2070.21,584.93l-11.07 0c-711.81,-0.33 -1506.02,-177.29 -2184.76,-384.84 -86.8,-26.87 -180.41,-13.47 -257.16,35.6 -76.14,48.94 -126.28,129.22 -139.61,219.23 -49.87,364.97 -121.75,865.55 -192.42,1343.94 -61.54,414.44 -119.75,802.35 -158.68,1058.18 -23.87,154.41 72.94,302.56 221.49,344.63 770.21,217.63 1958.93,467.19 2980.7,468.32l9.07 0c2178.36,0.27 3969.27,-730.41 5212.6,-1935.07 1247.26,-1205.33 1949.47,-2886.04 1949.47,-4789.31l0 -4.6c-1.67,-761.35 -160.69,-1403.88 -279.57,-1750.18 -20,-57.21 -40.07,-107.82 -55,-146.55l-22.4 -49.74 -18.34 -37.21 -12.67 -28.8 -11 -25.6 0 -0.8 19 -28.47z"/>
  </g>
 </g>
</svg>
