<?xml version="1.0" encoding="UTF-8"?>
<!DOCTYPE svg PUBLIC "-//W3C//DTD SVG 1.1//EN" "http://www.w3.org/Graphics/SVG/1.1/DTD/svg11.dtd">
<!-- Creator: CorelDRAW 2020 (64-Bit) -->
<svg xmlns="http://www.w3.org/2000/svg" xml:space="preserve" width="95mm" height="7.5mm" version="1.1" style="shape-rendering:geometricPrecision; text-rendering:geometricPrecision; image-rendering:optimizeQuality; fill-rule:evenodd; clip-rule:evenodd"
viewBox="0 0 9500 750"
 xmlns:xlink="http://www.w3.org/1999/xlink"
 xmlns:xodm="http://www.corel.com/coreldraw/odm/2003">
 <defs>
  <style type="text/css">
   <![CDATA[
    .str0 {stroke:#2B2A29;stroke-width:7.62;stroke-miterlimit:22.9256}
    .fil0 {fill:#FEFEFE}
    .fil1 {fill:#E8474E;fill-rule:nonzero}
    .fil2 {fill:#393185;fill-rule:nonzero}
   ]]>
  </style>
 </defs>
 <g id="Слой_x0020_1">
  <metadata id="CorelCorpID_0Corel-Layer"/>
  <g id="_2494238610656">
   <path class="fil0 str0" d="M14.77 380.98c0,-207.08 194.1,-374.96 433.46,-374.96 5.71,0 11.41,0.18 17.12,0.33l30.04 0.87 0 -0.58 39.45 6.92c201.6,35.36 346.8,189.21 346.8,367.42 0,178.22 -145.17,332.14 -346.82,367.45l-39.43 6.93 0 -0.94 -29.57 1.2c-5.86,0.24 -11.73,0.35 -17.59,0.35 -239.39,0 -433.46,-167.89 -433.46,-374.99z"/>
   <path class="fil1" d="M47.66 380.98c0,191.4 179.36,346.53 400.56,346.53 5.34,0 10.7,-0.1 16.04,-0.32l0 -131.36 -16.04 0c-137.16,0 -248.32,-96.16 -248.32,-214.85 0,-118.67 111.16,-214.8 248.32,-214.8l16.04 0 0 -131.36c-5.34,-0.17 -10.7,-0.34 -16.04,-0.34 -221.2,0 -400.56,155.14 -400.56,346.5z"/>
   <path class="fil2" d="M528.3 41.46l0 180.13 -80.07 0c-101.79,0 -184.31,71.36 -184.31,159.4 0,88.06 82.52,159.39 184.31,159.39l80.07 0 0 180.17c182.9,-32.06 320.44,-171.88 320.44,-339.56 0,-167.64 -137.54,-307.45 -320.44,-339.53z"/>
   <path class="fil0 str0" d="M1449.93 6.05c105.92,0 239.82,34.13 318.16,98.74l22.12 18.26 -119.87 126.7 -25.66 -19.67c-49.59,-38 -130.14,-62.85 -195.87,-62.85 -149.02,0 -245.99,85.48 -245.99,213.77 0,131.75 95.5,213.81 248.21,213.81 71.66,0 158.27,-28.87 210.05,-72.39l26.93 -22.64 113.57 131.49 -19.28 17.45c-78.23,70.81 -222.24,107.25 -332.37,107.25 -259.12,0 -442.18,-149.42 -442.18,-374.97 0,-223.73 185.37,-374.95 442.18,-374.95zm780.89 -0.02c250.12,0 437.8,157.6 437.8,374.96 0,217.38 -187.67,374.98 -437.8,374.98 -250.12,0 -437.8,-157.61 -437.8,-374.98 0,-217.36 187.7,-374.96 437.8,-374.96zm0 588.78c142.1,0 242.76,-91.9 242.76,-213.82 0,-121.91 -100.67,-213.77 -242.76,-213.77 -142.08,0 -242.75,91.86 -242.75,213.77 0,121.92 100.66,213.82 242.75,213.82zm1137.15 -235.05c66.23,32.8 104.76,86.44 104.76,160.37 0,147.17 -131.01,220.7 -292.25,220.7l-441.1 0 0 -719.65 417.01 0c142.09,0 278.06,73.3 278.06,205.53 0,53.94 -25.04,98.04 -66.48,133.05zm-436.81 -177.41l0 118.88 209.77 -0.83c45.99,-0.18 98.48,-15.96 98.48,-62.35 0,-40.42 -39.98,-55.7 -81.92,-55.7l-226.33 0zm0 274.52l0 122.77 256.96 0c47.93,0 89.57,-14.55 89.57,-60.43 0,-44.41 -40.09,-62.34 -87.38,-62.34l-259.15 0zm1055.72 -85.88l367.07 369.84 -254.43 0 -283.39 -289.66 -97.27 0 0 289.66 -191.75 0 0 -719.65 191.75 0 0 273.56 97.59 0 276.82 -273.56 256.21 0 -362.6 349.81zm683.71 -364.96c250.1,0 437.77,157.62 437.77,374.96 0,217.37 -187.65,374.98 -437.77,374.98 -250.14,0 -437.8,-157.6 -437.8,-374.98 0,-217.37 187.68,-374.96 437.8,-374.96zm0 588.78c142.09,0 242.74,-91.9 242.74,-213.82 0,-121.9 -100.67,-213.77 -242.74,-213.77 -142.09,0 -242.75,91.86 -242.75,213.77 0,121.92 100.64,213.82 242.75,213.82zm1214.25 -289.06l-202.16 233.45 -109.59 0 -202.17 -233.45 0 435.08 -191.77 0 0 -719.65 170.92 0 277.8 320.79 277.83 -320.79 170.91 0 0 719.65 -191.77 0 0 -435.08zm487.13 -123.4l0 109.54 248.23 0c159.4,0 293.37,77.68 293.37,223.52 0,141.39 -127.02,225.42 -284.61,225.42l-448.75 0 0 -719.65 662.25 0 0 161.17 -470.49 0zm0 270.71l0 126.58 251.51 0c48.75,0 93.95,-15.5 93.95,-63.29 0,-46.99 -45.3,-63.29 -93.95,-63.29l-251.51 0zm1102.95 122.11l-318.9 0 -83.17 165.66 -209.75 0 361.28 -719.65 182.18 0 361.26 719.65 -209.76 0 -83.14 -165.66zm-241.06 -156.44l163.37 0 -81.34 -163.61 -82.03 163.61zm1112.62 38.14l-377.19 0 0 283.96 -191.74 0 0 -719.65 191.74 0 0 274.49 377.19 0 0 -274.49 191.77 0 0 719.65 -191.77 0 0 -283.96zm755.13 -85.88l367.09 369.84 -254.45 0 -283.37 -289.66 -97.27 0 0 289.66 -191.75 0 0 -719.65 191.75 0 0 273.56 97.59 0 276.81 -273.56 256.21 0 -362.61 349.81z"/>
   <path class="fil2" d="M1449.92 34.57c136.78,0 248.36,52.06 295.41,90.88l-78.79 83.28c-38.27,-29.34 -122.52,-70.02 -217.72,-70.02 -171.78,0 -278.98,102.21 -278.98,242.29 0,140.09 101.74,242.33 281.19,242.33 103.93,0 193.64,-47.35 233.04,-80.46l74.39 86.14c-47.04,42.59 -164.11,98.43 -308.54,98.43 -252.74,0 -409.21,-146.7 -409.21,-346.44 0,-199.71 160.85,-346.43 409.21,-346.43z"/>
   <path class="fil2" d="M2230.82 623.32c158.66,0 275.72,-103.17 275.72,-242.32 0,-139.14 -117.06,-242.31 -275.72,-242.31 -158.64,0 -275.72,103.17 -275.72,242.31 0,139.15 117.08,242.32 275.72,242.32zm0 -588.76c234.14,0 404.82,146.73 404.82,346.44 0,199.73 -170.68,346.45 -404.82,346.45 -234.14,0 -404.82,-146.72 -404.82,-346.45 0,-199.71 170.68,-346.44 404.82,-346.44z"/>
   <path class="fil2" d="M3188.12 608.17c88.61,0 122.55,-42.61 122.55,-88.97 0,-50.18 -40.48,-90.88 -120.36,-90.88l-292.12 0 0 179.85 289.93 0zm-289.93 -454.34l0 176.06 242.9 -0.96c86.43,0 131.28,-41.64 131.28,-90.87 0,-45.42 -38.3,-84.23 -114.87,-84.23l-259.31 0zm541.58 366.32c0,97.49 -72.21,192.14 -259.29,192.14l-408.12 0 0 -662.58 384.03 0c155.36,0 245.09,83.3 245.09,177 0,53.01 -28.44,101.28 -96.28,140.08 68.93,19.9 134.57,62.48 134.57,153.36z"/>
   <polygon class="fil2" points="3943.01,370.59 4282.18,712.29 4114.81,712.29 3831.4,422.66 3685.89,422.66 3685.89,712.29 3560.08,712.29 3560.08,49.71 3685.89,49.71 3685.89,323.27 3831.4,323.27 4108.23,49.71 4275.62,49.71 "/>
   <path class="fil2" d="M4670.58 623.32c158.63,0 275.73,-103.17 275.73,-242.32 0,-139.14 -117.1,-242.31 -275.73,-242.31 -158.65,0 -275.72,103.17 -275.72,242.31 0,139.15 117.07,242.32 275.72,242.32zm0 -588.76c234.15,0 404.81,146.73 404.81,346.44 0,199.73 -170.66,346.45 -404.81,346.45 -234.15,0 -404.82,-146.72 -404.82,-346.45 0,-199.71 170.67,-346.44 404.82,-346.44z"/>
   <polygon class="fil2" points="5922.19,49.71 6043.65,49.71 6043.65,712.29 5917.82,712.29 5917.82,220.09 5666.17,510.68 5589.59,510.68 5337.95,220.09 5337.95,712.29 5212.12,712.29 5212.12,49.71 5333.57,49.71 5627.87,389.53 "/>
   <path class="fil2" d="M6623.47 608.17c87.53,0 126.94,-41.64 126.94,-91.82 0,-49.22 -39.41,-91.8 -126.94,-91.8l-284.47 0 0 183.62 284.47 0zm-3.27 -287.76c168.47,0 260.4,85.19 260.4,195 0,109.8 -91.93,196.88 -251.64,196.88l-415.77 0 0 -662.58 596.29 0 0 104.12 -470.48 0 0 166.58 281.2 0z"/>
   <path class="fil2" d="M7183.62 447.26l263.67 0 -131.27 -264.08 -132.4 264.08zm396.07 265.03l-83.14 -165.64 -362.16 0 -83.16 165.64 -137.86 0 332.63 -662.58 138.94 0 332.62 662.58 -137.87 0z"/>
   <polygon class="fil2" points="8379.45,49.71 8505.29,49.71 8505.29,712.29 8379.45,712.29 8379.45,428.32 7936.32,428.32 7936.32,712.29 7810.51,712.29 7810.51,49.71 7936.32,49.71 7936.32,324.21 8379.45,324.21 "/>
   <polygon class="fil2" points="9057.76,370.59 9396.93,712.29 9229.54,712.29 8946.17,422.66 8800.64,422.66 8800.64,712.29 8674.83,712.29 8674.83,49.71 8800.64,49.71 8800.64,323.27 8946.17,323.27 9222.97,49.71 9390.36,49.71 "/>
  </g>
 </g>
</svg>
