<?xml version="1.0" encoding="UTF-8"?>
<!DOCTYPE svg PUBLIC "-//W3C//DTD SVG 1.1//EN" "http://www.w3.org/Graphics/SVG/1.1/DTD/svg11.dtd">
<!-- Creator: CorelDRAW 2020 (64-Bit) -->
<svg xmlns="http://www.w3.org/2000/svg" xml:space="preserve" width="160px" height="160px" version="1.1" style="shape-rendering:geometricPrecision; text-rendering:geometricPrecision; image-rendering:optimizeQuality; fill-rule:evenodd; clip-rule:evenodd"
viewBox="0 0 160 160"
 xmlns:xlink="http://www.w3.org/1999/xlink"
 xmlns:xodm="http://www.corel.com/coreldraw/odm/2003">
 <defs>
  <style type="text/css">
   <![CDATA[
    .fil0 {fill:none}
    .fil1 {fill:#E8474E;fill-rule:nonzero}
    .fil2 {fill:#393185;fill-rule:nonzero}
   ]]>
  </style>
 </defs>
 <g id="Слой_x0020_1">
  <metadata id="CorelCorpID_0Corel-Layer"/>
  <rect class="fil0" width="160" height="160"/>
  <path class="fil1" d="M5.52 80c0,3.51 2.85,6.36 6.36,6.36 0.08,0 0.17,-0.01 0.25,-0.01l0 -2.41 -0.25 0c-2.18,0 -3.94,-1.76 -3.94,-3.94 0,-2.18 1.76,-3.94 3.94,-3.94l0.25 0 0 -2.41c-0.08,0 -0.17,-0.01 -0.25,-0.01 -3.51,0 -6.36,2.85 -6.36,6.36z"/>
  <path class="fil2" d="M13.15 73.77l0 3.31 -1.27 0c-1.62,0 -2.93,1.31 -2.93,2.92 0,1.61 1.31,2.92 2.93,2.92l1.27 0 0 3.31c2.9,-0.59 5.08,-3.15 5.08,-6.23 0,-3.07 -2.18,-5.64 -5.08,-6.23z"/>
  <path class="fil2" d="M27.77 73.65c2.17,0 3.94,0.95 4.69,1.66l-1.25 1.53c-0.61,-0.54 -1.95,-1.28 -3.46,-1.28 -2.72,0 -4.42,1.87 -4.42,4.44 0,2.57 1.61,4.44 4.46,4.44 1.65,0 3.07,-0.86 3.7,-1.47l1.18 1.58c-0.75,0.78 -2.61,1.8 -4.9,1.8 -4.01,0 -6.49,-2.69 -6.49,-6.35 0,-3.66 2.55,-6.35 6.49,-6.35z"/>
  <path class="fil2" d="M40.16 84.44c2.52,0 4.37,-1.89 4.37,-4.44 0,-2.55 -1.85,-4.44 -4.37,-4.44 -2.52,0 -4.37,1.89 -4.37,4.44 0,2.55 1.85,4.44 4.37,4.44zm0 -10.79c3.72,0 6.42,2.69 6.42,6.35 0,3.66 -2.7,6.35 -6.42,6.35 -3.71,0 -6.42,-2.69 -6.42,-6.35 0,-3.66 2.71,-6.35 6.42,-6.35z"/>
  <path class="fil2" d="M55.35 84.17c1.41,0 1.94,-0.78 1.94,-1.64 0,-0.92 -0.64,-1.66 -1.91,-1.66l-4.63 0 0 3.3 4.6 0zm-4.6 -8.34l0 3.23 3.85 -0.02c1.38,0 2.09,-0.76 2.09,-1.66 0,-0.83 -0.61,-1.55 -1.83,-1.55l-4.11 0zm8.59 6.72c0,1.79 -1.14,3.53 -4.11,3.53l-6.48 0 0 -12.16 6.1 0c2.46,0 3.89,1.53 3.89,3.25 0,0.97 -0.46,1.86 -1.53,2.57 1.09,0.36 2.13,1.15 2.13,2.81z"/>
  <polygon class="fil2" points="67.33,79.81 72.71,86.08 70.05,86.08 65.56,80.76 63.25,80.76 63.25,86.08 61.25,86.08 61.25,73.92 63.25,73.92 63.25,78.94 65.56,78.94 69.95,73.92 72.6,73.92 "/>
  <path class="fil2" d="M78.87 84.44c2.52,0 4.38,-1.89 4.38,-4.44 0,-2.55 -1.86,-4.44 -4.38,-4.44 -2.52,0 -4.37,1.89 -4.37,4.44 0,2.55 1.85,4.44 4.37,4.44zm0 -10.79c3.72,0 6.42,2.69 6.42,6.35 0,3.66 -2.7,6.35 -6.42,6.35 -3.71,0 -6.42,-2.69 -6.42,-6.35 0,-3.66 2.71,-6.35 6.42,-6.35z"/>
  <polygon class="fil2" points="98.73,73.92 100.66,73.92 100.66,86.08 98.66,86.08 98.66,77.05 94.67,82.38 93.45,82.38 89.46,77.05 89.46,86.08 87.46,86.08 87.46,73.92 89.39,73.92 94.06,80.16 "/>
  <path class="fil2" d="M109.86 84.17c1.39,0 2.01,-0.77 2.01,-1.69 0,-0.9 -0.62,-1.68 -2.01,-1.68l-4.52 0 0 3.37 4.52 0zm-0.05 -5.28c2.67,0 4.13,1.56 4.13,3.57 0,2.02 -1.46,3.62 -4,3.62l-6.59 0 0 -12.16 9.46 0 0 1.91 -7.47 0 0 3.06 4.47 0z"/>
  <path class="fil2" d="M118.74 81.22l4.19 0 -2.08 -4.85 -2.11 4.85zm6.29 4.86l-1.32 -3.04 -5.75 0 -1.32 3.04 -2.18 0 5.27 -12.16 2.21 0 5.28 12.16 -2.19 0z"/>
  <polygon class="fil2" points="137.72,73.92 139.71,73.92 139.71,86.08 137.72,86.08 137.72,80.87 130.69,80.87 130.69,86.08 128.69,86.08 128.69,73.92 130.69,73.92 130.69,78.96 137.72,78.96 "/>
  <polygon class="fil2" points="148.48,79.81 153.86,86.08 151.21,86.08 146.71,80.76 144.4,80.76 144.4,86.08 142.41,86.08 142.41,73.92 144.4,73.92 144.4,78.94 146.71,78.94 151.1,73.92 153.76,73.92 "/>
 </g>
</svg>
