<?xml version="1.0" encoding="UTF-8"?>
<!DOCTYPE svg PUBLIC "-//W3C//DTD SVG 1.1//EN" "http://www.w3.org/Graphics/SVG/1.1/DTD/svg11.dtd">
<!-- Creator: CorelDRAW 2020 (64-Bit) -->
<svg xmlns="http://www.w3.org/2000/svg" xml:space="preserve" width="160px" height="160px" version="1.1" style="shape-rendering:geometricPrecision; text-rendering:geometricPrecision; image-rendering:optimizeQuality; fill-rule:evenodd; clip-rule:evenodd"
viewBox="0 0 160 160"
 xmlns:xlink="http://www.w3.org/1999/xlink"
 xmlns:xodm="http://www.corel.com/coreldraw/odm/2003">
 <defs>
  <style type="text/css">
   <![CDATA[
    .fil0 {fill:none}
    .fil1 {fill:#007175;fill-rule:nonzero}
   ]]>
  </style>
 </defs>
 <g id="Слой_x0020_1">
  <metadata id="CorelCorpID_0Corel-Layer"/>
  <rect class="fil0" width="160" height="160"/>
  <g id="_2324412695872">
   <path class="fil1" d="M107.84 100.08l-8.8 0 9.81 -21.42 8.8 0 -1.9 4.16c12.2,-8.24 14.94,-4.37 13.76,0.08 13.73,-9.32 15.59,-3.4 13.33,1.56l-4.58 9.82 0 0c-0.76,1.68 -2.06,4.24 6.74,-0.01 -15.74,11.49 -17.91,5.23 -15.54,0.01l0 0 0 -0.01 0 0 0 0 4.57 -9.81c0.7,-1.53 1.86,-3.83 -4.71,-0.94 -0.11,0.32 -0.23,0.63 -0.37,0.94l-7.22 15.62 -8.8 0 7.22 -15.62c0.7,-1.53 1.86,-3.83 -4.73,-0.93l-7.58 16.55z"/>
   <path class="fil1" d="M94.27 94.28l0 0c-0.76,1.68 -2.05,4.24 6.74,-0.01 -15.74,11.49 -17.91,5.22 -15.53,0l0 0 5.39 -11.62 8.8 0 -5.4 11.63z"/>
   <path class="fil1" d="M102.02 76.48c-0.78,2.08 -3.59,3.76 -6.27,3.76 -2.67,0 -4.21,-1.68 -3.43,-3.76 0.78,-2.08 3.59,-3.76 6.27,-3.76 2.67,0 4.21,1.68 3.43,3.76z"/>
   <path class="fil1" d="M44.33 94.15l6.36 -15.39c-13.77,4.33 -28.62,10.05 -45.69,17.59 16.31,-9.34 32.19,-16.32 47.32,-21.53l5.79 -13.99 8.8 0 -4.43 10.72c38.36,-11.53 71.13,-12.09 92.52,-12.29l-7.35 6.77c-33.04,0 -58.15,1.86 -86.93,9.78l-7.59 18.34 0 0c-0.77,1.68 1.03,4.26 9.84,0 -15.75,11.5 -21.02,5.22 -18.65,0l0.01 0z"/>
   <path class="fil1" d="M69.82 100.08l-8.8 0 9.81 -21.41 8.8 0 -0.88 1.91c10.17,-5.85 10.88,-0.6 8.84,3.87l-0.01 0 -0.78 1.9 -8.07 -0.01 1.31 -2.78c0.37,-1.01 0.34,-1.89 -2.11,-1.19l-8.11 17.71z"/>
  </g>
 </g>
</svg>
